<svg width="24" height="24" fill="none" xmlns="http://www.w3.org/2000/svg">
    <path d="M20.763 12.508c.394-.52.612-1.157.612-1.82 0-1.053-.588-2.05-1.535-2.605a1.586 1.586 0 0 0-.804-.218h-5.62l.14-2.88a2.509 2.509 0 0 0-.691-1.861 2.498 2.498 0 0 0-1.826-.783c-1.219 0-2.297.82-2.62 1.995l-2.014 7.289h-.007v10.031h11.07c.216 0 .427-.042.621-.127a3.014 3.014 0 0 0 1.709-3.642 3.016 3.016 0 0 0 .485-2.688c.394-.52.611-1.158.611-1.821a3.2 3.2 0 0 0-.13-.87Zm-18.138-.133v8.531c0 .415.335.75.75.75h1.523V11.625H3.375a.75.75 0 0 0-.75.75Z" fill="#42494D"/>
</svg>
