<svg width="24" height="24" fill="none" xmlns="http://www.w3.org/2000/svg">
    <path d="M3.937 11.817A8.045 8.045 0 0 1 6.295 6.3a8.021 8.021 0 0 1 5.702-2.362A8.005 8.005 0 0 1 17.696 6.3c.232.232.45.478.652.736l-1.411 1.101a.187.187 0 0 0 .07.331l4.118 1.008a.188.188 0 0 0 .232-.18l.019-4.24a.186.186 0 0 0-.302-.148L19.75 5.94a9.817 9.817 0 0 0-7.756-3.785c-5.37 0-9.738 4.303-9.839 9.652a.188.188 0 0 0 .188.192H3.75a.187.187 0 0 0 .187-.183Zm17.72.183H20.25a.187.187 0 0 0-.188.183 8.006 8.006 0 0 1-.63 2.953 8.018 8.018 0 0 1-1.727 2.564 8.026 8.026 0 0 1-5.703 2.363 8.023 8.023 0 0 1-6.351-3.099l1.41-1.101a.187.187 0 0 0-.07-.331l-4.118-1.008a.188.188 0 0 0-.232.18l-.016 4.243c0 .157.18.246.302.148L4.25 18.06a9.822 9.822 0 0 0 7.756 3.783c5.371 0 9.738-4.306 9.839-9.652a.189.189 0 0 0-.115-.177.188.188 0 0 0-.073-.015Z" fill="#42494D"/>
</svg>
