<svg width="24" height="24" fill="none" xmlns="http://www.w3.org/2000/svg">
    <path d="m20.318 3.982-7.964-2.714a1.153 1.153 0 0 0-.354-.05c-.129 0-.258.017-.354.05L3.682 3.982a.562.562 0 0 0-.354.497v11.306c0 .206.134.478.295.607l8.08 6.296a.485.485 0 0 0 .295.096.48.48 0 0 0 .295-.096l8.079-6.296a.872.872 0 0 0 .295-.607V4.48a.552.552 0 0 0-.349-.497Zm-1.334 11.353L12 20.777l-6.984-5.442V5.313L12 2.932l6.984 2.381v10.022Z" fill="#F85A00"/>
    <path d="M10.798 10.573a1.877 1.877 0 1 0 3.754 0 1.877 1.877 0 0 0-3.754 0Z" fill="#F85A00" fill-opacity=".05"/>
    <path d="M5.016 5.314v10.021L12 20.779l6.984-5.442V5.313L12 2.932 5.016 5.314Zm10.047 2.87a3.377 3.377 0 0 1-4.186 5.248L9.061 15.25a.188.188 0 0 1-.265 0L8 14.452a.188.188 0 0 1 0-.265l1.817-1.816a3.377 3.377 0 0 1 5.247-4.186Z" fill="#F85A00" fill-opacity=".05"/>
    <path d="M9.815 12.37 8 14.188a.188.188 0 0 0 0 .265l.797.797a.188.188 0 0 0 .264 0l1.817-1.817a3.377 3.377 0 1 0-1.062-1.061Zm1.533-3.124a1.877 1.877 0 1 1 2.655 2.654 1.877 1.877 0 0 1-2.655-2.654Z" fill="#F85A00"/>
</svg>
