<svg width="24" height="24" fill="none" xmlns="http://www.w3.org/2000/svg">
    <path d="m6 17.447 6 2.182 6-2.182V4.313H6v13.134ZM8.43 7.336a.175.175 0 0 1 .09-.024h1.305a.187.187 0 0 1 .166.104l1.986 3.956h.077l1.985-3.956a.185.185 0 0 1 .167-.104h1.277c.103 0 .187.085.19.186 0 .03-.01.06-.024.089l-2.43 4.49h1.35c.103 0 .187.085.187.188v.635a.188.188 0 0 1-.187.188H12.78v.914h1.789c.103 0 .187.084.187.187v.635a.188.188 0 0 1-.187.188H12.78V16.5a.188.188 0 0 1-.187.188h-1.17a.188.188 0 0 1-.187-.188v-1.486H9.455a.188.188 0 0 1-.188-.187v-.636c0-.103.085-.187.188-.187h1.78v-.914h-1.78a.188.188 0 0 1-.188-.188v-.635c0-.103.085-.187.188-.187h1.336L8.355 7.59a.186.186 0 0 1 .075-.254Z" fill="#F85A00" fill-opacity=".05"/>
    <path d="M21.363 16.423a.188.188 0 0 0-.241-.113l-1.434.523V4.219c0-.882-.713-1.594-1.594-1.594H5.906c-.881 0-1.593.712-1.593 1.594v12.614l-1.437-.523a.2.2 0 0 0-.063-.012.188.188 0 0 0-.188.188v1.397c0 .077.05.148.124.176l8.993 3.271c.167.061.347.061.513 0l8.996-3.27a.189.189 0 0 0 .124-.175v-1.397a.204.204 0 0 0-.012-.065ZM18 17.447l-6 2.182-6-2.182V4.313h12v13.134Z" fill="#F85A00"/>
    <path d="M10.79 12.08H9.454a.188.188 0 0 0-.187.187v.635c0 .104.084.188.187.188h1.782v.914H9.454a.188.188 0 0 0-.187.187v.636c0 .103.084.187.187.187h1.782V16.5c0 .103.084.188.187.188h1.17a.188.188 0 0 0 .187-.188v-1.488h1.788a.188.188 0 0 0 .188-.188v-.635a.188.188 0 0 0-.188-.187H12.78v-.915h1.788a.188.188 0 0 0 .188-.187v-.635a.188.188 0 0 0-.188-.188h-1.35l2.43-4.49a.201.201 0 0 0 .024-.09.191.191 0 0 0-.19-.184h-1.277c-.07 0-.136.04-.166.103l-1.985 3.956h-.078L9.991 7.416a.187.187 0 0 0-.166-.104H8.519c-.03 0-.06.008-.089.024a.186.186 0 0 0-.075.253l2.435 4.49Z" fill="#F85A00"/>
</svg>
