<svg width="24" height="24" fill="none" xmlns="http://www.w3.org/2000/svg">
    <path d="M12 1.5C6.202 1.5 1.5 6.202 1.5 12S6.202 22.5 12 22.5 22.5 17.798 22.5 12 17.798 1.5 12 1.5Zm0 19.219A8.72 8.72 0 0 1 3.281 12 8.72 8.72 0 0 1 12 3.281 8.72 8.72 0 0 1 20.719 12 8.72 8.72 0 0 1 12 20.719Z" fill="#F85A00"/>
    <path d="M12 3.281A8.72 8.72 0 0 0 3.281 12 8.72 8.72 0 0 0 12 20.719 8.72 8.72 0 0 0 20.719 12 8.72 8.72 0 0 0 12 3.281ZM6.75 9.867a1.125 1.125 0 0 1 2.25 0 1.125 1.125 0 0 1-2.25 0Zm9 4.688a.188.188 0 0 1-.188.187H8.439a.188.188 0 0 1-.188-.187V13.43c0-.103.084-.188.188-.188h7.124c.104 0 .188.085.188.188v1.125Zm.375-3.563a1.125 1.125 0 0 1 0-2.25 1.125 1.125 0 0 1 0 2.25Z" fill="#F85A00" fill-opacity=".05"/>
    <path d="M6.75 9.867a1.125 1.125 0 1 0 2.25 0 1.125 1.125 0 0 0-2.25 0Zm8.813 3.375H8.436a.188.188 0 0 0-.187.188v1.125c0 .103.084.187.188.187h7.124a.188.188 0 0 0 .188-.187V13.43a.188.188 0 0 0-.188-.188ZM15 9.867a1.125 1.125 0 1 0 2.25 0 1.125 1.125 0 0 0-2.25 0Z" fill="#F85A00"/>
</svg>
