<svg width="24" height="24" fill="none" xmlns="http://www.w3.org/2000/svg">
    <path d="M8.016 11.063h8.015c.01 0 .021 0 .03-.003a.187.187 0 0 0 .155-.216l-.942-5.812a.186.186 0 0 0-.185-.157H8.958a.187.187 0 0 0-.185.157l-.943 5.813c-.002.009-.002.02-.002.03 0 .103.084.188.188.188Zm2.137-4.594h3.738l.486 3H9.666l.487-3Zm.059 6.625a.186.186 0 0 0-.185-.156H3.895a.187.187 0 0 0-.185.156l-.942 5.813c-.002.01-.002.021-.002.03 0 .104.084.188.187.188h8.016c.01 0 .02 0 .03-.002a.187.187 0 0 0 .155-.216l-.942-5.813Zm-5.607 4.437.486-3h3.738l.485 3H4.605Zm16.627 1.376-.942-5.813a.186.186 0 0 0-.185-.156h-6.132a.186.186 0 0 0-.185.156l-.942 5.813c-.002.01-.002.021-.002.03 0 .104.084.188.187.188h8.016c.01 0 .021 0 .03-.002a.188.188 0 0 0 .155-.216Zm-6.548-1.376.485-3h3.738l.485 3h-4.708Z" fill="#42494D"/>
</svg>
