<svg width="24" height="24" fill="none" xmlns="http://www.w3.org/2000/svg">
    <path d="M20.03 6.764 14.986 1.72a.749.749 0 0 0-.53-.22H4.5a.75.75 0 0 0-.75.75v19.5c0 .415.335.75.75.75h15a.75.75 0 0 0 .75-.75V7.296c0-.2-.08-.391-.22-.532Zm-1.51.877h-4.41V3.23l4.41 4.41Zm.043 13.171H5.438V3.188h7.078V8.25a.984.984 0 0 0 .984.984h5.063v11.579Zm-5.813-9.75a.188.188 0 0 0-.188-.187h-1.124a.188.188 0 0 0-.188.188v2.53H8.719a.188.188 0 0 0-.188.188v1.125c0 .103.085.188.188.188h2.531v2.531c0 .103.084.188.188.188h1.124a.188.188 0 0 0 .188-.188v-2.531h2.531a.188.188 0 0 0 .188-.188v-1.125a.188.188 0 0 0-.188-.187H12.75v-2.531Z" fill="#42494D"/>
</svg>
