<svg width="24" height="24" fill="none" xmlns="http://www.w3.org/2000/svg">
    <path d="M6.455 9.938H3.422v4.124h3.033l.422.275 6.857 4.483V5.18l-6.86 4.483-.42.274Z" fill="#F85A00" fill-opacity=".05"/>
    <path d="M20.909 17.292 18.323 15.8a.372.372 0 0 0-.508.139l-.467.808a.375.375 0 0 0 .136.511l2.585 1.493a.373.373 0 0 0 .51-.138l.465-.809a.377.377 0 0 0-.135-.51Zm.982-6.136h-3a.376.376 0 0 0-.375.375v.938c0 .206.168.375.375.375h3a.376.376 0 0 0 .375-.375v-.938a.376.376 0 0 0-.375-.375Zm-4.078-3.094a.373.373 0 0 0 .508.139l2.585-1.493a.375.375 0 0 0 .136-.511l-.464-.806a.373.373 0 0 0-.508-.139l-2.586 1.493a.375.375 0 0 0-.136.511l.465.806ZM14.67 2.696a.723.723 0 0 0-.408.125L5.953 8.25H2.11a.376.376 0 0 0-.375.375v6.75c0 .206.17.375.375.375h3.844l8.309 5.43a.747.747 0 0 0 1.16-.628V3.448a.751.751 0 0 0-.753-.753Zm-.936 16.125-6.857-4.483-.422-.274H3.422V9.936h3.033l.42-.274 6.86-4.483v13.64Z" fill="#F85A00"/>
</svg>
