<svg width="24" height="24" fill="none" xmlns="http://www.w3.org/2000/svg">
    <path d="M4.313 19.688h12.375V7.313H4.313v12.375ZM7.03 12.89h6.938v1.5H7.03v-1.5Z" fill="#F85A00" fill-opacity=".05"/>
    <path d="M20.625 2.625H6.187A.188.188 0 0 0 6 2.813v1.312c0 .103.084.188.188.188h13.5v13.5c0 .103.084.187.187.187h1.313a.188.188 0 0 0 .187-.188V3.376a.75.75 0 0 0-.75-.75Z" fill="#F85A00"/>
    <path d="M17.625 5.625H3.375a.75.75 0 0 0-.75.75v14.25c0 .415.335.75.75.75h14.25a.75.75 0 0 0 .75-.75V6.375a.75.75 0 0 0-.75-.75Zm-.938 14.063H4.313V7.313h12.375v12.375Z" fill="#F85A00"/>
    <path d="M7.031 12.89h6.938v1.5H7.03v-1.5Z" fill="#F85A00"/>
</svg>
