<svg width="24" height="24" fill="none" xmlns="http://www.w3.org/2000/svg">
    <path d="M12 1.5C6.202 1.5 1.5 6.202 1.5 12S6.202 22.5 12 22.5 22.5 17.798 22.5 12 17.798 1.5 12 1.5Zm0 19.219A8.72 8.72 0 0 1 3.281 12 8.72 8.72 0 0 1 12 3.281 8.72 8.72 0 0 1 20.719 12 8.72 8.72 0 0 1 12 20.719Zm3.234-4.917h-4.223v-.11c.642-.404 1.029-1.182 1.029-2.136 0-.33-.052-.654-.124-.96h2.31a.188.188 0 0 0 .188-.188v-.703a.188.188 0 0 0-.187-.188h-2.625c-.17-.53-.315-1.07-.315-1.652 0-1.02.797-1.645 2.047-1.645.504 0 .996.096 1.415.246a.186.186 0 0 0 .249-.178v-.926a.19.19 0 0 0-.122-.176 4.733 4.733 0 0 0-1.648-.298c-2.177 0-3.55 1.043-3.55 2.82 0 .616.161 1.219.341 1.807H8.767a.188.188 0 0 0-.188.187v.704c0 .103.085.187.188.187h1.572c.08.345.139.689.139 1.036 0 1.06-.675 1.952-1.707 2.208a.188.188 0 0 0-.143.183v.902c0 .103.085.187.188.187h6.42a.188.188 0 0 0 .187-.187v-.933a.188.188 0 0 0-.188-.187Z" fill="#42494D"/>
</svg>
