<svg width="24" height="24" fill="none" xmlns="http://www.w3.org/2000/svg">
    <path d="M7.031 7.688a1.406 1.406 0 1 0 2.813 0 1.406 1.406 0 0 0-2.813 0ZM19.97 1.5H4.03a.75.75 0 0 0-.75.75v15.469c0 .415.335.75.75.75H19.97a.75.75 0 0 0 .75-.75V2.25a.75.75 0 0 0-.75-.75Zm-.75 15.469H4.78V3H19.22v13.969Zm-5.063-9.282a1.406 1.406 0 1 0 2.813 0 1.406 1.406 0 0 0-2.813 0ZM20.02 20.72H3.98c-.387 0-.699.335-.699.75v.843c0 .104.078.188.174.188h17.088c.096 0 .173-.084.173-.188v-.843c.003-.415-.309-.75-.696-.75Zm-4.457-8.813H8.436a.188.188 0 0 0-.187.188V13.5c0 .103.084.188.188.188h7.124a.188.188 0 0 0 .188-.188v-1.406a.188.188 0 0 0-.188-.188Z" fill="#42494D"/>
</svg>
