<svg width="24" height="24" fill="none" xmlns="http://www.w3.org/2000/svg">
    <path d="M19.5 1.5h-15a.75.75 0 0 0-.75.75v19.5c0 .415.335.75.75.75h15a.75.75 0 0 0 .75-.75V2.25a.75.75 0 0 0-.75-.75Zm-.938 19.313H5.438V4.526l6.101 4.783a.75.75 0 0 0 .926 0l6.098-4.783v16.287Zm0-17.61h-.742L12 7.766 6.18 3.204h-.742v-.017h13.125v.017Z" fill="#F85A00"/>
    <path d="m11.538 9.31-6.1-4.784v16.287h13.125V4.526L12.463 9.31a.75.75 0 0 1-.926 0Zm2.33 1.427h1.12a.197.197 0 0 1 .197.193.198.198 0 0 1-.023.098L13.118 14.8h1.076c.108 0 .197.09.197.197v.588a.198.198 0 0 1-.197.197H12.71v.67h1.484c.108 0 .197.09.197.197v.586a.19.19 0 0 1-.193.2h-1.483v1.169a.198.198 0 0 1-.197.197h-1.024a.198.198 0 0 1-.197-.197v-1.17H9.82a.198.198 0 0 1-.197-.196v-.589c0-.107.09-.197.197-.197h1.477v-.67H9.82a.198.198 0 0 1-.197-.197v-.588c0-.108.09-.197.197-.197h1.064l-2.048-3.776a.196.196 0 0 1 .171-.29h1.144c.075 0 .143.042.176.107l1.68 3.329 1.685-3.326a.202.202 0 0 1 .176-.108Z" fill="#F85A00" fill-opacity=".05"/>
    <path d="M5.438 3.204h.742L12 7.764l5.82-4.56h.742v-.017H5.438v.017Z" fill="#F85A00" fill-opacity=".05"/>
    <path d="M10.326 10.842a.195.195 0 0 0-.176-.108H9.007a.198.198 0 0 0-.194.217c.002.026.01.051.022.074l2.049 3.776H9.82a.198.198 0 0 0-.197.197v.588c0 .108.089.197.197.197h1.476v.67H9.82a.198.198 0 0 0-.197.197v.588c0 .108.089.197.197.197h1.476v1.17c0 .107.09.197.197.197h1.024a.198.198 0 0 0 .197-.197v-1.17h1.484a.19.19 0 0 0 .192-.2v-.585a.198.198 0 0 0-.197-.197H12.71v-.67h1.483c.108 0 .197-.09.197-.197v-.588a.198.198 0 0 0-.197-.197h-1.076l2.044-3.774a.197.197 0 0 0-.173-.29h-1.12a.202.202 0 0 0-.176.107l-1.685 3.326-1.681-3.328Z" fill="#F85A00"/>
</svg>
