<svg width="24" height="24" fill="none" xmlns="http://www.w3.org/2000/svg">
    <path d="M19.5 1.5h-15a.75.75 0 0 0-.75.75V7.5h16.5V2.25a.75.75 0 0 0-.75-.75Zm-8.813 3.563a.188.188 0 0 1-.187.187H6.187A.188.188 0 0 1 6 5.062V3.938c0-.103.084-.187.188-.187H10.5c.103 0 .188.084.188.188v1.124ZM3.75 21.75c0 .415.335.75.75.75h15a.75.75 0 0 0 .75-.75V16.5H3.75v5.25Zm13.5-3.188a.937.937 0 1 1 0 1.875.937.937 0 0 1 0-1.875ZM3.75 15h16.5V9H3.75v6ZM6 11.437c0-.103.084-.187.188-.187H10.5c.103 0 .188.084.188.188v1.124a.188.188 0 0 1-.188.188H6.187A.188.188 0 0 1 6 12.562v-1.124Z" fill="#42494D"/>
</svg>
