<svg width="24" height="24" fill="none" xmlns="http://www.w3.org/2000/svg">
    <path d="M2.813 3.75H1.687a.188.188 0 0 0-.187.188v16.125c0 .103.084.187.188.187h1.125A.188.188 0 0 0 3 20.062V3.938a.188.188 0 0 0-.188-.187Zm19.523 0H21.21a.188.188 0 0 0-.188.188v16.125c0 .103.085.187.188.187h1.125a.188.188 0 0 0 .187-.188V3.938a.188.188 0 0 0-.187-.187ZM4.688 17.25h2.625a.188.188 0 0 0 .187-.188V3.938a.188.188 0 0 0-.188-.187H4.688a.188.188 0 0 0-.187.188v13.124c0 .104.084.188.188.188Zm7.523 0h1.125a.188.188 0 0 0 .187-.188V3.938a.188.188 0 0 0-.187-.187H12.21a.188.188 0 0 0-.188.188v13.124c0 .104.085.188.188.188Zm2.953 0h4.172a.188.188 0 0 0 .187-.188V3.938a.188.188 0 0 0-.187-.187h-4.172a.188.188 0 0 0-.187.188v13.124c0 .104.084.188.187.188Zm-5.976 0h1.124a.188.188 0 0 0 .188-.188V3.938a.188.188 0 0 0-.188-.187H9.188A.188.188 0 0 0 9 3.938v13.124c0 .104.084.188.188.188Zm-1.852 1.5H4.71a.188.188 0 0 0-.188.188v1.125c0 .103.085.187.188.187h2.625a.188.188 0 0 0 .187-.188v-1.125a.188.188 0 0 0-.187-.187Zm6.023 0h-1.125a.188.188 0 0 0-.187.188v1.125c0 .103.084.187.187.187h1.125a.188.188 0 0 0 .188-.188v-1.125a.188.188 0 0 0-.188-.187Zm6 0h-4.172a.188.188 0 0 0-.187.188v1.125c0 .103.084.187.188.187h4.171a.188.188 0 0 0 .188-.188v-1.125a.188.188 0 0 0-.188-.187Zm-9.023 0H9.21a.188.188 0 0 0-.188.188v1.125c0 .103.085.187.188.187h1.125a.188.188 0 0 0 .187-.188v-1.125a.188.188 0 0 0-.187-.187Z" fill="#42494D"/>
</svg>
