<svg width="24" height="24" fill="none" xmlns="http://www.w3.org/2000/svg">
    <path d="M12.185 8.41h2.295v.974h-2.295V8.41Zm8.133-4.428-7.964-2.714a1.153 1.153 0 0 0-.354-.05c-.129 0-.258.017-.354.05L3.682 3.982a.562.562 0 0 0-.354.497v11.306c0 .206.134.478.295.607l8.08 6.296a.485.485 0 0 0 .295.096.48.48 0 0 0 .295-.096l8.079-6.296a.872.872 0 0 0 .295-.607V4.48a.552.552 0 0 0-.349-.497ZM9.64 15.375h-.005a.188.188 0 0 1-.187.188h-.875a.188.188 0 0 1-.187-.188v-4.327c-.18.216-.361.42-.541.61a.141.141 0 0 1-.24-.056l-.309-1.02a.133.133 0 0 1 .028-.131c.867-1.017 1.517-2.23 1.927-3.6a.142.142 0 0 1 .197-.087l.904.429c.064.03.096.103.075.169-.2.642-.463 1.262-.787 1.851v6.162Zm6.95-1.153-.617.827a.14.14 0 0 1-.16.048.139.139 0 0 1-.049-.031c-.717-.687-1.331-1.529-1.83-2.506v2.815a.188.188 0 0 1-.188.188h-.848a.188.188 0 0 1-.188-.188v-2.813c-.516 1.048-1.148 1.894-1.889 2.522a.139.139 0 0 1-.208-.032l-.535-.856a.141.141 0 0 1 .038-.19 6.05 6.05 0 0 0 1.664-1.781h-1.292a.188.188 0 0 1-.187-.188v-.834c0-.103.084-.187.187-.187h2.225v-.436h-1.545a.188.188 0 0 1-.188-.188V7.406c0-.103.085-.187.188-.187h4.329c.103 0 .187.084.187.187v2.981a.188.188 0 0 1-.187.188h-1.563v.436h2.315c.103 0 .188.084.188.187v.835a.188.188 0 0 1-.188.187h-1.383c.425.682.98 1.273 1.695 1.803.06.049.075.138.028.199Z" fill="#42494D"/>
</svg>
