<svg width="24" height="24" fill="none" xmlns="http://www.w3.org/2000/svg">
    <path d="M19.55 10.997a8.144 8.144 0 0 0-1.944-2.7l-.682-.626a.19.19 0 0 0-.305.078l-.304.874c-.19.548-.54 1.109-1.034 1.66a.146.146 0 0 1-.096.046.13.13 0 0 1-.1-.035.138.138 0 0 1-.048-.112c.087-1.411-.335-3.003-1.258-4.735-.764-1.439-1.826-2.561-3.152-3.344l-.968-.57a.188.188 0 0 0-.282.171L9.43 2.83c.035.769-.054 1.449-.265 2.014a6.683 6.683 0 0 1-1.101 1.91c-.33.4-.703.763-1.114 1.08a8.264 8.264 0 0 0-2.35 2.848 8.15 8.15 0 0 0-.2 6.804 8.235 8.235 0 0 0 4.392 4.35 8.248 8.248 0 0 0 3.209.642 8.288 8.288 0 0 0 3.209-.64 8.168 8.168 0 0 0 2.622-1.75A8.113 8.113 0 0 0 20.25 14.3a8.067 8.067 0 0 0-.7-3.303Z" fill="#42494D"/>
</svg>
