<svg width="24" height="24" fill="none" xmlns="http://www.w3.org/2000/svg">
    <path d="M19.5 6h-.659l-.836-2.834a.75.75 0 0 0-.72-.541H6.715a.746.746 0 0 0-.72.541L5.16 6H4.5a.75.75 0 0 0-.75.75v.656c0 .103.084.188.188.188H5.01l1.118 13.094a.75.75 0 0 0 .748.687h10.059a.75.75 0 0 0 .748-.687l1.118-13.094h1.26a.188.188 0 0 0 .188-.188V6.75A.75.75 0 0 0 19.5 6Zm-7.594 10.5a3.376 3.376 0 1 1 .002-6.752 3.376 3.376 0 0 1-.002 6.752ZM6.82 6l.525-1.781h9.31L17.18 6H6.82Zm3.211 7.125a1.875 1.875 0 1 0 3.75 0 1.875 1.875 0 0 0-3.75 0Z" fill="#42494D"/>
</svg>
