<svg width="24" height="24" fill="none" xmlns="http://www.w3.org/2000/svg">
    <path d="M10.887 12.098v2.54h.911c1.048 0 1.67-.255 1.67-1.272 0-.806-.472-1.268-1.264-1.268h-1.317Z" fill="#F85A00" fill-opacity=".05"/>
    <path d="M12.516 8.25V3.187H5.437v17.625h13.125V9.235H13.5a.984.984 0 0 1-.984-.984Zm2.109 5.119c0 1.293-.863 2.205-2.255 2.205h-1.483v2.239a.188.188 0 0 1-.188.187h-.761a.188.188 0 0 1-.188-.188v-6.468c0-.103.084-.188.188-.188v.003h2.437c1.4 0 2.25.932 2.25 2.21Z" fill="#F85A00" fill-opacity=".05"/>
    <path d="M20.03 6.764 14.986 1.72a.749.749 0 0 0-.53-.22H4.5a.75.75 0 0 0-.75.75v19.5c0 .415.335.75.75.75h15a.75.75 0 0 0 .75-.75V7.296c0-.2-.08-.391-.22-.532ZM14.11 3.23l4.41 4.41h-4.41V3.23Zm4.453 17.582H5.438V3.188h7.078V8.25a.984.984 0 0 0 .984.984h5.063v11.579Z" fill="#F85A00"/>
    <path d="M9.938 11.158a.185.185 0 0 0-.188.186v6.468c0 .103.084.188.188.188h.761a.188.188 0 0 0 .188-.188v-2.238h1.483c1.393 0 2.255-.912 2.255-2.206 0-1.277-.85-2.21-2.25-2.21H9.937Zm3.53 2.208c0 1.017-.622 1.273-1.67 1.273h-.911v-2.54h1.317c.792 0 1.263.46 1.263 1.267Z" fill="#F85A00"/>
</svg>
