<svg width="24" height="24" fill="none" xmlns="http://www.w3.org/2000/svg">
    <path d="M11.906 16.5a3.376 3.376 0 1 0-.001-6.752 3.376 3.376 0 0 0 .001 6.752Zm0-5.25a1.874 1.874 0 1 1 .001 3.749 1.874 1.874 0 0 1 0-3.749Z" fill="#42494D"/>
    <path d="M19.5 6h-.659l-.836-2.834a.75.75 0 0 0-.72-.541H6.715a.746.746 0 0 0-.72.541L5.16 6H4.5a.75.75 0 0 0-.75.75v.656c0 .103.084.188.188.188H5.01l1.118 13.094a.75.75 0 0 0 .748.687h10.059a.75.75 0 0 0 .748-.687l1.118-13.094h1.26a.188.188 0 0 0 .188-.188V6.75A.75.75 0 0 0 19.5 6ZM7.345 4.219h9.31L17.18 6H6.82l.525-1.781Zm8.818 15.562H7.65L6.61 7.594H17.2L16.164 19.78Z" fill="#42494D"/>
</svg>
