<svg width="24" height="24" fill="none" xmlns="http://www.w3.org/2000/svg">
    <path d="M12 11.063a.938.938 0 1 0 1.875 0 .938.938 0 0 0-1.875 0Zm8.601 8.27L16.32 8.25V4.172H18V2.578H6v1.594H7.68V8.25L3.398 19.334a1.501 1.501 0 0 0 1.4 2.041h14.404a1.498 1.498 0 0 0 1.4-2.041ZM9.274 8.549v-4.33h5.452v4.33l2.13 5.514a6.029 6.029 0 0 0-1.498-.187 6.025 6.025 0 0 0-3.874 1.406 4.425 4.425 0 0 1-2.843 1.03 4.417 4.417 0 0 1-2.151-.556l2.784-7.207ZM4.934 19.78l.977-2.526a6.028 6.028 0 0 0 2.733.651 6.026 6.026 0 0 0 3.874-1.406 4.424 4.424 0 0 1 2.843-1.029c.82 0 1.603.223 2.287.635l1.418 3.675H4.933Z" fill="#42494D"/>
</svg>
