<svg width="24" height="24" fill="none" xmlns="http://www.w3.org/2000/svg">
    <path d="M21.684 7.931a10.505 10.505 0 0 0-5.615-5.615A10.45 10.45 0 0 0 12 1.5h-.047A10.475 10.475 0 0 0 1.5 12.05a10.533 10.533 0 0 0 1.125 4.684v3.563a1.078 1.078 0 0 0 1.078 1.078h3.565a10.533 10.533 0 0 0 4.685 1.125h.05c1.403 0 2.765-.272 4.047-.804a10.417 10.417 0 0 0 3.347-2.231 10.473 10.473 0 0 0 3.103-7.418 10.459 10.459 0 0 0-.816-4.116Zm-3.54 10.266A8.673 8.673 0 0 1 12 20.719h-.04a8.75 8.75 0 0 1-4.057-1.02l-.197-.105h-3.3v-3.3l-.105-.197a8.75 8.75 0 0 1-1.02-4.057 8.665 8.665 0 0 1 2.522-6.183 8.653 8.653 0 0 1 6.16-2.576h.04c1.171 0 2.308.228 3.38.678a8.662 8.662 0 0 1 2.788 1.875 8.683 8.683 0 0 1 2.552 6.206 8.686 8.686 0 0 1-2.58 6.157Z" fill="#42494D"/>
    <path d="M7.244 12.585a.469.469 0 1 0 .45.822 5.368 5.368 0 0 0 2.32-2.516 5.369 5.369 0 0 0 2.32 2.516.468.468 0 0 0 .637-.185.469.469 0 0 0-.186-.637 4.433 4.433 0 0 1-2.252-3.225h2.081a.469.469 0 1 0 0-.938h-2.131V6.47a.469.469 0 1 0-.937 0v1.953H7.852a.469.469 0 1 0 0 .938h1.643a4.433 4.433 0 0 1-2.251 3.225Z" fill="#42494D"/>
    <path d="M14.822 11.08a.969.969 0 0 0-1.774 0l-1.385 3.156a.97.97 0 0 0-.66 1.505l-.421.96a.969.969 0 0 0 1.774.778l.577-1.316h2.004l.577 1.316a.969.969 0 0 0 1.277.498.969.969 0 0 0 .498-1.276l-.421-.96a.97.97 0 0 0-.66-1.506l-1.386-3.155Zm-.735 3.146h-.304l.152-.346.152.346Z" fill="#42494D" stroke="#fff"/>
</svg>
