<svg width="24" height="24" fill="none" xmlns="http://www.w3.org/2000/svg">
    <path d="m10.35 7.19-.905-.426a.143.143 0 0 0-.197.087c-.41 1.37-1.059 2.58-1.926 3.6a.142.142 0 0 0-.028.131l.31 1.02c.03.103.163.133.238.056.18-.19.361-.396.542-.61v4.327c0 .103.084.188.187.188h.874a.188.188 0 0 0 .188-.188V9.213c.324-.589.587-1.21.787-1.851a.138.138 0 0 0-.07-.171Zm.628.216v2.981c0 .104.085.188.188.188h1.544v.436h-2.224a.188.188 0 0 0-.188.187v.835c0 .103.085.187.188.187h1.291a6.05 6.05 0 0 1-1.664 1.782.14.14 0 0 0-.037.19l.534.855a.139.139 0 0 0 .209.033c.74-.628 1.375-1.475 1.889-2.522v2.812c0 .103.084.188.187.188h.849a.188.188 0 0 0 .187-.188v-2.807a9.333 9.333 0 0 0 1.83 2.505.14.14 0 0 0 .21-.016l.616-.828a.141.141 0 0 0-.028-.197c-.715-.53-1.27-1.12-1.695-1.802h1.383a.188.188 0 0 0 .187-.188v-.834a.188.188 0 0 0-.187-.187H13.93v-.436h1.564a.188.188 0 0 0 .187-.188V7.406a.188.188 0 0 0-.188-.187h-4.328a.188.188 0 0 0-.188.187Zm1.207 1.003h2.295v.975h-2.295V8.41Zm8.133-4.427-7.964-2.714a1.153 1.153 0 0 0-.354-.05c-.129 0-.258.017-.354.05L3.682 3.982a.562.562 0 0 0-.354.497v11.306c0 .206.134.478.295.607l8.08 6.296a.485.485 0 0 0 .295.096.48.48 0 0 0 .295-.096l8.079-6.296a.872.872 0 0 0 .295-.607V4.48a.552.552 0 0 0-.349-.497Zm-1.334 11.353L12 20.777l-6.984-5.442V5.313L12 2.932l6.984 2.381v10.022Z" fill="#42494D"/>
</svg>
