<svg width="24" height="24" fill="none" xmlns="http://www.w3.org/2000/svg">
    <path fill-rule="evenodd" clip-rule="evenodd" d="M16 3H8v8h8V3ZM3 13h8v8H3v-8Zm10 0h8v8h-8v-8Z" fill="#F85A00" fill-opacity=".05"/>
    <path fill-rule="evenodd" clip-rule="evenodd" d="M7.25 3A.75.75 0 0 1 8 2.25h8a.75.75 0 0 1 .75.75v8a.75.75 0 0 1-.75.75H8a.75.75 0 0 1-.75-.75V3Zm1.5.75v6.5h6.5v-6.5H12.5V6h-1V3.75H8.75ZM6.5 16v-2.25H3.75v6.5h6.5v-6.5H7.5V16h-1Zm5.25 4.25V13a.75.75 0 0 0-.75-.75H3a.75.75 0 0 0-.75.75v7.25H1.5v1.5h21v-1.5h-.75V13a.75.75 0 0 0-.75-.75h-8a.75.75 0 0 0-.75.75v7.25h-.5Zm2 0h6.5v-6.5H17.5V16h-1v-2.25h-2.75v6.5Z" fill="#F85A00"/>
</svg>
