<svg width="24" height="24" fill="none" xmlns="http://www.w3.org/2000/svg">
    <path d="M20.585 9.19 14.81 3.415a.775.775 0 0 0-.55-.228c-.2 0-.4.076-.552.228L9.933 7.193a7.568 7.568 0 0 0-.863-.047 7.724 7.724 0 0 0-4.84 1.695.779.779 0 0 0-.063 1.157l4.259 4.259-5.049 5.044a.37.37 0 0 0-.108.23l-.08.871a.374.374 0 0 0 .373.408c.012 0 .024 0 .035-.002l.872-.08a.37.37 0 0 0 .23-.108l5.048-5.048 4.26 4.259a.775.775 0 0 0 .55.227.776.776 0 0 0 .607-.29 7.742 7.742 0 0 0 1.645-5.706l3.776-3.775a.777.777 0 0 0 0-1.097Zm-4.971 3.684-.574.574.089.807a6.092 6.092 0 0 1-.713 3.607L6.14 9.582a6.062 6.062 0 0 1 3.607-.713l.807.089.574-.574L14.26 5.25l4.489 4.488-3.136 3.136Z" fill="#42494D"/>
</svg>
