<svg width="24" height="24" fill="none" xmlns="http://www.w3.org/2000/svg">
    <path d="M17.813 10.125v-6.75a.75.75 0 0 0-.75-.75H6.938a.75.75 0 0 0-.75.75v6.75c-1.552 0-2.813 1.221-2.813 2.719v8.344c0 .103.084.187.188.187h1.312a.188.188 0 0 0 .188-.188v-8.343c0-.57.506-1.031 1.127-1.031h11.62c.621 0 1.128.461 1.128 1.03v8.345c0 .103.084.187.187.187h1.313a.188.188 0 0 0 .187-.188v-8.343c0-1.498-1.26-2.719-2.813-2.719Zm-9.938 0V4.312h8.25v5.813h-8.25Zm2.813-4.313H9.562A.188.188 0 0 0 9.376 6v1.125c0 .103.084.188.188.188h1.124a.188.188 0 0 0 .188-.188V6a.188.188 0 0 0-.188-.188Zm3.75 0h-1.126a.188.188 0 0 0-.187.188v1.125c0 .103.084.188.188.188h1.124a.188.188 0 0 0 .188-.188V6a.188.188 0 0 0-.188-.188Z" fill="#42494D"/>
</svg>
