<svg width="24" height="24" fill="none" xmlns="http://www.w3.org/2000/svg">
    <path d="M15.844 14.602a.796.796 0 1 0-.002 1.592.796.796 0 0 0 .002-1.592Zm4.781-10.665h-4.969c0-.724-.588-1.312-1.312-1.312h-1.875c-.724 0-1.313.588-1.313 1.313H6.187a.75.75 0 0 0-.75.75v4.687H3.376a.75.75 0 0 0-.75.75v10.5c0 .415.335.75.75.75h7.875a.75.75 0 0 0 .75-.75v-.375h8.625a.75.75 0 0 0 .75-.75V4.687a.75.75 0 0 0-.75-.75ZM10.5 19.876H4.125v-5.438H10.5v5.438Zm0-6.938H4.125v-2.062H10.5v2.063Zm.469-6.374V5.438h1.687V4.125h1.5v1.313h1.688v1.125h-4.875Zm4.219 3.937v1.313A.188.188 0 0 1 15 12h-1.125a.188.188 0 0 1-.188-.188V10.5c0-.103.085-.188.188-.188H15c.103 0 .188.085.188.188Zm.656 7.055a2.157 2.157 0 1 1 0-4.313 2.157 2.157 0 0 1 0 4.313ZM18 11.813a.188.188 0 0 1-.188.187h-1.125a.188.188 0 0 1-.187-.188v-2.25c0-.103.084-.187.188-.187h1.125c.103 0 .187.084.187.188v2.25Zm-2.156 1.43a2.157 2.157 0 1 0 0 4.312 2.157 2.157 0 0 0 0-4.313Zm0 2.952a.796.796 0 1 1-.002-1.592.796.796 0 0 1 .002 1.592Z" fill="#42494D"/>
</svg>
