<svg width="24" height="24" fill="none" xmlns="http://www.w3.org/2000/svg">
    <path d="M11.934 11.503c-.016-.03-.032-.044-.051-.047-.068.078-.052.739.063 1.205.094-.319.11-.95-.012-1.158Zm-.037 2.825c-.18.468-.44 1.108-.752 1.673l.288-.117c.412-.169.874-.359 1.38-.474a3.828 3.828 0 0 1-.916-1.082Z" fill="#F85A00" fill-opacity=".05"/>
    <path d="M12.516 8.25V3.187H5.437v17.625h13.125V9.235H13.5a.984.984 0 0 1-.984-.984Zm1.289 6.74a6.77 6.77 0 0 1 1.038-.053c.3.01.553.047.75.12l.012.004.028.012c.012.004.026.009.037.016.003.002.007.002.01.005a.766.766 0 0 1 .236.154c.214.214.277.612.146.929-.075.18-.275.48-.78.48-.512 0-1.264-.227-1.925-.581-.598.1-1.259.326-1.896.541-.136.047-.277.094-.413.139-.89 1.528-1.558 1.86-1.97 1.86a.727.727 0 0 1-.254-.046.742.742 0 0 1-.438-.474.639.639 0 0 1-.03-.319l.014-.063.004-.014c.005-.016.01-.033.017-.05l.002-.006c.096-.28.319-.549.65-.811.287-.23.634-.438 1.075-.666.373-.656.881-1.76 1.2-2.517-.253-.98-.391-1.748-.237-2.31a.61.61 0 0 1 .108-.214c.005-.005.007-.01.012-.014.002-.003.002-.005.005-.005a.825.825 0 0 1 .658-.27c.39.017.696.27.773.706.04.188.052.387.045.602v.017c0 .011 0 .023-.002.035-.017.312-.07.623-.171 1.048-.01.037-.02.075-.029.121l-.023.097-.002.007.004.011.043.106.009.023c.016.038.033.078.05.113v.002c.203.44.46.783.794 1.057.1.082.208.157.325.23a.768.768 0 0 1 .125-.021Z" fill="#F85A00" fill-opacity=".05"/>
    <path d="M9.176 17.836c.133-.103.38-.34.705-.813-.241.22-.548.525-.705.813Zm6.349-1.945.005-.007h.004c.014-.01.012-.017.01-.021-.003-.003-.106-.218-1.057-.174.827.326 1.02.213 1.038.202Z" fill="#F85A00" fill-opacity=".05"/>
    <path d="M20.03 6.764 14.986 1.72a.749.749 0 0 0-.53-.22H4.5a.75.75 0 0 0-.75.75v19.5c0 .415.335.75.75.75h15a.75.75 0 0 0 .75-.75V7.296c0-.2-.08-.391-.22-.532ZM14.11 3.23l4.41 4.41h-4.41V3.23Zm4.453 17.582H5.438V3.188h7.078V8.25a.984.984 0 0 0 .984.984h5.063v11.579Z" fill="#F85A00"/>
    <path d="M12.56 13.718a4.236 4.236 0 0 1-.051-.115l-.01-.023-.042-.105-.004-.012.002-.007.005-.026c.093-.382.201-.827.22-1.275v-.016a2.453 2.453 0 0 0-.047-.6c-.089-.5-.457-.694-.771-.708a.82.82 0 0 0-.659.267c-.002.002-.002.005-.004.005a.611.611 0 0 0-.12.227c-.155.562-.016 1.331.237 2.31-.319.76-.828 1.862-1.2 2.518v.002c-.65.336-1.502.84-1.725 1.475l-.002.007-.017.049c-.002.005-.002.01-.005.014-.004.021-.011.042-.014.063a.59.59 0 0 0 .03.319c.015.042.031.082.052.122.087.164.225.29.387.351.07.026.155.047.253.047.413 0 1.08-.332 1.971-1.86.136-.045.277-.092.413-.139.637-.216 1.298-.44 1.896-.541.66.354 1.413.58 1.924.58.506 0 .706-.3.78-.48.132-.316.069-.714-.145-.928a.77.77 0 0 0-.236-.154c-.003-.003-.008-.003-.01-.005-.012-.005-.026-.01-.037-.017l-.029-.011c-.004-.002-.007-.002-.011-.005-.38-.136-.977-.157-1.788-.066l-.125.015a2.79 2.79 0 0 1-1.118-1.278Zm-3.384 4.118c.157-.288.464-.593.705-.813-.325.473-.571.71-.705.813Zm2.707-6.38c.019.003.035.017.052.047.121.209.105.84.011 1.158-.114-.466-.13-1.127-.063-1.204Zm-.45 4.428c-.098.04-.194.08-.288.117.312-.565.572-1.205.752-1.673.25.433.567.806.916 1.082-.506.115-.968.305-1.38.474Zm4.11-.021c.003.005.006.011-.008.02h-.005l-.005.008c-.019.012-.21.124-1.038-.202.951-.044 1.055.171 1.057.174Z" fill="#F85A00"/>
</svg>
