<svg width="24" height="24" fill="none" xmlns="http://www.w3.org/2000/svg">
    <path d="m22.476 9.69-.555-.97a.187.187 0 0 0-.256-.069l-1.188.694-1.835-5.067a1.498 1.498 0 0 0-1.427-1.04H7.059c-.813 0-1.535.524-1.786 1.3l-1.748 4.81-1.19-.695a.188.188 0 0 0-.256.068l-.556.968a.185.185 0 0 0 .068.254l1.416.825-.34.937a.668.668 0 0 0-.042.234V20.1c0 .368.276.666.616.666h1.585c.288 0 .539-.218.6-.523l.18-.883h12.788l.18.883c.063.305.312.523.6.523h1.584c.34 0 .617-.298.617-.666v-8.16c0-.08-.014-.16-.042-.235l-.34-.938 1.413-.824a.188.188 0 0 0 .07-.254ZM6.187 14.554a.937.937 0 1 1 0-1.874.937.937 0 0 1 0 1.874Zm9.094 1.758a.188.188 0 0 1-.187.187H8.906a.188.188 0 0 1-.187-.187v-1.969c0-.103.084-.187.187-.187h.938c.103 0 .187.084.187.187v.844h3.938v-.844c0-.103.084-.187.187-.187h.938c.103 0 .187.084.187.187v1.969Zm2.531-1.758a.937.937 0 1 1 0-1.875.937.937 0 0 1 0 1.875ZM5.156 9.797 6.86 5.112l.012-.03.01-.03a.186.186 0 0 1 .177-.13h10.022l1.767 4.875H5.156Z" fill="#42494D"/>
</svg>
