<svg width="24" height="24" fill="none" xmlns="http://www.w3.org/2000/svg">
    <path d="M12 1.5C6.202 1.5 1.5 6.202 1.5 12S6.202 22.5 12 22.5 22.5 17.798 22.5 12 17.798 1.5 12 1.5Zm0 19.219A8.72 8.72 0 0 1 3.281 12 8.72 8.72 0 0 1 12 3.281 8.72 8.72 0 0 1 20.719 12 8.72 8.72 0 0 1 12 20.719Zm3.74-13.711h-1.394c-.07 0-.136.04-.166.103l-2.124 4.219h-.08L9.854 7.11a.188.188 0 0 0-.166-.102H8.264a.188.188 0 0 0-.164.279l2.61 4.8H9.273a.188.188 0 0 0-.188.187v.701c0 .103.085.188.188.188h1.915v.97H9.272a.188.188 0 0 0-.188.187v.701c0 .103.085.188.188.188h1.915v1.596c0 .103.084.187.187.187h1.273a.188.188 0 0 0 .187-.187v-1.596h1.922a.188.188 0 0 0 .188-.188v-.7a.188.188 0 0 0-.188-.188h-1.922v-.973h1.922a.188.188 0 0 0 .188-.187v-.701a.188.188 0 0 0-.188-.188h-1.453l2.604-4.8a.201.201 0 0 0 .024-.089.192.192 0 0 0-.19-.187Z" fill="#42494D"/>
</svg>
