<svg width="24" height="24" fill="none" xmlns="http://www.w3.org/2000/svg">
    <path d="M16.565 11.454a.751.751 0 0 1-1.062 0l-2.918-2.918a.751.751 0 0 1 0-1.062L15.7 4.362a4.317 4.317 0 0 0-3.375 1.254 4.32 4.32 0 0 0-.787 5.03L10.3 11.882c-.002 0-.002-.002-.002-.002l-5.393 5.392L6.76 19.13l6.422-6.424.002.002.206-.206a4.322 4.322 0 0 0 6.286-4.16l-3.112 3.112Z" fill="#F85A00" fill-opacity=".05"/>
    <path d="M20.546 5.613a.3.3 0 0 0-.471-.059l-4.038 4.039L14.445 8l4.041-4.04a.299.299 0 0 0-.059-.469 6.009 6.009 0 0 0-8.854 6.729l-6.867 6.867a.182.182 0 0 0 .007.258l3.977 3.977c.073.073.19.078.258.007l6.865-6.865a6.009 6.009 0 0 0 6.733-8.852Zm-2.123 6.1a4.32 4.32 0 0 1-5.03.788l-.206.207-.003-.003-6.421 6.424-1.857-1.856L10.3 11.88s0 .002.003.002l1.237-1.237a4.32 4.32 0 0 1 4.163-6.284l-3.115 3.113a.751.751 0 0 0 0 1.062l2.918 2.918a.751.751 0 0 0 1.062 0l3.112-3.113a4.323 4.323 0 0 1-1.256 3.373Z" fill="#F85A00"/>
</svg>
