<svg width="24" height="24" fill="none" xmlns="http://www.w3.org/2000/svg">
    <path d="M21.75 5.25H18V3.937a.188.188 0 0 0-.188-.187H16.5a.188.188 0 0 0-.188.188V5.25h-3.468V3.937a.188.188 0 0 0-.188-.187h-1.312a.188.188 0 0 0-.188.188V5.25H7.687V3.937A.188.188 0 0 0 7.5 3.75H6.187A.188.188 0 0 0 6 3.938V5.25H2.25A.75.75 0 0 0 1.5 6v13.5c0 .415.335.75.75.75h19.5a.75.75 0 0 0 .75-.75V6a.75.75 0 0 0-.75-.75Zm-.938 13.313H3.188V6.938H6V8.25c0 .103.084.188.188.188H7.5a.188.188 0 0 0 .188-.188V6.937h3.468V8.25c0 .103.085.188.188.188h1.312a.188.188 0 0 0 .188-.188V6.937h3.469V8.25c0 .103.084.188.187.188h1.313A.188.188 0 0 0 18 8.25V6.937h2.813v11.625ZM9.75 11.625H5.437a.188.188 0 0 0-.187.188v1.124c0 .104.084.188.188.188H9.75a.188.188 0 0 0 .188-.188v-1.124a.188.188 0 0 0-.188-.188Zm0 3.188H5.437A.188.188 0 0 0 5.25 15v1.125c0 .103.084.188.188.188H9.75a.188.188 0 0 0 .188-.188V15a.188.188 0 0 0-.188-.188Zm7.223-4.158-2.428 3.368-1.237-1.714a.37.37 0 0 0-.303-.154H11.72a.188.188 0 0 0-.153.297l2.675 3.708a.373.373 0 0 0 .604 0l3.867-5.36a.188.188 0 0 0-.152-.298h-1.287a.367.367 0 0 0-.3.153Z" fill="#42494D"/>
</svg>
