<svg width="24" height="24" fill="none" xmlns="http://www.w3.org/2000/svg">
    <path d="M12 1.5C6.202 1.5 1.5 6.202 1.5 12S6.202 22.5 12 22.5 22.5 17.798 22.5 12 17.798 1.5 12 1.5Zm0 19.219A8.72 8.72 0 0 1 3.281 12 8.72 8.72 0 0 1 12 3.281 8.72 8.72 0 0 1 20.719 12 8.72 8.72 0 0 1 12 20.719Zm4.65-13.784a.75.75 0 0 0-.574.012l-6.352 2.78-2.777 6.351a.748.748 0 0 0 .415 1 .739.739 0 0 0 .574-.01l6.351-2.78 2.778-6.352a.749.749 0 0 0-.415-1Zm-3.131 5.59.614.614-.994.994-.614-.614-3.619 1.584 1.582-3.619-.597-.6.993-.993.598.597 3.621-1.582-1.584 3.619Zm-2.635-2.634-.993.993.597.6 2.037 2.035.614.614.994-.994-.614-.614-2.035-2.037-.6-.597Z" fill="#42494D"/>
</svg>
