<svg width="24" height="24" fill="none" xmlns="http://www.w3.org/2000/svg">
    <path fill="#fff" d="M0 0h24v24H0z"/>
    <path fill-rule="evenodd" clip-rule="evenodd" d="M17.876 4.494a8.495 8.495 0 0 1 1.872 2.711 8.323 8.323 0 0 1 .69 3.329c0 1.657-.397 3.302-1.18 4.889-.625 1.277-1.5 2.524-2.601 3.705-1.882 2.02-3.855 3.256-4.416 3.586a1.028 1.028 0 0 1-1.05 0c-.56-.33-2.533-1.566-4.415-3.586C5.674 17.945 4.8 16.7 4.174 15.423 3.396 13.833 3 12.186 3 10.53c0-1.153.232-2.273.69-3.328a8.522 8.522 0 0 1 1.872-2.712 8.73 8.73 0 0 1 2.77-1.823A8.832 8.832 0 0 1 11.719 2a8.79 8.79 0 0 1 3.386.67 8.692 8.692 0 0 1 2.77 1.824Zm-5.407.936a.75.75 0 0 0-1.5 0v1.325A3.754 3.754 0 0 0 8.044 9.68H6.719a.75.75 0 0 0 0 1.5h1.325a3.755 3.755 0 0 0 2.925 2.925v1.325a.75.75 0 1 0 1.5 0v-1.325a3.754 3.754 0 0 0 2.925-2.925h1.325a.75.75 0 0 0 0-1.5h-1.325a3.754 3.754 0 0 0-2.925-2.925V5.43Zm-.75 7.25a2.25 2.25 0 1 1 0-4.5 2.25 2.25 0 0 1 0 4.5Z" fill="#42494D"/>
</svg>
