<svg width="24" height="24" fill="none" xmlns="http://www.w3.org/2000/svg">
    <path d="M20.545 5.613a.3.3 0 0 0-.471-.059l-4.038 4.038-1.592-1.591 4.041-4.04a.299.299 0 0 0-.059-.469 6.009 6.009 0 0 0-8.854 6.728l-6.867 6.868a.182.182 0 0 0 .007.257l3.977 3.978c.073.072.19.077.258.007l6.865-6.865a6.009 6.009 0 0 0 6.734-8.852Zm-2.123 6.1a4.32 4.32 0 0 1-5.03.788l-.206.206-.002-.002-6.422 6.424-1.857-1.856 5.393-5.393s0 .002.003.002l1.237-1.237a4.32 4.32 0 0 1 4.163-6.284l-3.115 3.113a.751.751 0 0 0 0 1.061l2.918 2.918a.751.751 0 0 0 1.062 0l3.112-3.112a4.323 4.323 0 0 1-1.256 3.372Z" fill="#42494D"/>
</svg>
