<svg width="24" height="24" fill="none" xmlns="http://www.w3.org/2000/svg">
    <path d="m5.131 14.913.999.624c.002.002.007.004.009.007l.298.187.007.007c.67.388 1.431.59 2.205.589a4.416 4.416 0 0 0 2.836-1.027 6.007 6.007 0 0 1 3.865-1.404c1.226 0 2.395.368 3.389 1.043l.185.117-2.615-6.773V4.214h1.488a.188.188 0 0 0 .187-.187V2.812a.188.188 0 0 0-.187-.187H6.205a.188.188 0 0 0-.188.188v1.216c0 .103.085.187.188.187h1.488v4.07L5.13 14.912Zm7.805-4.76a.936.936 0 0 1 0 1.87.936.936 0 0 1 0-1.87Zm7.643 9.185-.7-1.814-2.01-1.254-.002.003-.051-.035-.19-.118-.007-.007a4.383 4.383 0 0 0-2.274-.628 4.416 4.416 0 0 0-2.836 1.027 6.006 6.006 0 0 1-3.865 1.404 6.005 6.005 0 0 1-3.426-1.07l-.677-.423-1.118 2.915a1.496 1.496 0 0 0 1.395 2.034h14.364a1.507 1.507 0 0 0 1.37-.888 1.49 1.49 0 0 0 .027-1.146Z" fill="#42494D"/>
</svg>
