<svg width="24" height="24" fill="none" xmlns="http://www.w3.org/2000/svg">
    <path d="M20.813 15.938h-1.266v-3.282h-6.75V10.5h5.578a.376.376 0 0 0 .375-.375V3.937a.376.376 0 0 0-.375-.374H5.625a.376.376 0 0 0-.375.374v6.188c0 .206.169.375.375.375h5.578v2.156h-6.75v3.281H3.187a.188.188 0 0 0-.187.188v4.125c0 .103.084.188.188.188h4.124a.188.188 0 0 0 .188-.188v-4.125a.188.188 0 0 0-.188-.188H6.048V14.25h5.156v1.688H9.938a.188.188 0 0 0-.188.187v4.125c0 .103.084.188.188.188h4.124a.188.188 0 0 0 .188-.188v-4.125a.188.188 0 0 0-.188-.188h-1.265V14.25h5.156v1.688h-1.265a.188.188 0 0 0-.188.187v4.125c0 .103.084.188.188.188h4.125A.188.188 0 0 0 21 20.25v-4.125a.188.188 0 0 0-.188-.188ZM6 18.873a.063.063 0 0 1-.063.064H4.56a.063.063 0 0 1-.063-.064v-1.376c0-.035.028-.063.063-.063h1.376c.035 0 .063.028.063.063v1.376Zm6.75 0a.063.063 0 0 1-.063.064H11.31a.063.063 0 0 1-.063-.064v-1.376c0-.035.028-.063.063-.063h1.376c.035 0 .063.028.063.063v1.376ZM6.75 9V5.062h10.5V9H6.75Zm12.75 9.874a.063.063 0 0 1-.063.064H18.06a.063.063 0 0 1-.063-.064v-1.376c0-.035.028-.063.063-.063h1.376c.035 0 .063.028.063.063v1.376ZM8.437 7.031a.937.937 0 1 0 1.875 0 .937.937 0 0 0-1.874 0Z" fill="#42494D"/>
</svg>
