<svg width="24" height="24" fill="none" xmlns="http://www.w3.org/2000/svg">
    <path d="M21.363 16.423a.188.188 0 0 0-.241-.113l-1.434.523V4.219c0-.882-.713-1.594-1.594-1.594H5.906c-.881 0-1.593.712-1.593 1.594v12.614l-1.437-.523a.2.2 0 0 0-.063-.012.188.188 0 0 0-.188.188v1.397c0 .077.05.148.124.176l8.993 3.271c.167.061.347.061.513 0l8.996-3.27a.189.189 0 0 0 .124-.175v-1.397a.204.204 0 0 0-.012-.065ZM12 19.629l-6-2.182V4.313h12v13.134l-6 2.182Zm3.483-12.317h-1.277c-.07 0-.136.04-.167.104l-1.985 3.956h-.077L9.99 7.416a.188.188 0 0 0-.166-.104H8.52c-.03 0-.061.008-.09.024a.186.186 0 0 0-.075.253l2.436 4.49H9.455a.188.188 0 0 0-.188.188v.635c0 .104.085.188.188.188h1.78v.914h-1.78a.188.188 0 0 0-.188.187v.636c0 .103.085.187.188.187h1.78V16.5c0 .103.085.188.188.188h1.17a.188.188 0 0 0 .188-.188v-1.488h1.788a.188.188 0 0 0 .187-.188v-.635a.188.188 0 0 0-.187-.187H12.78v-.915h1.789a.188.188 0 0 0 .187-.187v-.635a.188.188 0 0 0-.187-.188h-1.35l2.43-4.49a.201.201 0 0 0 .024-.09.191.191 0 0 0-.19-.184Z" fill="#42494D"/>
</svg>
