<svg width="24" height="24" fill="none" xmlns="http://www.w3.org/2000/svg">
    <path d="M12.011 4.463 9.8 8.946l-4.95.72 3.581 3.492-.846 4.929 4.427-2.328 4.428 2.325-.846-4.928 3.58-3.49-4.95-.72-2.212-4.483Z" fill="#F85A00" fill-opacity=".05"/>
    <path d="m21.295 8.269-5.95-.865-2.66-5.393a.753.753 0 0 0-1.345 0L8.678 7.404l-5.95.865a.749.749 0 0 0-.416 1.28l4.306 4.197-1.017 5.927a.749.749 0 0 0 1.087.79l5.323-2.798 5.322 2.798a.749.749 0 0 0 1.088-.79l-1.017-5.927 4.305-4.198a.748.748 0 0 0 .218-.428.747.747 0 0 0-.633-.851Zm-5.702 4.886.846 4.93-4.427-2.326-4.428 2.328.847-4.93-3.582-3.491 4.95-.72 2.213-4.483 2.212 4.483 4.95.72-3.581 3.49Z" fill="#F85A00"/>
</svg>
