<svg width="24" height="24" fill="none" xmlns="http://www.w3.org/2000/svg">
    <path d="M9.375 7.446h1.732v7.929c0 .103.084.187.188.187H12.7a.188.188 0 0 0 .187-.187v-7.93h1.737c.157 0 .244-.18.148-.301L12.148 3.82a.188.188 0 0 0-.296 0L9.227 7.141a.188.188 0 0 0 .148.305Zm11.203 7.226h-1.406a.188.188 0 0 0-.188.187v3.61H5.016v-3.61a.188.188 0 0 0-.188-.187H3.422a.188.188 0 0 0-.188.187v4.64c0 .416.336.75.75.75h16.032a.75.75 0 0 0 .75-.75v-4.64a.188.188 0 0 0-.188-.187Z" fill="#42494D"/>
</svg>
