<svg width="24" height="24" fill="none" xmlns="http://www.w3.org/2000/svg">
    <path d="M6.938 5.86a.188.188 0 0 0-.188.187v1.125c0 .103.084.187.188.187h9a.188.188 0 0 0 .187-.187V6.047a.188.188 0 0 0-.188-.188h-9Zm4.312 3.374H6.937a.188.188 0 0 0-.187.188v1.125c0 .103.084.187.188.187h4.312a.188.188 0 0 0 .188-.187V9.422a.188.188 0 0 0-.188-.188ZM10.125 19.97h-5.25v-16.5H18v7.5c0 .103.084.187.188.187H19.5a.188.188 0 0 0 .188-.187V2.53a.75.75 0 0 0-.75-.75h-15a.75.75 0 0 0-.75.75v18.375c0 .415.335.75.75.75h6.187a.188.188 0 0 0 .188-.187v-1.313a.188.188 0 0 0-.188-.187Zm10.313-2.063h-3.375v-.858a2.625 2.625 0 1 0-1.5 0v.858h-3.376a.376.376 0 0 0-.374.375v3.563c0 .206.168.375.374.375h8.25a.376.376 0 0 0 .375-.375V18.28a.376.376 0 0 0-.375-.375Zm-5.297-3.375a1.172 1.172 0 1 1 2.344.001 1.172 1.172 0 0 1-2.344 0Zm4.218 6.235h-6.093v-1.407h6.093v1.407Z" fill="#42494D"/>
</svg>
