<svg width="24" height="24" fill="none" xmlns="http://www.w3.org/2000/svg">
    <path d="M20.584 9.19 14.81 3.415a.775.775 0 0 0-.551-.228c-.2 0-.399.076-.551.228L9.932 7.193a7.568 7.568 0 0 0-.862-.047 7.724 7.724 0 0 0-4.84 1.695.78.78 0 0 0-.064 1.157l4.26 4.259-5.05 5.044a.37.37 0 0 0-.107.23l-.08.871a.374.374 0 0 0 .373.408c.012 0 .023 0 .035-.002l.872-.08a.37.37 0 0 0 .23-.108l5.048-5.048 4.259 4.259a.775.775 0 0 0 .55.227.776.776 0 0 0 .607-.29 7.742 7.742 0 0 0 1.646-5.706l3.775-3.775a.777.777 0 0 0 0-1.097Z" fill="#42494D"/>
</svg>
