<svg width="24" height="24" fill="none" xmlns="http://www.w3.org/2000/svg">
    <path d="M12.516 8.25V3.187H5.437v17.625h13.125V9.235H13.5a.984.984 0 0 1-.984-.984Zm2.374 3.03a.283.283 0 0 1 .274-.217h.834a.283.283 0 0 1 .272.353l-1.743 6.47a.28.28 0 0 1-.272.208h-.746a.283.283 0 0 1-.271-.209L12 13.268l-1.238 4.617a.28.28 0 0 1-.271.209h-.75a.283.283 0 0 1-.272-.209l-1.74-6.469a.282.282 0 0 1 .273-.354h.83c.13 0 .243.092.273.219l1.08 4.656 1.166-4.661a.278.278 0 0 1 .272-.213h.754c.13 0 .242.086.272.213l1.167 4.67 1.074-4.665Z" fill="#F85A00" fill-opacity=".05"/>
    <path d="M20.03 6.764 14.986 1.72a.749.749 0 0 0-.53-.22H4.5a.75.75 0 0 0-.75.75v19.5c0 .415.335.75.75.75h15a.75.75 0 0 0 .75-.75V7.296c0-.2-.08-.391-.22-.532ZM14.11 3.23l4.41 4.41h-4.41V3.23Zm4.453 17.582H5.438V3.188h7.078V8.25a.984.984 0 0 0 .984.984h5.063v11.579Z" fill="#F85A00"/>
    <path d="M12.378 11.063h-.755a.278.278 0 0 0-.272.213l-1.165 4.662-1.08-4.658a.283.283 0 0 0-.275-.217h-.83a.282.282 0 0 0-.271.353l1.739 6.47a.284.284 0 0 0 .272.208h.75a.28.28 0 0 0 .272-.209L12 13.268l1.238 4.617a.283.283 0 0 0 .272.209h.745a.28.28 0 0 0 .272-.209l1.744-6.469a.283.283 0 0 0-.272-.354h-.835a.283.283 0 0 0-.274.219l-1.073 4.666-1.168-4.671a.278.278 0 0 0-.271-.213Z" fill="#F85A00"/>
</svg>
