<svg width="24" height="24" fill="none" xmlns="http://www.w3.org/2000/svg">
    <path d="m21.375 7.085-3 1.728V5.25c0-.827-.673-1.5-1.5-1.5H3c-.827 0-1.5.673-1.5 1.5v13.5c0 .827.673 1.5 1.5 1.5h13.875c.827 0 1.5-.673 1.5-1.5v-3.563l3 1.728a.75.75 0 0 0 1.125-.647V7.734a.75.75 0 0 0-1.125-.649ZM7.687 8.25a.188.188 0 0 1-.187.188H4.875a.188.188 0 0 1-.188-.188V7.125c0-.103.085-.188.188-.188H7.5c.103 0 .188.085.188.188V8.25Zm13.125 6.398-2.437-1.401v-2.492l2.438-1.403v5.296Z" fill="#42494D"/>
</svg>
