<svg width="24" height="24" fill="none" xmlns="http://www.w3.org/2000/svg">
    <path d="m11.191 16.266 7.31-7.308-.445-5.264-5.264-.446-7.31 7.31 5.71 5.708Zm2.719-9.739a1.121 1.121 0 0 1 .794-.794 1.13 1.13 0 0 1 1.38.795 1.124 1.124 0 0 1-.796 1.377 1.13 1.13 0 0 1-1.088-.29 1.133 1.133 0 0 1-.29-1.088Z" fill="#F85A00" fill-opacity=".05"/>
    <path d="M11.17 18.577a.19.19 0 0 1-.11-.054L3.225 10.69a.188.188 0 0 1 0-.265l8.864-8.864a.176.176 0 0 1 .11-.054h-.009a.183.183 0 0 0-.148.054L3.18 10.425a.188.188 0 0 0 0 .265l7.833 7.833c.043.044.101.06.157.054Z" fill="#F85A00" fill-opacity=".05"/>
    <path d="m20.852 12.652-.928-.926a.188.188 0 0 0-.265 0l-8.484 8.468-5.57-5.555a.188.188 0 0 0-.264 0l-.928.926a.188.188 0 0 0 0 .265l5.7 5.69.928.926a.188.188 0 0 0 .265 0l9.546-9.53a.188.188 0 0 0 0-.264Zm-5.564-4.746a1.12 1.12 0 0 0 .794-.795 1.123 1.123 0 1 0-2.173-.584c-.102.39.008.802.291 1.088a1.132 1.132 0 0 0 1.088.29Z" fill="#F85A00"/>
    <path d="M3.226 10.425a.188.188 0 0 0 0 .265l7.833 7.833c.03.03.068.049.11.053a.184.184 0 0 0 .155-.053l8.864-8.867a.185.185 0 0 0 .054-.147l-.598-7.064a.376.376 0 0 0-.342-.343l-7.064-.595h-.037a.183.183 0 0 0-.11.054l-8.865 8.864Zm9.565-7.177 5.264.446.446 5.264-7.31 7.308-5.71-5.707 7.31-7.31Z" fill="#F85A00"/>
</svg>
