<svg width="24" height="24" fill="none" xmlns="http://www.w3.org/2000/svg">
    <path d="M19.669 6.518A.75.75 0 0 0 18.956 6H17.25V3.375a.75.75 0 0 0-.75-.75h-9a.75.75 0 0 0-.75.75V6H5.044a.748.748 0 0 0-.713.518l-1.706 5.248v8.859c0 .415.335.75.75.75h17.25a.75.75 0 0 0 .75-.75v-8.86l-1.706-5.247Zm-4.2 8.2a.188.188 0 0 1-.188.188H12.75v2.531a.188.188 0 0 1-.188.188h-1.124a.188.188 0 0 1-.188-.188v-2.53H8.719a.188.188 0 0 1-.188-.188v-1.125c0-.103.085-.188.188-.188h2.531v-2.531c0-.103.084-.188.188-.188h1.124c.104 0 .188.085.188.188v2.531h2.531c.103 0 .188.085.188.188v1.125ZM15.563 6H8.436V4.312h7.126V6Z" fill="#42494D"/>
</svg>
