<svg width="24" height="24" fill="none" xmlns="http://www.w3.org/2000/svg">
    <path fill-rule="evenodd" clip-rule="evenodd" d="m9.237 3 1.696.02.998 2.473 2.479-.989 1.186 1.212-1.03 2.425L17 9.155v1.696l-2.467 1.027 1.017 2.47-1.199 1.2-2.484-1.023L10.824 17l-1.696-.006-1.019-2.47-2.474 1.007-1.196-1.203 1.033-2.48L3 10.796l.013-1.695 2.472-1.008-.998-2.475 1.208-1.19L8.174 5.47 9.237 3Z" fill="#F85A00" fill-opacity=".05"/>
    <path fill-rule="evenodd" clip-rule="evenodd" d="M8.548 2.703a.75.75 0 0 1 .698-.453l1.696.02a.75.75 0 0 1 .687.47l.718 1.78 1.785-.712a.75.75 0 0 1 .813.172l1.187 1.212a.75.75 0 0 1 .154.817l-.735 1.73 1.737.724a.75.75 0 0 1 .462.692v1.696a.75.75 0 0 1-.462.692l-1.777.74.733 1.78a.75.75 0 0 1-.163.816l-1.2 1.2a.75.75 0 0 1-.816.162l-1.796-.74-.754 1.79a.75.75 0 0 1-.694.459l-1.696-.006a.75.75 0 0 1-.69-.465L7.7 15.5l-1.783.727a.75.75 0 0 1-.815-.166l-1.195-1.203a.75.75 0 0 1-.16-.817l.746-1.793-1.787-.76a.75.75 0 0 1-.456-.697l.013-1.695a.75.75 0 0 1 .467-.689l1.78-.725-.719-1.782a.75.75 0 0 1 .17-.815l1.207-1.19a.75.75 0 0 1 .817-.157l1.794.753.77-1.787Zm1.18 1.053-.865 2.01a.75.75 0 0 1-.98.395l-2.018-.848-.496.488.812 2.012a.75.75 0 0 1-.413.975l-2.009.819-.005.695 2.011.856a.75.75 0 0 1 .4.978l-.84 2.018.49.494 2.011-.82a.75.75 0 0 1 .977.41l.827 2.007.697.003.848-2.014a.75.75 0 0 1 .977-.402l2.022.832.492-.492-.827-2.008a.75.75 0 0 1 .405-.978l2.006-.835v-.696l-1.973-.821a.75.75 0 0 1-.402-.986l.835-1.965-.487-.497-2.014.804a.75.75 0 0 1-.974-.416l-.81-2.01-.697-.008ZM11.5 10a1.5 1.5 0 1 1-3 0 1.5 1.5 0 0 1 3 0Zm7.723.386.487.497-.835 1.965a.75.75 0 0 0 .402.986l1.973.821v.696l-2.006.835a.75.75 0 0 0-.405.978l.827 2.008-.492.492-2.022-.832a.75.75 0 0 0-.977.402l-.848 2.014-.697-.003-.828-2.008a.75.75 0 0 0-.976-.408l-2.011.819a.5.5 0 0 0-.275.652l.189.463a.5.5 0 0 0 .652.274l1.32-.537.733 1.78a.75.75 0 0 0 .69.463l1.697.007a.75.75 0 0 0 .694-.459l.754-1.79 1.797.74a.75.75 0 0 0 .815-.163l1.2-1.199a.75.75 0 0 0 .163-.816l-.733-1.78 1.777-.74a.75.75 0 0 0 .462-.692v-1.696a.75.75 0 0 0-.462-.692l-1.737-.723.735-1.73a.75.75 0 0 0-.154-.819l-.837-.854a.5.5 0 0 0-.707-.008l-.357.35a.5.5 0 0 0-.008.707Z" fill="#F85A00"/>
</svg>
