<svg width="24" height="24" fill="none" xmlns="http://www.w3.org/2000/svg">
    <path d="M10.327 10.842a.197.197 0 0 0-.176-.108H9.007a.198.198 0 0 0-.194.217c.003.026.01.051.023.074l2.048 3.776H9.82a.198.198 0 0 0-.197.197v.588c0 .108.09.197.197.197h1.477v.67H9.82a.198.198 0 0 0-.197.197v.588c0 .108.09.197.197.197h1.477v1.17c0 .107.089.197.197.197h1.024c.108 0 .197-.09.197-.197v-1.17h1.483a.19.19 0 0 0 .193-.2v-.585a.198.198 0 0 0-.197-.197H12.71v-.67h1.484a.198.198 0 0 0 .197-.197v-.588a.198.198 0 0 0-.197-.197h-1.076l2.044-3.774a.197.197 0 0 0-.174-.29h-1.12a.202.202 0 0 0-.176.107l-1.685 3.326-1.68-3.328ZM19.5 1.5h-15a.75.75 0 0 0-.75.75v19.5c0 .415.335.75.75.75h15a.75.75 0 0 0 .75-.75V2.25a.75.75 0 0 0-.75-.75Zm-.938 19.313H5.438V4.526l6.101 4.783a.75.75 0 0 0 .926 0l6.098-4.783v16.287Zm0-17.61h-.742L12 7.766 6.18 3.204h-.742v-.017h13.125v.017Z" fill="#42494D"/>
</svg>
