<svg width="24" height="24" fill="none" xmlns="http://www.w3.org/2000/svg">
    <path d="M19.5 10.875H7.781v-5.25c0-.724.589-1.313 1.313-1.313h5.812c.724 0 1.313.589 1.313 1.313v1.594c0 .103.084.187.187.187h1.313a.188.188 0 0 0 .187-.187V5.625a3 3 0 0 0-3-3H9.094a3 3 0 0 0-3 3v5.25H4.5a.75.75 0 0 0-.75.75v9c0 .415.335.75.75.75h15a.75.75 0 0 0 .75-.75v-9a.75.75 0 0 0-.75-.75Zm-6.844 5.555v1.242a.188.188 0 0 1-.187.187h-.938a.188.188 0 0 1-.187-.187V16.43a1.125 1.125 0 1 1 1.312 0Z" fill="#42494D"/>
</svg>
