<svg width="24" height="24" fill="none" xmlns="http://www.w3.org/2000/svg">
    <path d="M20.625 2.625H3.375a.75.75 0 0 0-.75.75v17.25c0 .415.335.75.75.75h17.25a.75.75 0 0 0 .75-.75V3.375a.75.75 0 0 0-.75-.75ZM19.687 13.5h-7.312v-3h7.313v3Zm0-4.5h-8.062a.75.75 0 0 0-.75.75v4.5c0 .415.335.75.75.75h8.063v4.688H4.313V4.313h15.375V9Z" fill="#F85A00"/>
    <path d="M12.375 13.5h7.313v-3h-7.313v3Zm2.156-2.438a.937.937 0 1 1 0 1.875.937.937 0 0 1 0-1.874Z" fill="#F85A00" fill-opacity=".05"/>
    <path d="M13.594 12a.937.937 0 1 0 1.875 0 .937.937 0 0 0-1.875 0Z" fill="#F85A00"/>
    <path d="M4.313 19.688h15.375V15h-8.063a.75.75 0 0 1-.75-.75v-4.5a.75.75 0 0 1 .75-.75h8.063V4.312H4.313v15.375Z" fill="#F85A00" fill-opacity=".05"/>
</svg>
