<svg width="24" height="24" fill="none" xmlns="http://www.w3.org/2000/svg">
    <path d="M6.398 2.346v10.031h.007L6.398 2.346Zm12.83 9.959-.513-.446.328-.597c.107-.197.163-.417.162-.64a1.33 1.33 0 0 0-.46-1.008l-.513-.445.326-.596c.107-.196.163-.416.162-.64a1.33 1.33 0 0 0-.46-1.007l-.513-.446.326-.595a1.333 1.333 0 0 0-.626-1.854H8.086v8.09l1.957 7.09a1.038 1.038 0 0 0 .989.758.833.833 0 0 0 .837-.872l-.225-4.65h7.368c.418-.256.675-.687.675-1.135a1.33 1.33 0 0 0-.459-1.007Z" fill="#F85A00" fill-opacity=".05"/>
    <path d="M2.625 3.094v8.531c0 .415.335.75.75.75h1.523V2.344H3.375a.75.75 0 0 0-.75.75Zm18.138 8.397a3.016 3.016 0 0 0-.485-2.688 3.016 3.016 0 0 0-.485-2.688 3.014 3.014 0 0 0-1.709-3.642 1.55 1.55 0 0 0-.62-.127H6.397l.007 10.031 2.011 7.285a2.725 2.725 0 0 0 2.62 1.994c.697 0 1.346-.276 1.827-.783a2.49 2.49 0 0 0 .69-1.86l-.14-2.881h5.623c.284 0 .56-.075.804-.218.947-.55 1.535-1.55 1.535-2.601 0-.664-.218-1.301-.612-1.822Zm-1.75 2.956h-7.37l.226 4.65a.833.833 0 0 1-.837.872 1.038 1.038 0 0 1-.989-.757l-1.957-7.09v-8.09h9.36a1.333 1.333 0 0 1 .627 1.853l-.326.595.513.446a1.331 1.331 0 0 1 .298 1.647l-.326.596.513.445a1.33 1.33 0 0 1 .46 1.008c0 .227-.054.443-.162.64l-.328.597.513.446a1.33 1.33 0 0 1 .46 1.008c0 .447-.258.878-.675 1.134Z" fill="#F85A00"/>
</svg>
