<svg width="24" height="24" fill="none" xmlns="http://www.w3.org/2000/svg">
    <path fill-rule="evenodd" clip-rule="evenodd" d="M2.25 13a.75.75 0 0 1 .75-.75h4a.75.75 0 0 1 .75.75v8a.75.75 0 0 1-.75.75H3a.75.75 0 0 1-.75-.75v-8Zm1.5.75v6.5h2.5v-6.5h-2.5ZM9.25 10a.75.75 0 0 1 .75-.75h4a.75.75 0 0 1 .75.75v11a.75.75 0 0 1-.75.75h-4a.75.75 0 0 1-.75-.75V10Zm1.5.75v9.5h2.5v-9.5h-2.5ZM16.25 7a.75.75 0 0 1 .75-.75h4a.75.75 0 0 1 .75.75v14a.75.75 0 0 1-.75.75h-4a.75.75 0 0 1-.75-.75V7Zm1.5.75v12.5h2.5V7.75h-2.5ZM20.45 2.6l-4 3a.75.75 0 0 1-.45.15h-5.163L7.06 9.998a.75.75 0 0 1-.561.252H2v-1.5h4.163L9.94 4.502a.75.75 0 0 1 .561-.252h5.25l3.8-2.85.9 1.2Z" fill="#42494D"/>
</svg>
