<svg width="24" height="24" fill="none" xmlns="http://www.w3.org/2000/svg">
    <path d="M7.594 15.61a1.125 1.125 0 1 0 2.25 0 1.125 1.125 0 0 0-2.25 0Zm14.454-7.257L15.647 1.95a1.54 1.54 0 0 0-1.09-.45c-.412 0-.8.16-1.09.45L1.952 13.465a1.544 1.544 0 0 0 0 2.182l6.404 6.403c.288.288.677.45 1.09.45.412 0 .799-.16 1.09-.45L22.05 10.535c.6-.602.6-1.582-.002-2.182ZM9.445 20.627l-6.072-6.072L14.557 3.37l6.07 6.075L9.446 20.627ZM3.581 8.76a.185.185 0 0 0 .263 0l4.915-4.915a.185.185 0 0 0 0-.263l-.9-.9a.185.185 0 0 0-.263 0L2.68 7.591a.185.185 0 0 0 0 .263l.902.905Zm16.843 6.482a.186.186 0 0 0-.263 0l-4.92 4.918a.184.184 0 0 0-.04.202c.01.022.023.043.04.06l.9.9a.186.186 0 0 0 .263 0l4.917-4.915a.186.186 0 0 0 0-.262l-.897-.903Z" fill="#42494D"/>
</svg>
