<svg width="24" height="24" fill="none" xmlns="http://www.w3.org/2000/svg">
    <path d="M16.313 14.813h3v4.5h-3v-4.5Zm-11.625 0h3v4.5h-3v-4.5Z" fill="#F85A00" fill-opacity=".05"/>
    <path d="M12 3a9 9 0 0 0-9 9v8.438c0 .311.25.562.563.562h4.312c.827 0 1.5-.673 1.5-1.5v-4.875c0-.827-.673-1.5-1.5-1.5H4.687V12a7.313 7.313 0 0 1 14.625 0v1.125h-3.187c-.827 0-1.5.673-1.5 1.5V19.5c0 .827.673 1.5 1.5 1.5h4.313c.311 0 .562-.25.562-.563V12a9 9 0 0 0-9-9ZM7.687 14.813v4.5h-3v-4.5h3Zm11.625 4.5h-3v-4.5h3v4.5Z" fill="#F85A00"/>
</svg>
