<svg width="24" height="24" fill="none" xmlns="http://www.w3.org/2000/svg">
    <path d="M20.625 2.625H3.375a.75.75 0 0 0-.75.75v17.25c0 .415.335.75.75.75h17.25a.75.75 0 0 0 .75-.75V3.375a.75.75 0 0 0-.75-.75Zm-.938 17.063H4.313V4.313h15.375v15.375Z" fill="#F85A00"/>
    <path d="M4.313 19.688h15.375V4.313H4.313v15.375ZM15.374 6.563c0-.104.084-.188.188-.188h1.874c.104 0 .188.084.188.188v6a.188.188 0 0 1-.188.187h-1.875a.188.188 0 0 1-.187-.188v-6Zm-4.5 0c0-.104.084-.188.188-.188h1.874c.104 0 .188.084.188.188v4.312a.188.188 0 0 1-.188.188h-1.874a.188.188 0 0 1-.188-.188V6.562Zm-4.5 0c0-.104.084-.188.188-.188h1.875c.103 0 .187.084.187.188v10.875a.188.188 0 0 1-.188.187H6.563a.188.188 0 0 1-.188-.188V6.563Z" fill="#F85A00" fill-opacity=".05"/>
    <path d="M6.563 17.625h1.875a.188.188 0 0 0 .187-.188V6.563a.188.188 0 0 0-.188-.187H6.563a.188.188 0 0 0-.188.188v10.875c0 .103.084.187.188.187Zm4.5-6.563h1.874a.188.188 0 0 0 .188-.187V6.562a.188.188 0 0 0-.188-.187h-1.874a.188.188 0 0 0-.188.188v4.312c0 .103.084.188.188.188Zm4.5 1.688h1.874a.188.188 0 0 0 .188-.188v-6a.188.188 0 0 0-.188-.187h-1.875a.188.188 0 0 0-.187.188v6c0 .103.084.187.188.187Z" fill="#F85A00"/>
</svg>
