<svg width="24" height="24" fill="none" xmlns="http://www.w3.org/2000/svg">
    <path d="M19.5 1.5h-15a.75.75 0 0 0-.75.75v19.5c0 .415.335.75.75.75h15a.75.75 0 0 0 .75-.75V2.25a.75.75 0 0 0-.75-.75Zm-6.094 1.688h2.25v4.919l-1.09-.794-1.16.83V3.186ZM5.437 20.813V3.188H12v6.958a.372.372 0 0 0 .593.305l1.964-1.404 1.908 1.392c.063.047.14.073.22.073a.376.376 0 0 0 .375-.375v-6.95h1.5v17.625H5.438Z" fill="#F85A00"/>
    <path d="M15.656 8.107v-4.92h-2.25v4.955l1.16-.83 1.09.795Z" fill="#F85A00" fill-opacity=".05"/>
    <path d="M17.06 3.188v6.949a.376.376 0 0 1-.595.302l-1.908-1.392-1.964 1.404a.373.373 0 0 1-.593-.305V3.187H5.437v17.625H18.56V3.188h-1.5Z" fill="#F85A00" fill-opacity=".05"/>
</svg>
