<svg width="24" height="24" fill="none" xmlns="http://www.w3.org/2000/svg">
    <path fill-rule="evenodd" clip-rule="evenodd" d="M14.23 9.443h-1.762c-.16 0-.248-.168-.15-.284l2.67-3.092a.19.19 0 0 1 .067-.05.205.205 0 0 1 .234.05l2.67 3.094c.098.114.01.282-.15.282h-1.767v7.382c0 .096-.086.175-.19.175H14.42c-.105 0-.191-.079-.191-.175V9.443Zm-3.46 4.114h1.762c.16 0 .248.168.15.284l-2.67 3.092a.188.188 0 0 1-.067.05.205.205 0 0 1-.234-.05l-2.67-3.094c-.098-.114-.01-.282.15-.282h1.767V6.175c0-.096.086-.175.19-.175h1.431c.105 0 .19.079.19.175v7.382Z" fill="#42494D"/>
</svg>
