<svg width="24" height="24" fill="none" xmlns="http://www.w3.org/2000/svg">
    <path d="M20.813 18.375h-5.25a.188.188 0 0 0-.188.187v1.125c0 .104.085.188.188.188h5.25a.188.188 0 0 0 .187-.188v-1.125a.188.188 0 0 0-.187-.187ZM8.754 11.962a5.966 5.966 0 0 1 .068-1.709.189.189 0 0 0-.105-.205 2.961 2.961 0 0 1-.865-.589 2.99 2.99 0 0 1-.907-2.236 2.984 2.984 0 0 1 .85-2.006A2.984 2.984 0 0 1 9.98 4.31a2.996 2.996 0 0 1 2.494 1.378.187.187 0 0 0 .218.075 5.816 5.816 0 0 1 1.296-.29.188.188 0 0 0 .148-.272 4.696 4.696 0 0 0-4.118-2.576c-2.6-.04-4.765 2.09-4.765 4.685 0 1.472.677 2.785 1.739 3.645a7.046 7.046 0 0 0-2.028 1.415 6.97 6.97 0 0 0-2.057 4.781.188.188 0 0 0 .187.193H4.41c.1 0 .185-.08.188-.18a5.297 5.297 0 0 1 1.563-3.598 5.292 5.292 0 0 1 2.454-1.4.187.187 0 0 0 .14-.204Zm10.559-.618a4.69 4.69 0 0 0-4.615-4.688c-2.597-.04-4.76 2.09-4.76 4.688 0 1.472.68 2.784 1.739 3.644a7.055 7.055 0 0 0-2.025 1.416 6.97 6.97 0 0 0-2.058 4.779.187.187 0 0 0 .188.192h1.312c.101 0 .185-.08.188-.18a5.297 5.297 0 0 1 1.563-3.598 5.307 5.307 0 0 1 3.78-1.566 4.688 4.688 0 0 0 4.688-4.687Zm-2.566 2.12a2.978 2.978 0 0 1-2.122.88 2.978 2.978 0 0 1-2.12-.88 2.984 2.984 0 0 1-.88-2.15 3.005 3.005 0 0 1 2.97-2.97 3.017 3.017 0 0 1 2.133.857c.581.57.9 1.332.9 2.143a2.99 2.99 0 0 1-.881 2.12Z" fill="#42494D"/>
</svg>
