<svg width="24" height="24" fill="none" xmlns="http://www.w3.org/2000/svg">
    <path fill="#fff" d="M0 0h24v24H0z"/>
    <path fill-rule="evenodd" clip-rule="evenodd" d="m19.71 10.883-.487-.497a.5.5 0 0 1 .008-.707l.357-.35a.5.5 0 0 1 .707.008l.837.854a.75.75 0 0 1 .154.818l-.735 1.73 1.737.724a.75.75 0 0 1 .462.692v1.696a.75.75 0 0 1-.462.692l-1.777.74.733 1.78a.75.75 0 0 1-.163.816l-1.2 1.2a.75.75 0 0 1-.816.162l-1.796-.74-.754 1.79a.75.75 0 0 1-.694.459l-1.696-.007a.75.75 0 0 1-.69-.464L12.7 20.5l-1.32.538a.5.5 0 0 1-.651-.274l-.189-.463a.5.5 0 0 1 .275-.652l2.011-.82a.75.75 0 0 1 .976.41l.829 2.007.696.003.848-2.014a.75.75 0 0 1 .977-.402l2.022.832.492-.492-.827-2.008a.75.75 0 0 1 .405-.978l2.006-.835v-.696l-1.973-.821a.75.75 0 0 1-.402-.986l.835-1.965Z" fill="#42494D"/>
    <path fill-rule="evenodd" clip-rule="evenodd" d="M9.246 2.25a.75.75 0 0 0-.698.453L7.78 4.49l-1.794-.753a.75.75 0 0 0-.817.157L3.96 5.084a.75.75 0 0 0-.169.815L4.51 7.68l-1.78.725a.75.75 0 0 0-.467.689L2.25 10.79a.75.75 0 0 0 .456.696l1.787.76-.746 1.794a.75.75 0 0 0 .16.817l1.195 1.203a.75.75 0 0 0 .815.166L7.7 15.5l.734 1.78a.75.75 0 0 0 .69.463l1.697.007a.75.75 0 0 0 .694-.459l.754-1.79 1.796.74a.75.75 0 0 0 .816-.163l1.2-1.199a.75.75 0 0 0 .163-.816l-.733-1.78 1.777-.74a.75.75 0 0 0 .462-.692V9.155a.75.75 0 0 0-.462-.692l-1.737-.724.735-1.73a.75.75 0 0 0-.154-.817L14.945 3.98a.75.75 0 0 0-.813-.172l-1.785.712-.718-1.78a.75.75 0 0 0-.687-.47l-1.696-.02ZM10 11.5a1.5 1.5 0 1 0 0-3 1.5 1.5 0 0 0 0 3Z" fill="#42494D"/>
</svg>
