<svg width="24" height="24" fill="none" xmlns="http://www.w3.org/2000/svg">
    <path fill-rule="evenodd" clip-rule="evenodd" d="M3 2.25a.75.75 0 0 0-.75.75v5c0 .414.336.75.75.75h7a.75.75 0 0 0 .75-.75V3a.75.75 0 0 0-.75-.75H3Zm10 0a.75.75 0 0 0-.75.75v12c0 .414.336.75.75.75h8a.75.75 0 0 0 .75-.75V3a.75.75 0 0 0-.75-.75h-8Zm-10 8a.75.75 0 0 0-.75.75v10c0 .414.336.75.75.75h7a.75.75 0 0 0 .75-.75V11a.75.75 0 0 0-.75-.75H3Zm10 7a.75.75 0 0 0-.75.75v3c0 .414.336.75.75.75h8a.75.75 0 0 0 .75-.75v-3a.75.75 0 0 0-.75-.75h-8Z" fill="#42494D"/>
</svg>
