<svg width="24" height="24" fill="none" xmlns="http://www.w3.org/2000/svg">
    <path d="M20.03 6.766c.14.141.22.33.22.53V21.75a.75.75 0 0 1-.75.75h-15a.75.75 0 0 1-.75-.75V2.25a.75.75 0 0 1 .75-.75h9.954c.2 0 .391.08.532.22l5.044 5.046Zm-1.51.875L14.11 3.23v4.41h4.41ZM12 13.268l1.238 4.617a.282.282 0 0 0 .272.209h.744a.282.282 0 0 0 .272-.208l1.743-6.47a.281.281 0 0 0-.272-.354h-.833a.281.281 0 0 0-.275.219l-1.073 4.666-1.166-4.671a.282.282 0 0 0-.273-.213h-.754a.281.281 0 0 0-.273.213l-1.164 4.662-1.08-4.658a.281.281 0 0 0-.274-.217h-.83a.281.281 0 0 0-.271.354l1.738 6.469a.281.281 0 0 0 .272.208h.75a.282.282 0 0 0 .271-.209L12 13.268Z" fill="#42494D"/>
</svg>
