<svg width="24" height="24" fill="none" xmlns="http://www.w3.org/2000/svg">
    <path d="M20.625 2.625H3.375a.75.75 0 0 0-.75.75v17.25c0 .415.335.75.75.75h17.25a.75.75 0 0 0 .75-.75V3.375a.75.75 0 0 0-.75-.75Zm-.938 17.063H4.313V4.313h15.375v15.375Z" fill="#F85A00"/>
    <path d="M4.313 19.688h15.375V4.313H4.313v15.375Zm6.004-1.758h-1.19a.18.18 0 0 1-.139-.068l-.832-1.02-.832 1.02a.173.173 0 0 1-.138.068h-1.19c-.155 0-.24-.186-.137-.307l1.47-1.8-1.434-1.756c-.101-.122-.017-.307.138-.307h1.193a.18.18 0 0 1 .138.068l.797.975.797-.975a.173.173 0 0 1 .138-.068h1.19c.155 0 .24.185.139.307L8.988 15.82l1.47 1.8c.098.124.014.31-.14.31ZM13.5 7.852c0-.052.033-.094.075-.094h4.535c.045 0 .078.042.078.094v1.125c0 .051-.033.093-.075.093h-4.538c-.042 0-.075-.042-.075-.093V7.852Zm0 6.21c0-.051.033-.093.075-.093h4.535c.045 0 .078.042.078.094v1.124c0 .052-.033.094-.075.094h-4.538c-.042 0-.075-.042-.075-.094v-1.124Zm0 2.438c0-.052.033-.094.075-.094h4.535c.045 0 .078.042.078.094v1.125c0 .052-.033.094-.075.094h-4.538c-.042 0-.075-.042-.075-.094V16.5ZM5.812 7.852c0-.052.033-.094.075-.094H7.5V6.145c0-.042.042-.075.094-.075h1.125c.051 0 .094.033.094.075v1.613h1.61c.044 0 .077.042.077.094v1.125c0 .051-.033.093-.075.093H8.812v1.61c0 .045-.042.078-.093.078H7.594c-.052 0-.094-.033-.094-.075V9.07H5.888c-.043 0-.075-.042-.075-.093V7.852Z" fill="#F85A00" fill-opacity=".05"/>
    <path d="m8.988 15.82 1.437-1.753c.1-.122.016-.307-.138-.307h-1.19a.173.173 0 0 0-.14.068l-.796.975-.797-.975a.181.181 0 0 0-.138-.068H6.033c-.155 0-.24.185-.138.307l1.434 1.756-1.47 1.8c-.103.121-.018.307.136.307h1.19a.173.173 0 0 0 .14-.068l.831-1.02.832 1.02a.18.18 0 0 0 .139.068h1.19c.155 0 .24-.186.14-.31l-1.469-1.8Zm-3.1-6.75H7.5v1.613c0 .042.042.075.094.075h1.125c.051 0 .094-.033.094-.077V9.07h1.612c.042 0 .075-.043.075-.094V7.852c0-.052-.033-.094-.077-.094h-1.61V6.145c0-.042-.043-.075-.094-.075H7.594c-.052 0-.094.033-.094.075v1.613H5.888c-.043 0-.075.042-.075.094v1.125c0 .051.032.093.075.093Zm7.687 8.649h4.538c.042 0 .075-.042.075-.094V16.5c0-.052-.033-.094-.078-.094h-4.535c-.042 0-.075.042-.075.094v1.125c0 .052.033.094.075.094Zm0-2.438h4.538c.042 0 .075-.042.075-.094v-1.124c0-.052-.033-.094-.078-.094h-4.535c-.042 0-.075.042-.075.094v1.124c0 .052.033.094.075.094Zm0-6.21h4.538c.042 0 .075-.043.075-.094V7.852c0-.052-.033-.094-.078-.094h-4.535c-.042 0-.075.042-.075.094v1.125c0 .051.033.093.075.093Z" fill="#F85A00"/>
</svg>
