<svg width="24" height="24" fill="none" xmlns="http://www.w3.org/2000/svg">
    <path d="M16.5 7.5a.75.75 0 0 1-.75.75h-7.5a.75.75 0 0 1-.75-.75V4.312H4.312v15.375h15.375V8.011L16.5 4.823V7.5ZM12 17.11a3.376 3.376 0 1 1 .002-6.752A3.376 3.376 0 0 1 12 17.109Z" fill="#F85A00" fill-opacity=".05"/>
    <path d="M12 10.36a3.376 3.376 0 1 0 .002 6.751A3.376 3.376 0 0 0 12 10.36Zm0 5.25a1.875 1.875 0 1 1 0-3.75 1.875 1.875 0 0 1 0 3.75Z" fill="#F85A00"/>
    <path d="m20.937 6.874-3.811-3.81-.05-.048-.009-.007c-.016-.016-.035-.03-.051-.044a1.5 1.5 0 0 0-.516-.274v-.066H3.375a.75.75 0 0 0-.75.75v17.25c0 .415.335.75.75.75h17.25a.75.75 0 0 0 .75-.75V7.934c0-.399-.157-.779-.438-1.06ZM9 4.313h6V6.75H9V4.312Zm10.688 15.375H4.313V4.313H7.5V7.5c0 .415.335.75.75.75h7.5a.75.75 0 0 0 .75-.75V4.823l3.188 3.188v11.677Z" fill="#F85A00"/>
</svg>
