<svg width="24" height="24" fill="none" xmlns="http://www.w3.org/2000/svg">
    <path d="M19.514 4.487a5.067 5.067 0 0 0-7.172 0l-2.271 2.27 1.195 1.196 2.271-2.271c1.261-1.261 3.39-1.395 4.782 0 1.394 1.394 1.26 3.52 0 4.781l-2.271 2.271 1.197 1.198 2.271-2.271a5.076 5.076 0 0 0-.002-7.174Zm-9.05 13.832c-1.26 1.261-3.388 1.395-4.78 0-1.395-1.394-1.262-3.52 0-4.78l2.27-2.272-1.197-1.198-2.271 2.271a5.067 5.067 0 0 0 0 7.172 5.07 5.07 0 0 0 7.172 0l2.27-2.27-1.195-1.196-2.268 2.273ZM6.102 4.91a.188.188 0 0 0-.265 0l-.928.928a.188.188 0 0 0 0 .264L17.9 19.095a.188.188 0 0 0 .265 0l.928-.928a.188.188 0 0 0 0-.265L6.101 4.908Z" fill="#42494D"/>
</svg>
