<svg width="24" height="24" fill="none" xmlns="http://www.w3.org/2000/svg">
    <path d="M21.75 3.75H2.25a.75.75 0 0 0-.75.75v15c0 .415.335.75.75.75h19.5a.75.75 0 0 0 .75-.75v-15a.75.75 0 0 0-.75-.75Zm-.938 14.813H3.188v-.936l3.247-3.85 3.518 4.171 5.472-6.487 5.389 6.389v.712Zm0-3.043L15.567 9.3a.186.186 0 0 0-.286 0l-5.33 6.319-3.374-4.001a.186.186 0 0 0-.286 0l-3.104 3.68v-9.86h17.625V15.52Z" fill="#F85A00"/>
    <path d="m9.952 17.948-3.518-4.171-3.247 3.85v.936h17.625v-.713l-5.388-6.39-5.472 6.488Z" fill="#F85A00" fill-opacity=".05"/>
    <path d="m3.188 15.298 3.103-3.68c.075-.09.21-.09.286 0l3.375 4 5.33-6.318a.186.186 0 0 1 .285 0l5.245 6.22V5.438H3.188v9.86Zm3.937-8.736a2.062 2.062 0 1 1 0 4.125 2.062 2.062 0 0 1 0-4.124Z" fill="#F85A00" fill-opacity=".05"/>
    <path d="M6.469 8.625a.656.656 0 1 0 1.312 0 .656.656 0 0 0-1.312 0Z" fill="#F85A00" fill-opacity=".05"/>
    <path d="M7.125 10.688a2.062 2.062 0 1 0 0-4.124 2.062 2.062 0 0 0 0 4.123Zm0-2.72a.655.655 0 1 1 0 1.313.655.655 0 1 1 0-1.312Z" fill="#F85A00"/>
</svg>
