<svg width="24" height="24" fill="none" xmlns="http://www.w3.org/2000/svg">
    <path d="M20.672 6.377V3.375a.75.75 0 0 0-.75-.75H4.078a.75.75 0 0 0-.75.75v3.002a.75.75 0 0 0-.703.748v3.087a4.148 4.148 0 0 0 .337 1.65c.101.239.225.464.366.677v8.086c0 .413.335.75.75.75h15.844a.75.75 0 0 0 .75-.75v-8.086a4.19 4.19 0 0 0 .703-2.327V7.125a.75.75 0 0 0-.703-.748ZM5.015 4.313h13.97v2.062H5.014V4.312ZM13.5 19.69h-3v-2.44h3v2.44Zm5.484 0H15V16.5a.75.75 0 0 0-.75-.75h-4.5a.75.75 0 0 0-.75.75v3.19H5.015v-5.677a4.225 4.225 0 0 0 1.86.424 4.283 4.283 0 0 0 2.557-.848.015.015 0 0 1 .015 0c.28.21.585.383.908.518.522.22 1.078.33 1.65.33.571 0 1.124-.11 1.65-.33.323-.136.628-.31.907-.518a.015.015 0 0 1 .014 0c.28.21.584.383.907.518.522.22 1.078.33 1.65.33a4.233 4.233 0 0 0 1.86-.424v5.677h-.009Zm.703-9.478c0 1.401-1.148 2.538-2.561 2.538-.957 0-1.791-.518-2.232-1.287a.375.375 0 0 0-.325-.19h-.014a.378.378 0 0 0-.326.19 2.562 2.562 0 0 1-2.23 1.287 2.563 2.563 0 0 1-2.226-1.282.387.387 0 0 0-.67 0 2.57 2.57 0 0 1-2.229 1.282c-1.413 0-2.562-1.137-2.562-2.538V8.074c0-.007.005-.011.012-.011h15.352c.007 0 .011.004.011.011v2.138Z" fill="#42494D"/>
</svg>
