<svg width="24" height="24" fill="none" xmlns="http://www.w3.org/2000/svg">
    <path d="M20.025 18.771c.005-.007.012-.014.016-.021A10.449 10.449 0 0 0 22.5 12a10.46 10.46 0 0 0-2.456-6.75l-.017-.019c-.025-.03-.049-.058-.075-.086l-.028-.033-.096-.11-.002-.003-.108-.12-.002-.002c-.075-.08-.15-.159-.228-.236l-.002-.003-.113-.112-.007-.007a4.176 4.176 0 0 0-.105-.101c-.012-.012-.023-.023-.038-.035a1.733 1.733 0 0 0-.07-.066c-.007-.007-.016-.014-.023-.023A10.45 10.45 0 0 0 12 1.5a10.46 10.46 0 0 0-7.132 2.794c-.007.007-.016.014-.023.023-.024.021-.047.045-.07.068a.55.55 0 0 1-.038.035l-.106.101-.007.007-.112.113-.003.002c-.077.077-.152.157-.227.237l-.002.002c-.038.04-.073.08-.108.12l-.002.002a2.154 2.154 0 0 0-.097.11l-.028.033-.075.087c-.004.007-.011.011-.016.018A10.46 10.46 0 0 0 1.5 12c0 2.571.923 4.924 2.456 6.75l.017.021.072.087c.01.011.02.02.028.033l.097.11c0 .002.002.002.002.005.035.04.07.08.108.117l.002.002c.075.08.15.16.225.237l.002.002c.038.038.073.075.11.11l.008.007A10.48 10.48 0 0 0 12 22.5a10.46 10.46 0 0 0 7.366-3.019l.007-.007c.038-.037.075-.072.11-.11l.003-.002c.077-.078.152-.157.225-.237l.002-.002c.035-.04.073-.078.108-.117 0-.003.002-.003.002-.005.033-.035.066-.073.096-.11.01-.012.02-.021.029-.033.026-.028.052-.057.077-.087Zm.096-3.342a8.8 8.8 0 0 1-1.27 2.114 10.406 10.406 0 0 0-1.91-1.31c.271-1.1.44-2.306.485-3.577h3.363a8.764 8.764 0 0 1-.668 2.773Zm.668-4.085h-3.363a17.518 17.518 0 0 0-.485-3.577 10.41 10.41 0 0 0 1.91-1.31 8.763 8.763 0 0 1 1.938 4.887Zm-5.36-7.465A8.76 8.76 0 0 1 17.95 5.5a9.252 9.252 0 0 1-1.392.98c-.368-1.055-.84-1.972-1.388-2.705.087.033.174.068.258.103Zm-2.123 16.42a2.652 2.652 0 0 1-.65.385v-4.348a9.12 9.12 0 0 1 2.712.614 10.17 10.17 0 0 1-.68 1.59c-.408.758-.886 1.366-1.383 1.76Zm1.382-14.838c.258.483.485 1.015.68 1.589a9.12 9.12 0 0 1-2.712.614V3.32c.216.086.434.213.65.384.496.392.975.999 1.382 1.758Zm-2.032 9.56v-2.365h3.457a16.28 16.28 0 0 1-.382 2.996l-.007.028a10.43 10.43 0 0 0-3.068-.659Zm0-3.677V8.979a10.43 10.43 0 0 0 3.068-.659l.007.028c.216.954.345 1.957.382 2.996h-3.457Zm-1.312 1.312v2.365a10.43 10.43 0 0 0-3.068.659l-.007-.028a16.253 16.253 0 0 1-.382-2.996h3.457Zm-3.457-1.312c.037-1.036.166-2.042.382-2.996l.007-.028c.963.366 1.992.593 3.068.659v2.365H7.887Zm3.457 4.992v4.345a2.625 2.625 0 0 1-.65-.384c-.496-.392-.977-1-1.385-1.76a10.587 10.587 0 0 1-.68-1.59 9.15 9.15 0 0 1 2.715-.611Zm0-8.672a9.12 9.12 0 0 1-2.712-.614c.195-.577.42-1.109.68-1.59.408-.758.886-1.368 1.385-1.76.216-.168.431-.297.65-.384v4.348h-.003ZM8.57 3.88c.087-.035.171-.07.258-.103-.549.733-1.02 1.65-1.388 2.704A9.085 9.085 0 0 1 6.05 5.5 8.761 8.761 0 0 1 8.571 3.88ZM3.88 8.57a8.801 8.801 0 0 1 1.27-2.114c.584.504 1.224.945 1.91 1.31-.272 1.1-.44 2.306-.485 3.577H3.211c.07-.959.295-1.89.668-2.773Zm-.668 4.085h3.363c.045 1.27.213 2.478.485 3.577-.683.364-1.324.803-1.91 1.31a8.763 8.763 0 0 1-1.938-4.887Zm5.36 7.465A8.762 8.762 0 0 1 6.05 18.5c.434-.37.9-.696 1.392-.98.368 1.055.84 1.972 1.388 2.705a8.555 8.555 0 0 1-.258-.103Zm6.858 0c-.087.035-.171.07-.258.103.549-.733 1.02-1.65 1.388-2.704.492.28.958.609 1.392.98a8.762 8.762 0 0 1-2.522 1.621Z" fill="#42494D"/>
</svg>
