<svg width="24" height="24" fill="none" xmlns="http://www.w3.org/2000/svg">
    <path fill-rule="evenodd" clip-rule="evenodd" d="m16.45 5.6 4-3-.9-1.2-3.8 2.85H10.5a.75.75 0 0 0-.56.252L6.162 8.75H2v1.5h4.5a.75.75 0 0 0 .56-.252l3.777-4.248H16a.75.75 0 0 0 .45-.15Zm-.2 1.4a.75.75 0 0 1 .75-.75h4a.75.75 0 0 1 .75.75v14a.75.75 0 0 1-.75.75h-4a.75.75 0 0 1-.75-.75V7Zm-7 3a.75.75 0 0 1 .75-.75h4a.75.75 0 0 1 .75.75v11a.75.75 0 0 1-.75.75h-4a.75.75 0 0 1-.75-.75V10Zm-7 3a.75.75 0 0 1 .75-.75h4a.75.75 0 0 1 .75.75v8a.75.75 0 0 1-.75.75H3a.75.75 0 0 1-.75-.75v-8Z" fill="#42494D"/>
</svg>
