<svg width="24" height="24" fill="none" xmlns="http://www.w3.org/2000/svg">
    <path d="M20.03 6.766c.14.141.22.33.22.53V21.75a.75.75 0 0 1-.75.75h-15a.75.75 0 0 1-.75-.75V2.25a.75.75 0 0 1 .75-.75h9.954c.2 0 .391.08.532.22l5.044 5.046Zm-1.51.875L14.11 3.23v4.41h4.41Zm-5.035 3.558-1.435 2.398-1.45-2.399a.282.282 0 0 0-.24-.135h-.9a.281.281 0 0 0-.239.431l1.93 3.057-1.956 3.112a.28.28 0 0 0 .238.431h.808a.28.28 0 0 0 .24-.134l1.469-2.378 1.46 2.378a.281.281 0 0 0 .24.134h.878a.282.282 0 0 0 .237-.433L12.8 14.6l2-3.105a.281.281 0 0 0-.237-.433h-.837a.282.282 0 0 0-.241.137Z" fill="#42494D"/>
</svg>
