<svg width="24" height="24" fill="none" xmlns="http://www.w3.org/2000/svg">
    <path d="M20.498 7.073 13.988.5a1.802 1.802 0 0 0-.446-.323c-.02-.012-.044-.021-.065-.03a1.677 1.677 0 0 0-.68-.146H4.71C3.778 0 3 .755 3 1.688v20.625C3 23.244 3.778 24 4.71 24h14.602c.933 0 1.665-.755 1.665-1.688V8.262c0-.446-.165-.872-.479-1.189Zm-6.834-4.486 4.706 4.726h-4.706V2.588Zm5.625 19.726H4.687V1.688h7.29v5.625c0 .932.778 1.687 1.71 1.687h5.602v13.313ZM8.203 16.323c0 .567-.176.736-.513.736-.211 0-.431-.136-.581-.433l-.713.53c.314.536.757.8 1.437.8.975 0 1.425-.7 1.425-1.55v-2.884H8.203v2.801Zm3.546-2.8h-1.507v4.359h1.031V16.43h.507c.916 0 1.713-.46 1.713-1.49 0-1.074-.785-1.417-1.744-1.417Zm-.019 2.085h-.457v-1.242h.427c.504 0 .783.145.783.584 0 .424-.246.658-.753.658Zm4.278-.21v.843h.703v.706a.761.761 0 0 1-.415.11c-.804 0-1.188-.502-1.188-1.364 0-.846.461-1.346 1.104-1.346.358 0 .586.146.797.338l.555-.663a1.907 1.907 0 0 0-1.387-.567c-1.163 0-2.136.827-2.136 2.273 0 1.47.938 2.229 2.145 2.229.607 0 1.153-.24 1.441-.53v-2.03h-1.62Z" fill="#42494D"/>
</svg>
