<svg width="24" height="24" fill="none" xmlns="http://www.w3.org/2000/svg">
    <g clip-path="url(#a)" fill="#F85A00">
        <path d="m4.38 11.903-.172-1.664a1.243 1.243 0 0 1-.001-.247l-.126.091a.825.825 0 0 0-.185 1.152l.483.668ZM10.296 8.368l6.925-.714a.808.808 0 0 0-.048-.076l-1.89-2.613a.806.806 0 0 0-1.126-.18l-.473-.654.972-.703a.412.412 0 0 1 .576.092l2.921 4.038.288-.03c.314-.032.613.056.85.227l-3.636-5.026a.825.825 0 0 0-1.152-.185L5.814 8.829l3.407-.35c.056-.16.127-.315.214-.467a2.96 2.96 0 0 1 .84-.916c.348-.253.713-.42 1.093-.501.384-.085.76-.077 1.13.024l-.142.867c-.56-.124-1.065-.023-1.516.303-.23.166-.411.36-.544.579Z"/>
        <path fill-rule="evenodd" clip-rule="evenodd" d="m20.065 15.24-.677-6.565a.825.825 0 0 0-.905-.736L5.354 9.29a.825.825 0 0 0-.736.905l.588 5.704c.196-.09.473-.215.793-.358l-.457-4.436a1 1 0 0 1 .892-1.097l.647-.067.084.821a.825.825 0 0 0-.736.905l.338 3.282c.008.08.028.155.056.226l.524-.232a5.223 5.223 0 0 1 3.139-.342 2.76 2.76 0 0 1-.47-.807l-.871.09-.058-.558.773-.08a3.47 3.47 0 0 1-.036-.27 3.471 3.471 0 0 1-.02-.272l-.773.08-.057-.56.872-.089c.065-.415.212-.79.44-1.126.234-.335.53-.608.89-.817.365-.21.77-.337 1.213-.383a2.961 2.961 0 0 1 1.225.116c.384.121.714.321.99.6l-.57.695c-.433-.396-.932-.565-1.498-.507-.408.042-.757.18-1.047.414a1.822 1.822 0 0 0-.595.9l2.195-.226.057.558-2.34.242c.002.118.006.208.013.272.006.064.02.154.043.27l2.34-.241.058.558-2.195.226c.184.336.439.59.766.76.332.17.702.234 1.11.192.565-.058 1.02-.328 1.361-.81l.701.573a2.392 2.392 0 0 1-.846.789 2.959 2.959 0 0 1-1.262.37c.263.092.534.164.81.215l.727.135.024.007c.359.105.64.344.808.645l3.356-.346.296-.243c.33-.272.726-.44 1.139-.495a.827.827 0 0 0 .01-.24Zm-1.815.186a1 1 0 0 0 .892-1.097l-.471-4.575a1 1 0 0 0-1.097-.892l-.647.066.085.82a.825.825 0 0 1 .905.737l.338 3.282a.825.825 0 0 1-.736.905l.085.82.646-.066Z"/>
        <path d="M14.891 17.51a.868.868 0 0 0-.575-1.112l-.702-.13a6.052 6.052 0 0 1-1.847-.666 4.732 4.732 0 0 0-4.219-.2c-.887.392-1.802.798-2.212.988-.917.426-1.884.706-2.656.805a.207.207 0 0 0-.172.263l.813 2.842c.07.245.34.372.57.267a6.21 6.21 0 0 1 4.74-.151l2.303.865c.69.26 1.445.29 2.152.085L18.2 19.89l1.71-1.845 1.05-1.64a.256.256 0 0 0-.148-.386 1.764 1.764 0 0 0-1.579.341l-.83.683a2.996 2.996 0 0 1-2.293.656l-.794-.104a1.43 1.43 0 0 1-.017.054l-.07.206a1.287 1.287 0 0 1-1.66.803l-2.547-.926a.217.217 0 0 1-.134-.265.215.215 0 0 1 .28-.143l2.547.926a.855.855 0 0 0 1.107-.535l.07-.206ZM5.49 10.61a.5.5 0 0 1 .446-.55l1.144-.117.085.82a.825.825 0 0 0-.737.905l.339 3.283c.008.08.027.155.056.225l-.825.367-.508-4.934ZM19.193 14.826a.5.5 0 0 1-.446.55l-1.144.117-.084-.82a.825.825 0 0 0 .736-.906l-.338-3.282a.825.825 0 0 0-.906-.736l-.084-.82 1.144-.118a.5.5 0 0 1 .548.446l.574 5.57Z" fill-opacity=".05"/>
    </g>
    <defs>
        <clipPath id="a">
            <path fill="#fff" d="M0 0h24v24H0z"/>
        </clipPath>
    </defs>
</svg>
