<svg width="24" height="24" fill="none" xmlns="http://www.w3.org/2000/svg">
    <path d="M20.906 18.094h-1.875v-1.875a.188.188 0 0 0-.187-.188h-1.125a.188.188 0 0 0-.188.188v1.875h-1.875a.188.188 0 0 0-.187.187v1.125c0 .103.084.188.187.188h1.875v1.875c0 .103.085.187.188.187h1.125a.188.188 0 0 0 .187-.187v-1.875h1.875a.188.188 0 0 0 .188-.188v-1.125a.188.188 0 0 0-.188-.187ZM8.754 11.68a5.965 5.965 0 0 1 .068-1.709.189.189 0 0 0-.106-.206 2.962 2.962 0 0 1-.865-.588 2.99 2.99 0 0 1-.907-2.236 2.985 2.985 0 0 1 .851-2.006 2.984 2.984 0 0 1 2.185-.907 2.996 2.996 0 0 1 2.493 1.378.187.187 0 0 0 .218.075 5.814 5.814 0 0 1 1.296-.29.188.188 0 0 0 .148-.273 4.696 4.696 0 0 0-4.118-2.575c-2.597-.04-4.762 2.09-4.762 4.687 0 1.472.677 2.785 1.739 3.645a7.048 7.048 0 0 0-2.028 1.415 6.971 6.971 0 0 0-2.058 4.782.188.188 0 0 0 .188.192H4.41c.1 0 .185-.08.187-.18a5.297 5.297 0 0 1 1.564-3.598 5.292 5.292 0 0 1 2.453-1.4.192.192 0 0 0 .139-.206Zm10.558-.619a4.69 4.69 0 0 0-4.615-4.687c-2.596-.04-4.76 2.09-4.76 4.687 0 1.472.68 2.785 1.74 3.645a7.054 7.054 0 0 0-2.026 1.416A6.97 6.97 0 0 0 7.594 20.9a.188.188 0 0 0 .187.193h1.313c.1 0 .185-.08.187-.18a5.297 5.297 0 0 1 1.563-3.598 5.307 5.307 0 0 1 3.78-1.566 4.688 4.688 0 0 0 4.688-4.688Zm-2.566 2.122a2.978 2.978 0 0 1-2.121.878 2.978 2.978 0 0 1-2.121-.878 2.981 2.981 0 0 1-.88-2.152 3.004 3.004 0 0 1 2.97-2.97 3.017 3.017 0 0 1 2.133.858c.581.57.9 1.332.9 2.142a2.99 2.99 0 0 1-.881 2.122Z" fill="#42494D"/>
</svg>
