<svg width="24" height="24" fill="none" xmlns="http://www.w3.org/2000/svg">
    <path d="M9.563 7.313h1.124a.188.188 0 0 0 .188-.188V6a.188.188 0 0 0-.188-.188H9.563A.188.188 0 0 0 9.374 6v1.125c0 .103.084.188.188.188Zm8.25 2.812v-6.75a.75.75 0 0 0-.75-.75H6.938a.75.75 0 0 0-.75.75v6.75c-1.552 0-2.813 1.221-2.813 2.719v8.344c0 .103.084.187.188.187h16.875a.188.188 0 0 0 .187-.188v-8.343c0-1.498-1.26-2.719-2.813-2.719Zm-1.688 0h-8.25V4.312h8.25v5.813Zm-2.813-2.813h1.126a.188.188 0 0 0 .187-.187V6a.188.188 0 0 0-.188-.188h-1.124a.188.188 0 0 0-.188.188v1.125c0 .103.084.188.188.188Z" fill="#42494D"/>
</svg>
