<svg width="24" height="24" fill="none" xmlns="http://www.w3.org/2000/svg">
    <path d="M20.03 6.764 14.986 1.72a.749.749 0 0 0-.53-.22H4.5a.75.75 0 0 0-.75.75v19.5c0 .415.335.75.75.75h15a.75.75 0 0 0 .75-.75V7.296c0-.2-.08-.391-.22-.532Zm-1.51.877h-4.41V3.23l4.41 4.41Zm.043 13.171H5.438V3.188h7.078V8.25a.984.984 0 0 0 .984.984h5.063v11.579Zm-6.186-9.75h-.754a.278.278 0 0 0-.272.214l-1.165 4.662-1.08-4.658a.283.283 0 0 0-.275-.217h-.83a.282.282 0 0 0-.271.353l1.739 6.47a.283.283 0 0 0 .272.208h.75a.28.28 0 0 0 .271-.209L12 13.268l1.238 4.617a.283.283 0 0 0 .271.209h.746a.28.28 0 0 0 .272-.209l1.743-6.469a.282.282 0 0 0-.272-.354h-.834a.283.283 0 0 0-.274.219l-1.074 4.666-1.167-4.671a.278.278 0 0 0-.272-.213Z" fill="#42494D"/>
</svg>
