<svg width="24" height="24" fill="none" xmlns="http://www.w3.org/2000/svg">
    <path d="M21.675 9.037a10.47 10.47 0 0 0-2.25-3.337A10.469 10.469 0 0 0 12 2.625 10.47 10.47 0 0 0 4.575 5.7 10.47 10.47 0 0 0 1.5 13.125c0 3.11 1.366 6.04 3.748 8.041l.04.033a.76.76 0 0 0 .482.176h12.462a.76.76 0 0 0 .483-.176l.04-.033a10.486 10.486 0 0 0 3.745-8.041c0-1.418-.279-2.791-.825-4.088Zm-3.83 10.557H6.155a8.699 8.699 0 0 1-2.874-6.469c0-2.33.907-4.519 2.555-6.164A8.66 8.66 0 0 1 12 4.406c2.33 0 4.519.907 6.164 2.555a8.661 8.661 0 0 1 2.555 6.164 8.698 8.698 0 0 1-2.874 6.469Zm-3.232-9.715a.188.188 0 0 0-.265 0l-1.98 1.98a1.31 1.31 0 0 0-1.553.766 1.31 1.31 0 0 0 1.213 1.815 1.312 1.312 0 0 0 1.268-1.652l1.98-1.981a.188.188 0 0 0 0-.265l-.663-.663ZM11.484 7.5h1.032a.188.188 0 0 0 .187-.188V5.438a.188.188 0 0 0-.187-.187h-1.032a.188.188 0 0 0-.187.188v1.875c0 .103.084.187.187.187Zm6.094 5.11v1.03c0 .104.085.188.188.188h1.875a.188.188 0 0 0 .187-.187v-1.032a.188.188 0 0 0-.187-.187h-1.875a.188.188 0 0 0-.188.187Zm.298-4.622-.73-.73a.188.188 0 0 0-.264 0l-1.327 1.327a.188.188 0 0 0 0 .265l.73.729a.188.188 0 0 0 .264 0l1.327-1.327a.188.188 0 0 0 0-.265Zm-10.749-.73a.188.188 0 0 0-.264 0l-.73.73a.188.188 0 0 0 0 .264L7.46 9.58a.188.188 0 0 0 .265 0l.729-.729a.188.188 0 0 0 0-.265L7.127 7.26Zm-.986 5.164H4.266a.188.188 0 0 0-.188.187v1.032c0 .103.084.187.188.187H6.14a.188.188 0 0 0 .187-.187v-1.032a.188.188 0 0 0-.187-.187Z" fill="#42494D"/>
</svg>
