<svg width="24" height="24" fill="none" xmlns="http://www.w3.org/2000/svg">
    <path d="m4.678 11.11-.365 1.007v5.555h15.375v-5.555l-.366-1.008H4.678Zm1.51 3.445a.937.937 0 1 1-.001-1.875.937.937 0 0 1 0 1.875Zm9.093 1.758a.188.188 0 0 1-.187.187H8.906a.188.188 0 0 1-.187-.188v-1.968c0-.103.084-.188.187-.188h.938c.103 0 .187.085.187.188v.844h3.938v-.844c0-.103.084-.188.187-.188h.938c.103 0 .187.085.187.188v1.969Zm2.531-1.758a.937.937 0 1 1 0-1.875.937.937 0 0 1 0 1.875Z" fill="#F85A00" fill-opacity=".05"/>
    <path d="M16.875 13.617a.938.938 0 1 0 1.875 0 .938.938 0 0 0-1.875 0Z" fill="#F85A00"/>
    <path d="m22.476 9.689-.555-.97a.187.187 0 0 0-.256-.068l-1.188.693-1.835-5.067a1.498 1.498 0 0 0-1.427-1.04H7.059c-.813 0-1.535.525-1.786 1.3l-1.748 4.81-1.19-.694a.188.188 0 0 0-.256.068l-.556.968a.185.185 0 0 0 .068.253l1.416.825-.34.938a.668.668 0 0 0-.042.234v8.16c0 .369.276.666.616.666h1.585c.288 0 .539-.218.6-.522l.18-.884h12.788l.18.884c.063.305.312.523.6.523h1.584c.34 0 .617-.298.617-.666v-8.161c0-.08-.014-.16-.042-.235l-.34-.937 1.413-.825a.188.188 0 0 0 .07-.253ZM6.86 5.112l.012-.03.01-.031a.186.186 0 0 1 .177-.13h10.022l1.767 4.876H5.156L6.86 5.112Zm12.827 12.56H4.312v-5.555l.366-1.008h14.644l.365 1.008v5.555Z" fill="#F85A00"/>
    <path d="M5.25 13.617a.937.937 0 1 0 1.875 0 .937.937 0 0 0-1.875 0Zm9.844.54h-.938a.188.188 0 0 0-.187.187v.844H10.03v-.844a.188.188 0 0 0-.187-.188h-.938a.188.188 0 0 0-.187.188v1.969c0 .103.084.187.187.187h6.188a.188.188 0 0 0 .187-.188v-1.968a.188.188 0 0 0-.187-.188Z" fill="#F85A00"/>
</svg>
