<svg width="24" height="24" fill="none" xmlns="http://www.w3.org/2000/svg">
    <path d="m21.675 14.665-1.535-1.312a8.423 8.423 0 0 0 0-2.71l1.535-1.312a.75.75 0 0 0 .218-.825l-.021-.061a10.402 10.402 0 0 0-1.868-3.232l-.042-.05a.753.753 0 0 0-.823-.222l-1.905.677a8.259 8.259 0 0 0-2.337-1.35l-.368-1.992a.752.752 0 0 0-.605-.602l-.063-.012a10.588 10.588 0 0 0-3.727 0l-.063.012a.751.751 0 0 0-.605.602l-.37 2.002a8.247 8.247 0 0 0-2.32 1.345l-1.92-.682a.75.75 0 0 0-.822.223l-.043.049a10.454 10.454 0 0 0-1.868 3.232l-.02.06a.753.753 0 0 0 .217.826l1.554 1.326c-.072.441-.108.891-.108 1.339 0 .45.036.9.108 1.338L2.32 14.66a.75.75 0 0 0-.218.825l.021.06a10.427 10.427 0 0 0 1.868 3.233l.043.049a.752.752 0 0 0 .822.222l1.92-.682a8.191 8.191 0 0 0 2.32 1.346l.37 2.001a.751.751 0 0 0 .605.602l.063.012c1.233.222 2.495.222 3.727 0l.063-.012a.751.751 0 0 0 .605-.602l.368-1.992a8.204 8.204 0 0 0 2.337-1.35l1.905.677a.75.75 0 0 0 .823-.222l.042-.05a10.456 10.456 0 0 0 1.868-3.232l.021-.06a.748.748 0 0 0-.218-.82Zm-3.2-3.745a6.632 6.632 0 0 1 0 2.16l-.154.94 1.75 1.498a8.67 8.67 0 0 1-.998 1.725l-2.175-.77-.735.604a6.55 6.55 0 0 1-1.86 1.073l-.892.335-.42 2.274a8.848 8.848 0 0 1-1.992 0l-.42-2.278-.885-.34a6.56 6.56 0 0 1-1.845-1.071l-.736-.607-2.189.778a8.861 8.861 0 0 1-.998-1.725l1.77-1.512-.153-.937A6.747 6.747 0 0 1 5.456 12c0-.358.028-.717.087-1.066l.152-.938-1.77-1.511c.266-.612.6-1.189 1-1.725l2.188.778.736-.607A6.557 6.557 0 0 1 9.694 5.86l.888-.335.42-2.279a8.847 8.847 0 0 1 1.992 0l.42 2.274.892.335a6.58 6.58 0 0 1 1.859 1.073l.736.605 2.175-.77c.398.536.731 1.115.998 1.724l-1.75 1.498.152.935ZM12 7.64a4.125 4.125 0 1 0 0 8.25 4.125 4.125 0 0 0 0-8.25Zm1.856 5.981a2.614 2.614 0 0 1-1.856.769c-.7 0-1.36-.274-1.856-.769a2.615 2.615 0 0 1-.769-1.856c0-.7.274-1.36.769-1.856A2.606 2.606 0 0 1 12 9.14c.7 0 1.36.272 1.856.769a2.616 2.616 0 0 1 .769 1.856c0 .7-.274 1.36-.769 1.856Z" fill="#42494D"/>
</svg>
