<svg width="24" height="24" fill="none" xmlns="http://www.w3.org/2000/svg">
    <path d="M20.484 2.813h-5.906a.141.141 0 0 0-.14.14v1.313c0 .077.063.14.14.14h3.76l-4.672 4.671a6.694 6.694 0 0 0-4.104-1.39c-1.802 0-3.499.704-4.771 1.979a6.715 6.715 0 0 0-1.979 4.771c0 1.803.704 3.5 1.979 4.772a6.701 6.701 0 0 0 4.771 1.979c1.803 0 3.5-.704 4.772-1.979a6.701 6.701 0 0 0 1.979-4.771 6.693 6.693 0 0 0-1.388-4.1l4.669-4.668v3.752c0 .077.063.14.14.14h1.313c.077 0 .14-.063.14-.14V3.516a.705.705 0 0 0-.703-.704ZM9.562 19.405a4.974 4.974 0 0 1-4.968-4.968 4.974 4.974 0 0 1 4.968-4.97 4.974 4.974 0 0 1 4.97 4.97 4.974 4.974 0 0 1-4.97 4.968Z" fill="#42494D"/>
</svg>
