<svg width="24" height="24" fill="none" xmlns="http://www.w3.org/2000/svg">
    <path d="M21.75 5.25H18V3.937a.188.188 0 0 0-.188-.187H16.5a.188.188 0 0 0-.188.188V5.25h-3.468V3.937a.188.188 0 0 0-.188-.187h-1.312a.188.188 0 0 0-.188.188V5.25H7.687V3.937A.188.188 0 0 0 7.5 3.75H6.187A.188.188 0 0 0 6 3.938V5.25H2.25A.75.75 0 0 0 1.5 6v13.5c0 .415.335.75.75.75h19.5a.75.75 0 0 0 .75-.75V6a.75.75 0 0 0-.75-.75Zm-6.258 12h-1.029a.187.187 0 0 1-.185-.176A2.292 2.292 0 0 0 12 14.954c-1.2 0-2.19.937-2.278 2.12a.187.187 0 0 1-.185.176h-1.03a.188.188 0 0 1-.187-.197 3.707 3.707 0 0 1 1.749-2.955 2.62 2.62 0 0 1-.682-1.77c0-1.45 1.17-2.625 2.61-2.625a2.618 2.618 0 0 1 2.612 2.625c0 .682-.258 1.3-.682 1.77a3.705 3.705 0 0 1 1.748 2.955.181.181 0 0 1-.183.197ZM12 11.11c-.668 0-1.212.546-1.212 1.218 0 .673.544 1.219 1.212 1.219.668 0 1.212-.546 1.212-1.219 0-.672-.544-1.219-1.212-1.219Z" fill="#42494D"/>
</svg>
