<svg width="24" height="24" fill="none" xmlns="http://www.w3.org/2000/svg">
    <path d="M20.671 6.377V3.375a.75.75 0 0 0-.75-.75H4.077a.75.75 0 0 0-.75.75v3.002a.75.75 0 0 0-.703.748v3.087a4.148 4.148 0 0 0 .338 1.65c.1.239.225.464.365.677v8.086c0 .413.336.75.75.75H10.5V17.25h3v4.125h6.422a.75.75 0 0 0 .75-.75v-8.086a4.19 4.19 0 0 0 .703-2.327V7.125a.75.75 0 0 0-.703-.748ZM18.984 19.69h-3.985V16.5a.75.75 0 0 0-.75-.75h-4.5a.75.75 0 0 0-.75.75v3.19H5.015v-5.677a4.225 4.225 0 0 0 1.86.424 4.284 4.284 0 0 0 2.557-.848.015.015 0 0 1 .015 0c.28.21.584.383.907.518.523.22 1.078.33 1.65.33.572 0 1.125-.11 1.65-.33.323-.136.628-.31.907-.518a.015.015 0 0 1 .014 0c.28.21.585.383.907.518.523.22 1.078.33 1.65.33a4.233 4.233 0 0 0 1.861-.424v5.677h-.01Zm0-13.315H5.014V4.312h13.97v2.063Z" fill="#42494D"/>
</svg>
