<svg width="24" height="24" fill="none" xmlns="http://www.w3.org/2000/svg">
    <path d="M19.5 1.5h-15a.75.75 0 0 0-.75.75v19.5c0 .415.335.75.75.75h15a.75.75 0 0 0 .75-.75V2.25a.75.75 0 0 0-.75-.75Zm-4.336 9.525-2.044 3.773h1.076c.108 0 .197.09.197.197v.589c0 .107-.09.197-.197.197h-1.483v.67h1.483c.108 0 .197.089.197.197v.586a.193.193 0 0 1-.192.199h-1.484v1.17c0 .107-.089.196-.197.196h-1.024a.198.198 0 0 1-.197-.197v-1.17H9.823a.198.198 0 0 1-.197-.196v-.588c0-.108.089-.197.197-.197h1.476v-.67H9.823a.198.198 0 0 1-.197-.197v-.589c0-.107.089-.197.197-.197h1.064l-2.051-3.773a.198.198 0 0 1 .171-.29h1.144c.075 0 .143.042.176.107l1.685 3.324 1.685-3.326a.199.199 0 0 1 .176-.108h1.12c.108 0 .197.09.197.197a.253.253 0 0 1-.026.096Zm-3.15-3.455L6.774 3.47h10.453L12.014 7.57Z" fill="#42494D"/>
</svg>
