<svg width="24" height="24" fill="none" xmlns="http://www.w3.org/2000/svg">
    <path d="M17.156 2.813a.188.188 0 0 0-.187-.188H7.03a.188.188 0 0 0-.187.188V6.28h10.312V2.813ZM19.97 7.78H4.03c-1.036 0-1.875.84-1.875 1.875v7.688c0 .415.335.75.75.75h3.938v3.093c0 .104.084.188.187.188h9.938a.188.188 0 0 0 .187-.188v-3.093h3.938a.75.75 0 0 0 .75-.75V9.656c0-1.036-.84-1.875-1.875-1.875Zm-4.407 12H8.439v-6.468h7.124v6.468Zm3.844-8.437a.188.188 0 0 1-.187.187h-.938a.188.188 0 0 1-.187-.187v-.938c0-.103.084-.187.187-.187h.938c.103 0 .187.084.187.187v.938Z" fill="#42494D"/>
</svg>
