<svg width="24" height="24" fill="none" xmlns="http://www.w3.org/2000/svg">
    <path d="M19.219 10.219h-.938a.188.188 0 0 0-.187.187v.938c0 .103.084.187.187.187h.938a.188.188 0 0 0 .187-.187v-.938a.188.188 0 0 0-.187-.187Zm.75-2.438h-2.813V2.813a.188.188 0 0 0-.187-.188H7.03a.188.188 0 0 0-.187.188V7.78H4.03c-1.036 0-1.875.84-1.875 1.875v7.688c0 .415.335.75.75.75h3.938v3.093c0 .104.084.188.187.188h9.938a.188.188 0 0 0 .187-.188v-3.093h3.938a.75.75 0 0 0 .75-.75V9.656c0-1.036-.84-1.875-1.875-1.875ZM8.437 4.22h7.126V7.78H8.436V4.22Zm7.126 15.562H8.436v-6.468h7.126v6.468ZM20.25 16.5h-3.094v-4.781H6.844V16.5H3.75V9.656c0-.154.127-.281.281-.281H19.97c.154 0 .281.127.281.281V16.5Z" fill="#42494D"/>
</svg>
