<svg width="24" height="24" fill="none" xmlns="http://www.w3.org/2000/svg">
    <path d="M10.875 3.375H3.75a.376.376 0 0 0-.375.375v7.125c0 .206.169.375.375.375h7.125a.376.376 0 0 0 .375-.375V3.75a.376.376 0 0 0-.375-.375ZM9.656 9.656H4.97V4.97h4.687v4.687ZM20.25 3.375h-7.125a.376.376 0 0 0-.375.375v7.125c0 .206.169.375.375.375h7.125a.376.376 0 0 0 .375-.375V3.75a.376.376 0 0 0-.375-.375Zm-1.219 6.281h-4.687V4.97h4.687v4.687Zm-8.156 3.094H3.75a.376.376 0 0 0-.375.375v7.125c0 .206.169.375.375.375h7.125a.376.376 0 0 0 .375-.375v-7.125a.376.376 0 0 0-.375-.375Zm-1.219 6.281H4.97v-4.687h4.687v4.687ZM20.25 12.75h-7.125a.376.376 0 0 0-.375.375v7.125c0 .206.169.375.375.375h7.125a.376.376 0 0 0 .375-.375v-7.125a.376.376 0 0 0-.375-.375Zm-1.219 6.281h-4.687v-4.687h4.687v4.687Z" fill="#42494D"/>
</svg>
