<svg width="24" height="24" fill="none" xmlns="http://www.w3.org/2000/svg">
    <path d="M19.5 1.5h-15a.75.75 0 0 0-.75.75v19.5c0 .415.335.75.75.75h15a.75.75 0 0 0 .75-.75V2.25a.75.75 0 0 0-.75-.75ZM5.437 3.188h13.125v4.874H5.438V3.189Zm13.125 11.25H5.438V9.561h13.125v4.876Zm0 6.374H5.438v-4.875h13.125v4.876ZM11.625 4.876H7.312a.188.188 0 0 0-.187.188v1.125c0 .103.084.187.188.187h4.312a.188.188 0 0 0 .188-.188V5.063a.188.188 0 0 0-.188-.187ZM7.312 12.75h4.313a.188.188 0 0 0 .188-.188v-1.124a.188.188 0 0 0-.188-.188H7.312a.188.188 0 0 0-.187.188v1.124c0 .104.084.188.188.188ZM15 18.469a.938.938 0 1 0 1.876 0 .938.938 0 0 0-1.876 0Z" fill="#42494D"/>
</svg>
