<svg width="24" height="24" fill="none" xmlns="http://www.w3.org/2000/svg">
    <path d="M20.03 6.766 14.986 1.72a.754.754 0 0 0-.532-.22H4.5a.75.75 0 0 0-.75.75v19.5c0 .415.335.75.75.75h15a.75.75 0 0 0 .75-.75V7.296c0-.2-.08-.389-.22-.53Zm-1.51.875h-4.41V3.23l4.41 4.41Zm.043 13.171H5.438V3.188h7.078V8.25a.984.984 0 0 0 .984.984h5.063v11.579Zm-9.141-7.945c0 .127.103.223.23.223h.759c.127 0 .23-.099.23-.22 0-.661.604-1.21 1.359-1.21s1.36.549 1.36 1.207c0 .593-.493 1.106-1.156 1.193a.972.972 0 0 0-.813.94v.75c0 .129.105.234.234.234h.75a.235.235 0 0 0 .234-.234v-.286c0-.14.094-.27.228-.312 1.045-.337 1.758-1.265 1.741-2.318-.019-1.3-1.153-2.362-2.543-2.38-1.439-.017-2.613 1.068-2.613 2.413Zm1.828 4.57a.75.75 0 1 0 1.5 0 .75.75 0 0 0-1.5 0Z" fill="#42494D"/>
</svg>
