<svg width="24" height="24" fill="none" xmlns="http://www.w3.org/2000/svg">
    <path d="M12 3.281A8.72 8.72 0 0 0 3.281 12 8.72 8.72 0 0 0 12 20.719 8.72 8.72 0 0 0 20.719 12 8.72 8.72 0 0 0 12 3.281ZM7.678 16.446a.094.094 0 0 1-.124-.05.103.103 0 0 1 0-.074l2.313-5.285 3.096 3.096-5.285 2.313Zm8.792-8.791-2.314 5.285-3.096-3.096 5.285-2.314a.093.093 0 0 1 .125.05c.009.023.009.049 0 .075Z" fill="#F85A00" fill-opacity=".05"/>
    <path d="M7.554 16.322a.103.103 0 0 0 0 .075c.021.049.077.07.124.049l5.285-2.313-3.096-3.096-2.313 5.285Zm8.791-8.792L11.06 9.844l3.096 3.096 2.314-5.285a.104.104 0 0 0 0-.075c-.021-.05-.078-.07-.125-.05Z" fill="#F85A00"/>
    <path d="M12 1.5C6.202 1.5 1.5 6.202 1.5 12S6.202 22.5 12 22.5 22.5 17.798 22.5 12 17.798 1.5 12 1.5Zm0 19.219A8.72 8.72 0 0 1 3.281 12 8.72 8.72 0 0 1 12 3.281 8.72 8.72 0 0 1 20.719 12 8.72 8.72 0 0 1 12 20.719Z" fill="#F85A00"/>
</svg>
