<svg width="24" height="24" fill="none" xmlns="http://www.w3.org/2000/svg">
    <path d="M6.75 9.867a1.125 1.125 0 1 0 2.25 0 1.125 1.125 0 0 0-2.25 0Zm8.25 0a1.125 1.125 0 1 0 2.25 0 1.125 1.125 0 0 0-2.25 0ZM12 1.5C6.202 1.5 1.5 6.202 1.5 12S6.202 22.5 12 22.5 22.5 17.798 22.5 12 17.798 1.5 12 1.5Zm6.164 16.664a8.72 8.72 0 0 1-2.773 1.87A8.63 8.63 0 0 1 12 20.72a8.683 8.683 0 0 1-6.166-2.555A8.67 8.67 0 0 1 3.282 12a8.681 8.681 0 0 1 2.555-6.166A8.67 8.67 0 0 1 12 3.282a8.681 8.681 0 0 1 6.166 2.555A8.67 8.67 0 0 1 20.718 12a8.65 8.65 0 0 1-.685 3.393 8.645 8.645 0 0 1-1.87 2.77Zm-2.602-4.922H8.439a.188.188 0 0 0-.188.188v1.125c0 .103.084.187.188.187h7.124a.188.188 0 0 0 .188-.187V13.43a.188.188 0 0 0-.188-.188Z" fill="#42494D"/>
</svg>
