<svg width="24" height="24" fill="none" xmlns="http://www.w3.org/2000/svg">
    <path d="m12 3 7.794 4.5v9L12 21l-7.794-4.5v-9L12 3Z" fill="#F85A00" fill-opacity=".05"/>
    <path fill-rule="evenodd" clip-rule="evenodd" d="M12.375 2.35a.75.75 0 0 0-.75 0l-7.794 4.5a.75.75 0 0 0-.375.65v9a.75.75 0 0 0 .375.65l7.794 4.5a.75.75 0 0 0 .75 0l7.794-4.5a.75.75 0 0 0 .375-.65v-9a.75.75 0 0 0-.375-.65l-7.794-4.5ZM4.955 8.8v7.268l6.295 3.634v-7.268l-2.5-1.443v2.309l-1.5-.866v-2.31L4.956 8.8Zm7.795 3.634v7.268l6.294-3.634V8.799l-6.294 3.634ZM12 11.134 9.546 9.717l6.196-3.69L18.294 7.5 12 11.134Zm0-7.268 2.254 1.301-6.197 3.69L5.706 7.5 12 3.866Z" fill="#F85A00"/>
</svg>
