<svg width="24" height="24" fill="none" xmlns="http://www.w3.org/2000/svg">
    <path d="M22.083 11.396c-.824-1.736-1.804-3.152-2.941-4.247L17.948 8.34c.972.93 1.82 2.145 2.552 3.66-1.95 4.035-4.718 5.953-8.5 5.953-1.136 0-2.182-.175-3.138-.525L7.57 18.721c1.329.613 2.805.92 4.43.92 4.505 0 7.866-2.346 10.083-7.038a1.414 1.414 0 0 0 0-1.207Zm-1.49-7.515-1-1a.188.188 0 0 0-.265 0l-2.563 2.562C15.352 4.72 13.763 4.36 12 4.36c-4.505 0-7.866 2.346-10.083 7.038a1.413 1.413 0 0 0 0 1.207c.886 1.866 1.952 3.361 3.2 4.486l-2.48 2.48a.188.188 0 0 0 0 .265l1 1a.188.188 0 0 0 .265 0l16.691-16.69a.19.19 0 0 0 .04-.204.19.19 0 0 0-.04-.061ZM3.499 12C5.452 7.963 8.22 6.046 12 6.046c1.278 0 2.44.22 3.495.666L13.847 8.36a4.125 4.125 0 0 0-5.58 5.582L6.31 15.896C5.23 14.942 4.296 13.647 3.5 12Zm5.782 0A2.628 2.628 0 0 1 12.708 9.5l-3.302 3.302A2.625 2.625 0 0 1 9.28 12Z" fill="#42494D"/>
    <path d="M11.906 14.625c-.081 0-.161-.004-.24-.01l-1.238 1.237a4.126 4.126 0 0 0 5.33-5.33L14.52 11.76a2.613 2.613 0 0 1-.188 1.245 2.623 2.623 0 0 1-2.426 1.62Z" fill="#42494D"/>
</svg>
