<svg width="24" height="24" fill="none" xmlns="http://www.w3.org/2000/svg">
    <path d="M16.125 6.188A.188.188 0 0 0 15.937 6h-9a.188.188 0 0 0-.187.188v1.125c0 .103.084.187.188.187h9a.188.188 0 0 0 .187-.188V6.188Zm-.188 3.187h-9a.188.188 0 0 0-.187.188v1.124c0 .104.084.188.188.188h9a.188.188 0 0 0 .187-.188V9.563a.188.188 0 0 0-.188-.188ZM11.25 12.75H6.937a.188.188 0 0 0-.187.188v1.124c0 .104.084.188.188.188h4.312a.188.188 0 0 0 .188-.188v-1.124a.188.188 0 0 0-.188-.188Zm-1.125 7.219h-5.25v-16.5H18v8.062c0 .103.084.188.188.188H19.5a.188.188 0 0 0 .188-.188v-9a.75.75 0 0 0-.75-.75h-15a.75.75 0 0 0-.75.75v18.375c0 .415.335.75.75.75h6.187a.188.188 0 0 0 .188-.187v-1.313a.188.188 0 0 0-.188-.187Zm8.363-1.744a3.376 3.376 0 1 0-4.538 0 4.606 4.606 0 0 0-2.325 3.8.188.188 0 0 0 .188.194h1.127a.19.19 0 0 0 .187-.178 3.1 3.1 0 0 1 3.092-2.916 3.1 3.1 0 0 1 3.091 2.916.188.188 0 0 0 .188.178h1.127c.108 0 .192-.09.188-.195a4.598 4.598 0 0 0-2.325-3.799Zm-2.27-4.373a1.874 1.874 0 1 1 .002 3.749 1.874 1.874 0 0 1-.001-3.75Z" fill="#42494D"/>
</svg>
