<svg width="24" height="24" fill="none" xmlns="http://www.w3.org/2000/svg">
    <path d="M5.888 9.07H7.5v1.613c0 .042.042.075.094.075h1.125c.051 0 .094-.033.094-.077V9.07h1.612c.042 0 .075-.043.075-.094V7.852c0-.052-.033-.094-.077-.094h-1.61V6.145c0-.042-.043-.075-.094-.075H7.594c-.052 0-.094.033-.094.075v1.613H5.888c-.043 0-.075.042-.075.094v1.125c0 .051.032.093.075.093Zm7.687 0h4.538c.042 0 .075-.042.075-.093V7.852c0-.052-.033-.094-.078-.094h-4.535c-.042 0-.075.042-.075.094v1.125c0 .051.033.093.075.093Zm0 6.211h4.538c.042 0 .075-.042.075-.094v-1.124c0-.052-.033-.094-.078-.094h-4.535c-.042 0-.075.042-.075.094v1.124c0 .052.033.094.075.094Zm0 2.438h4.538c.042 0 .075-.042.075-.094V16.5c0-.052-.033-.094-.078-.094h-4.535c-.042 0-.075.042-.075.094v1.125c0 .052.033.094.075.094ZM8.988 15.82l1.435-1.755c.1-.122.016-.307-.139-.307h-1.19a.17.17 0 0 0-.139.068l-.796.975-.797-.975a.184.184 0 0 0-.139-.068H6.03c-.154 0-.239.185-.138.307l1.435 1.755-1.47 1.8c-.103.122-.019.307.136.307h1.19a.17.17 0 0 0 .139-.068l.832-1.02.832 1.02a.184.184 0 0 0 .138.068h1.19c.155 0 .24-.185.14-.307l-1.466-1.8ZM20.625 2.625H3.375a.75.75 0 0 0-.75.75v17.25c0 .415.335.75.75.75h17.25a.75.75 0 0 0 .75-.75V3.375a.75.75 0 0 0-.75-.75Zm-.844 17.156H4.22V4.22H19.78V19.78Z" fill="#42494D"/>
</svg>
