<svg width="24" height="24" fill="none" xmlns="http://www.w3.org/2000/svg">
    <path d="M20.03 6.766c.14.141.22.33.22.53V21.75a.75.75 0 0 1-.75.75h-15a.75.75 0 0 1-.75-.75V2.25a.75.75 0 0 1 .75-.75h9.954c.2 0 .391.08.532.22l5.044 5.046Zm-1.51.875L14.11 3.23v4.41h4.41Zm-3.679 7.295a7.433 7.433 0 0 0-1.164.07c-.57-.352-.952-.835-1.225-1.544l.025-.102.03-.122c.1-.425.154-.735.17-1.047.013-.237 0-.454-.043-.656-.077-.436-.385-.69-.774-.706-.362-.015-.694.187-.78.5-.138.507-.057 1.174.237 2.311-.374.892-.869 1.938-1.2 2.52-.443.23-.788.437-1.077.667-.382.304-.621.616-.687.944-.032.153.017.351.126.514a.704.704 0 0 0 .536.322c.566.044 1.261-.54 2.03-1.857l.258-.087.278-.094c.177-.06.305-.102.431-.143.549-.18.964-.292 1.341-.356.656.351 1.414.581 1.924.581.422 0 .706-.218.81-.562.09-.302.018-.652-.176-.846-.2-.197-.57-.291-1.07-.307Zm-5.812 3.01v-.009l.003-.008a1.29 1.29 0 0 1 .131-.252c.1-.154.238-.316.41-.49.091-.092.187-.182.3-.283.024-.023.185-.165.215-.194l.262-.243-.19.303c-.29.46-.55.791-.774 1.008-.082.08-.155.138-.213.176a.385.385 0 0 1-.062.033.087.087 0 0 1-.026.007.052.052 0 0 1-.026-.004.048.048 0 0 1-.03-.044Zm2.951-5.116-.052.093-.033-.102a3.864 3.864 0 0 1-.141-.89c-.017-.357.011-.57.124-.57.158 0 .23.252.236.633.005.335-.048.683-.134.836Zm-.136 1.37.036-.095.05.089c.273.498.629.913 1.02 1.203l.084.062-.103.021c-.383.08-.739.198-1.226.395.05-.02-.507.208-.648.262l-.123.047.065-.114c.29-.505.557-1.11.845-1.87Zm3.695 1.787c-.185.073-.581.008-1.28-.29l-.177-.076.193-.014c.546-.04.932-.01 1.158.072.096.035.16.08.188.13a.108.108 0 0 1-.032.148.158.158 0 0 1-.05.03Z" fill="#42494D"/>
</svg>
