<svg width="24" height="24" fill="none" xmlns="http://www.w3.org/2000/svg">
    <path d="M12.011 9.155a2.6 2.6 0 0 0-1.853.769 2.61 2.61 0 0 0-.77 1.854c0 .7.275 1.356.77 1.853a2.61 2.61 0 0 0 1.853.77c.701 0 1.357-.275 1.854-.77a2.61 2.61 0 0 0 .769-1.854c0-.7-.274-1.356-.769-1.853a2.601 2.601 0 0 0-1.854-.77Zm9.664 5.52-1.533-1.31a8.416 8.416 0 0 0 0-2.706l1.533-1.31a.75.75 0 0 0 .218-.825l-.021-.06a10.37 10.37 0 0 0-1.866-3.228l-.042-.05a.753.753 0 0 0-.823-.222l-1.903.678a8.184 8.184 0 0 0-2.334-1.348l-.368-1.99a.752.752 0 0 0-.605-.602l-.063-.012a10.562 10.562 0 0 0-3.722 0l-.064.012a.751.751 0 0 0-.604.602l-.37 2a8.283 8.283 0 0 0-2.319 1.342l-1.917-.682a.75.75 0 0 0-.822.223l-.043.05a10.452 10.452 0 0 0-1.865 3.226l-.021.061a.753.753 0 0 0 .218.825l1.551 1.325a8.238 8.238 0 0 0 0 2.671L2.343 14.67a.75.75 0 0 0-.218.825l.022.06a10.398 10.398 0 0 0 1.865 3.228l.042.05a.753.753 0 0 0 .823.222l1.917-.682a8.118 8.118 0 0 0 2.318 1.343l.37 1.999a.751.751 0 0 0 .605.602l.063.012c1.231.222 2.492.222 3.722 0l.064-.012a.751.751 0 0 0 .604-.602l.368-1.99a8.239 8.239 0 0 0 2.335-1.348l1.903.678a.75.75 0 0 0 .822-.223l.043-.049a10.452 10.452 0 0 0 1.865-3.227l.021-.061a.756.756 0 0 0-.222-.82Zm-9.664 1.223a4.12 4.12 0 1 1 0-8.24 4.12 4.12 0 0 1 0 8.24Z" fill="#42494D"/>
</svg>
