<svg width="24" height="24" fill="none" xmlns="http://www.w3.org/2000/svg">
    <path d="M6.86 19.688h10.28l.567-12H6.293l.567 12Z" fill="#F85A00" fill-opacity=".05"/>
    <path d="M20.25 6h-3V4.125c0-.827-.673-1.5-1.5-1.5h-7.5c-.827 0-1.5.673-1.5 1.5V6h-3a.75.75 0 0 0-.75.75v.75c0 .103.084.188.188.188h1.415l.579 12.257c.038.8.698 1.43 1.498 1.43h10.64c.802 0 1.46-.628 1.498-1.43l.579-12.258h1.416A.188.188 0 0 0 21 7.5v-.75a.75.75 0 0 0-.75-.75ZM8.437 4.312h7.126V6H8.436V4.312Zm8.703 15.375H6.86l-.567-12h11.414l-.567 12Z" fill="#F85A00"/>
</svg>
