<svg width="24" height="24" fill="none" xmlns="http://www.w3.org/2000/svg">
    <path d="m11.325 18.523 8.864-8.866a.185.185 0 0 0 .054-.148l-.598-7.064a.376.376 0 0 0-.342-.342l-7.064-.596a.182.182 0 0 0-.148.054l-8.864 8.864a.188.188 0 0 0 0 .265l7.833 7.833a.184.184 0 0 0 .265 0Zm1.467-15.274 5.264.445.445 5.264-7.31 7.308-5.709-5.707 7.31-7.31Zm1.41 4.365a1.124 1.124 0 1 0 1.59-1.59 1.124 1.124 0 0 0-1.59 1.59Zm6.65 5.038-.928-.926a.188.188 0 0 0-.265 0l-8.484 8.468-5.569-5.554a.188.188 0 0 0-.265 0l-.928.925a.188.188 0 0 0 0 .265l5.7 5.69.928.927a.188.188 0 0 0 .265 0l9.546-9.53a.188.188 0 0 0 0-.265Z" fill="#42494D"/>
</svg>
