<svg width="24" height="24" fill="none" xmlns="http://www.w3.org/2000/svg">
    <path d="M20.763 11.491a3.016 3.016 0 0 0-.485-2.688 3.016 3.016 0 0 0-.485-2.688 3.014 3.014 0 0 0-1.709-3.642 1.55 1.55 0 0 0-.62-.127H6.397v10.031h.007l2.011 7.285a2.725 2.725 0 0 0 2.62 1.994c.697 0 1.346-.276 1.827-.783a2.49 2.49 0 0 0 .69-1.86l-.14-2.881h5.623c.284 0 .56-.075.804-.218.947-.55 1.535-1.55 1.535-2.601 0-.664-.218-1.301-.612-1.822ZM2.625 3.094v8.531c0 .415.335.75.75.75h1.523V2.344H3.375a.75.75 0 0 0-.75.75Z" fill="#42494D"/>
</svg>
