<svg width="24" height="24" fill="none" xmlns="http://www.w3.org/2000/svg">
    <path d="M20.625 2.625H3.375a.75.75 0 0 0-.75.75v17.25c0 .415.335.75.75.75h17.25a.75.75 0 0 0 .75-.75V3.375a.75.75 0 0 0-.75-.75Zm-.938 17.063H4.313V4.313h15.375v15.375Z" fill="#F85A00"/>
    <path d="M4.313 19.688h15.375V4.313H4.313v15.375Zm7.957-5.227h4.335c.097 0 .176.084.176.187v1.125c0 .104-.08.188-.175.188h-4.337c-.096 0-.175-.084-.175-.188v-1.125c0-.103.08-.187.176-.187Zm-5.051-.157a.19.19 0 0 1 .068-.143L9.86 12 7.287 9.84a.179.179 0 0 1-.068-.144v-1.47c0-.159.185-.246.307-.142l4.5 3.77a.186.186 0 0 1 0 .289l-4.5 3.773a.186.186 0 0 1-.307-.143v-1.47Z" fill="#F85A00" fill-opacity=".05"/>
    <path d="m7.526 15.917 4.5-3.774a.186.186 0 0 0 0-.288l-4.5-3.77a.186.186 0 0 0-.307.142v1.47c0 .056.023.107.068.143L9.86 12l-2.573 2.161a.19.19 0 0 0-.068.143v1.47c0 .16.185.246.307.143Zm4.568-.143c0 .103.08.187.175.187h4.336c.096 0 .176-.084.176-.187v-1.125c0-.103-.08-.188-.176-.188H12.27c-.096 0-.175.085-.175.188v1.125Z" fill="#F85A00"/>
</svg>
