<svg width="24" height="24" fill="none" xmlns="http://www.w3.org/2000/svg">
    <path d="M16.978 5.271A7.076 7.076 0 0 0 12 3.258c-1.882 0-3.65.715-4.978 2.01a6.714 6.714 0 0 0-2.053 4.836c0 5.655 5.487 9.544 7.031 10.526 1.544-.982 7.031-4.87 7.031-10.526a6.705 6.705 0 0 0-2.053-4.833ZM12 14.414a4.125 4.125 0 1 1 0-8.25 4.125 4.125 0 0 1 0 8.25Z" fill="#F85A00" fill-opacity=".05"/>
    <path d="M12 6.164a4.125 4.125 0 1 0 0 8.25 4.125 4.125 0 0 0 0-8.25Zm1.856 5.981a2.616 2.616 0 0 1-1.856.77c-.7 0-1.36-.275-1.856-.77a2.616 2.616 0 0 1-.769-1.856c0-.7.274-1.36.769-1.856A2.606 2.606 0 0 1 12 7.664c.7 0 1.36.272 1.856.769.497.497.769 1.155.769 1.856 0 .7-.272 1.36-.769 1.856Z" fill="#F85A00"/>
    <path d="M20.03 6.776a8.496 8.496 0 0 0-1.873-2.712 8.691 8.691 0 0 0-2.77-1.823A8.79 8.79 0 0 0 12 1.57a8.832 8.832 0 0 0-3.387.667 8.73 8.73 0 0 0-2.77 1.824A8.522 8.522 0 0 0 3.97 6.773a8.324 8.324 0 0 0-.689 3.329c0 1.654.396 3.302 1.174 4.891.626 1.277 1.5 2.522 2.602 3.705 1.882 2.02 3.855 3.256 4.416 3.586a1.028 1.028 0 0 0 1.05 0c.56-.33 2.533-1.565 4.415-3.586 1.102-1.18 1.976-2.428 2.602-3.705.783-1.587 1.179-3.232 1.179-4.89a8.324 8.324 0 0 0-.69-3.327ZM12 20.63c-1.544-.982-7.031-4.87-7.031-10.526 0-1.826.729-3.541 2.053-4.835A7.084 7.084 0 0 1 12 3.258c1.882 0 3.65.715 4.978 2.013a6.705 6.705 0 0 1 2.053 4.833c0 5.655-5.486 9.544-7.031 10.526Z" fill="#F85A00"/>
</svg>
