<svg width="24" height="24" fill="none" xmlns="http://www.w3.org/2000/svg">
    <path d="M10.787 12.328c0 .323.128.633.355.862a1.208 1.208 0 0 0 1.714 0 1.222 1.222 0 0 0-.857-2.08 1.206 1.206 0 0 0-1.12.752c-.06.148-.091.306-.091.466Z" fill="#F85A00" fill-opacity=".05"/>
    <path d="M18 8.25a.188.188 0 0 1-.188.188H16.5a.188.188 0 0 1-.188-.188V6.937h-3.468V8.25a.188.188 0 0 1-.188.188h-1.312a.188.188 0 0 1-.188-.188V6.937H7.687V8.25a.188.188 0 0 1-.187.188H6.187A.188.188 0 0 1 6 8.25V6.937H3.187v11.625h17.625V6.938H18V8.25Zm-2.508 9h-1.026a.187.187 0 0 1-.185-.176 2.294 2.294 0 0 0-2.279-2.12c-1.2 0-2.189.934-2.278 2.12a.187.187 0 0 1-.185.176H8.51a.188.188 0 0 1-.187-.197 3.705 3.705 0 0 1 1.748-2.955 2.625 2.625 0 0 1-.682-1.77c0-1.45 1.17-2.625 2.611-2.625a2.618 2.618 0 0 1 2.61 2.625 2.62 2.62 0 0 1-.681 1.77 3.704 3.704 0 0 1 1.75 2.955.187.187 0 0 1-.187.197Z" fill="#F85A00" fill-opacity=".05"/>
    <path d="M13.929 14.098a2.62 2.62 0 0 0 .682-1.77c0-1.45-1.17-2.625-2.61-2.625a2.618 2.618 0 0 0-2.612 2.625c0 .682.258 1.3.682 1.77a3.705 3.705 0 0 0-1.748 2.955.188.188 0 0 0 .187.197h1.03a.187.187 0 0 0 .184-.176 2.292 2.292 0 0 1 2.278-2.12c1.2 0 2.19.937 2.278 2.12a.187.187 0 0 0 .186.176h1.026a.188.188 0 0 0 .188-.197 3.704 3.704 0 0 0-1.751-2.955ZM12 13.547a1.216 1.216 0 0 1-1.212-1.219c0-.672.544-1.219 1.212-1.219.668 0 1.212.546 1.212 1.22 0 .672-.544 1.218-1.212 1.218Z" fill="#F85A00"/>
    <path d="M21.75 5.25H18V3.937a.188.188 0 0 0-.188-.187H16.5a.188.188 0 0 0-.188.188V5.25h-3.468V3.937a.188.188 0 0 0-.188-.187h-1.312a.188.188 0 0 0-.188.188V5.25H7.687V3.937A.188.188 0 0 0 7.5 3.75H6.187A.188.188 0 0 0 6 3.938V5.25H2.25A.75.75 0 0 0 1.5 6v13.5c0 .415.335.75.75.75h19.5a.75.75 0 0 0 .75-.75V6a.75.75 0 0 0-.75-.75Zm-.938 13.313H3.188V6.938H6V8.25c0 .103.084.188.188.188H7.5a.188.188 0 0 0 .188-.188V6.937h3.468V8.25c0 .103.085.188.188.188h1.312a.188.188 0 0 0 .188-.188V6.937h3.469V8.25c0 .103.084.188.187.188h1.313A.188.188 0 0 0 18 8.25V6.937h2.813v11.625Z" fill="#F85A00"/>
</svg>
