<svg width="24" height="24" fill="none" xmlns="http://www.w3.org/2000/svg">
    <path d="m20.318 3.982-7.964-2.714a1.153 1.153 0 0 0-.354-.05c-.129 0-.258.017-.354.05L3.682 3.982a.562.562 0 0 0-.354.497v11.306c0 .206.134.478.295.607l8.08 6.296a.485.485 0 0 0 .295.096.48.48 0 0 0 .295-.096l8.079-6.296a.872.872 0 0 0 .295-.607V4.48a.552.552 0 0 0-.349-.497Zm-1.334 11.353L12 20.777l-6.984-5.442V5.313L12 2.932l6.984 2.381v10.022Z" fill="#F85A00"/>
    <path d="M5.016 5.314v10.021L12 20.779l6.984-5.442V5.313L12 2.932 5.016 5.314Zm8.903 2.14h1.055c.13 0 .235.105.235.234a.21.21 0 0 1-.026.112l-2.056 3.776h1.071c.13 0 .235.106.235.234v.5a.235.235 0 0 1-.235.234h-1.486v.696h1.486c.13 0 .235.106.235.235v.499a.235.235 0 0 1-.235.234h-1.486v1.214a.235.235 0 0 1-.234.235h-.968a.235.235 0 0 1-.234-.235v-1.214h-1.48a.235.235 0 0 1-.233-.234v-.5c0-.128.105-.234.234-.234h1.479v-.696h-1.48a.235.235 0 0 1-.233-.234v-.5c0-.128.105-.234.234-.234h1.06L8.793 7.8A.236.236 0 0 1 9 7.453h1.078c.09 0 .169.05.209.13l1.708 3.381 1.716-3.382a.235.235 0 0 1 .208-.129Z" fill="#F85A00" fill-opacity=".05"/>
    <path d="M10.287 7.582a.231.231 0 0 0-.209-.129H9c-.04 0-.077.01-.112.028a.236.236 0 0 0-.094.319l2.063 3.776h-1.06a.235.235 0 0 0-.234.234v.5c0 .128.105.234.234.234h1.48v.696h-1.48a.235.235 0 0 0-.234.234v.5c0 .128.105.234.234.234h1.48v1.214c0 .129.105.234.234.234h.968a.235.235 0 0 0 .234-.234v-1.214h1.486a.235.235 0 0 0 .234-.235v-.499a.235.235 0 0 0-.234-.234h-1.486v-.696h1.486a.235.235 0 0 0 .234-.235v-.499a.235.235 0 0 0-.234-.234h-1.071L15.183 7.8a.209.209 0 0 0 .026-.112.235.235 0 0 0-.234-.235H13.92a.234.234 0 0 0-.209.129l-1.715 3.382-1.709-3.382Z" fill="#F85A00"/>
</svg>
