<svg width="24" height="24" fill="none" xmlns="http://www.w3.org/2000/svg">
    <path d="M11.25 13.594H8.719a.187.187 0 0 0-.188.187v1.125a.187.187 0 0 0 .188.188h2.531v2.531a.188.188 0 0 0 .188.188h1.124a.188.188 0 0 0 .188-.188v-2.531h2.531a.187.187 0 0 0 .188-.188v-1.125a.187.187 0 0 0-.188-.187H12.75v-2.531a.188.188 0 0 0-.188-.188h-1.124a.188.188 0 0 0-.188.188v2.53Zm8.78-6.828c.14.141.22.33.22.53V21.75a.75.75 0 0 1-.75.75h-15a.75.75 0 0 1-.75-.75V2.25a.75.75 0 0 1 .75-.75h9.954c.2 0 .391.08.532.22l5.044 5.046Zm-1.51.875L14.11 3.23v4.41h4.41Z" fill="#42494D"/>
</svg>
