<svg width="24" height="24" fill="none" xmlns="http://www.w3.org/2000/svg">
    <path d="m21.085 6.48-4.561 2.81-4.374-5.833a.19.19 0 0 0-.302 0L7.477 9.291 2.914 6.48a.19.19 0 0 0-.286.185l1.79 13.607a.381.381 0 0 0 .375.329H19.21c.187 0 .349-.141.372-.329l1.79-13.607a.19.19 0 0 0-.287-.186ZM18.13 18.998H5.867L4.606 9.403l3.276 2.018L12 5.927l4.118 5.494 3.277-2.018-1.264 9.595Zm-6.13-7.068a2.642 2.642 0 0 0-2.64 2.639 2.642 2.642 0 0 0 2.64 2.639 2.642 2.642 0 0 0 2.638-2.64A2.642 2.642 0 0 0 12 11.93Zm0 3.77a1.13 1.13 0 1 1 .001-2.26A1.13 1.13 0 0 1 12 15.7Z" fill="#42494D"/>
</svg>
