<svg width="24" height="24" fill="none" xmlns="http://www.w3.org/2000/svg">
    <path d="M20.625 2.625c-.09 0-.18.016-.272.054L6.843 8.107H3a.382.382 0 0 0-.375.39v7.007c0 .216.169.389.375.389h2.384a2.81 2.81 0 0 0-.134.853 2.81 2.81 0 0 0 2.813 2.8 2.818 2.818 0 0 0 2.716-2.071l9.576 3.848a.757.757 0 0 0 .272.054c.396 0 .75-.332.75-.778V3.403a.768.768 0 0 0-.752-.778ZM8.062 17.866a1.123 1.123 0 0 1-1.124-1.12c0-.262.09-.513.257-.712l1.99.799a1.128 1.128 0 0 1-1.123 1.033Zm11.626 1.37L7.472 14.326l-.302-.121H4.313V9.795H7.17l.302-.122 12.216-4.908v14.47Z" fill="#42494D"/>
</svg>
