<svg width="24" height="24" fill="none" xmlns="http://www.w3.org/2000/svg">
    <path d="M12 1.5C6.202 1.5 1.5 6.202 1.5 12S6.202 22.5 12 22.5 22.5 17.798 22.5 12 17.798 1.5 12 1.5Zm0 19.219A8.72 8.72 0 0 1 3.281 12 8.72 8.72 0 0 1 12 3.281 8.72 8.72 0 0 1 20.719 12 8.72 8.72 0 0 1 12 20.719Z" fill="#F85A00"/>
    <path d="M9.999 9.617c0 .595.368 1.057 1.16 1.343.11.044.22.08.351.117V8.171C10.643 8.28 10 8.766 10 9.617Zm2.73 3.168a2.62 2.62 0 0 1-.206-.051v3.134c.998-.09 1.688-.64 1.688-1.557 0-.72-.373-1.188-1.482-1.525Z" fill="#F85A00" fill-opacity=".05"/>
    <path d="M12 3.281A8.72 8.72 0 0 0 3.281 12 8.72 8.72 0 0 0 12 20.719 8.72 8.72 0 0 0 20.719 12 8.72 8.72 0 0 0 12 3.281Zm.525 13.81.005.743c0 .105-.085.19-.188.19h-.665a.188.188 0 0 1-.188-.188V17.1c-2.086-.152-3.063-1.338-3.169-2.627a.188.188 0 0 1 .188-.204H9.59c.091 0 .17.065.185.154.12.746.7 1.299 1.736 1.437v-3.344l-.578-.148c-1.226-.293-2.393-1.057-2.393-2.641 0-1.711 1.298-2.628 2.957-2.79v-.773c0-.103.085-.187.188-.187h.659c.103 0 .187.084.187.187v.766c1.605.162 2.808 1.1 2.95 2.56a.189.189 0 0 1-.11.19.19.19 0 0 1-.077.016h-1.052a.185.185 0 0 1-.185-.162c-.094-.684-.645-1.242-1.535-1.364v3.148l.595.138c1.519.375 2.552 1.102 2.555 2.728 0 1.763-1.313 2.745-3.148 2.907Z" fill="#F85A00" fill-opacity=".05"/>
    <path d="m13.118 11.456-.596-.138V8.17c.891.122 1.442.68 1.536 1.364a.185.185 0 0 0 .185.162h1.052a.19.19 0 0 0 .188-.206c-.143-1.46-1.346-2.398-2.951-2.56v-.766a.188.188 0 0 0-.188-.187h-.658a.188.188 0 0 0-.188.187v.774c-1.66.161-2.958 1.078-2.958 2.789 0 1.584 1.168 2.348 2.393 2.641l.58.148v3.344c-1.037-.138-1.618-.691-1.737-1.437a.187.187 0 0 0-.186-.154H8.508a.188.188 0 0 0-.188.204c.105 1.289 1.083 2.475 3.169 2.627v.736c0 .103.084.187.187.187h.666a.189.189 0 0 0 .187-.19l-.004-.742c1.835-.162 3.147-1.144 3.147-2.907-.002-1.626-1.036-2.353-2.554-2.728Zm-1.608-.38a3.437 3.437 0 0 1-.352-.117c-.792-.286-1.16-.747-1.16-1.343 0-.85.645-1.336 1.512-1.446v2.907Zm1.012 4.791v-3.133c.073.02.139.037.207.051 1.108.338 1.48.806 1.48 1.526 0 .916-.688 1.467-1.687 1.556Z" fill="#F85A00"/>
</svg>
