<svg width="24" height="24" fill="none" xmlns="http://www.w3.org/2000/svg">
    <path d="M19.5 1.5h-15a.75.75 0 0 0-.75.75v19.5c0 .415.335.75.75.75h15a.75.75 0 0 0 .75-.75V2.25a.75.75 0 0 0-.75-.75ZM5.437 3.188h13.125v4.874H5.438V3.189Zm13.125 11.25H5.438V9.561h13.125v4.876Zm0 6.374H5.438v-4.875h13.125v4.876ZM7.126 5.626a.937.937 0 1 0 1.875 0 .937.937 0 0 0-1.875 0Zm0 6.375A.937.937 0 1 0 9 12a.937.937 0 0 0-1.875 0Zm0 6.375a.937.937 0 1 0 1.875 0 .937.937 0 0 0-1.875 0Z" fill="#42494D"/>
</svg>
