<svg width="24" height="24" fill="none" xmlns="http://www.w3.org/2000/svg">
    <path d="M20.625 2.625H3.375a.75.75 0 0 0-.75.75v17.25c0 .415.335.75.75.75h17.25a.75.75 0 0 0 .75-.75V3.375a.75.75 0 0 0-.75-.75Zm-3.61 11.102a2.342 2.342 0 0 1-2.336 2.346H9.858v1.252a.157.157 0 0 1-.256.124l-2.557-2.008a.159.159 0 0 1 0-.251l2.557-2.009a.158.158 0 0 1 .256.125v1.251h4.82c.46 0 .833-.375.833-.834v-1.85c0-.086.07-.159.16-.159h1.188c.086 0 .159.07.159.16v1.853h-.002Zm-.06-4.92-2.557 2.01a.158.158 0 0 1-.256-.125V9.441h-4.82a.834.834 0 0 0-.833.834v1.85a.16.16 0 0 1-.16.159H7.142a.16.16 0 0 1-.159-.16v-1.849a2.342 2.342 0 0 1 2.337-2.346h4.82V6.677c0-.133.153-.206.256-.124l2.557 2.009a.152.152 0 0 1 .003.246Z" fill="#42494D"/>
</svg>
