<svg width="24" height="24" fill="none" xmlns="http://www.w3.org/2000/svg">
    <path d="M20.763 11.491a3.016 3.016 0 0 0-.485-2.688 3.016 3.016 0 0 0-.485-2.688 3.014 3.014 0 0 0-1.709-3.642 1.55 1.55 0 0 0-.62-.127H3.374a.75.75 0 0 0-.75.75v8.531c0 .415.335.75.75.75h3.03l2.011 7.284a2.725 2.725 0 0 0 2.62 1.995c.697 0 1.346-.277 1.827-.783a2.49 2.49 0 0 0 .69-1.86l-.14-2.881h5.623c.284 0 .56-.075.804-.218.947-.551 1.535-1.55 1.535-2.602 0-.663-.218-1.3-.612-1.821Zm-16.45-.804V4.031H6.21v6.656H4.312Zm14.7 3.76h-7.37l.226 4.65a.833.833 0 0 1-.837.871 1.038 1.038 0 0 1-.989-.757l-2.332-8.449V4.031h9.736a1.333 1.333 0 0 1 .626 1.854l-.326.595.513.445a1.331 1.331 0 0 1 .298 1.648l-.326.595.513.446a1.33 1.33 0 0 1 .46 1.007c0 .228-.054.444-.162.64l-.328.598.513.445a1.33 1.33 0 0 1 .46 1.008c0 .448-.258.879-.675 1.135Z" fill="#42494D"/>
</svg>
