<svg width="24" height="24" fill="none" xmlns="http://www.w3.org/2000/svg">
    <path d="m20.318 3.982-7.964-2.714a1.153 1.153 0 0 0-.354-.05c-.129 0-.258.017-.354.05L3.682 3.982a.562.562 0 0 0-.354.497v11.306c0 .206.134.478.295.607l8.08 6.296a.485.485 0 0 0 .295.096.48.48 0 0 0 .295-.096l8.079-6.296a.872.872 0 0 0 .295-.607V4.48a.552.552 0 0 0-.349-.497Zm-4.04 4.003-4.983 6.86a.375.375 0 0 1-.476.114.375.375 0 0 1-.134-.114l-2.962-4.078a.188.188 0 0 1 .152-.297h1.294a.38.38 0 0 1 .304.154l1.517 2.086 3.537-4.87a.377.377 0 0 1 .304-.155h1.294a.19.19 0 0 1 .152.3Z" fill="#42494D"/>
</svg>
