<svg width="24" height="24" fill="none" xmlns="http://www.w3.org/2000/svg">
    <path d="M21.373 6.654v.012l-1.79 13.608a.377.377 0 0 1-.373.328H4.793a.381.381 0 0 1-.375-.328L2.628 6.666v-.014.037l1.79 13.608a.381.381 0 0 0 .375.328H19.21c.187 0 .349-.14.372-.328L21.373 6.69a.087.087 0 0 0 0-.035Z" fill="#F85A00" fill-opacity=".05"/>
    <path d="m18.131 18.998 1.264-9.595-3.277 2.018L12 5.927l-4.118 5.494-3.277-2.018 1.261 9.595h12.265Zm-8.77-4.43A2.642 2.642 0 0 1 12 11.93a2.642 2.642 0 0 1 2.64 2.64v.023A2.642 2.642 0 0 1 12 17.23a2.642 2.642 0 0 1-2.64-2.64v-.023Z" fill="#F85A00" fill-opacity=".05"/>
    <path d="M12 17.208a2.642 2.642 0 0 0 2.639-2.627v-.012a2.642 2.642 0 0 0-2.64-2.64 2.642 2.642 0 0 0-2.638 2.64v.011A2.642 2.642 0 0 0 12 17.209Zm0-3.771a1.132 1.132 0 0 1 0 2.264 1.13 1.13 0 0 1 0-2.264Z" fill="#F85A00"/>
    <path d="M4.418 20.273a.381.381 0 0 0 .375.329h14.416c.188 0 .35-.141.373-.329l1.79-13.607v-.012a.191.191 0 0 0-.288-.174l-4.56 2.81-4.374-5.833a.19.19 0 0 0-.303 0l-4.37 5.834-4.564-2.81a.188.188 0 0 0-.286.17v.015l1.79 13.607Zm3.464-8.852L12 5.927l4.118 5.494 3.276-2.018-1.263 9.595H5.866l-1.26-9.595 3.276 2.018Z" fill="#F85A00"/>
</svg>
