<svg width="24" height="24" fill="none" xmlns="http://www.w3.org/2000/svg">
    <path d="M20.25 3.375h-7.125a.376.376 0 0 0-.375.375v7.125c0 .206.169.375.375.375h7.125a.376.376 0 0 0 .375-.375V3.75a.376.376 0 0 0-.375-.375Zm0 9.375h-7.125a.376.376 0 0 0-.375.375v7.125c0 .206.169.375.375.375h7.125a.376.376 0 0 0 .375-.375v-7.125a.376.376 0 0 0-.375-.375Zm-9.375-9.375H3.75a.376.376 0 0 0-.375.375v7.125c0 .206.169.375.375.375h7.125a.376.376 0 0 0 .375-.375V3.75a.376.376 0 0 0-.375-.375Zm0 9.375H3.75a.376.376 0 0 0-.375.375v7.125c0 .206.169.375.375.375h7.125a.376.376 0 0 0 .375-.375v-7.125a.376.376 0 0 0-.375-.375Z" fill="#42494D"/>
</svg>
