<svg width="24" height="24" fill="none" xmlns="http://www.w3.org/2000/svg">
    <path d="M21.75 9.188a.376.376 0 0 0 .375-.376V4.5a.376.376 0 0 0-.375-.375h-4.313a.376.376 0 0 0-.375.375v1.313H6.938V4.5a.376.376 0 0 0-.375-.375H2.25a.376.376 0 0 0-.375.375v4.313c0 .206.169.374.375.374h1.313v5.626H2.25a.376.376 0 0 0-.375.374V19.5c0 .206.169.375.375.375h4.313a.376.376 0 0 0 .375-.375v-1.313h10.125V19.5c0 .206.168.375.375.375h4.312a.376.376 0 0 0 .375-.375v-4.313a.376.376 0 0 0-.375-.374h-1.313V9.186h1.313Zm-3.188-3.563h2.063v2.063h-2.063V5.624ZM3.376 7.688V5.624h2.063v2.063H3.374Zm2.063 10.687H3.374v-2.063h2.063v2.063Zm15.187-2.063v2.063h-2.063v-2.063h2.063Zm-1.875-1.5h-1.313a.376.376 0 0 0-.375.376V16.5H6.938v-1.313a.376.376 0 0 0-.375-.374H5.25V9.186h1.313a.376.376 0 0 0 .375-.374V7.5h10.125v1.313c0 .206.168.374.375.374h1.312v5.626Z" fill="#42494D"/>
</svg>
