<svg width="24" height="24" fill="none" xmlns="http://www.w3.org/2000/svg">
    <path d="M3.727 18h14.35l2.424-6H6.148l-2.421 6Z" fill="#F85A00" fill-opacity=".05"/>
    <path d="M21.75 10.406h-2.531V7.744a.75.75 0 0 0-.75-.75h-7.383l-2.75-2.63a.191.191 0 0 0-.128-.051H2.25a.75.75 0 0 0-.75.75v13.875c0 .414.335.75.75.75h16.36a.752.752 0 0 0 .695-.47l3.141-7.78a.75.75 0 0 0-.696-1.031ZM3.187 6h4.418l2.804 2.681h7.122v1.725H5.578a.752.752 0 0 0-.696.469l-1.694 4.2V6Zm14.89 12H3.727l2.42-6h14.354l-2.424 6Z" fill="#F85A00"/>
</svg>
