<svg width="24" height="24" fill="none" xmlns="http://www.w3.org/2000/svg">
    <path d="M12.516 8.25V3.187H5.437v17.625h13.125V9.235H13.5a.984.984 0 0 1-.984-.984Zm1.209 2.813h.837a.282.282 0 0 1 .236.433L12.8 14.602l1.969 3.056a.28.28 0 0 1-.237.433h-.879a.28.28 0 0 1-.239-.133l-1.46-2.377-1.47 2.38a.282.282 0 0 1-.239.133h-.808a.283.283 0 0 1-.24-.431l1.956-3.113-1.93-3.056a.28.28 0 0 1 .087-.39.262.262 0 0 1 .15-.044h.9c.099 0 .19.052.242.136l1.448 2.4 1.435-2.398a.283.283 0 0 1 .241-.136Z" fill="#F85A00" fill-opacity=".05"/>
    <path d="M20.03 6.764 14.986 1.72a.749.749 0 0 0-.53-.22H4.5a.75.75 0 0 0-.75.75v19.5c0 .415.335.75.75.75h15a.75.75 0 0 0 .75-.75V7.296c0-.2-.08-.391-.22-.532ZM14.11 3.23l4.41 4.41h-4.41V3.23Zm4.453 17.582H5.438V3.188h7.078V8.25a.984.984 0 0 0 .984.984h5.063v11.579Z" fill="#F85A00"/>
    <path d="m12.05 13.596-1.45-2.4a.283.283 0 0 0-.24-.136h-.9a.262.262 0 0 0-.15.045.28.28 0 0 0-.087.389l1.929 3.056-1.955 3.113a.282.282 0 0 0 .239.43h.809a.282.282 0 0 0 .239-.133l1.47-2.379 1.46 2.377a.28.28 0 0 0 .238.134h.88a.28.28 0 0 0 .237-.434l-1.97-3.056 2-3.106a.282.282 0 0 0-.237-.433h-.837a.283.283 0 0 0-.241.136l-1.435 2.397Z" fill="#F85A00"/>
</svg>
