<svg width="24" height="24" fill="none" xmlns="http://www.w3.org/2000/svg">
    <path d="M12 1.5C6.202 1.5 1.5 6.202 1.5 12S6.202 22.5 12 22.5 22.5 17.798 22.5 12 17.798 1.5 12 1.5Zm0 19.219A8.72 8.72 0 0 1 3.281 12 8.72 8.72 0 0 1 12 3.281 8.72 8.72 0 0 1 20.719 12 8.72 8.72 0 0 1 12 20.719Z" fill="#F85A00"/>
    <path d="M12 3.281A8.72 8.72 0 0 0 3.281 12 8.72 8.72 0 0 0 12 20.719 8.72 8.72 0 0 0 20.719 12 8.72 8.72 0 0 0 12 3.281ZM6.75 9.867a1.125 1.125 0 0 1 2.25 0 1.125 1.125 0 0 1-2.25 0Zm8.813 6.375h-1.128a.19.19 0 0 1-.19-.173 2.252 2.252 0 0 0-4.49 0 .19.19 0 0 1-.19.173H8.438a.188.188 0 0 1-.188-.197A3.759 3.759 0 0 1 12 12.492a3.759 3.759 0 0 1 3.75 3.553.186.186 0 0 1-.114.182.188.188 0 0 1-.073.015Zm.562-5.25a1.125 1.125 0 0 1 0-2.25 1.125 1.125 0 0 1 0 2.25Z" fill="#F85A00" fill-opacity=".05"/>
    <path d="M6.75 9.867a1.125 1.125 0 1 0 2.25 0 1.125 1.125 0 0 0-2.25 0ZM12 12.492a3.759 3.759 0 0 0-3.75 3.553.187.187 0 0 0 .188.197h1.127a.19.19 0 0 0 .19-.173 2.252 2.252 0 0 1 4.49 0 .19.19 0 0 0 .19.173h1.127a.188.188 0 0 0 .188-.197A3.759 3.759 0 0 0 12 12.492Zm3-2.625a1.125 1.125 0 1 0 2.25 0 1.125 1.125 0 0 0-2.25 0Z" fill="#F85A00"/>
</svg>
