<svg width="24" height="24" fill="none" xmlns="http://www.w3.org/2000/svg">
    <path d="M15.898 15.36a4.02 4.02 0 0 1 1.907-.477h.003c.07 0 .103-.085.051-.131a8.71 8.71 0 0 0-2.43-1.543l-.028-.011a5.814 5.814 0 0 0 2.402-4.714 5.806 5.806 0 0 0-5.8-5.812c-3.205 0-5.8 2.601-5.8 5.812a5.81 5.81 0 0 0 2.406 4.714l-.029.011a8.733 8.733 0 0 0-2.796 1.89 8.753 8.753 0 0 0-1.884 2.8 8.756 8.756 0 0 0-.69 3.237.187.187 0 0 0 .188.192h1.404c.101 0 .185-.082.188-.183a6.993 6.993 0 0 1 2.053-4.788 6.958 6.958 0 0 1 4.962-2.06c1.329 0 2.603.368 3.703 1.057a.191.191 0 0 0 .19.007Zm-3.893-2.844a3.998 3.998 0 0 1-2.846-1.182 4.013 4.013 0 0 1-1.179-2.85c0-1.075.42-2.088 1.18-2.85a3.99 3.99 0 0 1 2.845-1.18c1.075 0 2.083.419 2.845 1.18a4.014 4.014 0 0 1 1.179 2.85c0 1.076-.42 2.089-1.18 2.85a3.998 3.998 0 0 1-2.844 1.182Zm8.62 5.578H15a.188.188 0 0 0-.188.187v1.313c0 .103.085.187.188.187h5.625a.188.188 0 0 0 .187-.187V18.28a.188.188 0 0 0-.187-.187Z" fill="#42494D"/>
</svg>
