<svg width="24" height="24" fill="none" xmlns="http://www.w3.org/2000/svg">
    <path d="M14.25 2.625a7.125 7.125 0 0 0-5.627 11.496l-.964.963-1.46-1.46a.191.191 0 0 0-.267 0l-.933.933a.191.191 0 0 0 0 .267l1.46 1.46-1.052 1.053-1.46-1.46a.19.19 0 0 0-.267 0l-.933.932a.19.19 0 0 0 0 .268l1.46 1.46-1.53 1.53a.188.188 0 0 0 0 .265l.99.991a.188.188 0 0 0 .266 0l5.944-5.943a7.126 7.126 0 0 0 4.373 1.495 7.125 7.125 0 1 0 0-14.25Zm3.778 10.903a5.302 5.302 0 0 1-3.778 1.566 5.302 5.302 0 0 1-3.778-1.566A5.302 5.302 0 0 1 8.906 9.75c0-1.427.556-2.77 1.566-3.778a5.302 5.302 0 0 1 3.778-1.566c1.427 0 2.77.556 3.778 1.566a5.302 5.302 0 0 1 1.566 3.778c0 1.427-.556 2.77-1.566 3.778Z" fill="#42494D"/>
</svg>
