<svg width="24" height="24" fill="none" xmlns="http://www.w3.org/2000/svg">
    <path d="M12.797 8.86h6.984v2.437h-6.984V8.859Zm-7.453 4.03h5.86v7.22h-5.86v-7.22ZM4.219 8.86h6.984v2.437H4.22V8.859Zm8.578 4.03h5.86v7.22h-5.86v-7.22Z" fill="#F85A00" fill-opacity=".05"/>
    <path d="M20.625 7.266h-3.46a3.226 3.226 0 0 0 .507-1.735 3.238 3.238 0 0 0-3.235-3.234A3.23 3.23 0 0 0 12 3.407a3.23 3.23 0 0 0-2.438-1.11A3.238 3.238 0 0 0 6.329 5.53c0 .638.185 1.233.506 1.735H3.375a.75.75 0 0 0-.75.75v4.687c0 .103.084.188.188.188h.937v8.062c0 .415.335.75.75.75h15a.75.75 0 0 0 .75-.75v-8.062h.938a.188.188 0 0 0 .187-.188V8.016a.75.75 0 0 0-.75-.75Zm-9.422 12.843h-5.86v-7.218h5.86v7.218Zm0-8.812H4.22V8.859h6.984v2.438Zm0-4.125h-1.64c-.905 0-1.641-.736-1.641-1.64 0-.905.736-1.641 1.64-1.641.905 0 1.641.736 1.641 1.64v1.64Zm1.594-1.64c0-.905.736-1.641 1.64-1.641.905 0 1.641.736 1.641 1.64 0 .905-.736 1.64-1.64 1.64h-1.641v-1.64Zm5.86 14.577h-5.86v-7.218h5.86v7.218Zm1.124-8.812h-6.984V8.859h6.984v2.438Z" fill="#F85A00"/>
</svg>
