<svg width="24" height="24" fill="none" xmlns="http://www.w3.org/2000/svg">
    <path d="M6.398 11.623v10.031l.007-10.031h-.007Zm12.614-2.07h-7.368l.225-4.65a.833.833 0 0 0-.837-.872c-.46.003-.865.314-.989.757l-1.957 7.09v8.09h9.36a1.333 1.333 0 0 0 .627-1.853l-.326-.595.513-.446a1.331 1.331 0 0 0 .46-1.008c0-.227-.054-.442-.162-.64l-.326-.595.513-.445a1.33 1.33 0 0 0 .46-1.008c0-.227-.054-.443-.162-.64l-.328-.597.513-.446a1.33 1.33 0 0 0 .46-1.007c0-.448-.258-.88-.675-1.135Z" fill="#F85A00" fill-opacity=".05"/>
    <path d="M2.625 12.375v8.531c0 .415.335.75.75.75h1.523V11.625H3.375a.75.75 0 0 0-.75.75Zm18.138.134c.394-.52.612-1.158.612-1.822 0-1.052-.588-2.05-1.535-2.601a1.586 1.586 0 0 0-.804-.218h-5.623l.14-2.88a2.49 2.49 0 0 0-.69-1.861 2.494 2.494 0 0 0-1.826-.783c-1.219 0-2.297.82-2.62 1.994l-2.012 7.285-.007 10.03h11.065c.218 0 .427-.041.621-.126a3.014 3.014 0 0 0 1.709-3.642 3.016 3.016 0 0 0 .485-2.688 3.016 3.016 0 0 0 .485-2.688Zm-1.535-.814-.513.446.328.597c.107.196.163.417.162.64 0 .387-.167.755-.46 1.008l-.513.445.326.596c.107.196.163.416.162.64 0 .386-.167.754-.46 1.007l-.513.446.326.595a1.333 1.333 0 0 1-.626 1.854H8.086v-8.09l1.957-7.09a1.038 1.038 0 0 1 .989-.758.833.833 0 0 1 .837.872l-.225 4.65h7.368c.418.256.675.687.675 1.134 0 .387-.166.755-.459 1.008Z" fill="#F85A00"/>
</svg>
