<svg width="24" height="24" fill="none" xmlns="http://www.w3.org/2000/svg">
    <path d="m21.984 10.753-.693-7.326a.797.797 0 0 0-.718-.718l-7.326-.693h-.01a.24.24 0 0 0-.178.068L2.084 13.059a.233.233 0 0 0 0 .33l8.526 8.527a.232.232 0 0 0 .167.068.232.232 0 0 0 .166-.068l10.976-10.975a.247.247 0 0 0 .065-.188Zm-11.21 8.81-6.337-6.337 9.368-9.368 5.789.548.548 5.79-9.368 9.367ZM15.938 6a2.065 2.065 0 0 0-2.063 2.063c0 1.136.926 2.062 2.063 2.062A2.066 2.066 0 0 0 18 8.062 2.066 2.066 0 0 0 15.937 6Zm0 2.813a.75.75 0 1 1-.002-1.499.75.75 0 0 1 .002 1.498Z" fill="#42494D"/>
</svg>
