<svg width="24" height="24" fill="none" xmlns="http://www.w3.org/2000/svg">
    <path d="m21.084 6.48-4.56 2.81-4.374-5.833a.188.188 0 0 0-.303 0l-4.37 5.834-4.564-2.81a.19.19 0 0 0-.286.185l1.79 13.607a.381.381 0 0 0 .376.329h14.416c.188 0 .35-.141.373-.329l1.79-13.607a.19.19 0 0 0-.288-.186ZM12 17.208a2.642 2.642 0 0 1-2.64-2.64A2.642 2.642 0 0 1 12 11.93a2.642 2.642 0 0 1 2.639 2.639 2.642 2.642 0 0 1-2.64 2.639Zm0-3.771a1.132 1.132 0 0 0 0 2.264 1.132 1.132 0 0 0 0-2.264Z" fill="#42494D"/>
</svg>
