<svg width="24" height="24" fill="none" xmlns="http://www.w3.org/2000/svg">
    <path d="M6.445 6.586a.843.843 0 0 0 .844-.844V.844a.843.843 0 1 0-1.687 0v4.898c0 .467.377.844.843.844ZM20.812 9.96H18c0-.933-.755-1.688-1.688-1.688H4.688C3.756 8.273 3 9.028 3 9.961v5.812c0 .08.005.158.016.233a7.5 7.5 0 0 0 14.897 1.643h2.9c.932 0 1.687-.755 1.687-1.688v-4.313c0-.932-.755-1.687-1.688-1.687Zm-4.5 6h-.025a5.812 5.812 0 0 1-5.787 6.352 5.812 5.812 0 0 1-5.787-6.352h-.026v-6h11.625v6Zm4.5-.188h-2.625v-4.125h2.625v4.125Zm-6.445-9.187a.843.843 0 0 0 .844-.844V.844a.843.843 0 1 0-1.688 0v4.898c0 .467.378.844.844.844Zm-3.984 0a.843.843 0 0 0 .844-.844V.844a.843.843 0 1 0-1.688 0v4.898c0 .467.377.844.844.844Z" fill="#42494D"/>
</svg>
