<svg width="24" height="24" fill="none" xmlns="http://www.w3.org/2000/svg">
    <path d="M21.75 3.75H2.25a.75.75 0 0 0-.75.75v15c0 .415.335.75.75.75h19.5a.75.75 0 0 0 .75-.75v-15a.75.75 0 0 0-.75-.75Zm-.938 4.875h-4.968V5.437h4.969v3.188Zm0 5.25h-4.968v-3.75h4.969v3.75Zm-11.156-3.75h4.688v3.75H9.656v-3.75Zm4.688-1.5H9.656V5.437h4.688v3.188Zm-11.156 1.5h4.968v3.75H3.187v-3.75Zm0-4.688h4.968v3.188H3.187V5.437Zm0 9.938h4.968v3.188H3.187v-3.188Zm6.468 0h4.688v3.188H9.656v-3.188Zm11.156 3.188h-4.968v-3.188h4.969v3.188Z" fill="#42494D"/>
</svg>
