<svg width="24" height="24" fill="none" xmlns="http://www.w3.org/2000/svg">
    <path d="M12 1.5C6.202 1.5 1.5 6.202 1.5 12S6.202 22.5 12 22.5 22.5 17.798 22.5 12 17.798 1.5 12 1.5Zm0 19.219A8.72 8.72 0 0 1 3.281 12 8.72 8.72 0 0 1 12 3.281 8.72 8.72 0 0 1 20.719 12 8.72 8.72 0 0 1 12 20.719Zm2.05-7.845c.816-.3 1.838-1.148 1.838-2.793 0-1.67-1.066-3.073-3.38-3.073H8.86a.188.188 0 0 0-.187.187v9.61c0 .103.084.187.187.187h1.278a.188.188 0 0 0 .187-.187v-3.652h2.08l1.748 3.731c.03.066.096.108.168.108h1.453a.184.184 0 0 0 .167-.27l-1.89-3.848Zm-1.816-1.038h-1.91V8.367h1.955c1.125 0 1.896.593 1.896 1.77 0 1.099-.698 1.699-1.94 1.699Z" fill="#42494D"/>
</svg>
