<svg width="24" height="24" fill="none" xmlns="http://www.w3.org/2000/svg">
    <path d="M5.438 20.813h13.125v-4.875H5.438v4.874Zm10.5-3.282a.937.937 0 1 1 0 1.875.937.937 0 0 1 0-1.875Zm-10.5-3.093h13.125V9.561H5.438v4.876Zm1.687-3c0-.104.084-.188.188-.188h4.312c.103 0 .188.084.188.188v1.124a.188.188 0 0 1-.188.188H7.312a.188.188 0 0 1-.187-.188v-1.124ZM5.437 8.062h13.125V3.189H5.438v4.874Zm1.688-3c0-.103.084-.187.188-.187h4.312c.103 0 .188.084.188.188v1.125a.188.188 0 0 1-.188.187H7.312a.188.188 0 0 1-.187-.188V5.063Z" fill="#F85A00" fill-opacity=".05"/>
    <path d="M19.5 1.5h-15a.75.75 0 0 0-.75.75v19.5c0 .415.335.75.75.75h15a.75.75 0 0 0 .75-.75V2.25a.75.75 0 0 0-.75-.75Zm-.938 19.313H5.438v-4.875h13.125v4.874Zm0-6.375H5.438V9.561h13.125v4.876Zm0-6.376H5.438V3.189h13.125v4.874Z" fill="#F85A00"/>
    <path d="M7.313 12.75h4.312a.188.188 0 0 0 .188-.188v-1.124a.188.188 0 0 0-.188-.188H7.312a.188.188 0 0 0-.187.188v1.124c0 .104.084.188.188.188Zm0-6.375h4.312a.188.188 0 0 0 .188-.188V5.063a.188.188 0 0 0-.188-.187H7.312a.188.188 0 0 0-.187.188v1.125c0 .103.084.187.188.187ZM15 18.469a.938.938 0 1 0 1.876 0 .938.938 0 0 0-1.876 0Z" fill="#F85A00"/>
</svg>
