<svg width="24" height="24" fill="none" xmlns="http://www.w3.org/2000/svg">
    <path fill-rule="evenodd" clip-rule="evenodd" d="M21 7h-4v14h4V7Zm-11 3h4v11h-4V10Zm-7 3h4v8H3v-8Z" fill="#F85A00" fill-opacity=".05"/>
    <path fill-rule="evenodd" clip-rule="evenodd" d="m16.45 5.6 4-3-.9-1.2-3.8 2.85H10.5a.75.75 0 0 0-.56.252L6.162 8.75H2v1.5h4.5a.75.75 0 0 0 .56-.252l3.777-4.248H16a.75.75 0 0 0 .45-.15Zm-.2 1.4a.75.75 0 0 1 .75-.75h4a.75.75 0 0 1 .75.75v14a.75.75 0 0 1-.75.75h-4a.75.75 0 0 1-.75-.75V7Zm1.5.75v12.5h2.5V7.75h-2.5ZM10 9.25a.75.75 0 0 0-.75.75v11c0 .414.336.75.75.75h4a.75.75 0 0 0 .75-.75V10a.75.75 0 0 0-.75-.75h-4Zm.75 11v-9.5h2.5v9.5h-2.5Zm-7.75-8a.75.75 0 0 0-.75.75v8c0 .414.336.75.75.75h4a.75.75 0 0 0 .75-.75v-8a.75.75 0 0 0-.75-.75H3Zm.75 8v-6.5h2.5v6.5h-2.5Z" fill="#F85A00"/>
</svg>
