<svg width="112" height="64" fill="none" xmlns="http://www.w3.org/2000/svg">
    <path d="M79.852 35.492a.189.189 0 0 0 .23.053.189.189 0 0 0 .066-.053l2.625-3.32a.187.187 0 0 0-.148-.303h-1.737v-7.931a.188.188 0 0 0-.187-.188h-1.406a.188.188 0 0 0-.188.188v7.928h-1.732a.187.187 0 0 0-.148.303l2.625 3.323Zm8.726-.82h-1.406a.188.188 0 0 0-.188.187v3.61H73.016v-3.61a.188.188 0 0 0-.188-.187h-1.406a.188.188 0 0 0-.188.187V39.5c0 .415.336.75.75.75h16.032a.75.75 0 0 0 .75-.75v-4.64a.188.188 0 0 0-.188-.188ZM29.375 27.446h1.732v7.929c0 .103.084.187.188.187H32.7a.188.188 0 0 0 .187-.187v-7.93h1.737c.157 0 .244-.18.148-.302l-2.625-3.323a.189.189 0 0 0-.23-.053.189.189 0 0 0-.066.053l-2.625 3.321a.188.188 0 0 0 .148.305Zm11.203 7.226h-1.406a.188.188 0 0 0-.188.187v3.61H25.016v-3.61a.188.188 0 0 0-.188-.187h-1.406a.188.188 0 0 0-.188.187v4.64c0 .416.335.75.75.75h16.032a.75.75 0 0 0 .75-.75v-4.64a.188.188 0 0 0-.188-.187Z" fill="#42494D"/>
    <rect x=".5" y=".5" width="111" height="63" rx="4.5" stroke="#0068D7" stroke-dasharray="10 5"/>
</svg>
