<svg width="24" height="24" fill="none" xmlns="http://www.w3.org/2000/svg">
    <path d="m20.318 3.982-7.964-2.714a1.153 1.153 0 0 0-.354-.05c-.129 0-.258.017-.354.05L3.682 3.982a.562.562 0 0 0-.354.497v11.306c0 .206.134.478.295.607l8.08 6.296a.485.485 0 0 0 .295.096.48.48 0 0 0 .295-.096l8.079-6.296a.872.872 0 0 0 .295-.607V4.48a.552.552 0 0 0-.349-.497Zm-1.334 11.353L12 20.777l-6.984-5.442V5.313L12 2.932l6.984 2.381v10.022Z" fill="#F85A00"/>
    <path d="M12.232 8.41h2.294v.975h-2.294V8.41Z" fill="#F85A00" fill-opacity=".05"/>
    <path d="M5.016 5.314v10.021L12 20.779l6.984-5.442V5.313L12 2.932 5.016 5.314Zm4.67 10.061h-.004a.188.188 0 0 1-.187.188H8.62a.188.188 0 0 1-.187-.188V11.05c-.18.215-.361.42-.542.61a.142.142 0 0 1-.2.005.142.142 0 0 1-.039-.062l-.309-1.02a.134.134 0 0 1 .028-.13c.867-1.018 1.516-2.23 1.927-3.6a.142.142 0 0 1 .197-.088l.904.43c.064.03.096.102.075.168-.2.642-.464 1.262-.787 1.852v6.161Zm6.045-7.968v2.98a.188.188 0 0 1-.187.188H13.98v.436h2.316c.103 0 .188.085.188.188v.834a.188.188 0 0 1-.188.188h-1.383c.425.682.98 1.272 1.695 1.802.06.05.075.138.028.2l-.616.827a.14.14 0 0 1-.21.016c-.716-.687-1.33-1.528-1.83-2.506v2.815a.188.188 0 0 1-.187.188h-.848a.188.188 0 0 1-.188-.188v-2.812c-.516 1.047-1.148 1.894-1.889 2.522a.149.149 0 0 1-.113.032.14.14 0 0 1-.096-.065l-.534-.856a.14.14 0 0 1 .037-.19 6.052 6.052 0 0 0 1.665-1.78h-1.292a.188.188 0 0 1-.187-.188v-.835c0-.103.084-.187.187-.187h2.224v-.436h-1.544a.188.188 0 0 1-.188-.188V7.408c0-.104.085-.188.188-.188h4.329c.103 0 .187.084.187.188Z" fill="#F85A00" fill-opacity=".05"/>
    <path d="m10.399 7.193-.905-.429a.142.142 0 0 0-.197.087c-.41 1.371-1.06 2.583-1.926 3.6a.134.134 0 0 0-.028.131l.309 1.02a.141.141 0 0 0 .239.056c.18-.19.36-.394.541-.61v4.327c0 .103.085.188.188.188h.874a.188.188 0 0 0 .188-.188h.004V9.214c.324-.59.588-1.21.788-1.852a.142.142 0 0 0-.075-.169Zm.628.213v2.986c0 .104.084.188.187.188h1.545v.436h-2.224a.188.188 0 0 0-.188.187v.835c0 .103.085.187.188.187h1.291a6.05 6.05 0 0 1-1.664 1.782.14.14 0 0 0-.038.19l.535.855a.14.14 0 0 0 .096.065.132.132 0 0 0 .112-.032c.741-.629 1.374-1.475 1.89-2.522v2.812c0 .103.084.188.187.188h.848a.188.188 0 0 0 .188-.188V12.56c.5.978 1.113 1.82 1.83 2.506.061.058.157.051.21-.017l.616-.827a.145.145 0 0 0-.029-.2c-.714-.529-1.27-1.12-1.694-1.802h1.383a.188.188 0 0 0 .187-.187v-.834a.188.188 0 0 0-.187-.188H13.98v-.436h1.563a.188.188 0 0 0 .188-.187V7.406a.188.188 0 0 0-.188-.187h-4.329a.188.188 0 0 0-.187.187Zm1.205 1.004h2.294v.975h-2.294V8.41Z" fill="#F85A00"/>
</svg>
