<svg width="24" height="24" fill="none" xmlns="http://www.w3.org/2000/svg">
    <path d="M3.5 21V6.5L12 4v4.5h8.5V21h-17Z" fill="#F85A00" fill-opacity=".05"/>
    <path fill-rule="evenodd" clip-rule="evenodd" d="M12.51 3.32a.85.85 0 0 1 .34.68v3.65h7.65c.47 0 .85.38.85.85v11.65h1.15v1.7h-21v-1.7h1.15V6.5a.85.85 0 0 1 .61-.816l8.5-2.5a.85.85 0 0 1 .75.135ZM4.35 20.15h6.8V5.136l-6.8 2V20.15Zm8.5 0h6.8V9.35h-6.8v10.8Z" fill="#F85A00"/>
    <rect x="6" y="17" width="3" height="1" rx=".2" fill="#F85A00"/>
    <rect x="6" y="14" width="3" height="1" rx=".2" fill="#F85A00"/>
    <rect x="6" y="11" width="3" height="1" rx=".2" fill="#F85A00"/>
    <rect x="15" y="14" width="3" height="1" rx=".2" fill="#F85A00"/>
    <rect x="15" y="17" width="3" height="1" rx=".2" fill="#F85A00"/>
    <rect x="6" y="8" width="3" height="1" rx=".2" fill="#F85A00"/>
    <rect x="15" y="11" width="3" height="1" rx=".2" fill="#F85A00"/>
</svg>
