<svg width="24" height="24" fill="none" xmlns="http://www.w3.org/2000/svg">
    <path d="M20.25 6.094h-3.188l-.759-2.128a.751.751 0 0 0-.708-.497h-7.19c-.317 0-.6.199-.706.497l-.761 2.128H3.75c-1.036 0-1.875.839-1.875 1.875v10.687c0 1.036.84 1.875 1.875 1.875h16.5a1.874 1.874 0 0 0 1.875-1.875V7.97c0-1.036-.84-1.875-1.875-1.875ZM12 16.78a3.749 3.749 0 0 1-3.75-3.75A3.749 3.749 0 0 1 12 9.281a3.749 3.749 0 0 1 3.75 3.75 3.749 3.749 0 0 1-3.75 3.75Zm-2.25-3.75a2.25 2.25 0 1 0 4.5 0 2.25 2.25 0 0 0-4.5 0Z" fill="#42494D"/>
</svg>
