<svg width="24" height="24" fill="none" xmlns="http://www.w3.org/2000/svg">
    <path d="M20.03 6.764 14.986 1.72a.749.749 0 0 0-.53-.22H4.5a.75.75 0 0 0-.75.75v19.5c0 .415.335.75.75.75h15a.75.75 0 0 0 .75-.75V7.296c0-.2-.08-.391-.22-.532Zm-1.51.877h-4.41V3.23l4.41 4.41Zm.043 13.171H5.438V3.188h7.078V8.25a.984.984 0 0 0 .984.984h5.063v11.579Zm-8.508-9.534a.28.28 0 0 0-.258-.169h-.82a.282.282 0 0 0-.282.282v6.375c0 .154.127.28.282.28h.635a.282.282 0 0 0 .281-.28v-4.123l1.566 3.52a.28.28 0 0 0 .257.167h.565c.11 0 .211-.066.258-.167l1.566-3.53v4.133c0 .154.126.28.28.28h.638a.282.282 0 0 0 .282-.28V11.39a.282.282 0 0 0-.282-.282h-.813a.28.28 0 0 0-.258.17l-1.947 4.476-1.95-4.477Z" fill="#42494D"/>
</svg>
