<svg width="24" height="24" fill="none" xmlns="http://www.w3.org/2000/svg">
    <path d="M15.898 15.056a4.018 4.018 0 0 1 1.907-.478h.003c.07 0 .103-.084.051-.131a8.71 8.71 0 0 0-2.43-1.542c-.01-.005-.019-.007-.028-.012a5.814 5.814 0 0 0 2.402-4.713 5.806 5.806 0 0 0-5.8-5.813c-3.205 0-5.8 2.602-5.8 5.813a5.81 5.81 0 0 0 2.406 4.713c-.01.005-.02.007-.029.012a8.733 8.733 0 0 0-2.796 1.889 8.751 8.751 0 0 0-1.884 2.8 8.757 8.757 0 0 0-.69 3.237.187.187 0 0 0 .188.192h1.404c.101 0 .185-.082.188-.182a6.993 6.993 0 0 1 2.053-4.789 6.958 6.958 0 0 1 4.962-2.06c1.329 0 2.603.368 3.703 1.057a.19.19 0 0 0 .19.007Zm-3.893-2.845a3.998 3.998 0 0 1-2.846-1.181A4.013 4.013 0 0 1 7.98 8.18c0-1.076.42-2.089 1.18-2.85a3.99 3.99 0 0 1 2.845-1.182c1.075 0 2.083.42 2.845 1.182a4.013 4.013 0 0 1 1.179 2.85c0 1.075-.42 2.088-1.18 2.85a3.998 3.998 0 0 1-2.844 1.18Zm8.62 5.578h-1.969V15.82a.188.188 0 0 0-.187-.187h-1.313a.188.188 0 0 0-.187.187v1.97h-1.97a.188.188 0 0 0-.187.187v1.312c0 .103.085.188.188.188h1.969v1.968c0 .103.084.188.187.188h1.313a.188.188 0 0 0 .187-.188v-1.968h1.969a.188.188 0 0 0 .187-.188v-1.312a.188.188 0 0 0-.187-.188Z" fill="#42494D"/>
</svg>
