<svg width="24" height="24" fill="none" xmlns="http://www.w3.org/2000/svg">
    <path d="M12.516 8.25V3.187H5.437v17.625h13.125V9.235H13.5a.984.984 0 0 1-.984-.984Zm2.953 5.531v1.125a.188.188 0 0 1-.188.188H12.75v2.531a.188.188 0 0 1-.188.188h-1.124a.188.188 0 0 1-.188-.188v-2.531H8.719a.188.188 0 0 1-.188-.188v-1.125c0-.103.085-.187.188-.187h2.531v-2.531c0-.104.084-.188.188-.188h1.124c.104 0 .188.084.188.188v2.53h2.531c.103 0 .188.085.188.188Z" fill="#F85A00" fill-opacity=".05"/>
    <path d="M20.03 6.764 14.986 1.72a.749.749 0 0 0-.53-.22H4.5a.75.75 0 0 0-.75.75v19.5c0 .415.335.75.75.75h15a.75.75 0 0 0 .75-.75V7.296c0-.2-.08-.391-.22-.532ZM14.11 3.23l4.41 4.41h-4.41V3.23Zm4.453 17.582H5.438V3.188h7.078V8.25a.984.984 0 0 0 .984.984h5.063v11.579Z" fill="#F85A00"/>
    <path d="M12.75 11.063a.188.188 0 0 0-.188-.188h-1.124a.188.188 0 0 0-.188.188v2.53H8.719a.188.188 0 0 0-.188.188v1.125c0 .103.085.188.188.188h2.531v2.531c0 .103.084.188.188.188h1.124a.188.188 0 0 0 .188-.188v-2.531h2.531a.188.188 0 0 0 .188-.188v-1.125a.188.188 0 0 0-.188-.187H12.75v-2.531Z" fill="#F85A00"/>
</svg>
