<svg width="24" height="24" fill="none" xmlns="http://www.w3.org/2000/svg">
    <path d="M21.675 9.037a10.47 10.47 0 0 0-2.25-3.337A10.469 10.469 0 0 0 12 2.625 10.47 10.47 0 0 0 4.575 5.7 10.47 10.47 0 0 0 1.5 13.125c0 3.11 1.366 6.04 3.748 8.041l.04.033a.76.76 0 0 0 .482.176h12.462a.76.76 0 0 0 .483-.176l.04-.033a10.486 10.486 0 0 0 3.745-8.041c0-1.418-.279-2.791-.825-4.088Zm-10.378-3.6c0-.103.084-.187.187-.187h1.032c.103 0 .187.084.187.188v1.875a.188.188 0 0 1-.187.187h-1.032a.188.188 0 0 1-.187-.188V5.438Zm-4.969 8.204a.188.188 0 0 1-.187.187H4.266a.188.188 0 0 1-.188-.187v-1.032c0-.103.084-.187.188-.187H6.14c.103 0 .187.084.187.187v1.032Zm2.126-4.793-.729.729a.188.188 0 0 1-.265 0L6.134 8.25a.188.188 0 0 1 0-.265l.728-.729a.188.188 0 0 1 .265 0l1.327 1.327a.188.188 0 0 1 0 .265Zm6.823 1.959-1.98 1.98a1.31 1.31 0 0 1-.767 1.553 1.312 1.312 0 1 1-.162-2.48l1.98-1.981a.188.188 0 0 1 .265 0l.664.663a.188.188 0 0 1 0 .265Zm1.007-1.228-.728-.729a.188.188 0 0 1 0-.265l1.326-1.326a.188.188 0 0 1 .265 0l.729.728a.188.188 0 0 1 0 .265L16.549 9.58a.188.188 0 0 1-.265 0Zm3.544 4.062a.188.188 0 0 1-.187.187h-1.875a.188.188 0 0 1-.188-.187v-1.032c0-.103.085-.187.188-.187h1.875c.103 0 .187.084.187.187v1.032Z" fill="#42494D"/>
</svg>
