<svg width="24" height="24" fill="none" xmlns="http://www.w3.org/2000/svg">
    <path d="M20.03 6.764 14.986 1.72a.749.749 0 0 0-.53-.22H4.5a.75.75 0 0 0-.75.75v19.5c0 .415.335.75.75.75h15a.75.75 0 0 0 .75-.75V7.296c0-.2-.08-.391-.22-.532Zm-1.51.877h-4.41V3.23l4.41 4.41Zm.043 13.171H5.438V3.188h7.078V8.25a.984.984 0 0 0 .984.984h5.063v11.579Zm-6.514-7.216-1.448-2.4a.283.283 0 0 0-.242-.136h-.9a.262.262 0 0 0-.15.045.28.28 0 0 0-.086.389l1.929 3.056-1.955 3.113a.282.282 0 0 0 .239.43h.809a.282.282 0 0 0 .239-.133l1.47-2.379 1.46 2.377a.28.28 0 0 0 .238.133h.88a.28.28 0 0 0 .237-.434l-1.97-3.055 2-3.106a.281.281 0 0 0-.237-.434h-.837a.283.283 0 0 0-.241.136l-1.435 2.398Z" fill="#42494D"/>
</svg>
