<svg width="24" height="24" fill="none" xmlns="http://www.w3.org/2000/svg">
    <path d="M9.858 18.703h4.286v-3.656H9.858v3.656Zm-.225-5.545.222.389h4.29l.222-.39 4.648-7.86H4.985l4.648 7.86Z" fill="#F85A00" fill-opacity=".05"/>
    <path d="M20.627 3.61H3.373a.75.75 0 0 0-.645 1.124l5.452 9.268v5.639c0 .415.332.75.745.75h6.15a.747.747 0 0 0 .745-.75V14l5.454-9.267a.751.751 0 0 0-.647-1.125Zm-6.482 15.093H9.858v-3.656h4.287v3.656Zm.222-5.545-.223.389H9.856l-.222-.39-4.648-7.86h14.03l-4.648 7.86Z" fill="#F85A00"/>
</svg>
