<svg width="24" height="24" fill="none" xmlns="http://www.w3.org/2000/svg">
    <path d="M21.75 3.75H2.25a.75.75 0 0 0-.75.75v15c0 .415.335.75.75.75h19.5a.75.75 0 0 0 .75-.75v-15a.75.75 0 0 0-.75-.75Zm-.938 14.813H3.188v-.936l3.247-3.85 3.518 4.171 5.472-6.487 5.389 6.389v.712Zm0-3.043L15.567 9.3a.186.186 0 0 0-.286 0l-5.33 6.319-3.374-4.001a.186.186 0 0 0-.286 0l-3.104 3.68v-9.86h17.625V15.52ZM7.126 10.688a2.062 2.062 0 1 0 0-4.124 2.062 2.062 0 0 0 0 4.123Zm0-2.72a.655.655 0 1 1 0 1.313.655.655 0 1 1 0-1.312Z" fill="#42494D"/>
</svg>
