<svg width="24" height="24" fill="none" xmlns="http://www.w3.org/2000/svg">
    <path d="M9 4.336h10.688v3.187H9V4.336Zm-4.688 0H7.5V19.71H4.312V4.336Zm16.313-1.711H3.375a.75.75 0 0 0-.75.75v.023a.75.75 0 0 1 .75-.75h17.25a.75.75 0 0 1 .75.75v-.023a.75.75 0 0 0-.75-.75ZM9 9.023h10.688v10.688H9V9.023Z" fill="#F85A00" fill-opacity=".05"/>
    <path d="M20.625 2.648H3.375a.75.75 0 0 0-.75.75v17.25c0 .415.335.75.75.75h17.25a.75.75 0 0 0 .75-.75V3.398a.75.75 0 0 0-.75-.75ZM7.5 19.711H4.312V4.336H7.5V19.71Zm12.188 0H9V9.023h10.688v10.688Zm0-12.188H9V4.336h10.688v3.187Z" fill="#F85A00"/>
</svg>
