<svg width="24" height="24" fill="none" xmlns="http://www.w3.org/2000/svg">
    <path d="M16.706 12.863a6.617 6.617 0 0 0 1.95-4.707c0-1.779-.691-3.45-1.95-4.706A6.617 6.617 0 0 0 12 1.5c-1.777 0-3.45.691-4.706 1.95a6.617 6.617 0 0 0-1.95 4.706 6.606 6.606 0 0 0 1.947 4.707 6.593 6.593 0 0 0 3.818 1.891v2.496H8.438a.188.188 0 0 0-.188.188v1.406c0 .103.084.187.188.187h2.671v3.282c0 .103.085.187.188.187h1.406a.188.188 0 0 0 .188-.188v-3.28h2.671a.188.188 0 0 0 .188-.188v-1.407a.188.188 0 0 0-.188-.187h-2.671v-2.496a6.606 6.606 0 0 0 3.815-1.891ZM12 13.03a4.845 4.845 0 0 1-3.448-1.427 4.841 4.841 0 0 1-1.427-3.448c0-1.303.506-2.524 1.427-3.447A4.832 4.832 0 0 1 12 3.28c1.303 0 2.524.506 3.448 1.428a4.842 4.842 0 0 1 1.427 3.447 4.846 4.846 0 0 1-1.427 3.448A4.846 4.846 0 0 1 12 13.03Z" fill="#42494D"/>
</svg>
