<svg width="24" height="24" fill="none" xmlns="http://www.w3.org/2000/svg">
    <path d="M3.188 18.563h13.5V5.438h-13.5v13.125Zm1.5-11.438c0-.103.084-.188.187-.188H7.5c.103 0 .188.085.188.188V8.25a.188.188 0 0 1-.188.188H4.875a.188.188 0 0 1-.188-.188V7.125Z" fill="#F85A00" fill-opacity=".05"/>
    <path d="m21.375 7.085-3 1.728V5.25c0-.827-.673-1.5-1.5-1.5H3c-.827 0-1.5.673-1.5 1.5v13.5c0 .827.673 1.5 1.5 1.5h13.875c.827 0 1.5-.673 1.5-1.5v-3.563l3 1.728a.75.75 0 0 0 1.125-.647V7.734a.75.75 0 0 0-1.125-.649Zm-4.688 11.477h-13.5V5.438h13.5v13.125Zm4.125-3.914-2.437-1.401v-2.492l2.438-1.403v5.296Z" fill="#F85A00"/>
    <path d="M4.875 8.438H7.5a.188.188 0 0 0 .188-.188V7.125a.188.188 0 0 0-.188-.188H4.875a.188.188 0 0 0-.188.188V8.25c0 .103.085.188.188.188Z" fill="#F85A00"/>
</svg>
