<svg width="24" height="24" fill="none" xmlns="http://www.w3.org/2000/svg">
    <path d="M12 1.5C6.202 1.5 1.5 6.202 1.5 12S6.202 22.5 12 22.5 22.5 17.798 22.5 12 17.798 1.5 12 1.5Zm0 19.219A8.72 8.72 0 0 1 3.281 12 8.72 8.72 0 0 1 12 3.281 8.72 8.72 0 0 1 20.719 12 8.72 8.72 0 0 1 12 20.719Zm2.759-13.796a6.07 6.07 0 0 0-1.296-.126c-2.501 0-4.193 1.305-4.655 3.513h-.745a.188.188 0 0 0-.188.188v.637c0 .103.084.188.188.188h.618c-.007.096-.007.197-.007.3v.865h-.611a.188.188 0 0 0-.188.187v.637c0 .104.084.188.188.188h.707c.403 2.325 2.12 3.703 4.693 3.703.49 0 .923-.04 1.296-.12a.188.188 0 0 0 .15-.182v-1.003a.187.187 0 0 0-.223-.183 6.562 6.562 0 0 1-1.214.096c-1.606 0-2.684-.858-3.042-2.311h3.06a.188.188 0 0 0 .188-.188v-.637a.188.188 0 0 0-.187-.188h-3.197v-.843c0-.11 0-.22.007-.324h3.185a.188.188 0 0 0 .187-.187v-.638a.188.188 0 0 0-.187-.187h-3.007c.403-1.334 1.46-2.119 2.99-2.119.467 0 .87.035 1.212.103a.187.187 0 0 0 .225-.183V7.106c0-.089-.06-.164-.147-.183Z" fill="#42494D"/>
</svg>
