<svg width="24" height="24" fill="none" xmlns="http://www.w3.org/2000/svg">
    <path d="M20.25 17.25a6.56 6.56 0 0 0-3.75-5.927V7.437c0-.354-.124-.696-.354-.966l-3.572-4.235a.749.749 0 0 0-1.148 0L7.854 6.47a1.5 1.5 0 0 0-.354.966v3.886a6.56 6.56 0 0 0-3.75 5.927h3.668a1.81 1.81 0 0 0-.082.558 2.276 2.276 0 0 0 1.512 2.142A3.417 3.417 0 0 0 12 22.031c.682 0 1.343-.201 1.908-.581.553-.37.982-.888 1.242-1.5.396-.14.746-.388 1.01-.715.324-.404.5-.907.502-1.425 0-.197-.026-.384-.073-.558h3.661v-.002Zm-2.384-2.686c.22.342.399.71.528 1.092h-1.988v-2.562a4.958 4.958 0 0 1 1.46 1.47Zm-8.772-3.241V7.472L12 4.027l2.906 3.445v8.184H9.094v-4.333Zm-3.488 4.333a4.987 4.987 0 0 1 1.987-2.562v2.562H5.607Zm9.115 2.724a.632.632 0 0 1-.4.08l-.458-.057-.065.455A1.825 1.825 0 0 1 12 20.416c-.898 0-1.671-.67-1.798-1.558l-.065-.457-.457.058a.66.66 0 0 1-.731-.654c0-.248.138-.454.342-.557h5.42a.619.619 0 0 1 .343.557.665.665 0 0 1-.333.575Zm-3.846-9.005a1.125 1.125 0 1 0 2.25 0 1.125 1.125 0 0 0-2.25 0Z" fill="#42494D"/>
</svg>
