<svg width="24" height="24" fill="none" xmlns="http://www.w3.org/2000/svg">
    <path d="m20.318 3.982-7.964-2.714a1.153 1.153 0 0 0-.354-.05c-.129 0-.258.017-.354.05L3.682 3.982a.562.562 0 0 0-.354.497v11.306c0 .206.134.478.295.607l8.08 6.296a.485.485 0 0 0 .295.096.48.48 0 0 0 .295-.096l8.079-6.296a.872.872 0 0 0 .295-.607V4.48a.552.552 0 0 0-.349-.497Zm-5.627 9.002a3.377 3.377 0 0 1-4.186.472l-1.817 1.816a.188.188 0 0 1-.265 0l-.796-.797a.188.188 0 0 1 0-.265l1.816-1.816a3.377 3.377 0 0 1 5.248-4.186 3.377 3.377 0 0 1 0 4.776Zm-3.716-1.06a1.88 1.88 0 0 0 3.074-.603 1.878 1.878 0 0 0-.42-2.053 1.877 1.877 0 1 0-2.654 2.655Z" fill="#42494D"/>
</svg>
