<svg width="24" height="24" fill="none" xmlns="http://www.w3.org/2000/svg">
    <path d="M20.625 2.625H3.375a.75.75 0 0 0-.75.75v17.25c0 .415.335.75.75.75h17.25a.75.75 0 0 0 .75-.75V3.375a.75.75 0 0 0-.75-.75Zm-8.6 9.518-4.5 3.773a.186.186 0 0 1-.306-.143v-1.47a.19.19 0 0 1 .068-.142L9.86 12 7.287 9.84a.179.179 0 0 1-.068-.144v-1.47c0-.159.185-.246.307-.142l4.5 3.77a.186.186 0 0 1 0 .289Zm4.756 3.63c0 .104-.08.188-.175.188h-4.337c-.096 0-.175-.084-.175-.188v-1.125c0-.103.08-.187.176-.187h4.335c.097 0 .176.084.176.187v1.125Z" fill="#42494D"/>
</svg>
