<svg width="24" height="24" fill="none" xmlns="http://www.w3.org/2000/svg">
    <path d="M12 7.664c-.7 0-1.36.272-1.856.769a2.616 2.616 0 0 0-.769 1.856c0 .7.274 1.36.769 1.856a2.616 2.616 0 0 0 1.856.77c.7 0 1.36-.275 1.856-.77a2.606 2.606 0 0 0 .769-1.856c0-.7-.272-1.36-.769-1.856A2.606 2.606 0 0 0 12 7.664Zm8.03-.888a8.496 8.496 0 0 0-1.873-2.712 8.691 8.691 0 0 0-2.77-1.823A8.79 8.79 0 0 0 12 1.57a8.832 8.832 0 0 0-3.387.667 8.73 8.73 0 0 0-2.77 1.824A8.522 8.522 0 0 0 3.97 6.773a8.324 8.324 0 0 0-.689 3.329c0 1.654.396 3.302 1.174 4.891.626 1.277 1.5 2.522 2.602 3.705 1.882 2.02 3.855 3.256 4.416 3.586a1.028 1.028 0 0 0 1.05 0c.56-.33 2.533-1.565 4.415-3.586 1.102-1.18 1.976-2.428 2.602-3.705.783-1.587 1.179-3.232 1.179-4.89a8.324 8.324 0 0 0-.69-3.327ZM12 14.414a4.125 4.125 0 1 1 0-8.25 4.125 4.125 0 0 1 0 8.25Z" fill="#42494D"/>
</svg>
