<svg width="24" height="24" fill="none" xmlns="http://www.w3.org/2000/svg">
    <path d="M20.03 6.766c.14.141.22.33.22.53V21.75a.75.75 0 0 1-.75.75h-15a.75.75 0 0 1-.75-.75V2.25a.75.75 0 0 1 .75-.75h9.954c.2 0 .391.08.532.22l5.044 5.046Zm-1.51.875L14.11 3.23v4.41h4.41ZM7.5 11.297a.187.187 0 0 0-.188.187v1.125a.188.188 0 0 0 .188.188h9a.188.188 0 0 0 .188-.188v-1.125a.188.188 0 0 0-.188-.187h-9Zm0 3.187a.187.187 0 0 0-.188.188v1.125a.188.188 0 0 0 .188.187h4.313a.188.188 0 0 0 .187-.187v-1.125a.188.188 0 0 0-.188-.188H7.5Z" fill="#42494D"/>
</svg>
