<svg width="24" height="24" fill="none" xmlns="http://www.w3.org/2000/svg">
    <g clip-path="url(#a)" fill="#F85A00">
        <path d="M12.391 1.988a.5.5 0 0 0-.78 0L8.752 5.563a.5.5 0 0 0 .39.812h1.358V12.6a11.094 11.094 0 0 1 3 0V6.375h1.357a.5.5 0 0 0 .39-.812l-2.857-3.575ZM9.147 12.874a11.875 11.875 0 0 0-2.682-4.55l.8-.753a.497.497 0 0 0-.269-.854l-4.384-.672a.5.5 0 0 0-.576.542l.442 4.382a.503.503 0 0 0 .845.313l.953-.897a8.855 8.855 0 0 1 2.077 3.674c.862-.517 1.8-.92 2.794-1.185ZM17.928 14.232a10.948 10.948 0 0 0-2.774-1.274 11.875 11.875 0 0 1 2.71-4.633l-.802-.754a.497.497 0 0 1 .27-.854l4.384-.672a.5.5 0 0 1 .576.542l-.443 4.382a.503.503 0 0 1-.844.313l-.953-.897a8.856 8.856 0 0 0-2.123 3.847Z"/>
        <path fill-rule="evenodd" clip-rule="evenodd" d="M5.901 16.895a.48.48 0 0 0-.703-.025 9.471 9.471 0 0 0-2.603 5.289.167.167 0 0 0 .016.098l.042.082a.111.111 0 0 1-.1.161h-.455a.48.48 0 0 1-.484-.545C2.362 16.888 6.727 13 12.001 13s9.64 3.888 10.387 8.955a.48.48 0 0 1-.483.545h-1.172a.5.5 0 0 1-.474-.342l-.144-.431a.259.259 0 0 0-.023-.05l-.567-.945a.25.25 0 0 0-.174-.118l-.494-.083a.115.115 0 0 0-.122.164.615.615 0 0 1-.25.812l-.975.541a1.25 1.25 0 0 1-1.692-.472l-.396-.694a.75.75 0 0 1-.1-.372v-.262a.25.25 0 0 0-.012-.079l-.099-.296a.25.25 0 0 0-.237-.17h-.623a.75.75 0 0 1-.53-.22l-.675-.675a.25.25 0 0 0-.158-.073l-2.647-.203a.25.25 0 0 0-.214.093l-.439.548a.75.75 0 0 1-1.116.061l-.806-.806a.75.75 0 0 1-.172-.793l.518-1.38a.75.75 0 0 1 .465-.448l2.477-.826a.25.25 0 0 0 .124-.092l.055-.077c.24-.335-.006-.79-.414-.739a9.45 9.45 0 0 0-4.473 1.793.48.48 0 0 0-.063.706l.036.04c.658.74.397 1.908-.513 2.298a.15.15 0 0 0-.075.071l-.838 1.676a.75.75 0 0 1-.202.25l-.566.452c-.199.16-.23.444-.198.697.013.098.012.197-.003.293-.014.091-.098.151-.19.151-.168 0-.282-.207-.303-.374a.542.542 0 0 0-.116-.274l-.08-.1a.25.25 0 0 1 .039-.352l1.104-.883a.25.25 0 0 0 .068-.084l.837-1.675a.65.65 0 0 1 .326-.307.951.951 0 0 0 .336-1.506l-.044-.05Zm6.791-2.87a.486.486 0 0 0-.429.205l-.678.95a.75.75 0 0 1-.373.276l-2.477.825a.25.25 0 0 0-.155.15l-.517 1.38a.25.25 0 0 0 .057.264l.806.806a.25.25 0 0 0 .372-.02l.438-.549a.75.75 0 0 1 .643-.279l2.648.204a.75.75 0 0 1 .472.217l.675.675a.25.25 0 0 0 .177.074h.623a.75.75 0 0 1 .712.512l.098.296a.75.75 0 0 1 .039.237v.262a.25.25 0 0 0 .033.124l.396.694a.75.75 0 0 0 1.015.283l.974-.54a.114.114 0 0 0 .047-.152.614.614 0 0 1 .65-.881l.496.082a.75.75 0 0 1 .52.354l.567.946a.747.747 0 0 1 .068.148l.08.238a.337.337 0 0 0 .65-.168 9.505 9.505 0 0 0-8.627-7.613Z"/>
        <path d="M14.829 22.5a.25.25 0 0 0 .223-.362l-.221-.442a2.75 2.75 0 0 0-1.59-1.38l-.084-.027a.75.75 0 0 0-.861.295.25.25 0 0 1-.337.076l-.435-.262a.253.253 0 0 1-.11-.297.502.502 0 0 0-.476-.66H9.865a1.75 1.75 0 0 0-1.366.657l-.935 1.168c-.24.299-.387.629-.454.965-.029.144.089.27.236.27.13 0 .238-.1.267-.228.057-.242.168-.479.342-.695l.934-1.168a1.25 1.25 0 0 1 .976-.47h1.073l.001.002a.753.753 0 0 0 .328.885l.435.261a.75.75 0 0 0 1.01-.227.25.25 0 0 1 .287-.098l.084.028a2.25 2.25 0 0 1 1.3 1.128l.222.443a.25.25 0 0 0 .224.138Z"/>
        <path opacity=".3" fill-rule="evenodd" clip-rule="evenodd" d="m12.328 13.71-.947 1.324a.5.5 0 0 1-.248.184l-2.477.826a.5.5 0 0 0-.31.298l-.518 1.38a.5.5 0 0 0 .115.53l.806.805a.5.5 0 0 0 .744-.041l.438-.548a.5.5 0 0 1 .429-.186l2.647.204a.5.5 0 0 1 .315.145l.675.675a.5.5 0 0 0 .354.146h.623a.5.5 0 0 1 .474.342l.099.296a.5.5 0 0 1 .025.158v.262a.5.5 0 0 0 .066.248l.397.694a1 1 0 0 0 1.354.377l.974-.54a.364.364 0 0 0 .149-.482.365.365 0 0 1 .386-.523l.494.083a.5.5 0 0 1 .347.236l.567.945a.494.494 0 0 1 .046.1l.284.852h.524l.492-.738a.485.485 0 0 0 .075-.363c-.28-1.428-1.117-4.246-3.297-5.518-2.17-1.266-4.082-2.274-5.696-2.373a.468.468 0 0 0-.406.201Zm2.626 8.79-.347-.693a2.5 2.5 0 0 0-1.445-1.254l-.084-.028a.5.5 0 0 0-.574.197.5.5 0 0 1-.673.152l-.436-.262a.503.503 0 0 1-.219-.59.252.252 0 0 0-.238-.332H9.865a1.5 1.5 0 0 0-1.171.563l-.935 1.168a1.976 1.976 0 0 0-.434 1.079h7.628Zm-11.33 0h-1.17l-.163-.324a.479.479 0 0 1-.051-.222c.04-2.45 1.66-4.658 2.735-5.736a.471.471 0 0 1 .688.032l.469.528c.545.613.329 1.58-.425 1.902a.4.4 0 0 0-.2.19l-.838 1.674a.5.5 0 0 1-.135.167l-1.104.884.08.1a.79.79 0 0 1 .113.805Z"/>
    </g>
    <defs>
        <clipPath id="a">
            <path fill="#fff" d="M0 0h24v24H0z"/>
        </clipPath>
    </defs>
</svg>
