<svg width="24" height="24" fill="none" xmlns="http://www.w3.org/2000/svg">
    <path d="M5.975 13.648a3.072 3.072 0 0 0-.907 2.188c0 .828.323 1.606.907 2.19a3.072 3.072 0 0 0 2.189.907c.827 0 1.605-.324 2.19-.907l1.391-1.393-4.378-4.378-1.392 1.393Zm9.863-8.581c-.828 0-1.606.323-2.19.907l-1.392 1.392 4.378 4.378 1.392-1.392a3.082 3.082 0 0 0 .908-2.189c0-.827-.324-1.605-.908-2.189a3.072 3.072 0 0 0-2.188-.907Z" fill="#F85A00" fill-opacity=".05"/>
    <path d="M13.568 12.814a.188.188 0 0 0-.265 0l-1.561 1.56-2.116-2.116 1.563-1.563a.188.188 0 0 0 0-.265l-.853-.853a.188.188 0 0 0-.265 0L8.508 11.14 7.5 10.132a.185.185 0 0 0-.134-.053.198.198 0 0 0-.133.053l-2.386 2.389a4.674 4.674 0 0 0-1.374 3.29 4.672 4.672 0 0 0 .804 2.651l-1.783 1.784a.188.188 0 0 0 0 .265l.993.993a.194.194 0 0 0 .267 0l1.784-1.783a4.67 4.67 0 0 0 2.627.804c1.2 0 2.4-.457 3.317-1.374l2.388-2.388a.188.188 0 0 0 0-.265l-1.008-1.008 1.564-1.563a.188.188 0 0 0 0-.265l-.858-.848Zm-3.216 5.212a3.077 3.077 0 0 1-2.189.907 3.072 3.072 0 0 1-2.189-.907 3.078 3.078 0 0 1-.907-2.189c0-.827.321-1.603.907-2.189l1.392-1.392 4.378 4.378-1.392 1.392ZM21.508 3.488l-.993-.994a.194.194 0 0 0-.267 0l-1.784 1.784a4.67 4.67 0 0 0-2.627-.804c-1.2 0-2.4.457-3.317 1.373l-2.388 2.388a.188.188 0 0 0 0 .265l6.368 6.368a.184.184 0 0 0 .133.054.198.198 0 0 0 .134-.054l2.388-2.388a4.692 4.692 0 0 0 .57-5.941l1.783-1.784a.19.19 0 0 0 0-.267Zm-3.482 6.865-1.393 1.392-4.378-4.378 1.393-1.392a3.078 3.078 0 0 1 2.189-.907c.827 0 1.603.32 2.189.907.583.583.907 1.361.907 2.189 0 .827-.324 1.603-.907 2.189Z" fill="#F85A00"/>
</svg>
