<svg width="24" height="24" fill="none" xmlns="http://www.w3.org/2000/svg">
    <path d="M12.935 12.024c.46 0 .842-.333.921-.769A.938.938 0 0 1 12 11.077v.012c0 .515.42.935.935.935Zm4.69 4.097-.007-.007a4.385 4.385 0 0 0-2.273-.629 4.417 4.417 0 0 0-2.836 1.027 6.006 6.006 0 0 1-3.865 1.404 6.01 6.01 0 0 1-2.735-.656l-.975 2.522h14.132l-1.403-3.638-.038-.023Z" fill="#F85A00" fill-opacity=".05"/>
    <path d="M20.602 19.334 16.32 8.25V4.172H18V2.578H6v1.594h1.681V8.25L3.4 19.334a1.501 1.501 0 0 0 1.4 2.041h14.404a1.498 1.498 0 0 0 1.4-2.041ZM9.275 8.548v-4.33h5.451v4.33l2.131 5.514a6.03 6.03 0 0 0-1.498-.187 6.026 6.026 0 0 0-3.874 1.406 4.424 4.424 0 0 1-2.843 1.03 4.417 4.417 0 0 1-2.151-.556l2.784-7.207ZM4.935 19.78l.974-2.522.003-.004a6.028 6.028 0 0 0 2.732.651A6.026 6.026 0 0 0 12.52 16.5a4.425 4.425 0 0 1 2.843-1.029c.82 0 1.603.223 2.287.635l.014.038 1.404 3.637H4.934Z" fill="#F85A00"/>
    <path d="M12.938 12a.938.938 0 1 0-.938-.938v.015a.938.938 0 0 0 .938.923Z" fill="#F85A00"/>
</svg>
