<svg width="24" height="24" fill="none" xmlns="http://www.w3.org/2000/svg">
    <path d="M20.25 3.375h-7.125a.376.376 0 0 0-.375.375v7.125c0 .206.169.375.375.375h7.125a.376.376 0 0 0 .375-.375V3.75a.376.376 0 0 0-.375-.375Zm-1.219 6.281h-4.687V4.97h4.687v4.687Zm-8.156 3.094H3.75a.376.376 0 0 0-.375.375v7.125c0 .206.169.375.375.375h7.125a.376.376 0 0 0 .375-.375v-7.125a.376.376 0 0 0-.375-.375Zm-1.219 6.281H4.97v-4.687h4.687v4.687Zm1.219-15.656H3.75a.376.376 0 0 0-.375.375v7.125c0 .206.169.375.375.375h7.125a.376.376 0 0 0 .375-.375V3.75a.376.376 0 0 0-.375-.375ZM9.656 9.656H4.97V4.97h4.687v4.687ZM20.25 12.75h-7.125a.376.376 0 0 0-.375.375v7.125c0 .206.169.375.375.375h7.125a.376.376 0 0 0 .375-.375v-7.125a.376.376 0 0 0-.375-.375Zm-1.219 6.281h-4.687v-4.687h4.687v4.687Z" fill="#F85A00"/>
    <path d="M4.969 4.969h4.687v4.687H4.97V4.97Zm9.375 0h4.687v4.687h-4.687V4.97Zm-9.375 9.375h4.687v4.687H4.97v-4.687Zm9.375 0h4.687v4.687h-4.687v-4.687Z" fill="#F85A00" fill-opacity=".05"/>
</svg>
