<svg width="24" height="24" fill="none" xmlns="http://www.w3.org/2000/svg">
    <path d="M20.763 12.51c.394-.52.612-1.158.612-1.822 0-1.052-.588-2.048-1.535-2.604a1.586 1.586 0 0 0-.804-.218h-5.62l.14-2.88a2.509 2.509 0 0 0-.691-1.861 2.499 2.499 0 0 0-1.826-.783c-1.219 0-2.297.82-2.62 1.995l-2.014 7.289h-3.03a.75.75 0 0 0-.75.75v8.531c0 .415.335.75.75.75h14.093c.216 0 .427-.042.621-.127a3.014 3.014 0 0 0 1.709-3.642 3.016 3.016 0 0 0 .485-2.688c.394-.52.611-1.158.611-1.821a3.2 3.2 0 0 0-.13-.87Zm-16.45 7.46v-6.657H6.21v6.656H4.312Zm14.915-8.274-.513.445.326.596a1.339 1.339 0 0 1-.298 1.648l-.513.445.325.595a1.338 1.338 0 0 1-.298 1.648l-.512.445.325.595a1.332 1.332 0 0 1-.626 1.854H7.712v-6.729l2.332-8.449a1.033 1.033 0 0 1 .989-.757.833.833 0 0 1 .837.872l-.225 4.65h7.368c.418.255.675.687.675 1.134 0 .387-.168.753-.459 1.008Z" fill="#42494D"/>
</svg>
