<svg width="24" height="24" fill="none" xmlns="http://www.w3.org/2000/svg">
    <path d="M10.969 3H3.75a.75.75 0 0 0-.75.75v7.219c0 .103.084.187.188.187h7.78a.188.188 0 0 0 .188-.187V3.188A.188.188 0 0 0 10.97 3ZM9.656 9.656H4.5V4.5h5.156v5.156ZM6.422 7.922h1.312a.188.188 0 0 0 .188-.188V6.422a.188.188 0 0 0-.188-.188H6.422a.188.188 0 0 0-.188.188v1.312c0 .104.085.188.188.188Zm4.547 4.922H3.188A.188.188 0 0 0 3 13.03v7.219c0 .415.335.75.75.75h7.219a.188.188 0 0 0 .187-.188v-7.78a.188.188 0 0 0-.187-.188ZM9.656 19.5H4.5v-5.156h5.156V19.5Zm-3.234-1.734h1.312a.188.188 0 0 0 .188-.188v-1.312a.188.188 0 0 0-.188-.188H6.422a.188.188 0 0 0-.188.188v1.312c0 .103.085.188.188.188ZM20.25 3h-7.219a.188.188 0 0 0-.187.188v7.78c0 .104.084.188.187.188h7.781A.188.188 0 0 0 21 10.97V3.75a.75.75 0 0 0-.75-.75Zm-.75 6.656h-5.156V4.5H19.5v5.156Zm-3.234-1.734h1.312a.188.188 0 0 0 .188-.188V6.422a.188.188 0 0 0-.188-.188h-1.312a.188.188 0 0 0-.188.188v1.312c0 .104.085.188.188.188Zm4.547 4.922h-1.125a.188.188 0 0 0-.188.187v3.14h-1.828v-3.14a.188.188 0 0 0-.188-.187h-4.453a.188.188 0 0 0-.187.187v7.781c0 .104.084.188.187.188h1.125a.188.188 0 0 0 .188-.188v-5.718h1.828v2.39c0 .103.084.188.187.188h4.453a.188.188 0 0 0 .188-.188v-4.453a.188.188 0 0 0-.188-.187ZM17.483 19.5H16.36a.188.188 0 0 0-.187.188v1.125c0 .103.084.187.187.187h1.125a.188.188 0 0 0 .188-.188v-1.125a.188.188 0 0 0-.188-.187Zm3.328 0h-1.125a.188.188 0 0 0-.187.188v1.125c0 .103.084.187.188.187h1.125a.188.188 0 0 0 .187-.188v-1.125a.188.188 0 0 0-.188-.187Z" fill="#42494D"/>
</svg>
