<svg width="24" height="24" fill="none" xmlns="http://www.w3.org/2000/svg">
    <path d="m20.318 3.982-7.964-2.714a1.153 1.153 0 0 0-.354-.05c-.129 0-.258.017-.354.05L3.682 3.982a.562.562 0 0 0-.354.497v11.306c0 .206.134.478.295.607l8.08 6.296a.485.485 0 0 0 .295.096.48.48 0 0 0 .295-.096l8.079-6.296a.872.872 0 0 0 .295-.607V4.48a.552.552 0 0 0-.349-.497Zm-1.334 11.353L12 20.777l-6.984-5.442V5.313L12 2.932l6.984 2.381v10.022ZM10.09 7.453H9.012c-.04 0-.078.01-.113.028a.237.237 0 0 0-.094.319l2.063 3.776h-1.06a.235.235 0 0 0-.234.234v.5c0 .128.106.234.235.234h1.479v.696h-1.48a.235.235 0 0 0-.234.234v.5c0 .128.106.234.235.234h1.479v1.214c0 .129.105.234.234.234h.968a.235.235 0 0 0 .234-.234v-1.214h1.486a.235.235 0 0 0 .234-.235v-.499a.235.235 0 0 0-.234-.234h-1.486v-.696h1.486a.235.235 0 0 0 .234-.235v-.499a.235.235 0 0 0-.234-.234h-1.07L15.193 7.8a.235.235 0 0 0-.206-.347h-1.054c-.09 0-.17.05-.209.129l-1.716 3.382-1.708-3.382a.235.235 0 0 0-.211-.129Z" fill="#42494D"/>
</svg>
