<svg width="24" height="24" fill="none" xmlns="http://www.w3.org/2000/svg">
    <path d="M20.82 17.752h-1.261a.182.182 0 0 0-.18.18v1.449H4.618V4.62h14.762v1.448c0 .098.081.18.18.18h1.26a.18.18 0 0 0 .181-.18V3.72a.718.718 0 0 0-.72-.72H3.72a.718.718 0 0 0-.72.72v16.56c0 .399.321.72.72.72h16.56c.399 0 .72-.321.72-.72v-2.348a.18.18 0 0 0-.18-.18Zm.32-6.596h-7.359V9.375a.188.188 0 0 0-.304-.148l-3.326 2.625a.188.188 0 0 0 0 .296l3.326 2.625c.124.098.304.009.304-.148v-1.781h7.36a.188.188 0 0 0 .187-.188v-1.312a.188.188 0 0 0-.187-.188Z" fill="#42494D"/>
</svg>
