<svg width="24" height="24" fill="none" xmlns="http://www.w3.org/2000/svg">
    <path d="M17.625 5.625H3.375a.75.75 0 0 0-.75.75v14.25c0 .415.335.75.75.75h14.25a.75.75 0 0 0 .75-.75V6.375a.75.75 0 0 0-.75-.75Zm-3.656 8.578a.188.188 0 0 1-.188.188H7.22a.188.188 0 0 1-.188-.188v-1.125c0-.103.085-.187.188-.187h6.562c.103 0 .188.084.188.187v1.125Zm6.656-11.578H6.187A.188.188 0 0 0 6 2.813v1.312c0 .103.084.188.188.188h13.5v13.5c0 .103.084.187.187.187h1.313a.188.188 0 0 0 .187-.188V3.376a.75.75 0 0 0-.75-.75Z" fill="#42494D"/>
</svg>
