<svg width="24" height="24" fill="none" xmlns="http://www.w3.org/2000/svg">
    <path d="m18.56 11.531-.886-.234-.324-.856a5.76 5.76 0 0 0-2.065-2.655 5.674 5.674 0 0 0-3.28-1.036 5.675 5.675 0 0 0-3.282 1.036 5.756 5.756 0 0 0-2.065 2.655l-.326.858-.888.232a2.946 2.946 0 0 0-1.55 1.024c-.399.51-.615 1.14-.613 1.789 0 .776.302 1.507.85 2.055.549.549 1.278.851 2.054.851h11.63c.775 0 1.504-.302 2.052-.85a2.892 2.892 0 0 0 .851-2.056 2.912 2.912 0 0 0-2.158-2.813Z" fill="#F85A00" fill-opacity=".05"/>
    <path d="M19.017 9.813a7.503 7.503 0 0 0-7.012-4.844A7.5 7.5 0 0 0 4.992 9.81a4.687 4.687 0 0 0 1.193 9.22h11.63a4.688 4.688 0 0 0 1.202-9.218Zm.851 6.586a2.884 2.884 0 0 1-2.053.851H6.185a2.884 2.884 0 0 1-2.053-.85 2.89 2.89 0 0 1-.85-2.056c0-.656.213-1.273.613-1.788.393-.5.936-.86 1.55-1.025l.888-.232.326-.858a5.756 5.756 0 0 1 2.065-2.655 5.675 5.675 0 0 1 3.28-1.036c1.184 0 2.319.359 3.282 1.036a5.761 5.761 0 0 1 2.065 2.655l.323.856.886.234a2.912 2.912 0 0 1 1.308 4.868Z" fill="#F85A00"/>
</svg>
