<svg width="24" height="24" fill="none" xmlns="http://www.w3.org/2000/svg">
    <path d="M11.344 10.385v1.99h-1.98c-.097 0-.177.073-.177.164v.984c0 .09.08.165.176.165h1.98v1.99c0 .09.076.166.165.166h.984a.165.165 0 0 0 .164-.167v-1.99h1.98c.097 0 .177-.074.177-.164v-.984c0-.091-.08-.164-.176-.164h-1.98v-1.99a.165.165 0 0 0-.165-.166h-.984a.166.166 0 0 0-.164.166Zm9.281-3.391h-8.414l-2.75-2.63a.191.191 0 0 0-.128-.051H3.375a.75.75 0 0 0-.75.75v13.875c0 .414.335.75.75.75h17.25a.75.75 0 0 0 .75-.75V7.743a.75.75 0 0 0-.75-.75ZM19.687 18H4.313V6H8.73l2.804 2.681h8.153V18Z" fill="#42494D"/>
</svg>
