<svg width="24" height="24" fill="none" xmlns="http://www.w3.org/2000/svg">
    <path d="M17.39 7.453v-3.14h2.016a.188.188 0 0 0 .188-.188V2.812a.188.188 0 0 0-.188-.187H4.594a.188.188 0 0 0-.188.188v1.312c0 .103.085.188.188.188h2.015v3.14c0 1.91.994 3.59 2.494 4.547a5.385 5.385 0 0 0-2.494 4.547v3.14H4.594a.188.188 0 0 0-.188.188v1.313c0 .103.085.187.188.187h14.812a.188.188 0 0 0 .188-.188v-1.312a.188.188 0 0 0-.188-.188h-2.015v-3.14c0-1.91-.994-3.59-2.494-4.547a5.385 5.385 0 0 0 2.494-4.547Zm-1.687 9.094v3.14H8.297v-3.14c0-.99.384-1.92 1.085-2.618A3.67 3.67 0 0 1 12 12.844c.99 0 1.92.384 2.618 1.085a3.67 3.67 0 0 1 1.085 2.618Zm0-9.094c0 .99-.384 1.92-1.085 2.618A3.671 3.671 0 0 1 12 11.156a3.67 3.67 0 0 1-2.618-1.085 3.671 3.671 0 0 1-1.085-2.618v-3.14h7.406v3.14Z" fill="#42494D"/>
</svg>
