<svg width="24" height="24" fill="none" xmlns="http://www.w3.org/2000/svg">
    <path d="M20.625 2.625H3.375a.75.75 0 0 0-.75.75v17.25c0 .415.335.75.75.75h17.25a.75.75 0 0 0 .75-.75V3.375a.75.75 0 0 0-.75-.75Zm-12 14.813a.188.188 0 0 1-.188.187H6.563a.188.188 0 0 1-.188-.188V6.563c0-.103.084-.187.188-.187h1.875c.103 0 .187.084.187.188v10.875Zm4.5-6.563a.188.188 0 0 1-.188.188h-1.874a.188.188 0 0 1-.188-.188V6.562c0-.103.084-.187.188-.187h1.874c.104 0 .188.084.188.188v4.312Zm4.5 1.688a.188.188 0 0 1-.188.187h-1.875a.188.188 0 0 1-.187-.188v-6c0-.103.084-.187.188-.187h1.874c.104 0 .188.084.188.188v6Z" fill="#42494D"/>
</svg>
