<svg width="24" height="24" fill="none" xmlns="http://www.w3.org/2000/svg">
    <path d="M20.82 16.247a2.602 2.602 0 0 0-3.028.3l-1.243-.72v-3.555c0-.368-.197-.71-.515-.893l-3.188-1.835V7.97a2.626 2.626 0 1 0-1.687 0v1.573L7.97 11.379a1.03 1.03 0 0 0-.515.893v3.553l-1.243.72a2.603 2.603 0 0 0-3.028-.3 2.63 2.63 0 0 0-.96 3.583 2.606 2.606 0 0 0 3.567.961 2.625 2.625 0 0 0 1.256-2.784l1.141-.664 3.296 1.899a1.036 1.036 0 0 0 1.03 0l3.294-1.896 1.141.663a2.63 2.63 0 0 0 1.256 2.784 2.604 2.604 0 0 0 3.568-.96 2.628 2.628 0 0 0-.954-3.584ZM5.046 19.49a1.113 1.113 0 0 1-1.528-.413 1.125 1.125 0 0 1 .824-1.676 1.116 1.116 0 0 1 1.114.553c.31.537.127 1.226-.41 1.536Zm5.83-14.007a1.126 1.126 0 0 1 2.25 0 1.125 1.125 0 0 1-2.25 0Zm3.984 10.458L12 17.59l-2.86-1.648v-3.29L12 11.004l2.86 1.648v3.29Zm5.622 3.139c-.31.536-.994.721-1.528.412a1.127 1.127 0 0 1-.41-1.535c.31-.537.994-.722 1.528-.413.537.31.72.996.41 1.535Z" fill="#42494D"/>
</svg>
