<svg width="24" height="24" fill="none" xmlns="http://www.w3.org/2000/svg">
    <path d="M20.625 2.625H3.375a.75.75 0 0 0-.75.75v17.25c0 .415.335.75.75.75h8.438a.188.188 0 0 0 .187-.188v-1.312a.188.188 0 0 0-.188-.188h-7.5V4.313h15.375v7.5c0 .104.085.188.188.188h1.313a.188.188 0 0 0 .187-.188V3.376a.75.75 0 0 0-.75-.75Zm-5.313 11.423 1.223-1.223a.189.189 0 0 0 .044-.194.188.188 0 0 0-.154-.125l-4.205-.492a.188.188 0 0 0-.208.209l.492 4.204c.019.155.209.22.319.11l1.228-1.228 6.004 6.005a.188.188 0 0 0 .265 0l.994-.994a.188.188 0 0 0 0-.265l-6.002-6.007Z" fill="#42494D"/>
</svg>
