<svg width="24" height="24" fill="none" xmlns="http://www.w3.org/2000/svg">
    <path d="M20.03 6.766c.14.141.22.33.22.53V21.75a.75.75 0 0 1-.75.75h-15a.75.75 0 0 1-.75-.75V2.25a.75.75 0 0 1 .75-.75h9.954c.2 0 .391.08.532.22l5.044 5.046Zm-1.51.875L14.11 3.23v4.41h4.41Zm-8.533 6.443 1.386 3.117a.375.375 0 0 0 .343.222h.563a.374.374 0 0 0 .343-.222l1.385-3.126v3.69a.374.374 0 0 0 .376.376h.64a.375.375 0 0 0 .375-.375V11.39a.375.375 0 0 0-.375-.375h-.814a.375.375 0 0 0-.344.225l-1.863 4.28-1.863-4.28a.374.374 0 0 0-.343-.225h-.82a.375.375 0 0 0-.374.375v6.375a.375.375 0 0 0 .375.375h.635a.375.375 0 0 0 .375-.375v-3.682Z" fill="#42494D"/>
</svg>
