<svg width="24" height="24" fill="none" xmlns="http://www.w3.org/2000/svg">
    <path d="M17.438 1.5H6.563c-.828 0-1.5.673-1.5 1.5v18c0 .827.672 1.5 1.5 1.5h10.875c.827 0 1.5-.673 1.5-1.5V3c0-.827-.673-1.5-1.5-1.5Zm-.188 19.313H6.75V3.188h10.5v17.625Z" fill="#F85A00"/>
    <path d="M6.75 20.813h10.5V3.188H6.75v17.625ZM12 17.483a.937.937 0 1 1 0 1.875.937.937 0 0 1 0-1.875Z" fill="#F85A00" fill-opacity=".05"/>
    <path d="M11.063 18.422a.938.938 0 1 0 1.875 0 .938.938 0 0 0-1.876 0Z" fill="#F85A00"/>
</svg>
