<svg width="24" height="24" fill="none" xmlns="http://www.w3.org/2000/svg">
    <path d="M3.75 20.953c0 .415.335.75.75.75h6.703v-8.812H3.75v8.062Zm9.047.75H19.5a.75.75 0 0 0 .75-.75v-8.062h-7.453v8.812Zm7.828-14.437h-3.46a3.226 3.226 0 0 0 .507-1.735 3.238 3.238 0 0 0-3.235-3.234A3.23 3.23 0 0 0 12 3.407a3.23 3.23 0 0 0-2.438-1.11A3.238 3.238 0 0 0 6.329 5.53c0 .638.185 1.233.506 1.735H3.375a.75.75 0 0 0-.75.75v3.28h8.578v-4.03h1.594v4.03h8.578v-3.28a.75.75 0 0 0-.75-.75Zm-9.422-.094h-1.64c-.905 0-1.641-.736-1.641-1.64 0-.905.736-1.641 1.64-1.641.905 0 1.641.736 1.641 1.64v1.64Zm3.235 0h-1.641v-1.64c0-.905.736-1.641 1.64-1.641.905 0 1.641.736 1.641 1.64 0 .905-.736 1.64-1.64 1.64Z" fill="#42494D"/>
</svg>
