<svg width="24" height="24" fill="none" xmlns="http://www.w3.org/2000/svg">
    <path d="M16.3 3.846h-5.265L6.591 11.52h3.69l-1.414 5.648 7.495-7.15h-4.945L16.3 3.846Z" fill="#F85A00" fill-opacity=".05"/>
    <path d="M19.877 8.421h-5.163l4.643-5.866a.188.188 0 0 0-.148-.305h-8.988a.186.186 0 0 0-.162.094L3.987 12.832a.187.187 0 0 0 .161.281h4.088L6.14 21.494c-.044.183.176.312.312.181L20.006 8.742a.186.186 0 0 0-.129-.32Zm-11.01 8.747 1.412-5.648H6.59l4.444-7.674h5.264l-4.882 6.171h4.945l-7.495 7.151Z" fill="#F85A00"/>
</svg>
