<svg width="24" height="24" fill="none" xmlns="http://www.w3.org/2000/svg">
    <path d="M17.273 10.28a7.7 7.7 0 0 1-.807 1.068 1.714 1.714 0 0 1-1.195.572 1.72 1.72 0 0 1-1.252-.44 1.735 1.735 0 0 1-.571-1.402c.07-1.111-.291-2.417-1.074-3.884A7.103 7.103 0 0 0 10.94 4.31a5.626 5.626 0 0 1-.284 1.09 8.304 8.304 0 0 1-1.364 2.367A8.194 8.194 0 0 1 7.92 9.098a6.629 6.629 0 0 0-1.894 2.295 6.468 6.468 0 0 0-.682 2.906c0 1.755.691 3.405 1.945 4.65A6.645 6.645 0 0 0 12 20.88a6.645 6.645 0 0 0 4.711-1.931 6.505 6.505 0 0 0 1.945-4.65c0-.919-.19-1.812-.562-2.65a6.467 6.467 0 0 0-.82-1.37Z" fill="#F85A00" fill-opacity=".05"/>
    <path d="M19.55 10.997a8.144 8.144 0 0 0-1.944-2.7l-.682-.626a.19.19 0 0 0-.305.078l-.304.874c-.19.548-.54 1.109-1.034 1.66a.146.146 0 0 1-.096.046.13.13 0 0 1-.1-.035.138.138 0 0 1-.048-.112c.087-1.411-.335-3.003-1.258-4.735-.764-1.439-1.826-2.561-3.152-3.344l-.968-.57a.188.188 0 0 0-.282.171L9.43 2.83c.035.769-.054 1.449-.265 2.014a6.683 6.683 0 0 1-1.101 1.91c-.33.4-.703.763-1.114 1.08a8.264 8.264 0 0 0-2.35 2.848 8.15 8.15 0 0 0-.2 6.804 8.235 8.235 0 0 0 4.392 4.35 8.248 8.248 0 0 0 3.209.642 8.288 8.288 0 0 0 3.209-.64 8.168 8.168 0 0 0 2.622-1.75A8.113 8.113 0 0 0 20.25 14.3a8.067 8.067 0 0 0-.7-3.303Zm-2.84 7.953A6.645 6.645 0 0 1 12 20.88a6.645 6.645 0 0 1-4.71-1.93 6.509 6.509 0 0 1-1.946-4.65c0-1.02.23-1.997.682-2.907A6.63 6.63 0 0 1 7.92 9.1c.508-.389.969-.836 1.373-1.331A8.302 8.302 0 0 0 10.657 5.4c.13-.352.226-.718.284-1.09a7.103 7.103 0 0 1 1.434 1.885c.783 1.467 1.144 2.773 1.073 3.883a1.736 1.736 0 0 0 1.824 1.843 1.713 1.713 0 0 0 1.195-.572c.312-.35.581-.706.806-1.069.329.42.603.877.82 1.369.373.839.563 1.732.563 2.65a6.505 6.505 0 0 1-1.945 4.65Z" fill="#F85A00"/>
</svg>
