<svg width="24" height="24" fill="none" xmlns="http://www.w3.org/2000/svg">
    <path d="M11.906 14.625a2.625 2.625 0 0 0 2.615-2.854l-2.843 2.844c.075.006.151.01.228.01Zm8.69-10.745-1.002-1a.187.187 0 0 0-.265 0l-2.562 2.563C15.353 4.72 13.764 4.359 12 4.359c-4.505 0-7.866 2.346-10.083 7.038a1.413 1.413 0 0 0 0 1.207c.886 1.867 1.953 3.362 3.2 4.488L2.639 19.57a.188.188 0 0 0 0 .265l1 1a.187.187 0 0 0 .266 0l16.691-16.69a.19.19 0 0 0 .04-.204.189.189 0 0 0-.04-.061ZM7.78 12a4.125 4.125 0 0 1 6.068-3.64l-1.14 1.14a2.627 2.627 0 0 0-3.303 3.303l-1.14 1.14A4.104 4.104 0 0 1 7.782 12Z" fill="#42494D"/>
    <path d="M22.083 11.396c-.825-1.738-1.807-3.155-2.946-4.25l-3.379 3.378a4.127 4.127 0 0 1-5.329 5.329l-2.865 2.865c1.33.615 2.808.923 4.436.923 4.504 0 7.865-2.346 10.083-7.038a1.413 1.413 0 0 0 0-1.207Z" fill="#42494D"/>
</svg>
