<svg width="24" height="24" fill="none" xmlns="http://www.w3.org/2000/svg">
    <path d="M5.438 14.438h13.125V9.561H5.438v4.876Zm2.625-3.376a.937.937 0 1 1 0 1.875.937.937 0 0 1 0-1.874Zm-2.626 9.75h13.125v-4.875H5.438v4.876Zm2.625-3.375a.937.937 0 1 1 .001 1.875.937.937 0 0 1 0-1.875ZM5.438 8.063h13.125V3.189H5.438v4.874Zm2.625-3.374a.937.937 0 1 1 0 1.874.937.937 0 0 1 0-1.875Z" fill="#F85A00" fill-opacity=".05"/>
    <path d="M7.125 12A.937.937 0 1 0 9 12a.937.937 0 0 0-1.875 0Zm0 6.375a.937.937 0 1 0 1.875 0 .937.937 0 0 0-1.875 0Zm0-12.75a.937.937 0 1 0 1.875 0 .937.937 0 0 0-1.875 0Z" fill="#F85A00"/>
    <path d="M19.5 1.5h-15a.75.75 0 0 0-.75.75v19.5c0 .415.335.75.75.75h15a.75.75 0 0 0 .75-.75V2.25a.75.75 0 0 0-.75-.75Zm-.938 19.313H5.438v-4.875h13.125v4.874Zm0-6.375H5.438V9.561h13.125v4.876Zm0-6.376H5.438V3.189h13.125v4.874Z" fill="#F85A00"/>
</svg>
