<svg width="24" height="24" fill="none" xmlns="http://www.w3.org/2000/svg">
    <path d="M19.5 10.875h-1.594v-5.25a3 3 0 0 0-3-3H9.094a3 3 0 0 0-3 3v5.25H4.5a.75.75 0 0 0-.75.75v9c0 .415.335.75.75.75h15a.75.75 0 0 0 .75-.75v-9a.75.75 0 0 0-.75-.75ZM7.781 5.625c0-.724.589-1.313 1.313-1.313h5.812c.724 0 1.313.589 1.313 1.313v5.25H7.78v-5.25Zm10.782 14.063H5.438v-7.125h13.125v7.124Z" fill="#F85A00"/>
    <path d="M5.438 19.688h13.125v-7.125H5.438v7.124ZM12 14.39a1.126 1.126 0 0 1 .656 2.039v1.242a.188.188 0 0 1-.187.187h-.938a.188.188 0 0 1-.187-.187V16.43A1.125 1.125 0 0 1 12 14.39Z" fill="#F85A00" fill-opacity=".05"/>
    <path d="M11.344 16.43v1.242c0 .103.084.187.187.187h.938a.188.188 0 0 0 .187-.187V16.43a1.125 1.125 0 1 0-1.313 0Z" fill="#F85A00"/>
</svg>
