<svg width="24" height="24" fill="none" xmlns="http://www.w3.org/2000/svg">
    <path d="M3.375 12.797h4.688v4.687H3.375v-4.687Zm6.281-6.281h4.688v4.687H9.656V6.516Z" fill="#F85A00" fill-opacity=".05"/>
    <path d="M21.469 4.922H8.812a.75.75 0 0 0-.75.75v5.531h-5.53a.75.75 0 0 0-.75.75v6.375c0 .415.334.75.75.75h12.655a.75.75 0 0 0 .75-.75v-5.531h5.532a.75.75 0 0 0 .75-.75V5.672a.75.75 0 0 0-.75-.75ZM8.062 17.484H3.375v-4.687h4.688v4.687Zm6.282 0H9.656v-4.687h4.688v4.687Zm0-6.28H9.656V6.515h4.688v4.687Zm6.281 0h-4.688V6.515h4.688v4.687Z" fill="#F85A00"/>
</svg>
