<svg width="24" height="24" fill="none" xmlns="http://www.w3.org/2000/svg">
    <path d="M12 1.5C6.202 1.5 1.5 6.202 1.5 12S6.202 22.5 12 22.5 22.5 17.798 22.5 12 17.798 1.5 12 1.5Zm0 19.219A8.72 8.72 0 0 1 3.281 12 8.72 8.72 0 0 1 12 3.281 8.72 8.72 0 0 1 20.719 12 8.72 8.72 0 0 1 12 20.719Zm.131-12.485c1.242 0 2.086.792 2.18 1.954.007.099.089.174.187.174h1.33a.11.11 0 0 0 .11-.11c0-2.032-1.604-3.455-3.814-3.455-2.576 0-4.062 1.739-4.062 4.612v1.226c0 2.853 1.486 4.568 4.062 4.568 2.203 0 3.813-1.378 3.813-3.314a.11.11 0 0 0-.11-.11h-1.33a.189.189 0 0 0-.188.171c-.099 1.08-.94 1.823-2.18 1.823-1.53 0-2.393-1.122-2.393-3.13v-1.234c.002-2.039.867-3.175 2.395-3.175Z" fill="#42494D"/>
</svg>
