<svg width="24" height="24" fill="none" xmlns="http://www.w3.org/2000/svg">
    <path d="m20.14 13.352.005.003a8.32 8.32 0 0 0 .105-1.357c0 .454-.037.909-.11 1.354ZM2.32 9.33a.391.391 0 0 1-.032-.03l.051.05 1.536 1.31v-.003L2.32 9.33Zm12.577-5.062h.003l-.364-1.964a.545.545 0 0 0-.016-.066c.002.012.007.026.01.038l.367 1.992Zm1.266 12.809.736-.605 2.175.771a8.677 8.677 0 0 0 .998-1.725l-1.75-1.498.154-.94a6.643 6.643 0 0 0 0-2.16l-.152-.936 1.75-1.497a8.859 8.859 0 0 0-.998-1.725l-2.175.77-.736-.604a6.58 6.58 0 0 0-1.858-1.073l-.893-.335-.42-2.274a8.848 8.848 0 0 0-1.992 0l-.42 2.278-.888.335A6.557 6.557 0 0 0 7.85 6.93l-.736.607-2.19-.778a8.673 8.673 0 0 0-.998 1.725l1.77 1.512-.153.938c-.058.349-.086.707-.086 1.066 0 .356.03.717.086 1.066l.153.938-1.77 1.512c.267.609.6 1.188.999 1.725l2.189-.779.736.608a6.555 6.555 0 0 0 1.844 1.07l.886.34.42 2.279c.66.075 1.333.075 1.992 0l.42-2.274.892-.335a6.551 6.551 0 0 0 1.859-1.073Zm-4.15-1.18a4.11 4.11 0 0 1-1.977-.503 4.125 4.125 0 1 1 5.592-5.592 4.12 4.12 0 0 1-3.616 6.096ZM4.856 19.05a.738.738 0 0 1-.39.028.766.766 0 0 0 .41-.023l1.909-.68-.01-.007-1.92.682Zm16.818-9.72-1.535 1.313.003.016 1.532-1.31a.754.754 0 0 0 .263-.562.752.752 0 0 1-.263.543Z" fill="#F85A00" fill-opacity=".05"/>
    <path d="M21.934 15.155c.011.11 0 .222-.04.33l-.021.061a10.454 10.454 0 0 1-1.868 3.232l-.043.05a.75.75 0 0 1-.822.222l-1.906-.677a8.204 8.204 0 0 1-2.336 1.35l-.368 1.992a.752.752 0 0 1-.605.602l-.063.012c-.613.11-1.234.166-1.857.166h.007c.626 0 1.252-.056 1.861-.166l.064-.012a.751.751 0 0 0 .604-.602l.368-1.99a8.241 8.241 0 0 0 2.335-1.348l1.903.678a.75.75 0 0 0 .823-.223l.042-.05a10.451 10.451 0 0 0 1.865-3.227l.021-.06a.765.765 0 0 0 .036-.34Z" fill="#F85A00" fill-opacity=".05"/>
    <path d="M16.125 11.766A4.124 4.124 0 0 0 12 7.64a4.125 4.125 0 1 0 4.125 4.125Zm-6.75 0c0-.701.274-1.36.769-1.857A2.606 2.606 0 0 1 12 9.141c.7 0 1.36.271 1.856.768a2.618 2.618 0 0 1 .769 1.857c0 .7-.274 1.359-.769 1.856A2.617 2.617 0 0 1 12 14.39c-.7 0-1.36-.275-1.856-.77a2.616 2.616 0 0 1-.769-1.855Z" fill="#F85A00"/>
    <path d="M13.925 22.317a.75.75 0 0 0 .605-.602l.368-1.992a8.202 8.202 0 0 0 2.337-1.35l1.905.677a.75.75 0 0 0 .823-.223l.042-.049a10.452 10.452 0 0 0 1.868-3.232l.02-.061a.727.727 0 0 0 .04-.33.765.765 0 0 0-.257-.49l-1.53-1.31-.005-.003a8.435 8.435 0 0 0 .026-2.538c-.008-.052-.017-.103-.024-.155l-.002-.016 1.535-1.313a.75.75 0 0 0 .218-.825l-.021-.06a10.4 10.4 0 0 0-1.868-3.233l-.042-.049a.753.753 0 0 0-.823-.223l-1.905.678a8.246 8.246 0 0 0-2.335-1.35h-.002l-.368-1.992a.752.752 0 0 0-.605-.602l-.063-.012a10.589 10.589 0 0 0-3.727 0l-.063.011a.751.751 0 0 0-.605.603l-.37 2.001a8.246 8.246 0 0 0-2.32 1.346l-1.92-.683a.75.75 0 0 0-.822.223l-.043.05a10.454 10.454 0 0 0-1.868 3.231l-.02.061a.752.752 0 0 0 .184.795l.033.03 1.554 1.327v.002c-.072.44-.108.888-.108 1.336 0 .45.036.9.108 1.338L2.321 14.66a.75.75 0 0 0-.218.825l.021.06a10.427 10.427 0 0 0 1.868 3.233l.043.05a.763.763 0 0 0 .823.223l1.919-.683.01.007a8.232 8.232 0 0 0 2.31 1.338l.37 2.002a.751.751 0 0 0 .605.602l.063.012c.612.11 1.238.166 1.864.166h.007c.623 0 1.249-.056 1.856-.166l.063-.012Zm-.933-1.559a8.847 8.847 0 0 1-1.992 0l-.42-2.278-.885-.34a6.557 6.557 0 0 1-1.845-1.07l-.736-.608-2.189.779a8.855 8.855 0 0 1-.998-1.726l1.77-1.511-.153-.938A6.75 6.75 0 0 1 5.457 12c0-.359.028-.717.087-1.067l.152-.937-1.77-1.512c.266-.611.6-1.188 1-1.725l2.188.778.736-.607a6.557 6.557 0 0 1 1.845-1.07l.888-.336.42-2.278a8.848 8.848 0 0 1 1.992 0l.42 2.273.892.336a6.583 6.583 0 0 1 1.859 1.073l.736.605 2.175-.771c.398.536.731 1.115.998 1.725l-1.75 1.497.152.935a6.632 6.632 0 0 1 0 2.161l-.155.94 1.75 1.498a8.67 8.67 0 0 1-.998 1.725l-2.175-.771-.736.604a6.55 6.55 0 0 1-1.858 1.074l-.893.335-.42 2.273Z" fill="#F85A00"/>
</svg>
