<svg width="24" height="24" fill="none" xmlns="http://www.w3.org/2000/svg">
    <path d="M12 7.453a4.456 4.456 0 0 1-4.141-2.812H4.266v4.593h2.789V19.36h9.89V9.234h2.79V4.641H16.14A4.456 4.456 0 0 1 12 7.453Z" fill="#F85A00" fill-opacity=".05"/>
    <path d="M20.39 2.953h-4.832a.89.89 0 0 0-.867.687 2.765 2.765 0 0 1-5.382 0 .889.889 0 0 0-.867-.687H3.61a1.031 1.031 0 0 0-1.03 1.031v5.907a1.031 1.031 0 0 0 1.03 1.03h1.758v9.095a1.031 1.031 0 0 0 1.031 1.03h11.204a1.031 1.031 0 0 0 1.03-1.03v-9.094h1.759a1.031 1.031 0 0 0 1.03-1.031V3.984a1.031 1.031 0 0 0-1.03-1.03Zm-.656 6.281h-2.789V19.36h-9.89V9.234h-2.79V4.641H7.86a4.456 4.456 0 0 0 8.282 0h3.593v4.593Z" fill="#F85A00"/>
</svg>
