<svg width="24" height="24" fill="none" xmlns="http://www.w3.org/2000/svg">
    <path d="m20.747 10.46-.005-.019-2.63-6.682a.905.905 0 0 0-.862-.637H6.59a.904.904 0 0 0-.864.647l-2.459 6.614-.007.016-.004.019a.87.87 0 0 0-.024.347c-.002.037-.005.075-.005.112v8.576a1.427 1.427 0 0 0 1.425 1.425h14.7c.786 0 1.425-.64 1.428-1.425v-8.576c0-.03 0-.06-.003-.087a.914.914 0 0 0-.03-.33Zm-6.933-1.008-.007.368c-.019 1.053-.745 1.76-1.807 1.76-.518 0-.963-.166-1.284-.482-.321-.317-.497-.758-.506-1.278l-.008-.368H5.38l1.863-4.53H16.6l1.914 4.53h-4.699Zm-8.789 1.8h3.687c.57 1.338 1.781 2.128 3.29 2.128.79 0 1.524-.22 2.117-.637.52-.366.926-.877 1.188-1.49h3.668v7.825H5.025v-7.826Z" fill="#42494D"/>
</svg>
