<svg width="24" height="24" fill="none" xmlns="http://www.w3.org/2000/svg">
    <path fill-rule="evenodd" clip-rule="evenodd" d="M8 2.25a.75.75 0 0 0-.75.75v8c0 .414.336.75.75.75h8a.75.75 0 0 0 .75-.75V3a.75.75 0 0 0-.75-.75H8Zm.75 8v-6.5h2.75V6h1V3.75h2.75v6.5h-6.5ZM2.25 13a.75.75 0 0 1 .75-.75h8a.75.75 0 0 1 .75.75v7.25h.5V13a.75.75 0 0 1 .75-.75h8a.75.75 0 0 1 .75.75v7.25h.75v1.5h-21v-1.5h.75V13Zm1.5 7.25h6.5v-6.5H7.5V16h-1v-2.25H3.75v6.5Zm16.5 0v-6.5H17.5V16h-1v-2.25h-2.75v6.5h6.5Z" fill="#42494D"/>
</svg>
