<svg width="24" height="24" fill="none" xmlns="http://www.w3.org/2000/svg">
    <path d="M19.318 16.404a7.067 7.067 0 0 0-2.025-1.416 4.677 4.677 0 0 0 1.739-3.644c0-2.597-2.166-4.728-4.763-4.688a4.69 4.69 0 0 0-2.878 8.332 7.054 7.054 0 0 0-2.025 1.416 6.986 6.986 0 0 0-2.053 4.779.187.187 0 0 0 .187.192h1.313c.1 0 .185-.08.187-.18a5.298 5.298 0 0 1 1.564-3.598 5.313 5.313 0 0 1 3.78-1.566c1.428 0 2.77.556 3.78 1.566a5.318 5.318 0 0 1 1.564 3.598c.002.1.087.18.187.18h1.313a.188.188 0 0 0 .187-.192 6.97 6.97 0 0 0-2.057-4.78Zm-4.974-2.06a2.974 2.974 0 0 1-2.12-.88 2.973 2.973 0 0 1-.88-2.15 3.004 3.004 0 0 1 2.97-2.97 3.017 3.017 0 0 1 2.133.857c.58.57.9 1.332.9 2.143 0 .801-.312 1.554-.88 2.12a2.984 2.984 0 0 1-2.123.88Zm-5.87-2.382a5.967 5.967 0 0 1 .068-1.709.189.189 0 0 0-.106-.205 2.961 2.961 0 0 1-.865-.589 2.99 2.99 0 0 1-.907-2.236 2.984 2.984 0 0 1 .85-2.006A2.984 2.984 0 0 1 9.7 4.31a2.996 2.996 0 0 1 2.494 1.378.187.187 0 0 0 .218.075 5.814 5.814 0 0 1 1.296-.29.188.188 0 0 0 .147-.272 4.696 4.696 0 0 0-4.118-2.576c-2.599-.04-4.764 2.09-4.764 4.685 0 1.472.677 2.785 1.739 3.645a7.046 7.046 0 0 0-2.028 1.415 6.97 6.97 0 0 0-2.058 4.781.188.188 0 0 0 .188.193h1.315c.1 0 .185-.08.187-.18a5.297 5.297 0 0 1 1.564-3.598 5.292 5.292 0 0 1 2.453-1.4.187.187 0 0 0 .141-.204Z" fill="#42494D"/>
</svg>
