<svg width="24" height="24" fill="none" xmlns="http://www.w3.org/2000/svg">
    <path d="m5.974 17.785 2.943-2.943a4.125 4.125 0 0 1 5.832-5.831l2.993-2.994C16.097 4.913 14.182 4.36 12 4.359c-4.505 0-7.866 2.346-10.083 7.039a1.413 1.413 0 0 0 0 1.207c1.083 2.28 2.435 4.006 4.057 5.18ZM22.083 11.395c-.824-1.735-1.805-3.151-2.942-4.247l-3.38 3.382a4.126 4.126 0 0 1-5.325 5.325L7.57 18.721c1.328.613 2.805.92 4.43.92 4.505 0 7.866-2.346 10.083-7.039a1.414 1.414 0 0 0 0-1.207Z" fill="#F85A00" fill-opacity=".05"/>
    <path d="M22.083 11.395c-.824-1.735-1.805-3.151-2.942-4.247L17.95 8.341c.972.93 1.82 2.145 2.552 3.659-1.95 4.036-4.718 5.953-8.501 5.953-1.136 0-2.181-.175-3.138-.524L7.57 18.72c1.328.613 2.805.92 4.43.92 4.505 0 7.866-2.346 10.083-7.039a1.414 1.414 0 0 0 0-1.207ZM20.593 3.88l-1-1a.188.188 0 0 0-.265 0l-2.563 2.562C15.352 4.72 13.763 4.36 12 4.36c-4.505 0-7.866 2.347-10.083 7.039a1.413 1.413 0 0 0 0 1.207c.886 1.865 1.952 3.36 3.2 4.486l-2.48 2.48a.187.187 0 0 0 0 .264l1 1.001a.188.188 0 0 0 .265 0l16.691-16.69a.189.189 0 0 0 .04-.205.189.189 0 0 0-.04-.06ZM3.499 12C5.452 7.964 8.22 6.047 12 6.047c1.278 0 2.44.22 3.495.665L13.847 8.36a4.125 4.125 0 0 0-5.58 5.581L6.31 15.896C5.23 14.941 4.296 13.647 3.5 12Zm5.782 0a2.627 2.627 0 0 1 3.427-2.5l-3.302 3.302A2.625 2.625 0 0 1 9.28 12Z" fill="#F85A00"/>
    <path d="M11.906 14.625c-.08 0-.16-.004-.24-.011l-1.238 1.238a4.128 4.128 0 0 0 5.33-5.33l-1.237 1.238a2.615 2.615 0 0 1-.189 1.245 2.624 2.624 0 0 1-2.426 1.62Z" fill="#F85A00"/>
</svg>
