<svg width="24" height="24" fill="none" xmlns="http://www.w3.org/2000/svg">
    <path d="M16.125 7.313V6.188A.188.188 0 0 0 15.937 6h-9a.188.188 0 0 0-.187.188v1.125c0 .103.084.187.188.187h9a.188.188 0 0 0 .187-.188ZM6.937 9.374a.188.188 0 0 0-.187.188v1.124c0 .104.084.188.188.188h4.312a.188.188 0 0 0 .188-.188V9.563a.188.188 0 0 0-.188-.188H6.937Zm8.813 2.719a5.062 5.062 0 1 0 0 10.124 5.062 5.062 0 0 0 0-10.124Zm2.52 7.582a3.54 3.54 0 0 1-2.52 1.043 3.54 3.54 0 0 1-2.52-1.043 3.54 3.54 0 0 1-1.043-2.52c0-.951.37-1.847 1.043-2.52a3.54 3.54 0 0 1 2.52-1.042c.952 0 1.847.37 2.52 1.043a3.54 3.54 0 0 1 1.043 2.52 3.54 3.54 0 0 1-1.043 2.519ZM15 19.03a.75.75 0 1 0 1.5 0 .75.75 0 0 0-1.5 0Zm.281-1.5h.938a.188.188 0 0 0 .187-.187v-2.625a.188.188 0 0 0-.187-.188h-.938a.188.188 0 0 0-.187.188v2.625c0 .103.084.187.187.187Zm-4.969 2.438H4.875v-16.5H18v8.062c0 .103.084.188.188.188H19.5a.188.188 0 0 0 .188-.188v-9a.75.75 0 0 0-.75-.75h-15a.75.75 0 0 0-.75.75v18.375c0 .415.335.75.75.75h6.374a.188.188 0 0 0 .188-.187v-1.313a.188.188 0 0 0-.188-.187Z" fill="#42494D"/>
</svg>
