<svg width="24" height="24" fill="none" xmlns="http://www.w3.org/2000/svg">
    <path d="M10.212 13.095a.186.186 0 0 0-.185-.158H3.895a.187.187 0 0 0-.185.158l-.942 5.812c-.002.01-.002.021-.002.03 0 .104.084.188.187.188h8.016c.01 0 .02 0 .03-.002a.187.187 0 0 0 .155-.216l-.942-5.813ZM4.605 17.53l.486-3h3.738l.485 3H4.605Zm16.627 1.376-.942-5.813a.186.186 0 0 0-.185-.156h-6.132a.186.186 0 0 0-.185.156l-.942 5.813c-.002.01-.002.021-.002.03 0 .104.084.188.187.188h8.016c.01 0 .021 0 .03-.002a.188.188 0 0 0 .155-.216Zm-6.548-1.376.485-3h3.738l.485 3h-4.708Zm-6.668-6.468h8.015c.01 0 .021 0 .03-.003a.187.187 0 0 0 .155-.216l-.942-5.812a.186.186 0 0 0-.185-.157H8.958a.187.187 0 0 0-.185.157l-.943 5.813c-.002.009-.002.02-.002.03 0 .103.084.188.188.188Zm2.137-4.594h3.738l.486 3H9.666l.487-3Z" fill="#F85A00"/>
    <path d="M13.891 6.469h-3.738l-.487 3h4.71l-.485-3Zm-8.8 8.062-.486 3h4.71l-.486-3H5.09Zm10.078 0-.485 3h4.708l-.485-3h-3.738Z" fill="#F85A00" fill-opacity=".05"/>
</svg>
