<svg width="24" height="24" fill="none" xmlns="http://www.w3.org/2000/svg">
    <path d="M19.669 6.518A.75.75 0 0 0 18.956 6H17.25V3.375a.75.75 0 0 0-.75-.75h-9a.75.75 0 0 0-.75.75V6H5.044a.748.748 0 0 0-.713.518l-1.706 5.248v8.859c0 .415.335.75.75.75h17.25a.75.75 0 0 0 .75-.75v-8.86l-1.706-5.247ZM8.437 4.313h7.126V6H8.436V4.312Zm11.25 15.375H4.313v-7.655l1.414-4.345h12.548l1.413 4.345v7.655Zm-4.406-6.282H12.75v-2.531a.188.188 0 0 0-.188-.188h-1.124a.188.188 0 0 0-.188.188v2.531H8.719a.188.188 0 0 0-.188.188v1.125c0 .103.085.187.188.187h2.531v2.531c0 .104.084.188.188.188h1.124a.188.188 0 0 0 .188-.188v-2.53h2.531a.188.188 0 0 0 .188-.188v-1.125a.188.188 0 0 0-.188-.188Z" fill="#42494D"/>
</svg>
