<svg width="24" height="24" fill="none" xmlns="http://www.w3.org/2000/svg">
    <path d="M20.625 2.625H3.375a.75.75 0 0 0-.75.75v17.25c0 .415.335.75.75.75h17.25a.75.75 0 0 0 .75-.75V3.375a.75.75 0 0 0-.75-.75Zm-.938 17.063H4.313V4.313h15.375v15.375Z" fill="#F85A00"/>
    <path d="M4.313 19.688h15.375V4.313H4.313v15.375Zm2.671-9.42a2.34 2.34 0 0 1 2.337-2.346h4.824V6.67c0-.13.152-.206.255-.124l2.557 2.009a.158.158 0 0 1 0 .25l-2.557 2.01a.157.157 0 0 1-.255-.125V9.438H9.323a.833.833 0 0 0-.832.835v1.849a.16.16 0 0 1-.159.16H7.144a.16.16 0 0 1-.16-.165v-1.849Zm.061 4.929 2.557-2.009a.157.157 0 0 1 .256.124v1.252h4.819c.459 0 .832-.373.832-.834v-1.85c0-.089.072-.159.159-.159h1.188a.16.16 0 0 1 .16.16v1.849a2.34 2.34 0 0 1-2.337 2.346H9.858v1.251a.158.158 0 0 1-.256.125l-2.557-2.009a.154.154 0 0 1 0-.246Z" fill="#F85A00" fill-opacity=".05"/>
    <path d="M7.144 12.28h1.188a.16.16 0 0 0 .16-.159v-1.849c0-.461.372-.834.832-.834h4.82v1.251c0 .134.153.207.256.125l2.557-2.009a.159.159 0 0 0 0-.25L14.4 6.544a.158.158 0 0 0-.255.125V7.92H9.32a2.34 2.34 0 0 0-2.336 2.346v1.85c0 .093.07.164.16.164Zm-.098 3.163 2.557 2.008a.158.158 0 0 0 .255-.124v-1.252h4.821a2.34 2.34 0 0 0 2.337-2.346V11.88a.16.16 0 0 0-.16-.16h-1.188a.16.16 0 0 0-.159.16v1.85a.833.833 0 0 1-.832.834H9.858v-1.252a.157.157 0 0 0-.255-.124l-2.557 2.008a.154.154 0 0 0 0 .247Z" fill="#F85A00"/>
</svg>
