<svg width="24" height="24" fill="none" xmlns="http://www.w3.org/2000/svg">
    <path d="M12.003 4.045 3.331 12.71h2.25v7.634h3.607V15c0-.518.42-.937.938-.937h3.75c.518 0 .937.42.937.937v5.344h3.607V12.71h2.253l-8.128-8.123-.542-.542Zm10.184 9.912Zm-20.79-.813c.118.71.737 1.254 1.48 1.254h.02c-.747 0-1.38-.54-1.5-1.254Zm-.02-.246v-.045.045Zm.002-.061Z" fill="#F85A00" fill-opacity=".05"/>
    <path d="M22.288 11.953c0-.002-.002-.002-.002-.005l-.042-.049c-.003-.002-.005-.007-.01-.01l-.051-.055-9.056-9.05-.607-.607a.738.738 0 0 0-1.041 0l-9.663 9.659a1.49 1.49 0 0 0-.375.623l-.014.05-.007.025-.007.029a.363.363 0 0 0-.01.049c0 .002 0 .007-.002.01a1.29 1.29 0 0 0-.024.212v.078c0 .011 0 .023.003.035 0 .012 0 .021.002.033l.002.035c0 .014.003.028.005.042l.002.021.007.059v.002a1.52 1.52 0 0 0 1.5 1.254h.997v7.638h16.211v-7.633h1.017c.202 0 .396-.04.575-.115a1.492 1.492 0 0 0 .926-1.387c0-.345-.118-.676-.336-.943Zm-8.976 8.39h-2.625v-4.78h2.625v4.78Zm5.107-7.633v7.634h-3.607V15a.937.937 0 0 0-.938-.937h-3.75a.937.937 0 0 0-.937.937v5.344H5.58V12.71H3.33l8.672-8.665.541.542 8.128 8.123H18.42Z" fill="#F85A00"/>
</svg>
