<svg width="24" height="24" fill="none" xmlns="http://www.w3.org/2000/svg">
    <path d="M18 8.25a.188.188 0 0 1-.188.188H16.5a.188.188 0 0 1-.188-.188V6.937h-3.468V8.25a.188.188 0 0 1-.188.188h-1.312a.188.188 0 0 1-.188-.188V6.937H7.687V8.25a.188.188 0 0 1-.187.188H6.187A.188.188 0 0 1 6 8.25V6.937H3.187v11.625h17.625V6.938H18V8.25Zm-8.063 7.875a.188.188 0 0 1-.187.188H5.437a.188.188 0 0 1-.187-.188V15c0-.103.084-.188.188-.188H9.75c.103 0 .188.085.188.188v1.125Zm0-3.188a.188.188 0 0 1-.187.188H5.437a.188.188 0 0 1-.187-.188v-1.124c0-.104.084-.188.188-.188H9.75c.103 0 .188.084.188.188v1.124Zm8.775-2.137-3.867 5.36a.372.372 0 0 1-.604 0l-2.675-3.708a.188.188 0 0 1 .153-.297h1.287a.37.37 0 0 1 .302.154l1.237 1.714 2.428-3.368a.367.367 0 0 1 .3-.153h1.287c.152 0 .242.174.152.298Z" fill="#F85A00" fill-opacity=".05"/>
    <path d="m16.973 10.655-2.428 3.368-1.237-1.714a.37.37 0 0 0-.303-.154H11.72a.188.188 0 0 0-.153.297l2.675 3.708a.373.373 0 0 0 .604 0l3.867-5.36a.188.188 0 0 0-.152-.298h-1.287a.367.367 0 0 0-.3.153Zm-7.223.97H5.437a.188.188 0 0 0-.187.187v1.125c0 .104.084.188.188.188H9.75a.188.188 0 0 0 .188-.188v-1.125a.188.188 0 0 0-.188-.187Z" fill="#F85A00"/>
    <path d="M21.75 5.25H18V3.937a.188.188 0 0 0-.188-.187H16.5a.188.188 0 0 0-.188.188V5.25h-3.468V3.937a.188.188 0 0 0-.188-.187h-1.312a.188.188 0 0 0-.188.188V5.25H7.687V3.937A.188.188 0 0 0 7.5 3.75H6.187A.188.188 0 0 0 6 3.938V5.25H2.25A.75.75 0 0 0 1.5 6v13.5c0 .415.335.75.75.75h19.5a.75.75 0 0 0 .75-.75V6a.75.75 0 0 0-.75-.75Zm-.938 13.313H3.188V6.938H6V8.25c0 .103.084.188.188.188H7.5a.188.188 0 0 0 .188-.188V6.937h3.468V8.25c0 .103.085.188.188.188h1.312a.188.188 0 0 0 .188-.188V6.937h3.469V8.25c0 .103.084.188.187.188h1.313A.188.188 0 0 0 18 8.25V6.937h2.813v11.625Z" fill="#F85A00"/>
    <path d="M9.75 14.813H5.437A.188.188 0 0 0 5.25 15v1.125c0 .103.084.188.188.188H9.75a.188.188 0 0 0 .188-.188V15a.188.188 0 0 0-.188-.188Z" fill="#F85A00"/>
</svg>
