<svg width="24" height="24" fill="none" xmlns="http://www.w3.org/2000/svg">
    <path d="M12 1.5C6.202 1.5 1.5 6.202 1.5 12S6.202 22.5 12 22.5 22.5 17.798 22.5 12 17.798 1.5 12 1.5Zm0 19.219A8.72 8.72 0 0 1 3.281 12 8.72 8.72 0 0 1 12 3.281 8.72 8.72 0 0 1 20.719 12 8.72 8.72 0 0 1 12 20.719Z" fill="#F85A00"/>
    <path d="M12 3.281A8.72 8.72 0 0 0 3.281 12 8.72 8.72 0 0 0 12 20.719 8.72 8.72 0 0 0 20.719 12 8.72 8.72 0 0 0 12 3.281Zm2.745 13.62a.188.188 0 0 1-.15.183c-.373.08-.807.12-1.297.12-2.573 0-4.289-1.379-4.692-3.704h-.708a.188.188 0 0 1-.187-.188v-.637c0-.103.084-.188.187-.188h.612v-.864c0-.103 0-.204.007-.3h-.619a.188.188 0 0 1-.187-.188v-.637c0-.103.084-.188.187-.188h.746c.461-2.208 2.154-3.513 4.654-3.513.49 0 .924.044 1.296.126a.186.186 0 0 1 .148.183V8.11a.187.187 0 0 1-.225.183 6.28 6.28 0 0 0-1.211-.103c-1.531 0-2.588.785-2.991 2.119h3.007c.103 0 .187.084.187.187v.638a.188.188 0 0 1-.187.187h-3.185c-.007.103-.007.214-.007.324v.844h3.197c.103 0 .187.084.187.187v.637a.188.188 0 0 1-.187.188h-3.061c.358 1.453 1.436 2.31 3.042 2.31.466 0 .87-.03 1.214-.095a.186.186 0 0 1 .223.183V16.9Z" fill="#F85A00" fill-opacity=".05"/>
    <path d="M14.522 15.715a6.564 6.564 0 0 1-1.214.096c-1.606 0-2.684-.858-3.042-2.311h3.06a.188.188 0 0 0 .188-.188v-.637a.188.188 0 0 0-.187-.188H10.13v-.843c0-.11 0-.22.007-.324h3.185a.188.188 0 0 0 .187-.187v-.638a.188.188 0 0 0-.187-.187h-3.007c.403-1.334 1.46-2.119 2.99-2.119.467 0 .87.035 1.212.103a.187.187 0 0 0 .225-.183V7.106c0-.089-.06-.164-.148-.183a6.07 6.07 0 0 0-1.296-.126c-2.5 0-4.193 1.305-4.654 3.513h-.746a.188.188 0 0 0-.187.188v.637c0 .103.084.188.187.188h.62c-.008.096-.008.197-.008.3v.865h-.612a.188.188 0 0 0-.187.187v.637c0 .104.084.188.187.188h.708c.403 2.325 2.119 3.703 4.692 3.703.49 0 .924-.04 1.296-.12a.188.188 0 0 0 .15-.182v-1.003a.186.186 0 0 0-.222-.183Z" fill="#F85A00"/>
</svg>
