<svg width="24" height="24" fill="none" xmlns="http://www.w3.org/2000/svg">
    <path d="M21.75 3.75H2.25a.75.75 0 0 0-.75.75v15c0 .415.335.75.75.75h19.5a.75.75 0 0 0 .75-.75v-15a.75.75 0 0 0-.75-.75Zm-.938 14.813H3.188V5.438h17.625v13.125Zm-6.508-7.407h2.892c.03 0 .054-.084.054-.187V9.844c0-.103-.023-.188-.054-.188h-2.892c-.03 0-.054.085-.054.188v1.125c0 .103.023.187.054.187Zm.112 3.375h4.353c.091 0 .166-.084.166-.187v-1.125c0-.103-.075-.188-.166-.188h-4.353c-.091 0-.166.085-.166.188v1.125c0 .103.075.187.166.187ZM5.25 15.773h1.029a.187.187 0 0 0 .185-.175 2.294 2.294 0 0 1 2.278-2.121c1.2 0 2.19.937 2.278 2.12a.187.187 0 0 0 .186.176h1.028a.187.187 0 0 0 .188-.196 3.707 3.707 0 0 0-1.749-2.956 2.62 2.62 0 0 0 .682-1.77c0-1.45-1.17-2.624-2.61-2.624a2.618 2.618 0 0 0-2.611 2.625c0 .682.257 1.3.682 1.77a3.705 3.705 0 0 0-1.749 2.955.18.18 0 0 0 .183.196Zm3.492-6.14c.668 0 1.212.546 1.212 1.219 0 .672-.544 1.218-1.212 1.218a1.216 1.216 0 0 1-1.212-1.218c0-.673.544-1.22 1.212-1.22Z" fill="#42494D"/>
</svg>
