<svg width="24" height="24" fill="none" xmlns="http://www.w3.org/2000/svg">
    <path d="M12 1.5C6.202 1.5 1.5 6.202 1.5 12S6.202 22.5 12 22.5 22.5 17.798 22.5 12 17.798 1.5 12 1.5ZM6.75 9.867a1.125 1.125 0 0 1 2.25 0 1.125 1.125 0 0 1-2.25 0Zm8.813 6.375h-1.128a.19.19 0 0 1-.19-.173 2.252 2.252 0 0 0-4.49 0 .19.19 0 0 1-.19.173H8.438a.188.188 0 0 1-.188-.197A3.759 3.759 0 0 1 12 12.492a3.759 3.759 0 0 1 3.75 3.553.186.186 0 0 1-.114.182.188.188 0 0 1-.073.015Zm.562-5.25a1.125 1.125 0 0 1 0-2.25 1.125 1.125 0 0 1 0 2.25Z" fill="#42494D"/>
</svg>
