<svg width="24" height="24" fill="none" xmlns="http://www.w3.org/2000/svg">
    <path d="M20.03 6.766c.14.141.22.33.22.53V21.75a.75.75 0 0 1-.75.75h-15a.75.75 0 0 1-.75-.75V2.25a.75.75 0 0 1 .75-.75h9.954c.2 0 .391.08.532.22l5.044 5.046Zm-1.51.875L14.11 3.23v4.41h4.41Zm-7.539 10.171v-2.145h1.39c1.419 0 2.348-.93 2.348-2.3 0-1.364-.928-2.305-2.343-2.305H9.938a.281.281 0 0 0-.282.282v6.469a.281.281 0 0 0 .281.28h.763a.281.281 0 0 0 .281-.28Zm0-3.265h.818c1.12 0 1.575-.303 1.575-1.18 0-.75-.425-1.174-1.169-1.174h-1.224v2.354Z" fill="#42494D"/>
</svg>
