<svg width="24" height="24" fill="none" xmlns="http://www.w3.org/2000/svg">
    <path d="m22.184 11.836-9.057-9.051-.607-.607a.739.739 0 0 0-1.04 0l-9.664 9.658a1.498 1.498 0 0 0-.44 1.078c.01.825.696 1.484 1.52 1.484h.997v7.634h16.214v-7.634h1.017c.401 0 .778-.157 1.062-.44a1.491 1.491 0 0 0 .438-1.062c0-.399-.157-.776-.44-1.06Zm-8.872 8.508h-2.624v-4.781h2.624v4.781Zm5.108-7.634v7.634h-3.608V15a.937.937 0 0 0-.937-.937h-3.75a.937.937 0 0 0-.937.937v5.344H5.58V12.71H3.33l8.671-8.664.542.541 8.128 8.123H18.42Z" fill="#42494D"/>
</svg>
