<svg width="24" height="24" fill="none" xmlns="http://www.w3.org/2000/svg">
    <path d="M17.344 3.773a2.627 2.627 0 0 0-2.625 2.625c0 1.175.776 2.17 1.84 2.506v2.248L7.5 14.119V7.455a2.627 2.627 0 0 0-.844-5.112A2.627 2.627 0 0 0 4.031 4.97a2.63 2.63 0 0 0 1.782 2.486v9.092a2.627 2.627 0 0 0 .844 5.112 2.627 2.627 0 0 0 2.624-2.625A2.63 2.63 0 0 0 7.5 16.547v-.652l9.926-3.25a1.184 1.184 0 0 0 .818-1.13v-2.65a2.633 2.633 0 0 0 1.725-2.467 2.627 2.627 0 0 0-2.625-2.625ZM5.53 4.97a1.125 1.125 0 0 1 2.25 0 1.125 1.125 0 0 1-2.25 0Zm2.25 14.062a1.125 1.125 0 0 1-2.25 0 1.125 1.125 0 0 1 2.25 0Zm9.563-11.508a1.125 1.125 0 0 1 0-2.25 1.125 1.125 0 0 1 0 2.25Z" fill="#42494D"/>
</svg>
