<svg width="24" height="24" fill="none" xmlns="http://www.w3.org/2000/svg">
    <path d="M20.625 7.266h-3.46a3.226 3.226 0 0 0 .507-1.735 3.238 3.238 0 0 0-3.235-3.234A3.23 3.23 0 0 0 12 3.407a3.23 3.23 0 0 0-2.438-1.11A3.238 3.238 0 0 0 6.329 5.53c0 .638.185 1.233.506 1.735H3.375a.75.75 0 0 0-.75.75v4.687c0 .103.084.188.188.188h.937v8.062c0 .415.335.75.75.75h15a.75.75 0 0 0 .75-.75v-8.062h.938a.188.188 0 0 0 .187-.188V8.016a.75.75 0 0 0-.75-.75ZM12.797 5.53c0-.904.736-1.64 1.64-1.64.905 0 1.641.736 1.641 1.64 0 .905-.736 1.64-1.64 1.64h-1.641v-1.64Zm-3.235-1.64c.905 0 1.641.736 1.641 1.64v1.64h-1.64c-.905 0-1.641-.735-1.641-1.64 0-.904.736-1.64 1.64-1.64ZM4.22 11.297V8.859h6.984v2.438H4.22Zm1.125 1.594h5.86v7.218h-5.86v-7.218Zm13.312 7.218h-5.86v-7.218h5.86v7.218Zm1.125-8.812h-6.984V8.859h6.984v2.438Z" fill="#42494D"/>
</svg>
