<svg width="24" height="24" fill="none" xmlns="http://www.w3.org/2000/svg">
    <path d="M1.917 12.605a1.413 1.413 0 0 1 0-1.207C4.14 6.715 7.495 4.359 12 4.359c-4.505 0-7.86 2.356-10.083 7.039a1.413 1.413 0 0 0 0 1.207C4.14 17.285 7.497 19.64 12 19.64c-4.502 0-7.86-2.356-10.083-7.036Z" fill="#F85A00" fill-opacity=".05"/>
    <path d="M12 6.047c-3.781 0-6.55 1.917-8.502 5.953 1.953 4.036 4.72 5.953 8.501 5.953 3.783 0 6.551-1.917 8.501-5.953-1.952-4.036-4.72-5.953-8.5-5.953Zm-.095 10.078a4.125 4.125 0 1 1 0-8.25 4.125 4.125 0 0 1 0 8.25Z" fill="#F85A00" fill-opacity=".05"/>
    <path d="M22.083 11.395C19.86 6.715 16.503 4.36 12 4.36c-4.505 0-7.86 2.356-10.083 7.039a1.413 1.413 0 0 0 0 1.207C4.14 17.285 7.497 19.64 12 19.64c4.505 0 7.861-2.356 10.083-7.039.18-.38.18-.82 0-1.207ZM12 17.953c-3.78 0-6.548-1.917-8.5-5.953C5.451 7.964 8.22 6.047 12 6.047c3.78 0 6.549 1.917 8.5 5.953-1.95 4.036-4.717 5.953-8.5 5.953Z" fill="#F85A00"/>
    <path d="M11.906 7.875a4.125 4.125 0 1 0 0 8.25 4.125 4.125 0 0 0 0-8.25Zm0 6.75A2.624 2.624 0 0 1 9.281 12a2.624 2.624 0 0 1 2.625-2.625A2.624 2.624 0 0 1 14.531 12a2.624 2.624 0 0 1-2.625 2.625Z" fill="#F85A00"/>
</svg>
