<svg width="24" height="24" fill="none" xmlns="http://www.w3.org/2000/svg">
    <path d="M19.125 18h-.563v-7.969a6.561 6.561 0 0 0-5.625-6.494v-.912a.937.937 0 1 0-1.874 0v.912a6.561 6.561 0 0 0-5.626 6.494V18h-.562a.75.75 0 0 0-.75.75v.75c0 .103.084.188.188.188h5.062A2.627 2.627 0 0 0 12 22.313a2.627 2.627 0 0 0 2.625-2.625h5.063a.188.188 0 0 0 .187-.188v-.75a.75.75 0 0 0-.75-.75ZM12 20.813a1.125 1.125 0 0 1-1.125-1.125h2.25c0 .62-.504 1.125-1.125 1.125ZM7.125 18v-7.969c0-1.303.506-2.526 1.427-3.447A4.841 4.841 0 0 1 12 5.156c1.303 0 2.527.506 3.448 1.428a4.842 4.842 0 0 1 1.427 3.447V18h-9.75Z" fill="#42494D"/>
</svg>
