<svg width="24" height="24" fill="none" xmlns="http://www.w3.org/2000/svg">
    <path d="M17.39 7.453v-3.14h2.016a.188.188 0 0 0 .188-.188V2.812a.188.188 0 0 0-.188-.187H4.594a.188.188 0 0 0-.188.188v1.312c0 .103.085.188.188.188h2.015v3.14c0 1.91.994 3.59 2.494 4.547a5.385 5.385 0 0 0-2.494 4.547v3.14H4.594a.188.188 0 0 0-.188.188v1.313c0 .103.085.187.188.187h14.812a.188.188 0 0 0 .188-.188v-1.312a.188.188 0 0 0-.188-.188h-2.015v-3.14c0-1.91-.994-3.59-2.494-4.547a5.385 5.385 0 0 0 2.494-4.547Z" fill="#42494D"/>
</svg>
