<svg width="24" height="24" fill="none" xmlns="http://www.w3.org/2000/svg">
    <path d="M11.852 15.492a.189.189 0 0 0 .23.053.189.189 0 0 0 .066-.053l2.625-3.32a.187.187 0 0 0-.148-.303h-1.737V3.938a.188.188 0 0 0-.187-.188h-1.407a.188.188 0 0 0-.187.188v7.928H9.375a.187.187 0 0 0-.148.303l2.625 3.323Zm8.726-.82h-1.406a.188.188 0 0 0-.188.187v3.61H5.016v-3.61a.188.188 0 0 0-.188-.187H3.422a.188.188 0 0 0-.188.187V19.5c0 .415.336.75.75.75h16.032a.75.75 0 0 0 .75-.75v-4.64a.188.188 0 0 0-.188-.188Z" fill="#42494D"/>
</svg>
