<svg width="24" height="24" fill="none" xmlns="http://www.w3.org/2000/svg">
    <path d="M9.938 11.156a.188.188 0 0 0-.188.188v6.469c0 .103.084.187.188.187h.761a.188.188 0 0 0 .188-.188v-2.238h1.483c1.393 0 2.255-.912 2.255-2.205 0-1.278-.85-2.21-2.25-2.21H9.937v-.003Zm3.53 2.21c0 1.018-.622 1.273-1.67 1.273h-.911V12.1h1.317c.792 0 1.263.461 1.263 1.267Zm6.562-6.602L14.986 1.72a.749.749 0 0 0-.53-.22H4.5a.75.75 0 0 0-.75.75v19.5c0 .415.335.75.75.75h15a.75.75 0 0 0 .75-.75V7.296c0-.2-.08-.391-.22-.532Zm-1.51.877h-4.41V3.23l4.41 4.41Zm.043 13.171H5.438V3.188h7.078V8.25a.984.984 0 0 0 .984.984h5.063v11.579Z" fill="#42494D"/>
</svg>
