<svg width="24" height="24" fill="none" xmlns="http://www.w3.org/2000/svg">
    <path d="M12 1.5C6.202 1.5 1.5 6.202 1.5 12S6.202 22.5 12 22.5 22.5 17.798 22.5 12 17.798 1.5 12 1.5Zm3.905 5.784-2.604 4.8h1.453c.103 0 .187.085.187.188v.7a.188.188 0 0 1-.187.188h-1.922v.973h1.922c.103 0 .187.084.187.187v.701a.188.188 0 0 1-.187.188h-1.922v1.596a.188.188 0 0 1-.188.187h-1.272a.188.188 0 0 1-.188-.187v-1.596H9.27a.188.188 0 0 1-.188-.188v-.7c0-.104.084-.188.188-.188h1.914v-.973H9.27a.188.188 0 0 1-.188-.187v-.701c0-.103.084-.188.188-.188h1.439l-2.614-4.8a.19.19 0 0 1 .164-.279h1.423c.07 0 .136.04.166.104l2.124 4.218h.08l2.123-4.218a.187.187 0 0 1 .166-.104h1.395c.103 0 .187.085.187.188a.154.154 0 0 1-.018.091Z" fill="#42494D"/>
</svg>
