<svg width="24" height="24" fill="none" xmlns="http://www.w3.org/2000/svg">
    <path d="M21.75 3.75H2.25a.75.75 0 0 0-.75.75v15c0 .415.335.75.75.75h19.5a.75.75 0 0 0 .75-.75v-15a.75.75 0 0 0-.75-.75ZM7.922 7.125c.827 0 1.5.673 1.5 1.5s-.673 1.5-1.5 1.5-1.5-.673-1.5-1.5.673-1.5 1.5-1.5Zm12.044 10.244a.19.19 0 0 1-.122.045H4.155a.188.188 0 0 1-.144-.31l3.992-4.734a.189.189 0 0 1 .264-.023c.007.007.017.014.024.023l2.33 2.766 3.705-4.395a.189.189 0 0 1 .265-.023c.007.007.016.014.023.023l5.381 6.366a.191.191 0 0 1-.028.262Z" fill="#42494D"/>
</svg>
