<svg width="24" height="24" fill="none" xmlns="http://www.w3.org/2000/svg">
    <path d="M21.75 5.25H18V3.937a.188.188 0 0 0-.188-.187H16.5a.188.188 0 0 0-.188.188V5.25h-3.468V3.937a.188.188 0 0 0-.188-.187h-1.312a.188.188 0 0 0-.188.188V5.25H7.687V3.937A.188.188 0 0 0 7.5 3.75H6.187A.188.188 0 0 0 6 3.938V5.25H2.25A.75.75 0 0 0 1.5 6v13.5c0 .415.335.75.75.75h19.5a.75.75 0 0 0 .75-.75V6a.75.75 0 0 0-.75-.75ZM9.937 16.125a.188.188 0 0 1-.187.188H5.437a.188.188 0 0 1-.187-.188V15c0-.103.084-.188.188-.188H9.75c.103 0 .188.085.188.188v1.125Zm0-3.188a.188.188 0 0 1-.187.188H5.437a.188.188 0 0 1-.187-.188v-1.124c0-.104.084-.188.188-.188H9.75c.103 0 .188.084.188.188v1.124Zm8.778-2.14-3.867 5.36a.374.374 0 0 1-.473.115.373.373 0 0 1-.132-.114l-2.677-3.708a.188.188 0 0 1 .153-.298h1.287c.119 0 .232.059.302.155l1.237 1.713 2.43-3.368a.37.37 0 0 1 .303-.154h1.285a.19.19 0 0 1 .152.3Z" fill="#42494D"/>
</svg>
