<svg width="24" height="24" fill="none" xmlns="http://www.w3.org/2000/svg">
    <path d="M12.516 8.25V3.187H5.437v17.625h13.125V9.235H13.5a.984.984 0 0 1-.984-.984ZM12 18.188a.75.75 0 1 1-.001-1.499.75.75 0 0 1 .001 1.498Zm2.578-5.354c.017 1.053-.696 1.98-1.741 2.318a.33.33 0 0 0-.228.312v.286a.235.235 0 0 1-.234.234h-.75a.235.235 0 0 1-.234-.234V15a.972.972 0 0 1 .813-.94c.663-.087 1.155-.6 1.155-1.193 0-.658-.604-1.207-1.359-1.207s-1.36.549-1.36 1.21c0 .121-.103.22-.23.22h-.758a.224.224 0 0 1-.23-.223c0-1.345 1.174-2.43 2.613-2.414 1.39.019 2.524 1.08 2.543 2.381Z" fill="#F85A00" fill-opacity=".05"/>
    <path d="M20.03 6.766 14.986 1.72a.754.754 0 0 0-.532-.22H4.5a.75.75 0 0 0-.75.75v19.5c0 .415.335.75.75.75h15a.75.75 0 0 0 .75-.75V7.296c0-.2-.08-.389-.22-.53ZM14.11 3.23l4.41 4.41h-4.41V3.23Zm4.453 17.582H5.438V3.188h7.078V8.25a.984.984 0 0 0 .984.984h5.063v11.579Z" fill="#F85A00"/>
    <path d="M11.25 17.438a.75.75 0 1 0 1.5 0 .75.75 0 0 0-1.5 0Zm-1.828-4.57c0 .126.103.222.23.222h.759c.127 0 .23-.099.23-.22 0-.661.604-1.21 1.359-1.21s1.36.549 1.36 1.207c0 .593-.493 1.106-1.156 1.193a.972.972 0 0 0-.813.94v.75c0 .129.105.234.234.234h.75a.235.235 0 0 0 .234-.234v-.286c0-.14.094-.27.228-.312 1.045-.337 1.758-1.265 1.741-2.318-.019-1.3-1.153-2.362-2.543-2.38-1.439-.017-2.613 1.068-2.613 2.413Z" fill="#F85A00"/>
</svg>
