<svg width="24" height="24" fill="none" xmlns="http://www.w3.org/2000/svg">
    <path d="M6.938 6a.188.188 0 0 0-.188.188v1.125c0 .103.084.187.188.187h9a.188.188 0 0 0 .187-.188V6.188A.188.188 0 0 0 15.937 6h-9Zm4.5 4.688V9.562a.188.188 0 0 0-.188-.187H6.937a.188.188 0 0 0-.187.188v1.124c0 .104.084.188.188.188h4.312a.188.188 0 0 0 .188-.188Zm-1.126 9.28H4.875v-16.5H18v8.063c0 .103.084.188.188.188H19.5a.188.188 0 0 0 .188-.188v-9a.75.75 0 0 0-.75-.75h-15a.75.75 0 0 0-.75.75v18.375c0 .415.335.75.75.75h6.374a.188.188 0 0 0 .188-.187v-1.313a.188.188 0 0 0-.188-.187Zm2.44-2.709c.042-.808.38-1.565.957-2.142a3.291 3.291 0 0 1 4.86.237l-.54.42a.188.188 0 0 0-.02.278.188.188 0 0 0 .09.052l2.186.527c.117.028.23-.06.232-.18l.014-2.236a.187.187 0 0 0-.302-.15l-.476.37a4.786 4.786 0 0 0-8.503 2.808.188.188 0 0 0 .188.194h1.127c.1 0 .183-.077.187-.178Zm7.873.178h-1.127c-.101 0-.183.078-.188.179a3.258 3.258 0 0 1-.956 2.142 3.291 3.291 0 0 1-4.861-.237l.541-.42a.188.188 0 0 0 .02-.278.188.188 0 0 0-.09-.052l-2.187-.527a.189.189 0 0 0-.232.18l-.014 2.236a.188.188 0 0 0 .303.15l.475-.37a4.786 4.786 0 0 0 8.503-2.808.188.188 0 0 0-.187-.195Z" fill="#42494D"/>
</svg>
