<svg width="24" height="24" fill="none" xmlns="http://www.w3.org/2000/svg">
    <g clip-path="url(#a)">
        <path d="M12 24c-1.62 0-3.192-.316-4.671-.942a11.96 11.96 0 0 1-3.813-2.574 11.96 11.96 0 0 1-2.574-3.813A11.924 11.924 0 0 1 0 12a.843.843 0 1 1 1.688 0 10.297 10.297 0 0 0 3.021 7.294A10.26 10.26 0 0 0 12 22.312a10.297 10.297 0 0 0 7.294-3.021A10.261 10.261 0 0 0 22.312 12c0-1.392-.271-2.742-.81-4.015a10.324 10.324 0 0 0-2.21-3.279A10.258 10.258 0 0 0 12 1.687.843.843 0 1 1 12 0c1.62 0 3.192.316 4.671.942a11.96 11.96 0 0 1 3.813 2.574 11.98 11.98 0 0 1 2.571 3.813c.626 1.479.943 3.051.943 4.671s-.317 3.192-.943 4.671a11.917 11.917 0 0 1-2.57 3.813A11.981 11.981 0 0 1 12 24Z" fill="#F85A00"/>
    </g>
    <defs>
        <clipPath id="a">
            <path fill="#fff" d="M0 0h24v24H0z"/>
        </clipPath>
    </defs>
</svg>
