<svg width="24" height="24" fill="none" xmlns="http://www.w3.org/2000/svg">
    <path d="M12 1.5C6.202 1.5 1.5 6.202 1.5 12S6.202 22.5 12 22.5 22.5 17.798 22.5 12 17.798 1.5 12 1.5Zm0 19.219A8.72 8.72 0 0 1 3.281 12 8.72 8.72 0 0 1 12 3.281 8.72 8.72 0 0 1 20.719 12 8.72 8.72 0 0 1 12 20.719Z" fill="#F85A00"/>
    <path d="M12 3.281A8.72 8.72 0 0 0 3.281 12 8.72 8.72 0 0 0 12 20.719 8.72 8.72 0 0 0 20.719 12 8.72 8.72 0 0 0 12 3.281Zm.129 12.492c1.24 0 2.081-.742 2.18-1.823a.189.189 0 0 1 .187-.171h1.331c.061 0 .11.05.11.11 0 1.936-1.61 3.314-3.813 3.314-2.576 0-4.062-1.715-4.062-4.568V11.41c0-2.873 1.486-4.612 4.062-4.612 2.21 0 3.813 1.423 3.813 3.455 0 .06-.049.11-.11.11h-1.329a.187.187 0 0 1-.187-.174c-.094-1.162-.938-1.954-2.18-1.954-1.528 0-2.393 1.136-2.395 3.175v1.233c0 2.009.862 3.131 2.393 3.131Z" fill="#F85A00" fill-opacity=".05"/>
    <path d="M12.131 8.234c1.242 0 2.086.792 2.18 1.954.007.099.089.174.187.174h1.33a.11.11 0 0 0 .11-.11c0-2.032-1.604-3.455-3.814-3.455-2.576 0-4.062 1.739-4.062 4.612v1.226c0 2.853 1.486 4.568 4.062 4.568 2.203 0 3.813-1.378 3.813-3.314a.11.11 0 0 0-.11-.11h-1.33a.189.189 0 0 0-.188.171c-.099 1.08-.94 1.823-2.18 1.823-1.53 0-2.393-1.122-2.393-3.13v-1.234c.002-2.039.867-3.175 2.395-3.175Z" fill="#F85A00"/>
</svg>
