<svg width="24" height="24" fill="none" xmlns="http://www.w3.org/2000/svg">
    <path d="M3.188 18.563h17.625v-8.25H3.188v8.25Zm11.882-3.375c0-.104.085-.188.188-.188h3.867c.103 0 .188.084.188.188v1.687a.188.188 0 0 1-.188.188h-3.867a.188.188 0 0 1-.188-.188v-1.688ZM3.187 5.438h17.625V8.25H3.188V5.437Z" fill="#F85A00" fill-opacity=".05"/>
    <path d="M15.258 17.063h3.867a.188.188 0 0 0 .188-.188v-1.688a.188.188 0 0 0-.188-.187h-3.867a.188.188 0 0 0-.188.188v1.687c0 .103.085.188.188.188Z" fill="#F85A00"/>
    <path d="M21.75 3.75H2.25a.75.75 0 0 0-.75.75v15c0 .415.335.75.75.75h19.5a.75.75 0 0 0 .75-.75v-15a.75.75 0 0 0-.75-.75Zm-.938 14.813H3.188v-8.25h17.625v8.25Zm0-10.313H3.188V5.437h17.625V8.25Z" fill="#F85A00"/>
</svg>
