<svg width="24" height="24" fill="none" xmlns="http://www.w3.org/2000/svg">
    <path d="M16.125 7.313V6.188A.188.188 0 0 0 15.937 6h-9a.188.188 0 0 0-.187.188v1.125c0 .103.084.187.188.187h9a.188.188 0 0 0 .187-.188ZM6.937 9.374a.188.188 0 0 0-.187.188v1.124c0 .104.084.188.188.188h4.312a.188.188 0 0 0 .188-.188V9.563a.188.188 0 0 0-.188-.188H6.937Zm3.375 10.594H4.875v-16.5H18v8.062c0 .103.084.188.188.188H19.5a.188.188 0 0 0 .188-.188v-9a.75.75 0 0 0-.75-.75h-15a.75.75 0 0 0-.75.75v18.375c0 .415.335.75.75.75h6.374a.188.188 0 0 0 .188-.187v-1.313a.188.188 0 0 0-.188-.187Zm10.447 1.207-2.187-2.187a4.125 4.125 0 1 0-1.022.956l2.22 2.22a.188.188 0 0 0 .262 0l.727-.727a.186.186 0 0 0 0-.262Zm-5.478-2.051a2.624 2.624 0 0 1-2.625-2.625 2.624 2.624 0 0 1 2.625-2.625 2.624 2.624 0 0 1 2.625 2.625 2.624 2.624 0 0 1-2.625 2.625Z" fill="#42494D"/>
</svg>
