<svg width="24" height="24" fill="none" xmlns="http://www.w3.org/2000/svg">
    <path d="M15.11 15.684a.186.186 0 0 0-.152-.077h-1.036a.188.188 0 0 0-.152.298l1.73 2.393a.186.186 0 0 0 .302 0l2.676-3.703a.188.188 0 0 0-.152-.298h-1.038a.185.185 0 0 0-.153.077l-1.488 2.058-.537-.748Zm1.015-8.512V6.047a.188.188 0 0 0-.188-.188h-9a.188.188 0 0 0-.187.188v1.125c0 .103.084.187.188.187h9a.188.188 0 0 0 .187-.187ZM6.937 9.234a.188.188 0 0 0-.187.188v1.125c0 .103.084.187.188.187h4.312a.188.188 0 0 0 .188-.187V9.422a.188.188 0 0 0-.188-.188H6.937ZM11.25 19.97H4.875v-16.5H18v6.937c0 .103.084.188.188.188H19.5a.188.188 0 0 0 .188-.188V2.531a.75.75 0 0 0-.75-.75h-15a.75.75 0 0 0-.75.75v18.375c0 .415.335.75.75.75h7.312a.188.188 0 0 0 .188-.187v-1.313a.188.188 0 0 0-.188-.187Zm9.436-7.519-4.5-1.563a.184.184 0 0 0-.061-.01.175.175 0 0 0-.06.01l-4.5 1.563a.186.186 0 0 0-.127.176v5.885c0 .059.025.112.072.148l4.5 3.52a.19.19 0 0 0 .115.04.19.19 0 0 0 .115-.04l4.5-3.52a.189.189 0 0 0 .073-.148v-5.885c0-.08-.052-.15-.127-.176Zm-1.327 5.45-3.234 2.528-3.234-2.529v-4.376l3.234-1.125 3.234 1.125V17.9Z" fill="#42494D"/>
</svg>
