<svg width="24" height="24" fill="none" xmlns="http://www.w3.org/2000/svg">
    <path d="M20.063 8.813h-4.875V3.936a.376.376 0 0 0-.376-.374H3.938a.376.376 0 0 0-.376.374v10.876c0 .206.17.374.376.374h4.874v4.876c0 .206.17.375.376.375h10.874a.376.376 0 0 0 .375-.375V9.188a.376.376 0 0 0-.375-.376Zm-11.25.374v4.407H5.155V5.156h8.438v3.657H9.188a.376.376 0 0 0-.376.374Zm4.78 1.22v3.187h-3.187v-3.188h3.188Zm5.25 8.437h-8.437v-3.657h4.406a.376.376 0 0 0 .376-.374v-4.407h3.656v8.438Z" fill="#42494D"/>
</svg>
