<svg width="24" height="24" fill="none" xmlns="http://www.w3.org/2000/svg">
    <path d="m20.318 3.982-7.964-2.714a1.153 1.153 0 0 0-.354-.05c-.129 0-.258.017-.354.05L3.682 3.982a.562.562 0 0 0-.354.497v11.306c0 .206.134.478.295.607l8.08 6.296a.485.485 0 0 0 .295.096.48.48 0 0 0 .295-.096l8.079-6.296a.872.872 0 0 0 .295-.607V4.48a.552.552 0 0 0-.349-.497ZM15.194 7.8l-2.055 3.776h1.071c.13 0 .234.105.234.234v.5a.235.235 0 0 1-.234.234h-1.486v.696h1.486c.13 0 .234.105.234.234v.5a.235.235 0 0 1-.234.234h-1.486v1.214a.235.235 0 0 1-.234.234h-.968a.235.235 0 0 1-.235-.234v-1.214H9.81a.235.235 0 0 1-.235-.235v-.499c0-.129.106-.234.235-.234h1.479v-.696h-1.48a.235.235 0 0 1-.234-.235v-.499c0-.129.106-.234.235-.234h1.059L8.805 7.8a.236.236 0 0 1 .207-.347h1.078c.089 0 .169.05.208.129l1.709 3.382 1.716-3.382a.233.233 0 0 1 .208-.129h1.055c.129 0 .234.106.234.234a.209.209 0 0 1-.026.113Z" fill="#42494D"/>
</svg>
