<svg width="24" height="24" fill="none" xmlns="http://www.w3.org/2000/svg">
    <g clip-path="url(#a)" fill="#F85A00">
        <path fill-rule="evenodd" clip-rule="evenodd" d="m17.195 10.303 1 .217a.389.389 0 0 1 .305.38v2.2c0 .184-.127.341-.306.38l-.999.218a5.444 5.444 0 0 1-.321.775l.553.86a.388.388 0 0 1-.052.485l-1.557 1.557a.388.388 0 0 1-.484.052l-.86-.553c-.25.127-.51.234-.776.321l-.218 1a.388.388 0 0 1-.38.305h-2.2a.388.388 0 0 1-.38-.306l-.217-.999a5.433 5.433 0 0 1-.776-.321l-.86.553a.389.389 0 0 1-.485-.052l-1.556-1.557a.389.389 0 0 1-.052-.485l.553-.86a5.437 5.437 0 0 1-.322-.775l-.999-.218a.389.389 0 0 1-.306-.38v-2.2c0-.183.128-.341.306-.38l1-.217a5.44 5.44 0 0 1 .32-.776l-.552-.86a.389.389 0 0 1 .052-.485l1.556-1.556c.13-.13.331-.151.485-.052l.86.553c.25-.127.51-.235.776-.322l.217-.999a.388.388 0 0 1 .38-.306h2.2c.184 0 .342.128.38.306l.218 1c.266.086.525.194.775.32l.86-.552a.389.389 0 0 1 .485.052l1.557 1.556c.129.13.15.331.052.485l-.553.86c.127.25.234.51.321.776ZM12 15a3 3 0 1 0 0-6 3 3 0 0 0 0 6Z"/>
        <g opacity=".3">
            <path d="M13.354 3.17a.5.5 0 0 0 0-.84l-1.582-1.027a.5.5 0 0 0-.772.42v.075a10.254 10.254 0 0 0-9.162 8.854l1.487.196A8.754 8.754 0 0 1 11 3.307v.47a.5.5 0 0 0 .772.42l1.582-1.028ZM15.684 4.06A8.751 8.751 0 0 1 20.75 12c0 1.198-.24 2.338-.675 3.376l-.278-.16a.5.5 0 0 0-.749.46l.099 1.883a.5.5 0 0 0 .726.42l1.681-.857a.5.5 0 0 0 .023-.878l-.194-.112c.557-1.265.867-2.663.867-4.132 0-4.12-2.431-7.671-5.934-9.3l-.632 1.36ZM3.532 18.22l.225-.127A10.236 10.236 0 0 0 12 22.25c1.866 0 3.617-.5 5.125-1.372l-.75-1.298A8.706 8.706 0 0 1 12 20.75a8.735 8.735 0 0 1-6.922-3.396l.247-.14a.5.5 0 0 0-.011-.878l-1.67-.878a.5.5 0 0 0-.731.41l-.124 1.882a.5.5 0 0 0 .743.47Z"/>
            <path fill-rule="evenodd" clip-rule="evenodd" d="M15 12a3 3 0 1 1-6 0 3 3 0 0 1 6 0Zm-.5 0a2.5 2.5 0 1 1-5 0 2.5 2.5 0 0 1 5 0Z"/>
        </g>
    </g>
    <defs>
        <clipPath id="a">
            <path fill="#fff" d="M0 0h24v24H0z"/>
        </clipPath>
    </defs>
</svg>
