<svg width="24" height="24" fill="none" xmlns="http://www.w3.org/2000/svg">
    <path d="M20.625 6.994h-8.414l-2.75-2.63a.191.191 0 0 0-.128-.051H3.375a.75.75 0 0 0-.75.75v13.875c0 .414.335.75.75.75h17.25a.75.75 0 0 0 .75-.75V7.743a.75.75 0 0 0-.75-.75Zm-5.813 6.53c0 .089-.08.164-.175.164h-1.98v1.99a.167.167 0 0 1-.165.166h-.984a.167.167 0 0 1-.164-.167v-1.99h-1.98c-.097 0-.177-.074-.177-.164v-.984c0-.089.08-.164.176-.164h1.98v-1.99c0-.091.076-.166.165-.166h.984c.09 0 .164.075.164.166v1.99h1.98c.097 0 .177.075.177.164v.984Z" fill="#42494D"/>
</svg>
