<svg width="24" height="24" fill="none" xmlns="http://www.w3.org/2000/svg">
    <path d="m21.508 3.488-.993-.994a.194.194 0 0 0-.267 0l-1.784 1.784a4.67 4.67 0 0 0-2.627-.804c-1.2 0-2.4.457-3.317 1.373l-2.388 2.388a.188.188 0 0 0 0 .265l6.368 6.368a.184.184 0 0 0 .133.054.198.198 0 0 0 .134-.054l2.388-2.388a4.692 4.692 0 0 0 .57-5.941l1.783-1.784a.19.19 0 0 0 0-.267Zm-7.94 9.326a.188.188 0 0 0-.265 0l-1.561 1.56-2.116-2.116 1.563-1.563a.188.188 0 0 0 0-.265l-.853-.853a.188.188 0 0 0-.265 0L8.508 11.14 7.5 10.132a.185.185 0 0 0-.134-.053.198.198 0 0 0-.133.053l-2.386 2.389a4.692 4.692 0 0 0-.57 5.941l-1.783 1.784a.188.188 0 0 0 0 .265l.993.993a.194.194 0 0 0 .267 0l1.784-1.783a4.67 4.67 0 0 0 2.627.804c1.2 0 2.4-.457 3.317-1.374l2.388-2.388a.188.188 0 0 0 0-.265l-1.008-1.008 1.564-1.563a.188.188 0 0 0 0-.265l-.858-.848Z" fill="#42494D"/>
</svg>
