<svg width="24" height="24" fill="none" xmlns="http://www.w3.org/2000/svg">
    <path d="m21.284 8.276-5.951-.865-2.66-5.393a.753.753 0 0 0-1.345 0L8.667 7.41l-5.952.865a.749.749 0 0 0-.414 1.28l4.305 4.197L5.59 19.68a.749.749 0 0 0 1.087.79L12 17.672l5.323 2.798a.749.749 0 0 0 1.087-.79l-1.017-5.927 4.305-4.198a.749.749 0 0 0 .218-.429.747.747 0 0 0-.632-.85Zm-5.703 4.886.846 4.93L12 15.765l-4.427 2.328.846-4.93-3.581-3.492 4.95-.72L12 4.47l2.213 4.484 4.95.72-3.582 3.49Z" fill="#42494D"/>
</svg>
