<svg width="24" height="24" fill="none" xmlns="http://www.w3.org/2000/svg">
    <path d="M17.625 2.344a2.626 2.626 0 0 0-.938 5.077v.646L12 14.095 7.312 8.067V7.42a2.626 2.626 0 0 0-.937-5.076A2.627 2.627 0 0 0 3.75 4.969a2.63 2.63 0 0 0 1.875 2.515v.806c0 .227.077.452.218.633l5.313 6.834v.787A2.627 2.627 0 0 0 12 21.657a2.627 2.627 0 0 0 2.625-2.625 2.63 2.63 0 0 0-1.781-2.486v-.788l5.313-6.834c.14-.18.218-.406.218-.633v-.806a2.63 2.63 0 0 0 1.875-2.515 2.627 2.627 0 0 0-2.625-2.625ZM5.25 4.969a1.125 1.125 0 0 1 2.25 0 1.125 1.125 0 0 1-2.25 0Zm7.875 14.062a1.125 1.125 0 0 1-2.25 0 1.125 1.125 0 0 1 2.25 0Zm4.5-12.937a1.125 1.125 0 0 1 0-2.25 1.125 1.125 0 0 1 0 2.25Z" fill="#42494D"/>
</svg>
