<svg width="24" height="24" fill="none" xmlns="http://www.w3.org/2000/svg">
    <path d="m20.318 3.982-7.964-2.714a1.153 1.153 0 0 0-.354-.05c-.129 0-.258.017-.354.05L3.682 3.982a.562.562 0 0 0-.354.497v11.306c0 .206.134.478.295.607l8.08 6.296a.485.485 0 0 0 .295.096.48.48 0 0 0 .295-.096l8.079-6.296a.872.872 0 0 0 .295-.607V4.48a.552.552 0 0 0-.349-.497Zm-1.334 11.353L12 20.777l-6.984-5.442V5.313L12 2.932l6.984 2.381v10.022Z" fill="#F85A00"/>
    <path d="M5.016 5.314v10.021L12 20.779l6.984-5.442V5.313L12 2.932 5.016 5.314Zm9.815 2.374h1.294c.152 0 .241.173.152.298l-4.983 6.86a.377.377 0 0 1-.609 0l-2.962-4.079a.188.188 0 0 1 .152-.297h1.294c.122 0 .234.058.304.155l1.517 2.088 3.537-4.87a.38.38 0 0 1 .304-.155Z" fill="#F85A00" fill-opacity=".05"/>
    <path d="M9.473 10.624a.377.377 0 0 0-.304-.155H7.875c-.152 0-.241.174-.152.298l2.962 4.078a.376.376 0 0 0 .61 0l4.982-6.86a.188.188 0 0 0-.152-.298h-1.294a.38.38 0 0 0-.304.155l-3.537 4.87-1.517-2.088Z" fill="#F85A00"/>
</svg>
