<svg width="24" height="24" fill="none" xmlns="http://www.w3.org/2000/svg">
    <path d="M17.344 8.063H9.469V5.624H7.125v3.75h4.125a.75.75 0 0 1 .75.75v8.438h7.688V5.624h-2.344v2.438ZM13.687 10.5c0-.103.085-.188.188-.188H15c.103 0 .188.085.188.188v1.313A.188.188 0 0 1 15 12h-1.125a.188.188 0 0 1-.188-.188V10.5Zm2.157 7.055a2.157 2.157 0 1 1 0-4.313 2.157 2.157 0 0 1 0 4.313ZM18 9.563v2.25a.188.188 0 0 1-.188.187h-1.125a.188.188 0 0 1-.187-.188v-2.25c0-.103.084-.187.188-.187h1.125c.103 0 .187.084.187.188Z" fill="#F85A00" fill-opacity=".05"/>
    <path d="M15.047 15.398a.797.797 0 1 0 1.593 0 .797.797 0 0 0-1.593 0Z" fill="#F85A00" fill-opacity=".05"/>
    <path d="M13.875 12H15a.188.188 0 0 0 .188-.188V10.5a.188.188 0 0 0-.188-.188h-1.125a.188.188 0 0 0-.188.188v1.313c0 .103.085.187.188.187ZM16.5 9.562v2.25c0 .104.084.188.188.188h1.125a.188.188 0 0 0 .187-.188v-2.25a.188.188 0 0 0-.188-.187h-1.125a.188.188 0 0 0-.187.188Z" fill="#F85A00"/>
    <path d="M20.625 3.938h-4.969c0-.725-.588-1.313-1.312-1.313h-1.875c-.724 0-1.313.588-1.313 1.313H6.187a.75.75 0 0 0-.75.75v4.687H3.376a.75.75 0 0 0-.75.75v10.5c0 .415.335.75.75.75h7.875a.75.75 0 0 0 .75-.75v-.375h8.625a.75.75 0 0 0 .75-.75V4.687a.75.75 0 0 0-.75-.75Zm-9.656 1.5h1.687V4.125h1.5v1.313h1.688v1.125h-4.875V5.438ZM10.5 19.874H4.125v-5.438H10.5v5.438Zm0-6.938H4.125v-2.062H10.5v2.063Zm9.188 5.626H12v-8.438a.75.75 0 0 0-.75-.75H7.125v-3.75h2.344v2.438h7.875V5.624h2.343v12.938Z" fill="#F85A00"/>
    <path d="M15.844 13.242a2.157 2.157 0 1 0 0 4.313 2.157 2.157 0 0 0 0-4.313Zm0 2.953a.796.796 0 1 1-.002-1.592.796.796 0 0 1 .002 1.592Z" fill="#F85A00"/>
</svg>
