<svg width="24" height="24" fill="none" xmlns="http://www.w3.org/2000/svg">
    <path d="M20.625 2.625H3.375a.75.75 0 0 0-.75.75v17.25c0 .415.335.75.75.75h17.25a.75.75 0 0 0 .75-.75V3.375a.75.75 0 0 0-.75-.75Zm-.938 17.063H4.313V4.313h15.375v15.375ZM7.145 12.28h1.188a.16.16 0 0 0 .16-.16v-1.848c0-.462.372-.835.831-.835h4.822v1.252c0 .133.152.206.255.124l2.557-2.009a.158.158 0 0 0 0-.25L14.4 6.546a.158.158 0 0 0-.255.124v1.252H9.32a2.34 2.34 0 0 0-2.337 2.346v1.85c0 .093.07.163.16.163Zm-.099 3.162 2.557 2.009a.158.158 0 0 0 .256-.125v-1.251h4.82a2.34 2.34 0 0 0 2.338-2.346v-1.85a.16.16 0 0 0-.16-.159h-1.188a.16.16 0 0 0-.16.16v1.849a.833.833 0 0 1-.831.834h-4.82v-1.252a.157.157 0 0 0-.255-.124l-2.557 2.009a.154.154 0 0 0 0 .246Z" fill="#42494D"/>
</svg>
