<svg width="24" height="24" fill="none" xmlns="http://www.w3.org/2000/svg">
    <path d="M11.191 12.57 3.185 6.345l-.645-.502.647.504v12.215h17.625V6.348l-8.01 6.223a1.312 1.312 0 0 1-1.611 0ZM20.538 4.66l.92 1.183-.646.504.649-.504-.921-1.184h-.002Z" fill="#F85A00" fill-opacity=".05"/>
    <path d="M21.75 3.75H2.25a.75.75 0 0 0-.75.75v15c0 .415.335.75.75.75h19.5a.75.75 0 0 0 .75-.75v-15a.75.75 0 0 0-.75-.75Zm-2.215 1.69L12 11.297 4.465 5.44h15.07Zm1.277.907v12.216H3.188V6.347l-.646-.504.644.502 8.006 6.224a1.312 1.312 0 0 0 1.61 0l8.011-6.222.647-.504-.92-1.184h.002l.92 1.184-.648.504Z" fill="#F85A00"/>
</svg>
