<svg width="24" height="24" fill="none" xmlns="http://www.w3.org/2000/svg">
    <path d="m20.318 3.982-7.964-2.714a1.153 1.153 0 0 0-.354-.05c-.129 0-.258.017-.354.05L3.682 3.982a.562.562 0 0 0-.354.497v11.306c0 .206.134.478.295.607l8.08 6.296a.485.485 0 0 0 .295.096.48.48 0 0 0 .295-.096l8.079-6.296a.872.872 0 0 0 .295-.607V4.48a.552.552 0 0 0-.349-.497Zm-1.334 11.353L12 20.777l-6.984-5.442V5.313L12 2.932l6.984 2.381v10.022Zm-9.541-2.941L7.627 14.21a.188.188 0 0 0 0 .265l.796.797a.188.188 0 0 0 .265 0l1.817-1.816a3.377 3.377 0 1 0-1.062-1.062Zm1.533-3.124a1.874 1.874 0 0 1 2.653 0 1.874 1.874 0 0 1 0 2.653 1.876 1.876 0 0 1-2.653-2.653Z" fill="#42494D"/>
</svg>
