<svg width="24" height="24" fill="none" xmlns="http://www.w3.org/2000/svg">
    <path d="M20.82 17.752h-1.261a.182.182 0 0 0-.18.18v1.449H4.618V4.62h14.762v1.448c0 .098.081.18.18.18h1.26a.18.18 0 0 0 .181-.18V3.72a.718.718 0 0 0-.72-.72H3.72a.718.718 0 0 0-.72.72v16.56c0 .399.321.72.72.72h16.56c.399 0 .72-.321.72-.72v-2.348a.18.18 0 0 0-.18-.18Zm.436-5.9L17.93 9.227a.188.188 0 0 0-.305.148v1.781h-7.36a.188.188 0 0 0-.187.188v1.312c0 .103.085.188.188.188h7.359v1.781c0 .157.183.246.305.148l3.326-2.625a.189.189 0 0 0 .052-.23.189.189 0 0 0-.052-.066Z" fill="#42494D"/>
</svg>
