<svg width="24" height="24" fill="none" xmlns="http://www.w3.org/2000/svg">
    <path d="M18.75 1.5H5.25c-.827 0-1.5.673-1.5 1.5v18c0 .827.673 1.5 1.5 1.5h13.5c.827 0 1.5-.673 1.5-1.5V3c0-.827-.673-1.5-1.5-1.5Zm-.188 19.313H5.438V3.188h13.125v17.625Z" fill="#F85A00"/>
    <path d="M5.438 20.813h13.125V3.188H5.438v17.625ZM12 17.438a.937.937 0 1 1 0 1.874.937.937 0 0 1 0-1.875Z" fill="#F85A00" fill-opacity=".05"/>
    <path d="M11.063 18.375a.938.938 0 1 0 1.875 0 .938.938 0 0 0-1.876 0Z" fill="#F85A00"/>
</svg>
