<svg width="24" height="24" fill="none" xmlns="http://www.w3.org/2000/svg">
    <path d="M5.646 9.232h12.708L12 4.61 5.646 9.232Z" fill="#F85A00" fill-opacity=".05"/>
    <path d="M20.953 10.828c.725 0 1.027-.93.439-1.36l-8.951-6.51a.746.746 0 0 0-.881 0l-8.951 6.51c-.588.427-.286 1.36.44 1.36H4.5v8.766H2.813a.188.188 0 0 0-.188.187v1.22c0 .102.085.187.188.187h18.375a.188.188 0 0 0 .187-.188v-1.219a.188.188 0 0 0-.187-.187H19.5v-8.766h1.453ZM8.93 19.594H6.188v-8.766H8.93v8.766Zm4.43 0h-2.742v-8.766h2.742v8.766Zm4.453 0h-2.766v-8.766h2.766v8.766ZM5.646 9.232 12 4.61l6.354 4.622H5.646Z" fill="#F85A00"/>
</svg>
