<svg width="24" height="24" fill="none" xmlns="http://www.w3.org/2000/svg">
    <path d="M21.363 16.4a.188.188 0 0 0-.241-.113l-1.434.522V4.195c0-.88-.713-1.593-1.594-1.593H5.906c-.881 0-1.593.712-1.593 1.593V16.81l-1.437-.522a.202.202 0 0 0-.063-.012.188.188 0 0 0-.188.188v1.396c0 .078.05.148.124.176l8.993 3.272a.743.743 0 0 0 .513 0l8.996-3.27a.189.189 0 0 0 .124-.175v-1.397a.204.204 0 0 0-.012-.066ZM15.65 7.562l-2.43 4.49h1.35c.103 0 .187.085.187.188v.636a.188.188 0 0 1-.187.187H12.78v.914h1.789c.103 0 .187.085.187.188v.635a.188.188 0 0 1-.187.187H12.78v1.489a.188.188 0 0 1-.187.187h-1.17a.188.188 0 0 1-.187-.187V14.99H9.455a.188.188 0 0 1-.188-.188v-.635c0-.103.085-.188.188-.188h1.78v-.914h-1.78a.188.188 0 0 1-.188-.187v-.635c0-.103.085-.188.188-.188h1.336l-2.436-4.49a.186.186 0 0 1 .075-.253.175.175 0 0 1 .09-.024h1.305a.188.188 0 0 1 .166.103l1.986 3.956h.077l1.985-3.956a.185.185 0 0 1 .167-.103h1.277c.103 0 .187.084.19.185 0 .03-.01.061-.024.09Z" fill="#42494D"/>
</svg>
