<svg width="24" height="24" fill="none" xmlns="http://www.w3.org/2000/svg">
    <path fill-rule="evenodd" clip-rule="evenodd" d="M13 15h8V3h-8v12ZM3 21h7V11H3v10Zm18 0h-8v-3h8v3ZM3 8h7V3H3v5Z" fill="#F85A00" fill-opacity=".05"/>
    <path fill-rule="evenodd" clip-rule="evenodd" d="M21 15.75a.75.75 0 0 0 .75-.75V3a.75.75 0 0 0-.75-.75h-8a.75.75 0 0 0-.75.75v12c0 .414.336.75.75.75h8Zm-.75-12v10.5h-6.5V3.75h6.5ZM10 21.75a.75.75 0 0 0 .75-.75V11a.75.75 0 0 0-.75-.75H3a.75.75 0 0 0-.75.75v10c0 .414.336.75.75.75h7Zm-.75-10v8.5h-5.5v-8.5h5.5ZM21.75 21a.75.75 0 0 1-.75.75h-8a.75.75 0 0 1-.75-.75v-3a.75.75 0 0 1 .75-.75h8a.75.75 0 0 1 .75.75v3Zm-1.5-.75v-1.5h-6.5v1.5h6.5ZM10 8.75a.75.75 0 0 0 .75-.75V3a.75.75 0 0 0-.75-.75H3a.75.75 0 0 0-.75.75v5c0 .414.336.75.75.75h7Zm-.75-5v3.5h-5.5v-3.5h5.5Z" fill="#F85A00"/>
</svg>
