<svg width="24" height="24" fill="none" xmlns="http://www.w3.org/2000/svg">
    <path d="M6.134 14.564c-.22.342-.398.71-.527 1.092h1.987v-2.561a4.988 4.988 0 0 0-1.46 1.47Zm10.273-1.47v2.562h1.988a4.96 4.96 0 0 0-1.988-2.562Zm-1.5-5.622-2.906-3.445-2.907 3.445v8.184h5.813V7.472ZM12.001 10.5a1.125 1.125 0 0 1 0-2.25 1.125 1.125 0 0 1 0 2.25Z" fill="#F85A00" fill-opacity=".05"/>
    <path d="M20.25 17.25a6.56 6.56 0 0 0-3.75-5.927V7.437c0-.354-.124-.696-.354-.966l-3.572-4.235a.749.749 0 0 0-1.148 0L7.854 6.47a1.5 1.5 0 0 0-.354.966v3.886a6.56 6.56 0 0 0-3.75 5.927h3.668a1.81 1.81 0 0 0-.082.558 2.276 2.276 0 0 0 1.512 2.142A3.417 3.417 0 0 0 12 22.031c.682 0 1.343-.201 1.908-.581.553-.37.982-.888 1.242-1.5.396-.14.746-.388 1.01-.715.324-.404.5-.907.502-1.425 0-.197-.026-.384-.073-.558l3.661-.002ZM7.594 15.656H5.606a4.987 4.987 0 0 1 1.987-2.562v2.562Zm1.5-4.333V7.472L12 4.027l2.906 3.445v8.184H9.094v-4.333Zm5.627 7.057a.632.632 0 0 1-.4.08l-.458-.057-.065.455A1.825 1.825 0 0 1 12 20.416c-.898 0-1.671-.67-1.798-1.558l-.065-.457-.457.058a.66.66 0 0 1-.731-.654c0-.248.138-.454.342-.557h5.42a.619.619 0 0 1 .343.557.665.665 0 0 1-.333.575Zm1.685-2.724v-2.562a4.958 4.958 0 0 1 1.988 2.562h-1.988Z" fill="#F85A00"/>
    <path d="M10.875 9.375a1.125 1.125 0 1 0 2.25 0 1.125 1.125 0 0 0-2.25 0Z" fill="#F85A00"/>
</svg>
