<svg width="24" height="24" fill="none" xmlns="http://www.w3.org/2000/svg">
    <path fill="#fff" d="M0 0h24v24H0z"/>
    <path fill-rule="evenodd" clip-rule="evenodd" d="M8.548 2.703a.75.75 0 0 1 .698-.453l1.696.02a.75.75 0 0 1 .687.47l.718 1.78 1.785-.712a.75.75 0 0 1 .813.172l1.187 1.212a.75.75 0 0 1 .154.817l-.735 1.73 1.737.724a.75.75 0 0 1 .462.692v1.696a.75.75 0 0 1-.462.692l-1.777.74.733 1.78a.75.75 0 0 1-.163.816l-1.2 1.2a.75.75 0 0 1-.816.162l-1.796-.74-.754 1.79a.75.75 0 0 1-.694.459l-1.696-.006a.75.75 0 0 1-.69-.465L7.7 15.5l-1.783.727a.75.75 0 0 1-.815-.166l-1.195-1.203a.75.75 0 0 1-.16-.817l.746-1.793-1.787-.76a.75.75 0 0 1-.456-.697l.013-1.695a.75.75 0 0 1 .467-.689l1.78-.725-.719-1.782a.75.75 0 0 1 .17-.815l1.207-1.19a.75.75 0 0 1 .817-.157l1.794.753.77-1.787Zm1.18 1.053-.865 2.01a.75.75 0 0 1-.98.395l-2.018-.848-.496.488.812 2.012a.75.75 0 0 1-.413.975l-2.009.819-.005.695 2.011.856a.75.75 0 0 1 .4.978l-.84 2.018.49.494 2.011-.82a.75.75 0 0 1 .977.41l.827 2.007.697.003.848-2.014a.75.75 0 0 1 .977-.402l2.022.832.492-.492-.827-2.008a.75.75 0 0 1 .405-.978l2.006-.835v-.696l-1.973-.821a.75.75 0 0 1-.402-.986l.835-1.965-.487-.497-2.014.804a.75.75 0 0 1-.974-.416l-.81-2.01-.697-.008Z" fill="#42494D"/>
    <path fill-rule="evenodd" clip-rule="evenodd" d="m19.71 10.883-.487-.497a.5.5 0 0 1 .008-.707l.357-.35a.5.5 0 0 1 .707.008l.837.854a.75.75 0 0 1 .154.818l-.735 1.73 1.737.724a.75.75 0 0 1 .462.692v1.696a.75.75 0 0 1-.462.692l-1.777.74.733 1.78a.75.75 0 0 1-.163.816l-1.2 1.2a.75.75 0 0 1-.816.162l-1.796-.74-.754 1.79a.75.75 0 0 1-.694.459l-1.696-.007a.75.75 0 0 1-.69-.464L12.7 20.5l-1.32.538a.5.5 0 0 1-.651-.274l-.189-.463a.5.5 0 0 1 .275-.652l2.011-.82a.75.75 0 0 1 .976.41l.829 2.007.696.003.848-2.014a.75.75 0 0 1 .977-.402l2.022.832.492-.492-.827-2.008a.75.75 0 0 1 .405-.978l2.006-.835v-.696l-1.973-.821a.75.75 0 0 1-.402-.986l.835-1.965Z" fill="#42494D"/>
    <path d="M11.5 10a1.5 1.5 0 1 1-3 0 1.5 1.5 0 0 1 3 0Z" fill="#42494D"/>
</svg>
