<svg width="24" height="24" fill="none" xmlns="http://www.w3.org/2000/svg">
    <path d="m3.398 2.25 1.547 17.498 7.05 2.002 7.022-2.002L20.595 2.25H3.398Zm14.318 16.42-5.72 1.632-5.748-1.632L4.92 3.642H19.07L17.716 18.67Z" fill="#F85A00"/>
    <path d="M4.92 3.642 6.247 18.67l5.747 1.631 5.721-1.63 1.355-15.029H4.919Zm12.43 2.763-.112 1.107-.04.457H8.946l.192 2.208h2.838v-.005h5.032l-.075.57-.497 5.676-.04.382-4.399 1.212v.009h-.04l-4.42-1.219-.265-3.391h2.133l.152 1.715 2.4.65h.02v-.005l2.4-.65.266-2.777h-2.646v.003h-4.84l-.532-5.942-.04-.57H17.39l-.04.57Z" fill="#F85A00" fill-opacity=".05"/>
    <path d="m6.586 5.836.04.57.532 5.94h4.84v-.002h2.646l-.267 2.778-2.4.65v.004h-.02l-2.4-.65-.152-1.715H7.273l.264 3.391 4.42 1.22h.04v-.01l4.4-1.212.04-.382.497-5.677.075-.57h-5.032v.006H9.138l-.192-2.208h8.252l.04-.457.113-1.107.04-.57H6.586Z" fill="#F85A00"/>
</svg>
