<svg width="24" height="24" fill="none" xmlns="http://www.w3.org/2000/svg">
    <path d="M20.625 2.625H3.375a.75.75 0 0 0-.75.75v17.25c0 .415.335.75.75.75h17.25a.75.75 0 0 0 .75-.75V3.375a.75.75 0 0 0-.75-.75Zm-8.227 4.673a1.18 1.18 0 0 1 1.18-1.18c.65 0 1.178.529 1.178 1.18v3.15a1.18 1.18 0 0 1-1.179 1.182 1.18 1.18 0 0 1-1.179-1.182v-3.15Zm-3.925 6.3a1.18 1.18 0 0 1-2.014.835 1.18 1.18 0 0 1 .834-2.016h1.18v1.181Zm3.14 3.15a1.18 1.18 0 0 1-1.179 1.182 1.18 1.18 0 0 1-1.179-1.182v-3.15a1.18 1.18 0 0 1 2.014-.834c.222.223.344.523.344.834v3.15Zm-1.176-5.118h-3.14a1.18 1.18 0 0 1 0-2.363h3.14a1.18 1.18 0 0 1 0 2.363Zm0-3.15a1.18 1.18 0 0 1-1.18-1.182 1.18 1.18 0 0 1 1.18-1.18c.651 0 1.179.529 1.179 1.18V8.48h-1.18Zm3.14 9.45a1.18 1.18 0 0 1-1.179-1.182v-1.18h1.18a1.18 1.18 0 0 1 0 2.362Zm3.141-3.15h-3.14a1.18 1.18 0 0 1-1.18-1.182 1.18 1.18 0 0 1 1.18-1.18h3.14a1.18 1.18 0 0 1 0 2.362Zm0-3.15h-1.179v-1.182a1.18 1.18 0 0 1 1.179-1.18 1.18 1.18 0 0 1 0 2.362Z" fill="#42494D"/>
</svg>
