<svg width="24" height="24" fill="none" xmlns="http://www.w3.org/2000/svg">
    <path d="M20.625 2.625H3.375a.75.75 0 0 0-.75.75v17.25c0 .415.335.75.75.75h17.25a.75.75 0 0 0 .75-.75V3.375a.75.75 0 0 0-.75-.75ZM8.187 18.602H5.405V9.654h2.782v8.948ZM6.797 8.43a1.612 1.612 0 1 1 0-3.224 1.612 1.612 0 0 1 0 3.224Zm11.805 10.172h-2.78V14.25c0-1.038-.018-2.372-1.445-2.372-1.447 0-1.67 1.13-1.67 2.297v4.427H9.93V9.654h2.668v1.223h.037c.37-.703 1.277-1.446 2.632-1.446 2.817 0 3.335 1.854 3.335 4.264v4.907Z" fill="#42494D"/>
</svg>
