<svg width="24" height="24" fill="none" xmlns="http://www.w3.org/2000/svg">
    <path d="M20.03 8.686c-.232-.924.232-2.396 1.72-2.916l-1.591-.084s-.603-2.11-3.366-2.297c-2.761-.19-4.568-.07-4.57-.07.002 0 2.048 1.303 1.228 3.625-.6 1.23-1.542 2.241-2.55 3.392-.03.03-.059.06-.082.086-3.333 3.758-8.569 9.734-8.569 9.734 5.763 1.51 9.626-.147 11.91-2.135.481-.005.842-.007 1.086-.007 3.183 0 5.873-2.756 5.763-5.822-.075-2.107-.747-2.583-.98-3.506Zm-4.784 7.828c-.248 0-.614.002-1.097.007l-.553.005-.417.363a9.401 9.401 0 0 1-4.017 2.053c-1.23.295-2.578.38-4.048.225l1.298-1.479c2.157-2.451 4.074-4.629 5.553-6.293l.033-.033.03-.035a82.597 82.597 0 0 0 1.153-1.329c.72-.86 1.224-1.589 1.617-2.395l.038-.077.028-.08c.321-.91.361-1.802.145-2.644.528.017 1.09.045 1.68.085.781.054 1.302.302 1.667.684a1.861 1.861 0 0 1 .368.555l.117.415c-.368.809-.466 1.718-.267 2.513.07.276.162.525.288.806.05.11.223.471.258.546.242.532.361 1.008.392 1.845.077 2.217-1.939 4.263-4.266 4.263Z" fill="#42494D"/>
</svg>
