<svg width="24" height="24" fill="none" xmlns="http://www.w3.org/2000/svg">
    <path d="M20.711 13.56a8.971 8.971 0 0 0 .148-1.604 8.814 8.814 0 0 0-2.595-6.26 8.807 8.807 0 0 0-2.815-1.897 8.795 8.795 0 0 0-3.445-.696c-.562 0-1.127.054-1.676.16a5.276 5.276 0 0 0-2.463-.615c-1.4 0-2.716.547-3.705 1.536a5.209 5.209 0 0 0-1.536 3.705c0 .89.23 1.767.659 2.54a8.983 8.983 0 0 0-.134 1.527c0 1.195.235 2.355.696 3.445a8.807 8.807 0 0 0 1.897 2.815 8.807 8.807 0 0 0 2.814 1.896 8.795 8.795 0 0 0 4.997.558c.785.442 1.671.68 2.578.68a5.2 5.2 0 0 0 3.706-1.536 5.2 5.2 0 0 0 1.535-3.705 5.214 5.214 0 0 0-.66-2.548ZM12.04 17.38c-3.145 0-4.551-1.547-4.551-2.705 0-.595.438-1.01 1.043-1.01 1.345 0 .998 1.934 3.508 1.934 1.287 0 1.997-.699 1.997-1.414 0-.428-.21-.907-1.06-1.115l-2.798-.699c-2.252-.564-2.662-1.783-2.662-2.927 0-2.377 2.238-3.27 4.34-3.27 1.936 0 4.22 1.072 4.22 2.497 0 .611-.53.965-1.135.965-1.149 0-.938-1.589-3.251-1.589-1.148 0-1.784.52-1.784 1.263 0 .743.907.98 1.695 1.16l2.072.46c2.269.506 2.843 1.83 2.843 3.077 0 1.93-1.484 3.373-4.477 3.373Z" fill="#42494D"/>
</svg>
