<svg width="24" height="24" fill="none" xmlns="http://www.w3.org/2000/svg">
    <path d="M12 1.5C6.202 1.5 1.5 6.202 1.5 12S6.202 22.5 12 22.5 22.5 17.798 22.5 12 17.798 1.5 12 1.5ZM7.4 6.832a1.158 1.158 0 1 1 .005 2.316 1.158 1.158 0 0 1-.006-2.316Zm1.2 6.715c-.32.991-.24.626-1.51 3.387l-1.84-1.149s2.055-1.87 2.475-2.723c.45-.9-.495-1.38-.495-1.38l-1.41-.88.766-1.176c1.064.79 1.141.858 1.856 1.575.558.56.485 1.331.157 2.346Zm10.012 1.289c-.359 3.37-4.744 2.116-4.744 2.116l.239-.963 1.015.218c1.875.117 1.694-1.521 1.694-1.521V9.914c.015-1.812-1.701-2.002-4.785-.898l.717.195c-.059.21-.293.544-.591.905h4.125v.834h-2.323v1.043h2.314v.837h-2.314v1.748c.35-.112.67-.27.95-.48l-.204-.762 1.09-.338.909 2.225-1.343.56-.24-.886c-.6.457-1.846 1.125-4.026 1.064-2.325.06-1.727-2.625-1.727-2.625l.059-.03h1.636c-.012.344-.155.907.04 1.214.159.253.566.295.827.307.03.002.06.002.091.002v-2H9.654v-.836h2.367V10.95h-.607c-.532.565-1.02 1.034-1.02 1.034l-.717-.626c.509-.537 1.015-1.385 1.332-1.95-.256.103-.516.215-.788.333-.262.335-.567.68-.907 1.02.012.018-1.172-.666-1.172-.666 1.224-1.041 1.908-3.28 1.908-3.28l1.7.479s-.14.328-.432.834c6.804-1.929 7.205 1.184 7.205 1.184s.447 2.151.089 5.524Z" fill="#42494D"/>
</svg>
