<svg width="24" height="24" fill="none" xmlns="http://www.w3.org/2000/svg">
    <path d="M20.154 15.97h-.33c-.636 0-1.154.52-1.154 1.156v.33c0 .635.52 1.156 1.153 1.156h.33c.636 0 1.154-.52 1.154-1.156v-.33c0-.635-.52-1.156-1.153-1.156ZM9.436 5.414c-4.369 0-7.913 2.953-7.913 6.598 0 3.644 3.544 6.597 7.913 6.597s7.912-2.953 7.912-6.597c0-3.645-3.541-6.598-7.912-6.598Zm0 11.883c-3.691 0-6.6-2.424-6.6-5.285 0-1.46.757-2.806 1.99-3.774v1.135h.867l3.745 3.747v1.53H7.46v1.32h5.276v-1.32h-1.978v-1.53l2.426-2.428h1.53v-1.32h-3.956v1.531l-.659.659L7.91 9.37h.867V8.05H5.072C6.23 7.23 7.75 6.725 9.436 6.725c3.694 0 6.6 2.424 6.6 5.285 0 2.862-2.906 5.288-6.6 5.288ZM21.968 5.414h-2.64a.631.631 0 0 0-.634.659L19 14.65h1.978l1.533-8.588a.535.535 0 0 0-.544-.649Z" fill="#42494D"/>
</svg>
