<svg width="24" height="24" fill="none" xmlns="http://www.w3.org/2000/svg">
    <path d="M18.492 14.304c-.907-.302-2.126-.767-3.48-1.256a18.182 18.182 0 0 0 1.891-4.772h-4.47V6.668h5.476V5.77h-5.475V3.094h-2.236c-.392 0-.392.386-.392.386v2.293H4.27v.897H9.81v1.608H5.236v.898h8.869a15.637 15.637 0 0 1-1.278 3.115c-2.878-.947-5.948-1.716-7.877-1.243-1.233.305-2.027.847-2.496 1.414-2.142 2.601-.607 6.553 3.919 6.553 2.674-.003 5.252-1.493 7.249-3.945 2.979 1.43 8.878 3.884 8.878 3.884v-3.5s-.74-.058-4.008-1.15ZM5.951 17.498c-3.527 0-4.57-2.772-2.827-4.291.582-.513 1.646-.764 2.213-.82 2.095-.207 4.036.59 6.326 1.706-1.613 2.098-3.664 3.405-5.712 3.405Z" fill="#42494D"/>
</svg>
