<svg width="24" height="24" fill="none" xmlns="http://www.w3.org/2000/svg">
    <path d="M11.686 10.125A36.855 36.855 0 0 0 9.548 6.79a5.786 5.786 0 0 0-3.192 4.036c.258.005 2.635.016 5.33-.701Zm1.559.51a17.997 17.997 0 0 1 .506 1.133c1.917-.241 3.825.145 4.015.185a5.744 5.744 0 0 0-1.301-3.593c-.124.167-1.09 1.406-3.22 2.276Zm7.38-8.01H3.375a.75.75 0 0 0-.75.75v17.25c0 .415.335.75.75.75h17.25a.75.75 0 0 0 .75-.75V3.375a.75.75 0 0 0-.75-.75ZM12 18.75A6.758 6.758 0 0 1 5.25 12 6.758 6.758 0 0 1 12 5.25 6.758 6.758 0 0 1 18.75 12 6.758 6.758 0 0 1 12 18.75Zm2.102-6.073a24.748 24.748 0 0 1 1.12 4.111 5.766 5.766 0 0 0 2.471-3.865c-.197-.06-1.784-.534-3.59-.246Zm-1.699-.618c.075-.024.15-.047.227-.068a19.654 19.654 0 0 0-.466-.978c-2.878.863-5.674.825-5.925.82-.002.06-.002.118-.002.176a5.74 5.74 0 0 0 1.481 3.856c.129-.225 1.71-2.845 4.685-3.806Zm3.42-4.364a5.747 5.747 0 0 0-5.175-1.292c.159.213 1.207 1.638 2.151 3.375 2.051-.769 2.918-1.936 3.024-2.083Zm-2.839 5.261c-3.25 1.132-4.42 3.39-4.523 3.6A5.738 5.738 0 0 0 12 17.773c.8 0 1.56-.162 2.252-.457a23.962 23.962 0 0 0-1.23-4.374l-.038.014Z" fill="#42494D"/>
</svg>
