<svg width="24" height="24" fill="none" xmlns="http://www.w3.org/2000/svg">
    <path d="M10.162 13.948c-.332-.139-.759.004-.965.325-.206.324-.11.708.218.858.335.153.778.007.984-.323.207-.335.099-.717-.236-.86ZM20.625 2.625H3.375a.75.75 0 0 0-.75.75v17.25c0 .415.335.75.75.75h17.25a.75.75 0 0 0 .75-.75V3.375a.75.75 0 0 0-.75-.75ZM10.959 17.25c-2.683 0-5.428-1.303-5.428-3.448 0-1.12.708-2.416 1.93-3.64 1.628-1.63 3.529-2.376 4.244-1.659.316.317.347.863.143 1.514-.106.328.307.148.307.148 1.317-.553 2.465-.586 2.885.016.225.321.201.769-.005 1.292-.096.239.03.276.211.33.743.23 1.568.788 1.568 1.77.005 1.629-2.337 3.677-5.855 3.677Zm4.859-6.816a.819.819 0 0 0-.523-1.029.813.813 0 0 0-.422-.02.427.427 0 1 1-.178-.837 1.663 1.663 0 0 1 1.587.513c.415.46.525 1.085.35 1.636a.422.422 0 0 1-.372.294.425.425 0 0 1-.311-.1.427.427 0 0 1-.131-.457Zm2.484.804s0 .003 0 0a.494.494 0 0 1-.912.075.497.497 0 0 1-.03-.38 2.439 2.439 0 0 0-2.827-3.138.496.496 0 0 1-.208-.97 3.432 3.432 0 0 1 3.977 4.413Zm-7.84.143c-2.142.211-3.766 1.526-3.625 2.935.138 1.408 1.987 2.379 4.13 2.168 2.142-.214 3.766-1.526 3.625-2.937-.138-1.409-1.987-2.379-4.13-2.166Zm1.88 3.321c-.438.992-1.694 1.52-2.76 1.175-1.03-.333-1.466-1.353-1.016-2.27.443-.9 1.594-1.408 2.614-1.143 1.054.274 1.593 1.27 1.162 2.238Zm-1.362-1.094c-.126-.052-.286.011-.36.136-.073.126-.033.27.096.323.129.054.295-.007.37-.136.07-.131.023-.276-.106-.323Z" fill="#42494D"/>
</svg>
