<svg width="24" height="24" fill="none" xmlns="http://www.w3.org/2000/svg">
    <path d="M12 7.193A4.8 4.8 0 0 0 7.193 12 4.8 4.8 0 0 0 12 16.807 4.8 4.8 0 0 0 16.807 12 4.8 4.8 0 0 0 12 7.193Zm0 7.931A3.13 3.13 0 0 1 8.876 12 3.13 3.13 0 0 1 12 8.876 3.13 3.13 0 0 1 15.124 12 3.13 3.13 0 0 1 12 15.124Zm5.004-9.248a1.121 1.121 0 1 0 0 2.245 1.12 1.12 0 0 0 1.037-1.553 1.12 1.12 0 0 0-1.037-.692ZM21.37 12c0-1.294.012-2.576-.06-3.867-.073-1.5-.416-2.832-1.512-3.929-1.1-1.099-2.429-1.439-3.929-1.511-1.293-.073-2.575-.061-3.867-.061-1.293 0-2.576-.012-3.867.06-1.5.073-2.831.416-3.928 1.512-1.1 1.1-1.44 2.429-1.512 3.929-.072 1.293-.06 2.575-.06 3.867 0 1.291-.012 2.576.06 3.867.073 1.5.415 2.831 1.512 3.928 1.1 1.1 2.428 1.44 3.928 1.512 1.294.073 2.576.06 3.867.06 1.294 0 2.576.012 3.867-.06 1.5-.073 2.832-.415 3.928-1.512 1.1-1.1 1.44-2.428 1.512-3.928.075-1.291.061-2.574.061-3.867Zm-2.062 5.526A2.98 2.98 0 0 1 18.6 18.6a3 3 0 0 1-1.074.708c-1.232.49-4.16.38-5.526.38-1.367 0-4.296.11-5.529-.378a2.978 2.978 0 0 1-1.073-.708 2.999 2.999 0 0 1-.708-1.073c-.488-1.235-.378-4.163-.378-5.53 0-1.366-.11-4.295.378-5.528.17-.427.377-.745.708-1.074A3.03 3.03 0 0 1 6.47 4.69c1.233-.488 4.162-.378 5.529-.378 1.366 0 4.296-.11 5.529.378.426.17.745.377 1.073.707.33.33.537.647.708 1.074.488 1.233.377 4.162.377 5.529 0 1.366.11 4.294-.38 5.526Z" fill="#42494D"/>
</svg>
