<svg width="24" height="24" fill="none" xmlns="http://www.w3.org/2000/svg">
    <path d="M20.349 8.845a8.816 8.816 0 0 0-1.904-2.826 8.842 8.842 0 0 0-2.824-1.903 8.804 8.804 0 0 0-3.457-.699 8.83 8.83 0 0 0-2.857.469C7.172 2.89 4.707 2.812 4 2.812c-.052 0-.174 0-.22.005a.847.847 0 0 0-.685.385.863.863 0 0 0-.08.785l1.507 3.787a8.873 8.873 0 0 0-1.237 4.528 8.79 8.79 0 0 0 .698 3.46 8.766 8.766 0 0 0 1.903 2.824 8.842 8.842 0 0 0 2.825 1.903 8.803 8.803 0 0 0 3.454.698 8.828 8.828 0 0 0 3.462-.698 8.82 8.82 0 0 0 2.822-1.903 8.888 8.888 0 0 0 2.601-6.286 8.872 8.872 0 0 0-.7-3.455Zm-7.622 1.852a.87.87 0 0 1-1.74 0V9.405a.87.87 0 0 1 1.74 0v1.292Zm4.106 0a.87.87 0 0 1-1.74 0V9.405a.87.87 0 0 1 1.74 0v1.292Z" fill="#42494D"/>
</svg>
