<svg width="24" height="24" fill="none" xmlns="http://www.w3.org/2000/svg">
    <path d="M21.968 5.414h-2.64a.631.631 0 0 0-.634.659L19 14.65h1.978l1.533-8.588a.535.535 0 0 0-.544-.649ZM20.154 15.97h-.33c-.636 0-1.154.52-1.154 1.156v.33c0 .635.52 1.156 1.153 1.156h.33c.636 0 1.154-.52 1.154-1.156v-.33c0-.635-.52-1.156-1.153-1.156ZM9.436 5.414c-4.369 0-7.913 2.953-7.913 6.598 0 3.644 3.544 6.597 7.913 6.597s7.912-2.953 7.912-6.597c0-3.645-3.541-6.598-7.912-6.598Zm5.278 5.278h-1.53l-2.428 2.428v1.53h1.978v1.32H7.458v-1.32h1.978v-1.53L5.693 9.373h-.867v-1.32h3.949v1.32h-.867l2.189 2.191.659-.659v-1.53h3.956v1.317h.002Z" fill="#42494D"/>
</svg>
