<svg width="24" height="24" fill="none" xmlns="http://www.w3.org/2000/svg">
    <path d="M12 2.25c-5.377 0-9.75 4.373-9.75 9.75s4.373 9.75 9.75 9.75 9.75-4.373 9.75-9.75S17.377 2.25 12 2.25Zm6.448 4.495a8.279 8.279 0 0 1 1.88 5.19c-.275-.06-3.029-.617-5.8-.268a25.547 25.547 0 0 0-.731-1.636c3.078-1.258 4.475-3.047 4.65-3.286ZM12 3.685c2.116 0 4.05.794 5.52 2.097-.15.213-1.404 1.898-4.364 3.01a44.092 44.092 0 0 0-3.108-4.876A8.298 8.298 0 0 1 12 3.684Zm-3.541.792c.22.3 1.708 2.364 3.086 4.816-3.895 1.034-7.326 1.02-7.699 1.015A8.363 8.363 0 0 1 8.46 4.477Zm-4.786 7.535c0-.085.002-.171.004-.256.364.007 4.4.059 8.56-1.186.239.467.466.94.675 1.414-.11.03-.22.063-.328.098-4.296 1.392-6.582 5.177-6.771 5.498a8.3 8.3 0 0 1-2.14-5.568ZM12 20.339c-1.927 0-3.7-.656-5.112-1.758.15-.307 1.835-3.562 6.532-5.2l.054-.02c1.17 3.038 1.653 5.586 1.777 6.317A8.215 8.215 0 0 1 12 20.34Zm4.652-1.423c-.084-.506-.527-2.943-1.617-5.936 2.611-.418 4.903.267 5.187.356a8.333 8.333 0 0 1-3.57 5.58Z" fill="#42494D"/>
</svg>
