<svg width="24" height="24" fill="none" xmlns="http://www.w3.org/2000/svg">
    <path d="M21.75 12.007V12A9.749 9.749 0 0 0 12 2.25 9.749 9.749 0 0 0 2.25 12v.01A9.749 9.749 0 0 0 12 21.76a9.749 9.749 0 0 0 9.75-9.75v-.008.005Zm-.157-1.748.014.077-.014-.077Zm-5.733 4.699c1.254-1.927 1.23-4.44-.26-6.18l3.806-.198a8.156 8.156 0 0 1-6.916 11.562l3.37-5.184Zm-3.86.33a3.284 3.284 0 0 1-3.286-3.286A3.28 3.28 0 0 1 12 8.716a3.286 3.286 0 1 1 0 6.572Zm8.653-7.774-.07-.134.07.134ZM12 3.844a8.147 8.147 0 0 1 6.806 3.66l-6.178-.325c-2.285-.134-4.458 1.153-5.21 3.307L5.339 7.289A8.155 8.155 0 0 1 12 3.844ZM2.402 13.73a9.749 9.749 0 0 1 0 0ZM3.844 12c0-1.31.31-2.548.858-3.645l2.805 5.518c1.034 2.032 3.22 3.274 5.484 2.85l-1.734 3.4A8.158 8.158 0 0 1 3.844 12Zm7.61 9.736c.094.005.187.01.281.012l-.281-.012Z" fill="#42494D"/>
</svg>
