<svg width="24" height="24" fill="none" xmlns="http://www.w3.org/2000/svg">
    <path d="M20.613 11.025c-.007-.633-.01-1.27-.011-1.905h-1.894a495.97 495.97 0 0 0-.017 1.905c-.637.003-1.27.007-1.903.014v1.896c.633.008 1.27.012 1.903.02.008.632.008 1.267.012 1.9H20.6l.012-1.905c.637-.007 1.27-.01 1.903-.017v-1.896c-.63-.005-1.268-.005-1.9-.012Zm-12.422.01c-.002.757 0 1.516.003 2.273 1.27.042 2.543.024 3.813.042-.56 2.82-4.392 3.734-6.42 1.892-2.085-1.615-1.987-5.157.181-6.656 1.516-1.21 3.67-.912 5.187.135a23.835 23.835 0 0 0 1.69-1.75C11.384 5.965 9.837 5.248 8.19 5.323c-3.435-.115-6.593 2.895-6.649 6.333-.22 2.81 1.627 5.564 4.233 6.558 2.597 1 5.927.318 7.587-2.016 1.094-1.474 1.331-3.373 1.202-5.156a578.57 578.57 0 0 0-6.373-.007Z" fill="#42494D"/>
</svg>
