<svg width="24" height="24" fill="none" xmlns="http://www.w3.org/2000/svg">
    <path d="m21.368 9.03-.007-.035c-.005-.023-.007-.044-.014-.068-.005-.014-.01-.025-.012-.04-.007-.018-.011-.04-.02-.058l-.02-.04-.028-.054c-.007-.012-.014-.026-.023-.037a.696.696 0 0 0-.134-.16c-.014-.014-.03-.026-.044-.037a.53.53 0 0 0-.038-.028l-.014-.01-8.566-5.702a.804.804 0 0 0-.893 0L2.984 8.468c-.005.002-.01.007-.014.01a.521.521 0 0 1-.038.027c-.016.012-.03.026-.044.038-.012.01-.021.021-.033.03-.014.014-.028.028-.04.045a.553.553 0 0 0-.061.084c-.007.012-.016.024-.023.038-.01.016-.02.035-.029.054-.007.011-.011.025-.018.04l-.021.058c-.005.014-.01.026-.012.04L2.637 9l-.007.035a.798.798 0 0 0-.007.106v5.707c0 .035.002.07.007.105l.007.035.014.068.012.04.02.059c.005.014.012.025.02.04.009.018.016.035.028.053.007.012.014.026.023.038.012.016.021.033.035.05l.028.034a.71.71 0 0 0 .073.075c.014.014.03.026.045.038.011.01.023.018.037.028.005.002.01.007.014.01l8.569 5.706a.8.8 0 0 0 .895 0l8.569-5.707c.005-.002.01-.007.014-.01a.482.482 0 0 1 .037-.027c.017-.012.03-.026.045-.038l.033-.03a.358.358 0 0 0 .04-.045l.028-.035.035-.05c.007-.01.016-.023.023-.037.01-.018.02-.035.028-.053.008-.012.012-.026.02-.04l.02-.059a.2.2 0 0 0 .012-.04c.007-.02.01-.044.014-.068l.007-.035a.796.796 0 0 0 .007-.105V9.136c-.007-.035-.01-.07-.014-.106Zm-8.562-4.096 6.315 4.204-2.82 1.885-3.492-2.335V4.934h-.003Zm-1.612 0v3.754l-3.492 2.335-2.82-1.885 6.312-4.204Zm-6.959 5.709 2.016 1.348-2.016 1.347v-2.695Zm6.959 8.402-6.312-4.204 2.82-1.885 3.492 2.335v3.754ZM12 13.894 9.15 11.99 12 10.085l2.85 1.903L12 13.894Zm.806 5.151v-3.754l3.493-2.335 2.82 1.885-6.313 4.204Zm6.959-5.71-2.016-1.347 2.016-1.347v2.695Z" fill="#42494D"/>
</svg>
