<svg width="24" height="24" fill="none" xmlns="http://www.w3.org/2000/svg">
    <path d="M10.507 5.278a.723.723 0 0 0-.75.748c0 .433.316.747.75.747.436 0 .75-.314.75-.747a.723.723 0 0 0-.75-.748Zm9.232 2.26a1.748 1.748 0 0 0-1.247-.504c-.091 0-.173.009-.25.023v-.023h-.085a5.024 5.024 0 0 0-.893-2.049 5.792 5.792 0 0 0-1.66-1.52l.589-.84v-.077c0-.02.01-.054.016-.09.014-.056.033-.128.033-.208a.725.725 0 0 0-.75-.748c-.23 0-.457.134-.607.361l-.687.987A7.165 7.165 0 0 0 12 2.498c-.734 0-1.493.122-2.199.352l-.684-.99c-.155-.224-.377-.36-.61-.36a.723.723 0 0 0-.75.748c0 .145.06.3.158.407l.53.758a5.669 5.669 0 0 0-1.693 1.525 4.749 4.749 0 0 0-.86 2.049h-.129v.023a1.75 1.75 0 0 0-1.495.476 1.74 1.74 0 0 0-.504 1.242v5.508c0 .476.176.916.501 1.24.324.323.77.504 1.247.504.092 0 .174-.01.251-.024v2.192c0 .684.56 1.244 1.247 1.244h.748v1.367c0 .475.175.916.501 1.24.324.323.769.503 1.247.503a1.75 1.75 0 0 0 1.245-.499 1.74 1.74 0 0 0 .504-1.242v-1.364h1.495v1.362c0 .475.176.916.501 1.24.324.323.77.503 1.247.503a1.723 1.723 0 0 0 1.749-1.748V19.39h.747c.687 0 1.247-.558 1.247-1.245v-2.142c.075.014.157.024.251.024a1.75 1.75 0 0 0 1.245-.5 1.74 1.74 0 0 0 .504-1.242V8.777a1.751 1.751 0 0 0-.502-1.24Zm-13.974 6.75c0 .159-.09.248-.25.248s-.251-.09-.251-.248v-5.51c0-.16.091-.25.25-.25.16 0 .251.09.251.25v5.51Zm3.073-9.3c.879-.64 2-.992 3.164-.992 1.165 0 2.285.354 3.164.996.76.556 1.27 1.27 1.47 2.051H7.369c.199-.783.714-1.5 1.47-2.056ZM9.76 20.8c-.014.131-.103.204-.246.204-.16 0-.25-.09-.25-.249v-1.364h.496v1.409Zm4.742.204c-.16 0-.251-.09-.251-.249v-1.364h.497v1.409c-.014.131-.101.204-.246.204Zm2.245-3.108H7.263V8.53h9.483v9.366Zm1.997-3.61c0 .16-.092.249-.251.249-.16 0-.25-.09-.25-.248v-5.51c0-.16.09-.25.25-.25s.25.09.25.25v5.51Zm-5.24-9.009a.723.723 0 0 0-.75.748c0 .433.316.747.75.747a.726.726 0 0 0 .752-.75c-.003-.435-.315-.745-.753-.745Z" fill="#42494D"/>
</svg>
