<svg width="24" height="24" fill="none" xmlns="http://www.w3.org/2000/svg">
    <path d="M9.595 3c-.993 0-1.797.806-1.797 1.8a1.799 1.799 0 0 0 1.798 1.8h1.797V4.8c0-.991-.804-1.798-1.798-1.8Zm0 4.8H4.798a1.8 1.8 0 0 0 0 3.6h4.795c.994 0 1.798-.806 1.798-1.8a1.796 1.796 0 0 0-1.796-1.8Zm4.796 3.6c.993 0 1.8-.806 1.797-1.8V4.8a1.798 1.798 0 1 0-3.595 0v4.8c0 .996.804 1.8 1.798 1.8Zm6.595-1.8a1.8 1.8 0 0 0-1.798-1.8 1.8 1.8 0 0 0-1.797 1.8v1.8h1.797a1.8 1.8 0 0 0 1.798-1.8Zm-1.8 3H14.39c-.994 0-1.798.806-1.798 1.8a1.799 1.799 0 0 0 1.798 1.8h4.795c.994 0 1.798-.806 1.798-1.8a1.798 1.798 0 0 0-1.798-1.8Zm-4.795 4.8h-1.798v1.8a1.797 1.797 0 1 0 3.595 0 1.798 1.798 0 0 0-1.797-1.8Zm-4.796-4.8c-.993 0-1.797.806-1.797 1.8v4.8a1.797 1.797 0 1 0 3.595 0v-4.8c0-.476-.19-.935-.525-1.273a1.803 1.803 0 0 0-1.273-.527ZM3 14.4a1.799 1.799 0 1 0 3.595 0v-1.8H4.798A1.8 1.8 0 0 0 3 14.4Z" fill="#42494D"/>
</svg>
