<svg width="24" height="24" fill="none" xmlns="http://www.w3.org/2000/svg">
    <path d="M6.33 17.383c0 .548.448.996 1 .996h1.14V21.2c0 .715.575 1.298 1.28 1.298.708 0 1.28-.581 1.28-1.298v-2.824h1.992v2.821c0 .715.574 1.299 1.28 1.299.708 0 1.28-.581 1.28-1.299v-2.821h1.141c.55 0 .998-.448.998-.996V8.118H6.331v9.265ZM14.7 3.318l1.053-1.523c.06-.09.047-.21-.036-.268-.082-.056-.199-.028-.26.061l-1.092 1.585a6.447 6.447 0 0 0-2.362-.441c-.842 0-1.643.157-2.363.44L8.548 1.592c-.06-.09-.178-.12-.26-.061-.082.056-.096.173-.035.267L9.305 3.32C7.632 4.098 6.46 5.573 6.31 7.295H17.7c-.154-1.725-1.329-3.199-3-3.977ZM9.598 5.72a.63.63 0 1 1 0-1.26.63.63 0 0 1 0 1.26Zm4.884 0a.63.63 0 1 1 0-1.261.63.63 0 0 1 0 1.261Zm5.236 2.36c-.707 0-1.28.582-1.28 1.299v5.072c0 .715.575 1.298 1.28 1.298.708 0 1.28-.581 1.28-1.298V9.377a1.283 1.283 0 0 0-1.28-1.297Zm-15.436 0c-.707 0-1.28.582-1.28 1.299v5.072c0 .715.575 1.298 1.28 1.298.708 0 1.28-.581 1.28-1.298V9.377c0-.718-.574-1.297-1.28-1.297Z" fill="#42494D"/>
</svg>
