<svg width="24" height="24" fill="none" xmlns="http://www.w3.org/2000/svg">
    <g clip-path="url(#a)">
        <path d="M12.122 13.841c0 .083 0 .102.056.154l.315.31v.013h-1.396v-.596a.971.971 0 0 1-.926.648c-.717 0-1.239-.569-1.239-1.615 0-.98.563-1.633 1.352-1.633a.825.825 0 0 1 .81.508v-1.317a.164.164 0 0 0-.063-.16l-.3-.291v-.013l1.39-.165v4.157Zm-1.025-.19v-1.964a.52.52 0 0 0-.416-.197c-.34 0-.667.31-.667 1.233 0 .864.283 1.17.635 1.17a.56.56 0 0 0 .448-.242Zm1.95.667v-2.652a.18.18 0 0 0-.056-.16l-.309-.321v-.014h1.396v2.69c0 .084 0 .103.056.154l.308.292v.013l-1.395-.002Zm-.05-4.117c0-.314.252-.568.562-.568.31 0 .562.254.562.568a.565.565 0 0 1-.562.569.565.565 0 0 1-.562-.569Zm4.847 3.634c0 .084 0 .108.057.16l.314.31v.013h-1.403v-.68a1.017 1.017 0 0 1-.961.732c-.623 0-.956-.459-.956-1.327 0-.418 0-.877.013-1.392a.162.162 0 0 0-.056-.154l-.309-.313v-.013h1.385v1.73c0 .568.082.947.434.947a.561.561 0 0 0 .454-.286v-1.895a.18.18 0 0 0-.056-.159l-.311-.324v-.013h1.396v2.664Zm4.753.483c0-.102.018-1.405.018-1.705 0-.568-.088-.96-.483-.96a.626.626 0 0 0-.497.272c.04.178.059.359.056.54 0 .395-.013.896-.018 1.399a.161.161 0 0 0 .056.153l.315.292v.013h-1.41c0-.095.02-1.406.02-1.705 0-.578-.089-.96-.479-.96a.561.561 0 0 0-.464.28v1.932c0 .084 0 .103.056.154l.307.292v.013H18.68v-2.653a.18.18 0 0 0-.056-.159l-.31-.331v-.014h1.397v.675c.13-.446.542-.745 1-.726.465 0 .78.262.913.758a1.088 1.088 0 0 1 1.05-.758c.622 0 .974.464.974 1.341 0 .42-.013.897-.019 1.399a.152.152 0 0 0 .064.153l.307.292v.013h-1.403Zm-17.538-.412.414.4v.012h-2.1v-.013l.422-.4a.162.162 0 0 0 .056-.153v-2.556c0-.108 0-.254.019-.379L2.453 14.37h-.017L.97 11.1c-.032-.081-.042-.087-.062-.142v2.143a.752.752 0 0 0 .07.419l.59.784v.013H0v-.013l.59-.786a.754.754 0 0 0 .07-.417v-2.368a.462.462 0 0 0-.098-.324l-.418-.548v-.013h1.5l1.255 2.768 1.105-2.768h1.467v.013l-.412.464a.164.164 0 0 0-.063.16v3.266a.152.152 0 0 0 .063.153Zm1.644-1.281v.013c0 .81.414 1.136.9 1.136a1.02 1.02 0 0 0 .955-.585h.013c-.169.802-.66 1.18-1.394 1.18-.793 0-1.54-.482-1.54-1.602 0-1.177.749-1.647 1.577-1.647.667 0 1.377.318 1.377 1.342v.163H6.703Zm0-.163h.924v-.165c0-.834-.171-1.056-.428-1.056-.31 0-.5.332-.5 1.22h.004Z" fill="#42494D"/>
    </g>
    <defs>
        <clipPath id="a">
            <path fill="#fff" d="M0 0h24v24H0z"/>
        </clipPath>
    </defs>
</svg>
