<svg width="24" height="24" fill="none" xmlns="http://www.w3.org/2000/svg">
    <path d="M7.233 12.79c-.464.047-1.338.25-1.814.67-1.43 1.242-.574 3.516 2.32 3.516 1.683 0 3.363-1.071 4.683-2.79-1.88-.911-3.471-1.565-5.19-1.396Zm10.793 1.57c2.346.783 3.626 1.008 3.907 1.05A10.45 10.45 0 0 0 22.5 12c0-5.798-4.702-10.5-10.5-10.5S1.5 6.202 1.5 12 6.202 22.5 12 22.5c3.654 0 6.872-1.868 8.754-4.7-1.772-.698-5.006-1.991-6.722-2.814-1.638 2.008-3.752 3.23-5.946 3.23-3.713 0-4.971-3.237-3.216-5.368.382-.464 1.036-.907 2.046-1.157 1.582-.387 4.102.241 6.462 1.017.424-.78.783-1.639 1.048-2.553H7.15v-.733h3.75V8.105H6.359V7.37H10.9V5.494s0-.317.32-.317h1.834v2.194h4.493v.734h-4.491v1.317h3.666a14.984 14.984 0 0 1-1.552 3.91c1.113.4 2.112.78 2.855 1.028Z" fill="#42494D"/>
</svg>
