<svg width="24" height="24" fill="none" xmlns="http://www.w3.org/2000/svg">
    <path d="M11.44 9.72V7.11l-4.388 2.921 1.96 1.308 2.428-1.62Zm5.955 3.227v-1.87l-1.401.935 1.401.935ZM12 1.5C6.202 1.5 1.5 6.202 1.5 12S6.202 22.5 12 22.5 22.5 17.798 22.5 12 17.798 1.5 12 1.5Zm6.516 12.492a.692.692 0 0 1-.01.096.33.33 0 0 1-.018.075l-.015.04c-.004.01-.009.019-.011.028l-.019.038a.156.156 0 0 1-.016.025l-.024.036-.019.023c-.009.01-.018.021-.028.03-.007.008-.014.015-.023.022a.18.18 0 0 1-.033.026c-.01.007-.016.014-.026.018-.002.003-.007.005-.01.007l-5.955 3.966a.551.551 0 0 1-.309.094.572.572 0 0 1-.312-.094l-5.955-3.963-.01-.007-.025-.02c-.012-.009-.021-.016-.03-.025a.35.35 0 0 1-.07-.075c-.01-.012-.018-.023-.025-.035-.004-.01-.011-.017-.016-.026a.28.28 0 0 1-.019-.037.146.146 0 0 1-.011-.028l-.014-.04c-.003-.01-.008-.02-.01-.029a.331.331 0 0 1-.01-.046l-.004-.024a.756.756 0 0 1-.005-.072v-3.966c0-.024.003-.05.005-.073.002-.007.002-.016.005-.023a.332.332 0 0 1 .019-.075l.014-.04c.004-.01.009-.019.011-.028a.28.28 0 0 1 .035-.063c.014-.022.029-.04.043-.059.009-.01.018-.021.028-.03.007-.008.014-.015.023-.022a.295.295 0 0 1 .03-.025l.026-.02.01-.006 5.955-3.963a.564.564 0 0 1 .621 0l5.956 3.963.01.007.025.019.033.025a.207.207 0 0 0 .023.021l.028.031c.017.019.03.037.043.059.004.009.011.016.016.025.007.012.014.024.019.038.004.01.01.019.011.028l.015.04c.002.01.006.019.009.028.005.016.007.03.01.047l.004.023c.002.024.005.05.005.073v3.963Zm-5.956.312v2.609l4.388-2.92-1.96-1.309-2.428 1.62Zm-5.955-3.227v1.87l1.401-.935-1.401-.935ZM12 10.69l-1.98 1.322L12 13.334l1.98-1.322L12 10.69Zm4.948-.659-4.388-2.92V9.72l2.428 1.62 1.96-1.309Zm-7.936 2.653-1.96 1.308 4.388 2.92v-2.608l-2.428-1.62Z" fill="#42494D"/>
</svg>
