<svg width="24" height="24" fill="none" xmlns="http://www.w3.org/2000/svg">
    <path d="M8.644 12c0 1.855 1.5 3.356 3.356 3.356 1.855 0 3.355-1.501 3.355-3.356S13.855 8.644 12 8.644A3.352 3.352 0 0 0 8.644 12Zm12.643-3.58-5.608.289c1.522 1.778 1.546 4.344.265 6.312l-4.5 6.922a9.912 9.912 0 0 0 5.534-1.322c4.309-2.489 6.056-7.71 4.309-12.202ZM7.41 13.911 3.665 6.545A9.942 9.942 0 0 0 2.042 12c0 4.978 3.646 9.102 8.411 9.832l2.56-5.012c-2.313.436-4.546-.832-5.602-2.908Zm5.23-6.833 8.243.433a9.97 9.97 0 0 0-3.91-4.136 9.863 9.863 0 0 0-5.01-1.333 9.953 9.953 0 0 0-7.71 3.698l3.069 4.713c.766-2.2 2.987-3.512 5.318-3.375Z" fill="#42494D"/>
</svg>
