<svg width="24" height="24" fill="none" xmlns="http://www.w3.org/2000/svg">
    <path d="m21.42 12.943-2.553-8.691V4.25c-.178-.537-.602-.856-1.132-.856-.548 0-.996.316-1.165.825l-1.673 4.992H9.112L7.44 4.22c-.169-.509-.616-.825-1.165-.825-.541 0-.996.347-1.134.858l-2.55 8.69a.896.896 0 0 0 .316.954l8.637 6.479c.06.084.145.147.244.182l.201.15.2-.15c.114-.04.21-.11.278-.208l8.635-6.455a.888.888 0 0 0 .319-.951Zm-3.802-8.41c.023-.042.068-.044.082-.044.026 0 .059.007.08.07l1.392 4.683h-3.129l1.575-4.709Zm-11.423.024c.02-.061.053-.068.08-.068.062 0 .067.002.079.04L7.93 9.243H4.84l1.355-4.687Zm-2.473 8.538.66-2.28 4.745 6.332-5.405-4.052Zm1.732-2.728h2.862l2.128 6.663-4.99-6.663Zm6.567 7.82-2.512-7.82h5.022l-2.51 7.82Zm3.7-7.82h2.802l-4.93 6.58 2.129-6.58Zm-.953 6.888 4.859-6.485.691 2.325-5.55 4.16Z" fill="#42494D"/>
</svg>
