<svg width="24" height="24" fill="none" xmlns="http://www.w3.org/2000/svg">
    <path d="M12 8.877A3.13 3.13 0 0 0 8.874 12a3.13 3.13 0 0 0 3.124 3.124 3.13 3.13 0 0 0 3.124-3.124A3.13 3.13 0 0 0 12 8.877ZM21.37 12c0-1.294.011-2.576-.062-3.867-.072-1.5-.414-2.832-1.511-3.929-1.1-1.099-2.428-1.439-3.928-1.511-1.294-.073-2.576-.061-3.867-.061-1.294 0-2.576-.012-3.868.06-1.5.073-2.831.416-3.928 1.512-1.1 1.1-1.439 2.429-1.512 3.929-.072 1.293-.06 2.575-.06 3.867 0 1.291-.012 2.575.06 3.867.073 1.5.415 2.831 1.512 3.928 1.1 1.1 2.428 1.44 3.928 1.512 1.294.072 2.576.06 3.867.06 1.294 0 2.576.012 3.868-.06 1.5-.073 2.83-.415 3.928-1.512 1.099-1.1 1.439-2.428 1.511-3.928.076-1.292.061-2.574.061-3.867ZM12 16.808A4.8 4.8 0 0 1 7.191 12 4.8 4.8 0 0 1 12 7.194 4.8 4.8 0 0 1 16.806 12 4.8 4.8 0 0 1 12 16.808Zm5.003-8.688a1.121 1.121 0 0 1-1.123-1.123c0-.621.502-1.123 1.123-1.123a1.121 1.121 0 0 1 .43 2.16 1.122 1.122 0 0 1-.43.085Z" fill="#42494D"/>
</svg>
