<svg width="24" height="24" fill="none" xmlns="http://www.w3.org/2000/svg">
    <path d="M22.5 11.934c0-.051 0-.11-.002-.178l-.012-.63a35.201 35.201 0 0 0-.103-1.92c-.07-.846-.174-1.551-.314-2.081a3.269 3.269 0 0 0-2.304-2.309c-.663-.178-1.962-.288-3.79-.356-.87-.033-1.8-.054-2.73-.066l-.9-.009h-.69c-.271.002-.574.005-.9.01-.93.011-1.86.032-2.73.065-1.828.07-3.129.18-3.79.356a3.266 3.266 0 0 0-2.304 2.309c-.143.53-.244 1.235-.314 2.081a35.281 35.281 0 0 0-.103 1.92c-.007.227-.01.44-.012.63l-.002.178v.132c0 .051 0 .11.002.178l.012.63c.019.654.052 1.306.103 1.92.07.846.174 1.551.314 2.08a3.266 3.266 0 0 0 2.304 2.31c.661.178 1.962.288 3.79.356.87.033 1.8.054 2.73.065.326.005.629.007.9.01h.69c.271-.003.574-.005.9-.01.93-.011 1.86-.032 2.73-.065 1.828-.07 3.129-.18 3.79-.357a3.262 3.262 0 0 0 2.304-2.308c.143-.53.244-1.235.314-2.081.051-.614.084-1.266.103-1.92.007-.227.01-.44.012-.63l.002-.178v-.132Zm-1.688.122c0 .05 0 .103-.002.167-.002.182-.007.384-.012.602a31.7 31.7 0 0 1-.098 1.826c-.063.754-.152 1.373-.262 1.788-.146.541-.572.97-1.111 1.113-.493.131-1.733.237-3.418.3a106.46 106.46 0 0 1-3.574.073h-.67l-.886-.007a106.72 106.72 0 0 1-2.688-.066c-1.686-.065-2.928-.169-3.418-.3a1.581 1.581 0 0 1-1.11-1.113c-.11-.415-.2-1.034-.263-1.788-.05-.58-.08-1.203-.098-1.826-.007-.218-.01-.422-.012-.602l-.002-.167v-.112c0-.05 0-.104.002-.167.002-.183.007-.384.012-.602.016-.624.049-1.247.098-1.826.063-.755.152-1.373.263-1.788.145-.542.571-.97 1.11-1.113.493-.132 1.732-.237 3.418-.3a106.492 106.492 0 0 1 3.574-.073h.67l.886.007c.916.012 1.833.033 2.688.066 1.685.065 2.928.168 3.418.3.539.145.965.571 1.11 1.113.11.415.2 1.033.263 1.788.05.579.08 1.202.098 1.826.008.218.01.422.012.602 0 .064.003.12.003.167v.112ZM9.915 15.141l5.438-3.165L9.914 8.86v6.281Z" fill="#42494D"/>
</svg>
