<svg width="24" height="24" fill="none" xmlns="http://www.w3.org/2000/svg">
    <path d="M20.712 13.56a8.971 8.971 0 0 0 .147-1.604 8.815 8.815 0 0 0-2.595-6.26 8.808 8.808 0 0 0-2.814-1.897 8.795 8.795 0 0 0-3.445-.696c-.563 0-1.128.054-1.676.16a5.276 5.276 0 0 0-2.463-.615c-1.4 0-2.717.547-3.706 1.536a5.209 5.209 0 0 0-1.535 3.705c0 .89.23 1.767.659 2.54a8.983 8.983 0 0 0-.134 1.527c0 1.195.234 2.355.696 3.445a8.807 8.807 0 0 0 1.896 2.815 8.807 8.807 0 0 0 2.815 1.896 8.796 8.796 0 0 0 4.997.558c.785.442 1.671.68 2.578.68 1.4 0 2.716-.545 3.705-1.536a5.2 5.2 0 0 0 1.536-3.705 5.214 5.214 0 0 0-.661-2.548Zm-2.065 5.063a3.512 3.512 0 0 1-2.513 1.041 3.55 3.55 0 0 1-1.748-.462l-.527-.297-.598.105a7.108 7.108 0 0 1-4.048-.452 7.117 7.117 0 0 1-2.278-1.535 7.133 7.133 0 0 1-1.99-6.303l.103-.588-.29-.523a3.54 3.54 0 0 1-.448-1.72c0-.952.368-1.84 1.04-2.512a3.531 3.531 0 0 1 2.516-1.041 3.586 3.586 0 0 1 1.673.42l.525.276.581-.112c.443-.085.9-.13 1.36-.13a7.128 7.128 0 0 1 5.067 2.098 7.11 7.11 0 0 1 1.537 2.278c.375.884.563 1.82.563 2.79 0 .43-.04.867-.12 1.3l-.11.598.296.53c.295.527.45 1.125.45 1.727 0 .954-.368 1.84-1.041 2.512Zm-4.973-7.696-2.072-.46c-.788-.18-1.695-.417-1.695-1.16 0-.743.635-1.263 1.784-1.263 2.313 0 2.102 1.589 3.25 1.589.605 0 1.135-.356 1.135-.966 0-1.425-2.283-2.496-4.219-2.496-2.102 0-4.34.893-4.34 3.27 0 1.143.407 2.362 2.662 2.927l2.798.698c.846.209 1.06.685 1.06 1.116 0 .715-.71 1.413-1.997 1.413-2.513 0-2.163-1.933-3.509-1.933-.604 0-1.043.417-1.043 1.01 0 1.158 1.407 2.705 4.552 2.705 2.993 0 4.476-1.442 4.476-3.375 0-1.245-.574-2.57-2.842-3.075Z" fill="#42494D"/>
</svg>
