<svg width="24" height="24" fill="none" xmlns="http://www.w3.org/2000/svg">
    <path d="M3.95 6.415a1.61 1.61 0 1 0 3.22 0 1.61 1.61 0 0 0-3.22 0ZM21.058 8.27s-.556-4.322-10.006-1.643c.406-.703.6-1.16.6-1.16l-2.362-.663S8.339 7.912 6.642 9.36c0 0 1.643.951 1.627.923.47-.47.895-.951 1.258-1.415a52.07 52.07 0 0 1 1.095-.464c-.436.785-1.142 1.964-1.847 2.71l.994.866s.675-.649 1.415-1.434h.844v1.448H8.74v1.16h3.288v2.778c-.04 0-.084 0-.126-.005-.361-.016-.926-.077-1.149-.426-.27-.425-.07-1.208-.056-1.686H8.423l-.08.043s-.831 3.728 2.398 3.644c3.026.084 4.758-.844 5.593-1.479l.332 1.233 1.866-.778-1.263-3.091-1.514.47.283 1.06c-.389.29-.834.509-1.317.666v-2.428h3.213v-1.16h-3.213v-1.45h3.225v-1.16h-5.728c.412-.5.738-.963.82-1.256l-.996-.271c4.285-1.536 6.668-1.27 6.647 1.246v6.629s.253 2.275-2.353 2.111l-1.411-.302-.333 1.338s6.092 1.744 6.588-2.939c.5-4.687-.121-7.67-.121-7.67ZM4.479 8.7l-1.064 1.634 1.96 1.22s1.312.669.688 1.92c-.583 1.186-3.438 3.783-3.438 3.783l2.555 1.596c1.767-3.837 1.652-3.328 2.097-4.704.457-1.408.556-2.482-.22-3.26-.994-.998-1.102-1.092-2.578-2.189Z" fill="#42494D"/>
</svg>
