<svg width="24" height="24" fill="none" xmlns="http://www.w3.org/2000/svg">
    <path d="M12 1.5C6.202 1.5 1.5 6.202 1.5 12S6.202 22.5 12 22.5 22.5 17.798 22.5 12 17.798 1.5 12 1.5Zm5.712 13.81L12 18.61l-5.712-3.3V8.713l2.578-1.49-.009-.005h.005L12 5.414l3.14 1.805h-.004l-.007.004 2.58 1.491v6.595h.003ZM7.216 12.578l2.054 1.17v2.212l2.266 1.31V12.3l-4.32-2.494v2.773Zm4.78-3.558-2.2-1.263L7.663 8.99l4.34 2.507 4.341-2.505-2.142-1.238-2.206 1.266Zm.468 8.25 2.28-1.317v-2.206l2.04-1.16v-2.78l-4.32 2.497v4.966Z" fill="#42494D"/>
</svg>
