<svg width="24" height="24" fill="none" xmlns="http://www.w3.org/2000/svg">
    <path d="M14.86 6.898h4.675v1.134H14.86V6.898Zm-4.686 4.488c1.034-.494 1.575-1.247 1.575-2.41 0-2.298-1.71-2.856-3.687-2.856H2.625v11.54h5.59c2.095 0 4.062-1.007 4.062-3.351 0-1.448-.685-2.52-2.103-2.923ZM5.161 8.09H7.54c.916 0 1.739.255 1.739 1.32 0 .979-.64 1.373-1.547 1.373H5.161V8.089ZM7.868 15.7h-2.71v-3.178h2.764c1.115 0 1.821.466 1.821 1.648 0 1.162-.841 1.53-1.875 1.53Zm13.495-2.098c0-2.472-1.446-4.532-4.061-4.532-2.543 0-4.273 1.915-4.273 4.425 0 2.601 1.638 4.387 4.273 4.387 1.994 0 3.285-.898 3.907-2.812h-2.023c-.22.715-1.116 1.09-1.812 1.09-1.345 0-2.048-.788-2.048-2.126h6.02c.008-.139.017-.284.017-.432Zm-6.037-1.017c.072-1.099.806-1.786 1.903-1.786 1.153 0 1.73.678 1.83 1.786h-3.733Z" fill="#42494D"/>
</svg>
