<svg width="24" height="24" fill="none" xmlns="http://www.w3.org/2000/svg">
    <path d="M20.348 8.845a8.813 8.813 0 0 0-1.903-2.826 8.842 8.842 0 0 0-2.824-1.903 8.804 8.804 0 0 0-3.457-.699 8.83 8.83 0 0 0-2.857.469c-2.135-.996-4.6-1.074-5.309-1.074-.051 0-.173 0-.22.005a.847.847 0 0 0-.684.385.863.863 0 0 0-.08.785l1.507 3.787a8.873 8.873 0 0 0-1.237 4.528 8.79 8.79 0 0 0 .698 3.46 8.766 8.766 0 0 0 1.903 2.824 8.842 8.842 0 0 0 2.824 1.903 8.802 8.802 0 0 0 3.455.698 8.87 8.87 0 0 0 3.462-.698 8.822 8.822 0 0 0 2.822-1.903 8.892 8.892 0 0 0 1.903-2.827c.463-1.094.7-2.27.698-3.459a8.87 8.87 0 0 0-.7-3.455Zm-1.556 6.246a7.197 7.197 0 0 1-1.544 2.297 7.068 7.068 0 0 1-2.29 1.545h-.003a7.202 7.202 0 0 1-2.81.567 7.183 7.183 0 0 1-5.097-2.114 7.133 7.133 0 0 1-1.543-2.292v-.003a7.173 7.173 0 0 1-.564-2.81c0-1.298.346-2.57 1.003-3.68l.309-.517-.223-.56L4.828 4.5c.35.014.841.05 1.4.131 1.026.153 1.933.41 2.692.764l.446.209.466-.16a7.131 7.131 0 0 1 2.318-.38 7.183 7.183 0 0 1 5.098 2.115A7.133 7.133 0 0 1 18.79 9.47l.002.002.002.003a7.18 7.18 0 0 1 .568 2.808 7.207 7.207 0 0 1-.57 2.807Zm-2.829-6.555a.872.872 0 0 0-.87.87v1.29a.87.87 0 0 0 1.74 0v-1.29a.87.87 0 0 0-.87-.87Zm-4.106 0a.87.87 0 0 0-.87.87v1.29a.87.87 0 0 0 1.74 0v-1.29a.87.87 0 0 0-.87-.87Z" fill="#42494D"/>
</svg>
