<svg width="24" height="24" fill="none" xmlns="http://www.w3.org/2000/svg">
    <path d="M7.41 21.574a9.332 9.332 0 0 1-2.979-2.008 9.332 9.332 0 0 1-2.744-6.624v.005a9.341 9.341 0 0 0 2.742 6.621c.86.86 1.86 1.535 2.977 2.006 1.153.49 2.393.74 3.646.739a9.542 9.542 0 0 0 .01-.003 9.275 9.275 0 0 1-3.652-.736Zm5.714-10.511a.188.188 0 0 1-.187-.188V1.873c0-.03.007-.059.02-.085a.19.19 0 0 0-.034.108v8.993c0 .103.084.188.187.188l8.99-.024a.197.197 0 0 0 .104-.03.18.18 0 0 1-.08.016l-9 .024Z" fill="#F85A00" fill-opacity=".05"/>
    <path d="M14.526 3.46v6.014l6.01-.017a7.738 7.738 0 0 0-2.11-3.893 7.787 7.787 0 0 0-3.9-2.104Z" fill="#F85A00" fill-opacity=".05"/>
    <path d="M10.266 5.196a7.713 7.713 0 0 0-4.707 2.238 7.731 7.731 0 0 0-2.278 5.503c0 2.08.809 4.034 2.278 5.504a7.731 7.731 0 0 0 5.466 2.278c2.067.009 4.048-.8 5.515-2.255a7.719 7.719 0 0 0 2.264-4.73h-8.538V5.196Z" fill="#F85A00" fill-opacity=".05"/>
    <path d="M20.25 12.141h-8.391v-8.39a.188.188 0 0 0-.188-.188h-.61a9.339 9.339 0 0 0-6.627 2.744 9.332 9.332 0 0 0-2.009 2.98 9.32 9.32 0 0 0-.738 3.65v.006a9.325 9.325 0 0 0 2.744 6.623 9.333 9.333 0 0 0 2.98 2.009 9.32 9.32 0 0 0 3.65.738 9.304 9.304 0 0 0 3.65-.736 9.332 9.332 0 0 0 2.979-2.009 9.332 9.332 0 0 0 2.009-2.979c.489-1.155.74-2.397.738-3.651v-.61a.188.188 0 0 0-.188-.187Zm-3.71 6.324a7.771 7.771 0 0 1-5.516 2.254 7.731 7.731 0 0 1-5.465-2.278 7.731 7.731 0 0 1-2.278-5.503c0-2.079.808-4.034 2.278-5.503a7.713 7.713 0 0 1 4.706-2.238v8.538h8.538a7.719 7.719 0 0 1-2.264 4.73Z" fill="#F85A00"/>
    <path d="m22.313 10.837-.061-.66a9.324 9.324 0 0 0-2.7-5.734 9.361 9.361 0 0 0-5.747-2.695l-.664-.06a.184.184 0 0 0-.182.1.204.204 0 0 0-.021.084v9.003c0 .103.084.187.187.187l9-.023a.23.23 0 0 0 .08-.017.19.19 0 0 0 .108-.185Zm-7.786-1.364V3.46a7.787 7.787 0 0 1 3.9 2.105 7.738 7.738 0 0 1 2.109 3.893l-6.01.016Z" fill="#F85A00"/>
</svg>
