<svg width="24" height="24" fill="none" xmlns="http://www.w3.org/2000/svg">
    <path d="M20.813 18.563H4.688V3.938A.188.188 0 0 0 4.5 3.75H3.187A.188.188 0 0 0 3 3.938v16.125c0 .103.084.187.188.187h17.625a.188.188 0 0 0 .187-.188V18.75a.188.188 0 0 0-.188-.188ZM6.75 16.688h1.313a.188.188 0 0 0 .187-.188v-3.375a.188.188 0 0 0-.188-.188H6.75a.188.188 0 0 0-.188.188V16.5c0 .103.085.188.188.188Zm3.563 0h1.312a.188.188 0 0 0 .188-.188V9a.188.188 0 0 0-.188-.188h-1.313a.188.188 0 0 0-.187.188v7.5c0 .103.084.188.188.188Zm3.562 0h1.313a.188.188 0 0 0 .187-.188v-5.672a.188.188 0 0 0-.188-.187h-1.312a.188.188 0 0 0-.188.187V16.5c0 .103.085.188.188.188Zm3.563 0h1.312a.188.188 0 0 0 .188-.188V7.125a.188.188 0 0 0-.188-.188h-1.313a.188.188 0 0 0-.187.188V16.5c0 .103.084.188.188.188Z" fill="#42494D"/>
</svg>
