<svg width="24" height="24" fill="none" xmlns="http://www.w3.org/2000/svg">
    <path d="M21.703 3.844h-19.5a.75.75 0 0 0-.75.75v15c0 .415.335.75.75.75h19.5a.75.75 0 0 0 .75-.75v-15a.75.75 0 0 0-.75-.75Zm-.937 14.812H3.14V5.531h17.625v13.125ZM5.323 16.727a.188.188 0 0 0 .264 0l4.043-4.043 2.682 2.684a.188.188 0 0 0 .265 0l6.96-6.966a.188.188 0 0 0 0-.264l-.862-.863a.188.188 0 0 0-.265 0l-5.965 5.967-2.68-2.683a.188.188 0 0 0-.266 0l-5.037 5.039a.188.188 0 0 0 0 .264l.86.865Z" fill="#42494D"/>
</svg>
