<svg width="24" height="24" fill="none" xmlns="http://www.w3.org/2000/svg">
    <path d="m21.722 9.307-9.282-6.75a.746.746 0 0 0-.88 0l-9.282 6.75a.75.75 0 0 0-.272.84l3.546 10.921a.75.75 0 0 0 .713.518h11.472a.748.748 0 0 0 .713-.518l3.546-10.922a.756.756 0 0 0-.274-.839Zm-2.067.467-2.309.75-4.688-3.392V4.685l6.997 5.089Zm-8.733 3.52L8.833 16.16 7.54 12.195l3.382 1.099Zm-2.726-2.269 3.148-2.276v3.3l-3.148-1.024ZM12 14.044l2.2 3.02H9.8l2.2-3.02Zm.659-5.295 3.145 2.276-3.146 1.022V8.749Zm.419 4.545 3.382-1.1-1.294 3.966-2.088-2.866Zm-1.734-8.609v2.447l-4.69 3.392-2.309-.75 6.999-5.089Zm-7.376 6.35 2.027.658 1.885 5.775L6.619 19.2l-2.651-8.166Zm3.698 8.957 1.18-1.617h6.31l1.18 1.617h-8.67Zm9.715-.792-1.26-1.732 1.884-5.775 2.027-.659-2.65 8.166Z" fill="#42494D"/>
</svg>
