<svg width="24" height="24" fill="none" xmlns="http://www.w3.org/2000/svg">
    <path d="M21.75 3.75H2.25a.75.75 0 0 0-.75.75v15c0 .415.335.75.75.75h19.5a.75.75 0 0 0 .75-.75v-15a.75.75 0 0 0-.75-.75Zm-.938 14.813H3.188V5.438h17.625v13.125Z" fill="#F85A00"/>
    <path d="M3.188 18.563h17.625V5.438H3.188v13.125Zm1.321-3.06 5.037-5.038a.188.188 0 0 1 .265 0l2.681 2.683 5.965-5.967a.188.188 0 0 1 .265 0l.862.863a.188.188 0 0 1 0 .265l-6.96 6.965a.188.188 0 0 1-.265 0l-2.682-2.683-4.043 4.043a.188.188 0 0 1-.264 0l-.86-.865a.188.188 0 0 1 0-.265Z" fill="#F85A00" fill-opacity=".05"/>
    <path d="M5.37 16.633a.188.188 0 0 0 .264 0l4.043-4.043 2.681 2.684a.188.188 0 0 0 .265 0l6.961-6.966a.188.188 0 0 0 0-.264l-.862-.863a.188.188 0 0 0-.265 0l-5.965 5.967-2.681-2.683a.189.189 0 0 0-.265 0l-5.037 5.039a.188.188 0 0 0 0 .265l.86.864Z" fill="#F85A00"/>
</svg>
