<svg width="24" height="24" fill="none" xmlns="http://www.w3.org/2000/svg">
    <path d="M22.4 20.063 12.65 3.188a.741.741 0 0 0-.65-.376.739.739 0 0 0-.65.376L1.6 20.063a.75.75 0 0 0 .65 1.125h19.5a.75.75 0 0 0 .65-1.125Zm-18.526-.56L12 5.434 20.126 19.5H3.874v.002ZM11.351 8.39l-5.344 9.234a.75.75 0 0 0 .65 1.125h10.682c.58 0 .94-.626.65-1.125l-5.34-9.234A.744.744 0 0 0 12 8.016a.739.739 0 0 0-.65.375Zm5.015 9.046H7.634L12 9.892l4.366 7.546Zm-5.015-4.549-1.336 2.306a.746.746 0 0 0 .65 1.118h2.671a.746.746 0 0 0 .65-1.118l-1.337-2.306a.741.741 0 0 0-.649-.372.744.744 0 0 0-.65.372Zm1.338 2.306h-1.376l.69-1.188.686 1.188Z" fill="#42494D"/>
</svg>
