<svg width="24" height="24" fill="none" xmlns="http://www.w3.org/2000/svg">
    <path d="M20.25 12.14h-8.39V3.75a.188.188 0 0 0-.188-.188h-.61a9.339 9.339 0 0 0-6.628 2.745 9.333 9.333 0 0 0-2.008 2.979 9.319 9.319 0 0 0-.739 3.651 9.339 9.339 0 0 0 2.745 6.629 9.332 9.332 0 0 0 2.979 2.008c1.155.49 2.397.74 3.651.738a9.34 9.34 0 0 0 6.629-2.744 9.333 9.333 0 0 0 2.008-2.979c.49-1.155.74-2.397.738-3.652v-.609a.188.188 0 0 0-.187-.188Zm-3.71 6.324a7.771 7.771 0 0 1-5.515 2.255 7.73 7.73 0 0 1-5.466-2.279 7.731 7.731 0 0 1-2.278-5.503c0-2.079.809-4.033 2.278-5.503a7.713 7.713 0 0 1 4.706-2.238v8.538h8.539a7.719 7.719 0 0 1-2.264 4.73Zm5.772-7.627-.06-.66a9.325 9.325 0 0 0-2.7-5.733 9.361 9.361 0 0 0-5.747-2.696l-.664-.06a.186.186 0 0 0-.204.185v9.002c0 .103.085.187.188.187l9-.023c.11 0 .197-.094.187-.202Zm-7.786-1.364V3.46a7.787 7.787 0 0 1 3.9 2.105 7.739 7.739 0 0 1 2.11 3.893l-6.01.016Z" fill="#42494D"/>
</svg>
