<svg width="24" height="24" fill="none" xmlns="http://www.w3.org/2000/svg">
    <path d="M20.813 18.563H4.688V3.938A.188.188 0 0 0 4.5 3.75H3.187A.188.188 0 0 0 3 3.938v16.125c0 .103.084.187.188.187h17.625a.188.188 0 0 0 .187-.188V18.75a.188.188 0 0 0-.188-.188ZM7.166 14.945c.073.073.19.073.265 0l3.241-3.225 2.991 3.01a.188.188 0 0 0 .265 0l6.455-6.453a.188.188 0 0 0 0-.265l-.928-.928a.188.188 0 0 0-.265 0L13.8 12.473 10.814 9.47a.188.188 0 0 0-.265 0L6.241 13.75a.188.188 0 0 0 0 .265l.926.93Z" fill="#42494D"/>
</svg>
