<svg width="24" height="24" fill="none" xmlns="http://www.w3.org/2000/svg">
    <path d="M20.813 18.563H4.688V3.938A.188.188 0 0 0 4.5 3.75H3.187A.188.188 0 0 0 3 3.938v16.125c0 .103.084.187.188.187h17.625a.188.188 0 0 0 .187-.188V18.75a.188.188 0 0 0-.188-.188ZM6.75 14.155a1.5 1.5 0 1 0 3 0 1.5 1.5 0 0 0-3 0Zm2.766-5.25a1.125 1.125 0 1 0 2.25 0 1.125 1.125 0 0 0-2.25 0Zm3.703 5.344a2.25 2.25 0 1 0 4.5 0 2.25 2.25 0 0 0-4.5 0Zm3.469-7.36a1.313 1.313 0 1 0 2.625 0 1.313 1.313 0 0 0-2.625 0Z" fill="#42494D"/>
</svg>
