<svg width="24" height="24" fill="none" xmlns="http://www.w3.org/2000/svg">
    <path d="M22.313 5.25h-1.22a.188.188 0 0 0-.187.188v5.812H18.75V7.125a.188.188 0 0 0-.188-.188H10.5v10.125h8.063a.188.188 0 0 0 .187-.187v-4.031h2.156v5.719c0 .103.085.187.188.187h1.218a.188.188 0 0 0 .188-.188V5.438a.188.188 0 0 0-.188-.187ZM5.25 7.125v4.125H3.094V5.437a.188.188 0 0 0-.188-.187H1.687a.188.188 0 0 0-.187.188v13.125c0 .103.084.187.188.187h1.218a.188.188 0 0 0 .188-.188v-5.718H5.25v4.031c0 .103.084.188.188.188H9V6.938H5.437a.188.188 0 0 0-.187.187Z" fill="#42494D"/>
</svg>
