<svg width="24" height="24" fill="none" xmlns="http://www.w3.org/2000/svg">
    <path d="M4.219 6.844h1.875v10.312H4.219V6.844Zm8.648 4.218h-1.734a.07.07 0 0 0-.07.07v1.735a.07.07 0 0 0 .07.07h1.734a.07.07 0 0 0 .07-.07v-1.734a.07.07 0 0 0-.07-.07Zm5.04-2.53h1.874v6.937h-1.875V8.53Z" fill="#F85A00" fill-opacity=".05"/>
    <path d="M21.188 6.938H19.64v-2.25a.188.188 0 0 0-.188-.188h-1.219a.188.188 0 0 0-.187.188v2.25H16.5a.188.188 0 0 0-.188.187v9.75c0 .103.085.188.188.188h1.547v2.25c0 .103.084.187.187.187h1.22a.188.188 0 0 0 .187-.188v-2.25h1.547a.188.188 0 0 0 .187-.187v-9.75a.188.188 0 0 0-.188-.188Zm-1.407 8.53h-1.875V8.532h1.875v6.938Zm-5.437-6h-1.547v-4.03a.188.188 0 0 0-.188-.188h-1.218a.188.188 0 0 0-.188.188v4.03H9.656a.188.188 0 0 0-.187.188v4.688c0 .103.084.187.187.187h1.547v4.031c0 .104.085.188.188.188h1.218a.188.188 0 0 0 .188-.188v-4.03h1.547a.188.188 0 0 0 .187-.188V9.656a.188.188 0 0 0-.187-.187Zm-1.406 3.4a.07.07 0 0 1-.07.07h-1.735a.07.07 0 0 1-.07-.07v-1.735a.07.07 0 0 1 .07-.07h1.734a.07.07 0 0 1 .07.07v1.734ZM7.5 5.25H5.953V3.937a.188.188 0 0 0-.187-.187h-1.22a.188.188 0 0 0-.187.188V5.25H2.813a.188.188 0 0 0-.188.188v13.125c0 .103.084.187.188.187h1.546v1.313c0 .103.085.187.188.187h1.219a.188.188 0 0 0 .187-.188V18.75H7.5a.188.188 0 0 0 .188-.188V5.438A.188.188 0 0 0 7.5 5.25ZM6.094 17.156H4.219V6.844h1.875v10.312Z" fill="#F85A00"/>
</svg>
