<svg width="24" height="24" fill="none" xmlns="http://www.w3.org/2000/svg">
    <path d="M20.344 17.155h-1.648a.37.37 0 0 0-.288.136 8.291 8.291 0 0 1-6.398 3.005 8.268 8.268 0 0 1-5.874-2.431 8.28 8.28 0 0 1-1.781-2.637 8.216 8.216 0 0 1-.652-3.23 8.257 8.257 0 0 1 2.433-5.866 8.293 8.293 0 0 1 5.874-2.43 8.294 8.294 0 0 1 6.398 3.005c.07.086.178.135.288.135h1.648c.148 0 .24-.164.157-.288a10.082 10.082 0 0 0-8.517-4.634A10.067 10.067 0 0 0 1.922 12.102c.056 5.52 4.552 9.975 10.088 9.975 3.565 0 6.696-1.847 8.491-4.634a.187.187 0 0 0-.157-.288Zm2.084-5.304-3.326-2.625a.188.188 0 0 0-.305.148v1.78h-7.36a.188.188 0 0 0-.187.188v1.313c0 .103.085.187.188.187h7.36v1.781c0 .158.182.247.304.148l3.326-2.625a.188.188 0 0 0 0-.295Z" fill="#42494D"/>
</svg>
