<svg width="24" height="24" fill="none" xmlns="http://www.w3.org/2000/svg">
    <path d="M12.228 1.92A10.082 10.082 0 0 0 3.71 6.554c-.08.124.009.288.157.288h1.647a.37.37 0 0 0 .289-.136 8.293 8.293 0 0 1 6.398-3.005 8.293 8.293 0 0 1 5.873 2.43 8.28 8.28 0 0 1 1.782 2.638 8.215 8.215 0 0 1 .651 3.23 8.258 8.258 0 0 1-2.432 5.866 8.294 8.294 0 0 1-5.874 2.43 8.268 8.268 0 0 1-5.873-2.43 9.263 9.263 0 0 1-.525-.574.373.373 0 0 0-.289-.136H3.868a.186.186 0 0 0-.157.288 10.085 10.085 0 0 0 8.491 4.634c5.536 0 10.031-4.456 10.088-9.975A10.067 10.067 0 0 0 12.228 1.92Zm-2.97 12.704v-1.782H1.9a.188.188 0 0 1-.187-.187v-1.313c0-.103.084-.187.187-.187h7.36V9.374c0-.158.183-.247.304-.148l3.326 2.625a.187.187 0 0 1 0 .295l-3.326 2.625a.189.189 0 0 1-.304-.148Z" fill="#42494D"/>
</svg>
