<svg width="24" height="24" fill="none" xmlns="http://www.w3.org/2000/svg">
    <path d="M12 3.281A8.72 8.72 0 0 0 3.281 12 8.72 8.72 0 0 0 12 20.719 8.72 8.72 0 0 0 20.719 12 8.72 8.72 0 0 0 12 3.281Zm2.438 5.646a.747.747 0 0 1-.31.607L10.72 12l3.408 2.463a.75.75 0 0 1 .31.607v1.1a.188.188 0 0 1-.298.152L8.374 12.15a.187.187 0 0 1 0-.302l5.766-4.172c.124-.09.297 0 .297.152v1.1Z" fill="#F85A00" fill-opacity=".05"/>
    <path d="M12 1.5C6.202 1.5 1.5 6.202 1.5 12S6.202 22.5 12 22.5 22.5 17.798 22.5 12 17.798 1.5 12 1.5Zm0 19.219A8.72 8.72 0 0 1 3.281 12 8.72 8.72 0 0 1 12 3.281 8.72 8.72 0 0 1 20.719 12 8.72 8.72 0 0 1 12 20.719Z" fill="#F85A00"/>
    <path d="m14.14 7.676-5.766 4.172a.187.187 0 0 0 0 .302l5.765 4.172c.125.089.298 0 .298-.152v-1.1a.75.75 0 0 0-.31-.607L10.72 12l3.408-2.466a.747.747 0 0 0 .309-.607V7.828a.188.188 0 0 0-.298-.152Z" fill="#F85A00"/>
</svg>
