<svg width="24" height="24" fill="none" xmlns="http://www.w3.org/2000/svg">
    <path d="M12.153 8.444a.187.187 0 0 0-.303 0L7.68 14.21c-.09.124 0 .297.152.297h1.1a.75.75 0 0 0 .606-.309L12 10.79l2.466 3.408c.14.194.366.31.607.31h1.1a.188.188 0 0 0 .152-.298l-4.172-5.766Z" fill="#42494D"/>
    <path d="M12 1.5C6.202 1.5 1.5 6.202 1.5 12S6.202 22.5 12 22.5 22.5 17.798 22.5 12 17.798 1.5 12 1.5Zm0 19.219A8.72 8.72 0 0 1 3.281 12 8.72 8.72 0 0 1 12 3.281 8.72 8.72 0 0 1 20.719 12 8.72 8.72 0 0 1 12 20.719Z" fill="#42494D"/>
</svg>
