<svg width="24" height="24" fill="none" xmlns="http://www.w3.org/2000/svg">
    <path d="M22.313 18.563H1.688a.188.188 0 0 0-.188.187v1.313c0 .103.084.187.188.187h20.625a.188.188 0 0 0 .187-.188V18.75a.188.188 0 0 0-.188-.188Zm0-14.813H1.688a.188.188 0 0 0-.188.188V5.25c0 .103.084.188.188.188h20.625a.188.188 0 0 0 .187-.188V3.937a.188.188 0 0 0-.188-.187Zm-2.438 11.719a.376.376 0 0 0 .375-.375V8.906a.376.376 0 0 0-.375-.375H4.125a.376.376 0 0 0-.375.375v6.188c0 .206.169.375.375.375h15.75Zm-14.438-5.25h13.125v3.562H5.438V10.22Z" fill="#42494D"/>
</svg>
