<svg width="24" height="24" fill="none" xmlns="http://www.w3.org/2000/svg">
    <path d="M20.625 2.625H3.375a.75.75 0 0 0-.75.75v17.25c0 .415.335.75.75.75h17.25a.75.75 0 0 0 .75-.75V3.375a.75.75 0 0 0-.75-.75Zm-.938 17.063H4.313V4.313h15.375v15.375Zm-8.343-11.11h1.312a.188.188 0 0 0 .188-.187V7.078a.188.188 0 0 0-.188-.187h-1.312a.188.188 0 0 0-.188.187v1.313c0 .103.085.187.188.187Zm-4.266 4.266h1.313a.188.188 0 0 0 .187-.188v-1.312a.188.188 0 0 0-.187-.188H7.078a.188.188 0 0 0-.187.188v1.312c0 .103.084.188.187.188Zm8.531 0h1.313a.188.188 0 0 0 .187-.188v-1.312a.188.188 0 0 0-.187-.188h-1.313a.188.188 0 0 0-.187.188v1.312c0 .103.084.188.187.188Zm-4.265 0h1.312a.188.188 0 0 0 .188-.188v-1.312a.188.188 0 0 0-.188-.188h-1.312a.188.188 0 0 0-.188.188v1.312c0 .103.085.188.188.188Zm0 4.265h1.312a.188.188 0 0 0 .188-.187v-1.313a.188.188 0 0 0-.188-.187h-1.312a.188.188 0 0 0-.188.187v1.313c0 .103.085.187.188.187Z" fill="#42494D"/>
</svg>
