<svg width="24" height="24" fill="none" xmlns="http://www.w3.org/2000/svg">
    <path d="M22.313 18.563H1.688a.188.188 0 0 0-.188.187v1.313c0 .103.084.187.188.187h20.625a.188.188 0 0 0 .187-.188V18.75a.188.188 0 0 0-.188-.188Zm0-14.813H1.688a.188.188 0 0 0-.188.188V5.25c0 .103.084.188.188.188h20.625a.188.188 0 0 0 .187-.188V3.937a.188.188 0 0 0-.188-.187ZM14.25 15.469a.376.376 0 0 0 .375-.375V8.906a.376.376 0 0 0-.375-.375h-12a.376.376 0 0 0-.375.375v6.188c0 .206.169.375.375.375h12Zm-10.688-5.25h9.376v3.562H3.562V10.22ZM16.5 15.14c0 .103.084.187.188.187h5.25a.188.188 0 0 0 .187-.187v-1.313a.188.188 0 0 0-.188-.187h-5.25a.188.188 0 0 0-.187.187v1.313Zm.188-4.782h5.25a.188.188 0 0 0 .187-.187V8.859a.188.188 0 0 0-.188-.187h-5.25a.188.188 0 0 0-.187.187v1.313c0 .103.084.187.188.187Z" fill="#42494D"/>
</svg>
