<svg width="24" height="24" fill="none" xmlns="http://www.w3.org/2000/svg">
    <path d="m20.665 4.392-1.057-1.057a.188.188 0 0 0-.265 0l-3.691 3.693-1.282-1.282a.186.186 0 0 0-.317.11l-.55 4.433a.187.187 0 0 0 .208.208l4.435-.55a.187.187 0 0 0 .11-.317l-1.282-1.282 3.694-3.694c.07-.07.07-.19-.003-.262Zm-10.376 9.11-4.434.55a.187.187 0 0 0-.11.317l1.282 1.282-3.692 3.691a.188.188 0 0 0 0 .265l1.058 1.057a.188.188 0 0 0 .264 0l3.694-3.693 1.282 1.282a.186.186 0 0 0 .317-.11l.548-4.433a.185.185 0 0 0-.209-.208Z" fill="#42494D"/>
</svg>
