<svg width="24" height="24" fill="none" xmlns="http://www.w3.org/2000/svg">
    <path d="M20.438 11.156h-7.594V3.375h-1.688v7.781H3.562a.188.188 0 0 0-.187.188v1.312c0 .103.084.188.188.188h7.593v7.781h1.688v-7.781h7.594a.188.188 0 0 0 .187-.188v-1.312a.188.188 0 0 0-.188-.188Zm0-3.89h-1.313a.188.188 0 0 0-.188.187v1.313c0 .103.085.187.188.187h1.313a.188.188 0 0 0 .187-.187V7.453a.188.188 0 0 0-.188-.187Zm0 11.671h-1.313a.188.188 0 0 0-.188.188v1.313c0 .103.085.187.188.187h1.313a.188.188 0 0 0 .187-.188v-1.312a.188.188 0 0 0-.188-.188Zm0-15.562h-1.313a.188.188 0 0 0-.188.188v1.312c0 .103.085.188.188.188h1.313a.188.188 0 0 0 .187-.188V3.562a.188.188 0 0 0-.188-.187Zm0 11.672h-1.313a.188.188 0 0 0-.188.187v1.313c0 .103.085.187.188.187h1.313a.188.188 0 0 0 .187-.187v-1.313a.188.188 0 0 0-.188-.187Zm-5.204-9.985h1.313a.188.188 0 0 0 .187-.187V3.562a.188.188 0 0 0-.187-.187h-1.313a.188.188 0 0 0-.187.188v1.312c0 .103.084.188.187.188Zm1.313 13.875h-1.313a.188.188 0 0 0-.187.188v1.313c0 .103.084.187.187.187h1.313a.188.188 0 0 0 .187-.188v-1.312a.188.188 0 0 0-.187-.188Zm-7.781 0H7.453a.188.188 0 0 0-.187.188v1.313c0 .103.084.187.187.187h1.313a.188.188 0 0 0 .187-.188v-1.312a.188.188 0 0 0-.187-.188ZM7.453 5.063h1.313a.188.188 0 0 0 .187-.187V3.562a.188.188 0 0 0-.187-.187H7.453a.188.188 0 0 0-.187.188v1.312c0 .103.084.188.187.188Zm-3.89 0h1.312a.188.188 0 0 0 .188-.187V3.562a.188.188 0 0 0-.188-.187H3.562a.188.188 0 0 0-.187.188v1.312c0 .103.084.188.188.188Zm1.312 13.875H3.562a.188.188 0 0 0-.187.188v1.313c0 .103.084.187.188.187h1.312a.188.188 0 0 0 .188-.188v-1.312a.188.188 0 0 0-.188-.188ZM3.562 8.954h1.313a.188.188 0 0 0 .188-.187V7.453a.188.188 0 0 0-.188-.187H3.562a.188.188 0 0 0-.187.187v1.313c0 .103.084.187.188.187Zm1.313 6.094H3.562a.188.188 0 0 0-.187.187v1.313c0 .103.084.187.188.187h1.312a.188.188 0 0 0 .188-.187v-1.313a.188.188 0 0 0-.188-.187Z" fill="#42494D"/>
</svg>
