<svg width="24" height="24" fill="none" xmlns="http://www.w3.org/2000/svg">
    <path d="m6.797 5.54 1.029-1.03a.188.188 0 0 0-.11-.318L3.96 3.749a.188.188 0 0 0-.209.208l.443 3.755c.019.155.209.22.319.11l1.024-1.024 3.134 3.131a.188.188 0 0 0 .265 0l.993-.991a.188.188 0 0 0 0-.265L6.797 5.539Zm8.266 4.39a.188.188 0 0 0 .265 0l3.134-3.132 1.024 1.024a.188.188 0 0 0 .319-.11l.443-3.752a.188.188 0 0 0-.209-.209l-3.755.443a.188.188 0 0 0-.11.319l1.03 1.029-3.135 3.129a.188.188 0 0 0 0 .264l.994.994Zm4.742 6.355a.188.188 0 0 0-.32-.11L18.463 17.2l-3.134-3.13a.188.188 0 0 0-.265 0l-.994.99a.188.188 0 0 0 0 .265l3.134 3.134-1.029 1.029a.188.188 0 0 0 .11.319l3.755.443a.188.188 0 0 0 .209-.209l-.443-3.755ZM8.937 14.068a.188.188 0 0 0-.265 0L5.538 17.2l-1.024-1.024a.187.187 0 0 0-.319.11l-.443 3.753a.188.188 0 0 0 .209.208l3.755-.443a.188.188 0 0 0 .11-.318l-1.03-1.027 3.134-3.131a.188.188 0 0 0 0-.265l-.993-.994Z" fill="#42494D"/>
</svg>
