<svg width="24" height="24" fill="none" xmlns="http://www.w3.org/2000/svg">
    <path d="M9.563 10.36h11.25a.188.188 0 0 0 .187-.188V8.859a.188.188 0 0 0-.188-.187H9.563a.188.188 0 0 0-.187.187v1.313c0 .103.084.187.188.187Zm-.188 4.78c0 .104.084.188.188.188h11.25a.188.188 0 0 0 .187-.187v-1.313a.188.188 0 0 0-.188-.187H9.563a.188.188 0 0 0-.187.187v1.313ZM21.188 3.75H2.813a.188.188 0 0 0-.188.188V5.25c0 .103.084.188.188.188h18.375a.188.188 0 0 0 .187-.188V3.937a.188.188 0 0 0-.188-.187Zm0 14.813H2.813a.188.188 0 0 0-.188.187v1.313c0 .103.084.187.188.187h18.375a.188.188 0 0 0 .187-.188V18.75a.188.188 0 0 0-.188-.188Zm-17.85-3.514L7 12.164a.208.208 0 0 0 0-.326L3.337 8.951A.208.208 0 0 0 3 9.113v5.772a.208.208 0 0 0 .337.164Z" fill="#42494D"/>
</svg>
