<svg width="24" height="24" fill="none" xmlns="http://www.w3.org/2000/svg">
    <path d="M20.625 2.625H3.375a.75.75 0 0 0-.75.75v17.25c0 .415.335.75.75.75h17.25a.75.75 0 0 0 .75-.75V3.375a.75.75 0 0 0-.75-.75Zm-.938 17.063H4.313V4.313h15.375v15.375Z" fill="#F85A00"/>
    <path d="M4.313 19.688h15.375V4.313H4.313v15.375ZM7.828 9.374h1.1c.24 0 .466.115.606.31L12 13.091l2.466-3.408a.75.75 0 0 1 .607-.309h1.099c.152 0 .241.173.15.298l-4.172 5.765a.187.187 0 0 1-.302 0L7.676 9.673a.188.188 0 0 1 .152-.298Z" fill="#F85A00" fill-opacity=".05"/>
    <path d="M11.847 15.438a.186.186 0 0 0 .302 0l4.172-5.765a.187.187 0 0 0-.15-.298h-1.1a.75.75 0 0 0-.606.31l-2.466 3.407-2.466-3.408a.747.747 0 0 0-.607-.309H7.827a.188.188 0 0 0-.152.298l4.172 5.765Z" fill="#F85A00"/>
</svg>
