<svg width="24" height="24" fill="none" xmlns="http://www.w3.org/2000/svg">
    <path d="M20.625 2.625H3.375a.75.75 0 0 0-.75.75v17.25c0 .415.335.75.75.75h17.25a.75.75 0 0 0 .75-.75V3.375a.75.75 0 0 0-.75-.75Zm-.938 17.063H4.313V4.313h15.375v15.375Z" fill="#F85A00"/>
    <path d="M4.313 19.688h15.375V4.313H4.313v15.375Zm5.062-4.615a.75.75 0 0 1 .31-.607L13.091 12 9.684 9.534a.747.747 0 0 1-.309-.607V7.828c0-.152.173-.241.298-.152l5.765 4.172a.186.186 0 0 1 0 .302l-5.765 4.172a.187.187 0 0 1-.298-.15v-1.1Z" fill="#F85A00" fill-opacity=".05"/>
    <path d="m9.673 16.322 5.765-4.172a.186.186 0 0 0 0-.302L9.673 7.676a.188.188 0 0 0-.298.152v1.1c0 .24.115.466.31.606L13.091 12l-3.408 2.466a.75.75 0 0 0-.309.607v1.099c0 .152.173.241.298.15Z" fill="#F85A00"/>
</svg>
