<svg width="24" height="24" fill="none" xmlns="http://www.w3.org/2000/svg">
    <path d="M9.164 5.646a.188.188 0 0 0-.318-.11L7.82 6.56 4.688 3.428a.188.188 0 0 0-.265 0l-.994.992a.188.188 0 0 0 0 .265l3.134 3.133-1.03 1.03a.188.188 0 0 0 .111.318l3.755.443a.188.188 0 0 0 .208-.209l-.443-3.754Zm.237 8.746-3.757.443a.188.188 0 0 0-.11.32l1.029 1.028-3.134 3.129a.188.188 0 0 0 0 .265l.994.991a.188.188 0 0 0 .265 0l3.133-3.131 1.025 1.024a.187.187 0 0 0 .318-.11l.443-3.752a.186.186 0 0 0-.206-.207ZM14.6 9.607l3.757-.443a.188.188 0 0 0 .11-.32l-1.03-1.026 3.134-3.131a.188.188 0 0 0 0-.265l-.993-.991a.188.188 0 0 0-.265 0L16.179 6.56l-1.024-1.025a.188.188 0 0 0-.319.11l-.443 3.753a.186.186 0 0 0 .207.209Zm2.838 6.574 1.029-1.03a.187.187 0 0 0-.11-.318l-3.755-.443a.188.188 0 0 0-.209.209l.443 3.754c.019.155.209.22.319.11l1.024-1.024 3.134 3.132a.188.188 0 0 0 .265 0l.993-.992a.188.188 0 0 0 0-.265l-3.133-3.133Z" fill="#42494D"/>
</svg>
