<svg width="24" height="24" fill="none" xmlns="http://www.w3.org/2000/svg">
    <path d="M12 1.5C6.202 1.5 1.5 6.202 1.5 12S6.202 22.5 12 22.5 22.5 17.798 22.5 12 17.798 1.5 12 1.5Zm0 19.219A8.72 8.72 0 0 1 3.281 12 8.72 8.72 0 0 1 12 3.281 8.72 8.72 0 0 1 20.719 12 8.72 8.72 0 0 1 12 20.719Z" fill="#42494D"/>
    <path d="m16.86 11.698-6.94-5.04a.373.373 0 0 0-.592.303V17.04c0 .307.347.48.593.303l6.94-5.04a.372.372 0 0 0 0-.604Zm-6.037 3.14V9.162L14.73 12l-3.907 2.838Z" fill="#42494D"/>
</svg>
