<svg width="24" height="24" fill="none" xmlns="http://www.w3.org/2000/svg">
    <path d="M8.625 3H7.312a.188.188 0 0 0-.187.188V4.5c0 .103.084.188.188.188h1.312a.188.188 0 0 0 .188-.188V3.187A.188.188 0 0 0 8.624 3Zm-.047 16.313H7.266a.188.188 0 0 0-.188.187v1.313c0 .103.084.187.188.187h1.312a.188.188 0 0 0 .188-.188V19.5a.188.188 0 0 0-.188-.188Zm12.235-4.079H19.5a.188.188 0 0 0-.188.188v1.312c0 .103.085.188.188.188h1.313a.188.188 0 0 0 .187-.188v-1.312a.188.188 0 0 0-.188-.188Zm0 4.079H19.5a.188.188 0 0 0-.188.187v1.313c0 .103.085.187.188.187h1.313a.188.188 0 0 0 .187-.188V19.5a.188.188 0 0 0-.188-.188ZM4.5 3H3.187A.188.188 0 0 0 3 3.188V4.5c0 .103.084.188.188.188H4.5a.188.188 0 0 0 .188-.188V3.187A.188.188 0 0 0 4.5 3Zm0 4.078H3.187A.188.188 0 0 0 3 7.266v1.312c0 .103.084.188.188.188H4.5a.188.188 0 0 0 .188-.188V7.266a.188.188 0 0 0-.188-.188Zm0 4.078H3.187a.188.188 0 0 0-.187.188v1.312c0 .103.084.188.188.188H4.5a.188.188 0 0 0 .188-.188v-1.312a.188.188 0 0 0-.188-.188Zm0 4.078H3.187a.188.188 0 0 0-.187.188v1.312c0 .103.084.188.188.188H4.5a.188.188 0 0 0 .188-.188v-1.312a.188.188 0 0 0-.188-.188Zm0 4.079H3.187A.188.188 0 0 0 3 19.5v1.313c0 .103.084.187.188.187H4.5a.188.188 0 0 0 .188-.188V19.5a.188.188 0 0 0-.188-.188Zm8.156 0h-1.312a.188.188 0 0 0-.188.187v1.313c0 .103.085.187.188.187h1.312a.188.188 0 0 0 .188-.188V19.5a.188.188 0 0 0-.188-.188Zm4.078 0h-1.312a.188.188 0 0 0-.188.187v1.313c0 .103.085.187.188.187h1.312a.188.188 0 0 0 .188-.188V19.5a.188.188 0 0 0-.188-.188ZM15.61 3h-4.265a.188.188 0 0 0-.188.188V4.5c0 .103.085.188.188.188h4.265a3.702 3.702 0 0 1 3.704 3.703v4.265c0 .103.084.188.187.188h1.313a.188.188 0 0 0 .187-.188V8.391A5.391 5.391 0 0 0 15.61 3Z" fill="#42494D"/>
</svg>
