<svg width="24" height="24" fill="none" xmlns="http://www.w3.org/2000/svg">
    <path d="M12.656 3.375h-1.312a.188.188 0 0 0-.188.188v16.875c0 .103.085.187.188.187h1.312a.188.188 0 0 0 .188-.188V3.563a.188.188 0 0 0-.188-.187Zm-3.89 0H7.453a.188.188 0 0 0-.187.188v1.312c0 .103.084.188.187.188h1.313a.188.188 0 0 0 .187-.188V3.562a.188.188 0 0 0-.187-.187Zm11.671 0h-1.312a.188.188 0 0 0-.188.188v1.312c0 .103.085.188.188.188h1.313a.188.188 0 0 0 .187-.188V3.562a.188.188 0 0 0-.188-.187Zm-15.562 0H3.562a.188.188 0 0 0-.187.188v1.312c0 .103.084.188.188.188h1.312a.188.188 0 0 0 .188-.188V3.562a.188.188 0 0 0-.188-.187Zm11.672 0h-1.313a.188.188 0 0 0-.187.188v1.312c0 .103.084.188.187.188h1.313a.188.188 0 0 0 .187-.188V3.562a.188.188 0 0 0-.187-.187ZM4.875 7.265H3.562a.188.188 0 0 0-.187.188v1.313c0 .103.084.187.188.187h1.312a.188.188 0 0 0 .188-.187V7.453a.188.188 0 0 0-.188-.187Zm15.563 0h-1.313a.188.188 0 0 0-.188.188v1.313c0 .103.085.187.188.187h1.313a.188.188 0 0 0 .187-.187V7.453a.188.188 0 0 0-.188-.187Zm0 7.782h-1.313a.188.188 0 0 0-.188.187v1.313c0 .103.085.187.188.187h1.313a.188.188 0 0 0 .187-.187v-1.313a.188.188 0 0 0-.188-.187Zm-15.563 0H3.562a.188.188 0 0 0-.187.187v1.313c0 .103.084.187.188.187h1.312a.188.188 0 0 0 .188-.187v-1.313a.188.188 0 0 0-.188-.187Zm0 3.89H3.562a.188.188 0 0 0-.187.188v1.313c0 .103.084.187.188.187h1.312a.188.188 0 0 0 .188-.188v-1.312a.188.188 0 0 0-.188-.188Zm0-7.78H3.562a.188.188 0 0 0-.187.187v1.312c0 .103.084.188.188.188h1.312a.188.188 0 0 0 .188-.188v-1.312a.188.188 0 0 0-.188-.188Zm15.563 7.78h-1.313a.188.188 0 0 0-.188.188v1.313c0 .103.085.187.188.187h1.313a.188.188 0 0 0 .187-.188v-1.312a.188.188 0 0 0-.188-.188Zm0-7.78h-1.313a.188.188 0 0 0-.188.187v1.312c0 .103.085.188.188.188h1.313a.188.188 0 0 0 .187-.188v-1.312a.188.188 0 0 0-.188-.188Zm-11.672 7.78H7.453a.188.188 0 0 0-.187.188v1.313c0 .103.084.187.187.187h1.313a.188.188 0 0 0 .187-.188v-1.312a.188.188 0 0 0-.187-.188Zm0-7.78H7.453a.188.188 0 0 0-.187.187v1.312c0 .103.084.188.187.188h1.313a.188.188 0 0 0 .187-.188v-1.312a.188.188 0 0 0-.187-.188Zm7.78 7.78h-1.312a.188.188 0 0 0-.187.188v1.313c0 .103.084.187.187.187h1.313a.188.188 0 0 0 .187-.188v-1.312a.188.188 0 0 0-.187-.188Zm0-7.78h-1.312a.188.188 0 0 0-.187.187v1.312c0 .103.084.188.187.188h1.313a.188.188 0 0 0 .187-.188v-1.312a.188.188 0 0 0-.187-.188Z" fill="#42494D"/>
</svg>
