<svg width="24" height="24" fill="none" xmlns="http://www.w3.org/2000/svg">
    <path d="M12 1.5C6.202 1.5 1.5 6.202 1.5 12S6.202 22.5 12 22.5 22.5 17.798 22.5 12 17.798 1.5 12 1.5Zm0 19.219A8.72 8.72 0 0 1 3.281 12 8.72 8.72 0 0 1 12 3.281 8.72 8.72 0 0 1 20.719 12 8.72 8.72 0 0 1 12 20.719Z" fill="#F85A00"/>
    <path d="M12 3.281A8.72 8.72 0 0 0 3.281 12 8.72 8.72 0 0 0 12 20.719 8.72 8.72 0 0 0 20.719 12 8.72 8.72 0 0 0 12 3.281Zm3.846 8.864-5.119 3.725a.187.187 0 0 1-.297-.153V8.273a.188.188 0 0 1 .297-.152l5.12 3.722a.185.185 0 0 1 0 .302Z" fill="#F85A00" fill-opacity=".05"/>
    <path d="m15.846 11.843-5.119-3.722a.187.187 0 0 0-.297.152v7.444a.187.187 0 0 0 .102.167.188.188 0 0 0 .195-.014l5.12-3.725a.185.185 0 0 0 0-.302Z" fill="#F85A00"/>
</svg>
