<svg width="24" height="24" fill="none" xmlns="http://www.w3.org/2000/svg">
    <path d="M12 3.281A8.72 8.72 0 0 0 3.281 12 8.72 8.72 0 0 0 12 20.719 8.72 8.72 0 0 0 20.719 12 8.72 8.72 0 0 0 12 3.281Zm4.322 6.509-4.172 5.766a.188.188 0 0 1-.236.056.186.186 0 0 1-.066-.056L7.676 9.79a.188.188 0 0 1 .152-.298h1.1c.24 0 .466.115.606.31L12 13.209l2.466-3.407a.75.75 0 0 1 .607-.31h1.099c.152 0 .241.174.15.298Z" fill="#F85A00" fill-opacity=".05"/>
    <path d="M12 1.5C6.202 1.5 1.5 6.202 1.5 12S6.202 22.5 12 22.5 22.5 17.798 22.5 12 17.798 1.5 12 1.5Zm0 19.219A8.72 8.72 0 0 1 3.281 12 8.72 8.72 0 0 1 12 3.281 8.72 8.72 0 0 1 20.719 12 8.72 8.72 0 0 1 12 20.719Z" fill="#F85A00"/>
    <path d="M16.171 9.492h-1.1a.75.75 0 0 0-.606.31l-2.466 3.407-2.466-3.407a.747.747 0 0 0-.607-.31H7.827c-.152 0-.241.174-.152.298l4.172 5.766a.186.186 0 0 0 .302 0l4.172-5.766a.187.187 0 0 0-.15-.298Z" fill="#F85A00"/>
</svg>
