<svg width="24" height="24" fill="none" xmlns="http://www.w3.org/2000/svg">
    <path d="M15.375 4.688h1.313a.188.188 0 0 0 .187-.188V3.187A.188.188 0 0 0 16.687 3h-1.312a.188.188 0 0 0-.188.188V4.5c0 .103.085.188.188.188Zm1.36 14.625h-1.313a.188.188 0 0 0-.188.187v1.313c0 .103.085.187.188.187h1.312a.188.188 0 0 0 .188-.188V19.5a.188.188 0 0 0-.188-.188ZM4.5 15.233H3.187a.188.188 0 0 0-.187.188v1.312c0 .103.084.188.188.188H4.5a.188.188 0 0 0 .188-.188v-1.312a.188.188 0 0 0-.188-.188Zm0 4.079H3.187A.188.188 0 0 0 3 19.5v1.313c0 .103.084.187.188.187H4.5a.188.188 0 0 0 .188-.188V19.5a.188.188 0 0 0-.188-.188ZM20.813 3H19.5a.188.188 0 0 0-.188.188V4.5c0 .103.085.188.188.188h1.313A.188.188 0 0 0 21 4.5V3.187A.188.188 0 0 0 20.812 3Zm0 4.078H19.5a.188.188 0 0 0-.188.188v1.312c0 .103.085.188.188.188h1.313A.188.188 0 0 0 21 8.578V7.266a.188.188 0 0 0-.188-.188Zm0 4.078H19.5a.188.188 0 0 0-.188.188v1.312c0 .103.085.188.188.188h1.313a.188.188 0 0 0 .187-.188v-1.312a.188.188 0 0 0-.188-.188Zm0 4.078H19.5a.188.188 0 0 0-.188.188v1.312c0 .103.085.188.188.188h1.313a.188.188 0 0 0 .187-.188v-1.312a.188.188 0 0 0-.188-.188Zm0 4.079H19.5a.188.188 0 0 0-.188.187v1.313c0 .103.085.187.188.187h1.313a.188.188 0 0 0 .187-.188V19.5a.188.188 0 0 0-.188-.188Zm-8.157 0h-1.312a.188.188 0 0 0-.188.187v1.313c0 .103.085.187.188.187h1.312a.188.188 0 0 0 .188-.188V19.5a.188.188 0 0 0-.188-.188Zm-4.078 0H7.266a.188.188 0 0 0-.188.187v1.313c0 .103.084.187.188.187h1.312a.188.188 0 0 0 .188-.188V19.5a.188.188 0 0 0-.188-.188ZM12.656 3H8.391A5.391 5.391 0 0 0 3 8.39v4.266c0 .103.084.188.188.188H4.5a.188.188 0 0 0 .188-.188V8.391A3.702 3.702 0 0 1 8.39 4.687h4.265a.188.188 0 0 0 .188-.187V3.187A.188.188 0 0 0 12.656 3Z" fill="#42494D"/>
</svg>
