<svg width="24" height="24" fill="none" xmlns="http://www.w3.org/2000/svg">
    <path d="m20.039 3.752-4.434.55a.187.187 0 0 0-.11.317l1.281 1.282-3.597 3.598a.188.188 0 0 0 0 .264l1.057 1.057a.188.188 0 0 0 .265 0l3.6-3.6 1.282 1.283a.186.186 0 0 0 .316-.11l.549-4.433a.185.185 0 0 0-.209-.208ZM9.764 13.178a.188.188 0 0 0-.265 0l-3.597 3.6-1.283-1.282a.186.186 0 0 0-.316.11l-.55 4.432a.187.187 0 0 0 .208.21l4.434-.552a.187.187 0 0 0 .11-.316l-1.282-1.282 3.6-3.6a.188.188 0 0 0 0-.265l-1.059-1.055Z" fill="#42494D"/>
</svg>
