<svg width="24" height="24" fill="none" xmlns="http://www.w3.org/2000/svg">
    <path d="M20.625 2.625H3.375a.75.75 0 0 0-.75.75v17.25c0 .415.335.75.75.75h17.25a.75.75 0 0 0 .75-.75V3.375a.75.75 0 0 0-.75-.75Zm-.938 17.063H4.313V4.313h15.375v15.375Z" fill="#F85A00"/>
    <path d="M4.313 19.688h15.375V4.313H4.313v15.375Zm4.249-7.84 5.765-4.172c.125-.09.298 0 .298.152v1.1a.747.747 0 0 1-.31.606L10.909 12l3.408 2.466a.75.75 0 0 1 .309.607v1.099a.187.187 0 0 1-.298.15L8.562 12.15a.187.187 0 0 1 0-.302Z" fill="#F85A00" fill-opacity=".05"/>
    <path d="m8.561 12.15 5.766 4.172a.187.187 0 0 0 .297-.15v-1.1a.75.75 0 0 0-.309-.606L10.907 12l3.408-2.466a.747.747 0 0 0 .31-.607V7.828a.188.188 0 0 0-.298-.152L8.56 11.848a.187.187 0 0 0 0 .302Z" fill="#F85A00"/>
</svg>
