<svg width="24" height="24" fill="none" xmlns="http://www.w3.org/2000/svg">
    <path d="M15.626 11.847 9.86 7.675a.188.188 0 0 0-.297.152v1.1c0 .239.114.466.309.607l3.408 2.465-3.408 2.466a.747.747 0 0 0-.31.607v1.099c0 .152.174.241.298.152l5.766-4.171a.189.189 0 0 0 0-.305Z" fill="#42494D"/>
    <path d="M12 1.5C6.202 1.5 1.5 6.202 1.5 12S6.202 22.5 12 22.5 22.5 17.798 22.5 12 17.798 1.5 12 1.5Zm0 19.219A8.72 8.72 0 0 1 3.281 12 8.72 8.72 0 0 1 12 3.281 8.72 8.72 0 0 1 20.719 12 8.72 8.72 0 0 1 12 20.719Z" fill="#42494D"/>
</svg>
