<svg width="24" height="24" fill="none" xmlns="http://www.w3.org/2000/svg">
    <path d="m8.562 12.151 5.765 4.172c.125.09.298 0 .298-.152v-1.1a.75.75 0 0 0-.31-.606l-3.407-2.466 3.408-2.466a.747.747 0 0 0 .309-.607V7.827c0-.152-.173-.241-.298-.152l-5.765 4.172a.19.19 0 0 0 0 .304Z" fill="#42494D"/>
    <path d="M20.625 2.625H3.375a.75.75 0 0 0-.75.75v17.25c0 .415.335.75.75.75h17.25a.75.75 0 0 0 .75-.75V3.375a.75.75 0 0 0-.75-.75Zm-.938 17.063H4.313V4.313h15.375v15.375Z" fill="#42494D"/>
</svg>
