<svg width="24" height="24" fill="none" xmlns="http://www.w3.org/2000/svg">
    <path d="M20.438 18.938H3.563a.188.188 0 0 0-.188.187v1.313c0 .103.084.187.188.187h16.875a.188.188 0 0 0 .187-.188v-1.312a.188.188 0 0 0-.188-.188ZM3.563 16.733h1.312a.188.188 0 0 0 .188-.187v-1.313a.188.188 0 0 0-.188-.187H3.562a.188.188 0 0 0-.187.187v1.313c0 .103.084.187.188.187Zm0-11.672h1.312a.188.188 0 0 0 .188-.187V3.562a.188.188 0 0 0-.188-.187H3.562a.188.188 0 0 0-.187.188v1.312c0 .103.084.188.188.188Zm0 7.782h1.312a.188.188 0 0 0 .188-.188v-1.312a.188.188 0 0 0-.188-.188H3.562a.188.188 0 0 0-.187.188v1.312c0 .103.084.188.188.188Zm0-3.89h1.312a.188.188 0 0 0 .188-.188V7.453a.188.188 0 0 0-.188-.187H3.562a.188.188 0 0 0-.187.187v1.313c0 .103.084.187.188.187Zm3.89 3.89h1.313a.188.188 0 0 0 .187-.188v-1.312a.188.188 0 0 0-.187-.188H7.453a.188.188 0 0 0-.187.188v1.312c0 .103.084.188.187.188Zm0-7.781h1.313a.188.188 0 0 0 .187-.188V3.562a.188.188 0 0 0-.187-.187H7.453a.188.188 0 0 0-.187.188v1.312c0 .103.084.188.187.188Zm7.781 0h1.313a.188.188 0 0 0 .187-.188V3.562a.188.188 0 0 0-.187-.187h-1.313a.188.188 0 0 0-.187.188v1.312c0 .103.084.188.187.188Zm0 7.78h1.313a.188.188 0 0 0 .187-.187v-1.312a.188.188 0 0 0-.187-.188h-1.313a.188.188 0 0 0-.187.188v1.312c0 .103.084.188.187.188Zm5.204-1.687h-1.313a.188.188 0 0 0-.188.188v1.312c0 .103.085.188.188.188h1.313a.188.188 0 0 0 .187-.188v-1.312a.188.188 0 0 0-.188-.188Zm-9.094 1.688h1.312a.188.188 0 0 0 .188-.188v-1.312a.188.188 0 0 0-.188-.188h-1.312a.188.188 0 0 0-.188.188v1.312c0 .103.085.188.188.188Zm9.094-9.469h-1.313a.188.188 0 0 0-.188.188v1.312c0 .103.085.188.188.188h1.313a.188.188 0 0 0 .187-.188V3.562a.188.188 0 0 0-.188-.187Zm-9.094 1.688h1.312a.188.188 0 0 0 .188-.188V3.562a.188.188 0 0 0-.188-.187h-1.312a.188.188 0 0 0-.188.188v1.312c0 .103.085.188.188.188Zm9.094 9.984h-1.313a.188.188 0 0 0-.188.187v1.313c0 .103.085.187.188.187h1.313a.188.188 0 0 0 .187-.187v-1.313a.188.188 0 0 0-.188-.187Zm-9.094 1.687h1.312a.188.188 0 0 0 .188-.187v-1.313a.188.188 0 0 0-.188-.187h-1.312a.188.188 0 0 0-.188.187v1.313c0 .103.085.187.188.187Zm9.094-9.468h-1.313a.188.188 0 0 0-.188.187v1.313c0 .103.085.187.188.187h1.313a.188.188 0 0 0 .187-.187V7.453a.188.188 0 0 0-.188-.187Zm-9.094 1.687h1.312a.188.188 0 0 0 .188-.187V7.453a.188.188 0 0 0-.188-.187h-1.312a.188.188 0 0 0-.188.187v1.313c0 .103.085.187.188.187Z" fill="#42494D"/>
</svg>
