<svg width="24" height="24" fill="none" xmlns="http://www.w3.org/2000/svg">
    <path d="M8.625 19.313H7.312a.188.188 0 0 0-.187.187v1.313c0 .103.084.187.188.187h1.312a.188.188 0 0 0 .188-.188V19.5a.188.188 0 0 0-.188-.188ZM7.265 4.688h1.313a.188.188 0 0 0 .188-.188V3.187A.188.188 0 0 0 8.578 3H7.266a.188.188 0 0 0-.188.188V4.5c0 .103.084.188.188.188Zm13.547 2.39H19.5a.188.188 0 0 0-.188.188v1.312c0 .103.085.188.188.188h1.313A.188.188 0 0 0 21 8.578V7.266a.188.188 0 0 0-.188-.188Zm0-4.078H19.5a.188.188 0 0 0-.188.188V4.5c0 .103.085.188.188.188h1.313A.188.188 0 0 0 21 4.5V3.187A.188.188 0 0 0 20.812 3ZM4.5 19.313H3.187A.188.188 0 0 0 3 19.5v1.313c0 .103.084.187.188.187H4.5a.188.188 0 0 0 .188-.188V19.5a.188.188 0 0 0-.188-.188Zm0-4.079H3.187a.188.188 0 0 0-.187.188v1.312c0 .103.084.188.188.188H4.5a.188.188 0 0 0 .188-.188v-1.312a.188.188 0 0 0-.188-.188Zm0-4.078H3.187a.188.188 0 0 0-.187.188v1.312c0 .103.084.188.188.188H4.5a.188.188 0 0 0 .188-.188v-1.312a.188.188 0 0 0-.188-.188Zm0-4.078H3.187A.188.188 0 0 0 3 7.266v1.312c0 .103.084.188.188.188H4.5a.188.188 0 0 0 .188-.188V7.266a.188.188 0 0 0-.188-.188ZM4.5 3H3.187A.188.188 0 0 0 3 3.188V4.5c0 .103.084.188.188.188H4.5a.188.188 0 0 0 .188-.188V3.187A.188.188 0 0 0 4.5 3Zm6.844 1.688h1.312a.188.188 0 0 0 .188-.188V3.187A.188.188 0 0 0 12.656 3h-1.312a.188.188 0 0 0-.188.188V4.5c0 .103.085.188.188.188Zm4.078 0h1.312a.188.188 0 0 0 .188-.188V3.187A.188.188 0 0 0 16.734 3h-1.312a.188.188 0 0 0-.188.188V4.5c0 .103.085.188.188.188Zm5.39 6.468H19.5a.188.188 0 0 0-.188.188v4.265a3.702 3.702 0 0 1-3.703 3.704h-4.265a.188.188 0 0 0-.188.187v1.313c0 .103.085.187.188.187h4.265A5.391 5.391 0 0 0 21 15.61v-4.266a.188.188 0 0 0-.188-.188Z" fill="#42494D"/>
</svg>
