<svg width="24" height="24" fill="none" xmlns="http://www.w3.org/2000/svg">
    <path d="M12 3.281A8.72 8.72 0 0 0 3.281 12 8.72 8.72 0 0 0 12 20.719 8.72 8.72 0 0 0 20.719 12 8.72 8.72 0 0 0 12 3.281Zm3.626 8.869L9.86 16.322a.188.188 0 0 1-.297-.152v-1.1a.75.75 0 0 1 .309-.607L13.28 12 9.872 9.534a.747.747 0 0 1-.31-.607V7.828c0-.152.174-.241.298-.152l5.766 4.172a.186.186 0 0 1 0 .302Z" fill="#F85A00" fill-opacity=".05"/>
    <path d="M12 1.5C6.202 1.5 1.5 6.202 1.5 12S6.202 22.5 12 22.5 22.5 17.798 22.5 12 17.798 1.5 12 1.5Zm0 19.219A8.72 8.72 0 0 1 3.281 12 8.72 8.72 0 0 1 12 3.281 8.72 8.72 0 0 1 20.719 12 8.72 8.72 0 0 1 12 20.719Z" fill="#F85A00"/>
    <path d="M15.626 11.848 9.86 7.676a.188.188 0 0 0-.297.152v1.1c0 .24.114.466.309.606L13.28 12l-3.408 2.463a.75.75 0 0 0-.31.607v1.1c0 .152.174.24.298.152l5.766-4.172a.186.186 0 0 0 0-.302Z" fill="#F85A00"/>
</svg>
