<svg width="24" height="24" fill="none" xmlns="http://www.w3.org/2000/svg">
    <path d="M2.625 12.39c0 .104.084.188.188.188h18.375a.188.188 0 0 0 .187-.187v-1.313a.188.188 0 0 0-.188-.187H2.813a.188.188 0 0 0-.187.187v1.313ZM21.188 6H2.813a.188.188 0 0 0-.188.188V7.5c0 .103.084.188.188.188h18.375a.188.188 0 0 0 .187-.188V6.187A.188.188 0 0 0 21.187 6Zm0 9.813H2.813a.188.188 0 0 0-.188.187v1.313c0 .103.084.187.188.187h18.375a.188.188 0 0 0 .187-.188V16a.188.188 0 0 0-.188-.188Z" fill="#42494D"/>
</svg>
