<svg width="24" height="24" fill="none" xmlns="http://www.w3.org/2000/svg">
    <path d="M16.688 19.313h-1.313a.188.188 0 0 0-.188.187v1.313c0 .103.085.187.188.187h1.313a.188.188 0 0 0 .187-.188V19.5a.188.188 0 0 0-.188-.188ZM16.733 3h-1.312a.188.188 0 0 0-.188.188V4.5c0 .103.085.188.188.188h1.312a.188.188 0 0 0 .188-.188V3.187A.188.188 0 0 0 16.734 3ZM3.187 8.766H4.5a.188.188 0 0 0 .188-.188V7.266a.188.188 0 0 0-.188-.188H3.187A.188.188 0 0 0 3 7.266v1.312c0 .103.084.188.188.188Zm0-4.079H4.5a.188.188 0 0 0 .188-.187V3.187A.188.188 0 0 0 4.5 3H3.187A.188.188 0 0 0 3 3.188V4.5c0 .103.084.188.188.188Zm17.625 14.625H19.5a.188.188 0 0 0-.188.188v1.313c0 .103.085.187.188.187h1.313a.188.188 0 0 0 .187-.188V19.5a.188.188 0 0 0-.188-.188Zm0-4.078H19.5a.188.188 0 0 0-.188.188v1.312c0 .103.085.188.188.188h1.313a.188.188 0 0 0 .187-.188v-1.312a.188.188 0 0 0-.188-.188Zm0-4.078H19.5a.188.188 0 0 0-.188.188v1.312c0 .103.085.188.188.188h1.313a.188.188 0 0 0 .187-.188v-1.312a.188.188 0 0 0-.188-.188Zm0-4.078H19.5a.188.188 0 0 0-.188.188v1.312c0 .103.085.188.188.188h1.313A.188.188 0 0 0 21 8.578V7.266a.188.188 0 0 0-.188-.188Zm0-4.078H19.5a.188.188 0 0 0-.188.188V4.5c0 .103.085.188.188.188h1.313A.188.188 0 0 0 21 4.5V3.187A.188.188 0 0 0 20.812 3Zm-8.156 0h-1.312a.188.188 0 0 0-.188.188V4.5c0 .103.085.188.188.188h1.312a.188.188 0 0 0 .188-.188V3.187A.188.188 0 0 0 12.656 3Zm-5.39 1.688h1.312a.188.188 0 0 0 .188-.188V3.187A.188.188 0 0 0 8.578 3H7.266a.188.188 0 0 0-.188.188V4.5c0 .103.084.188.188.188Zm5.39 14.625H8.391a3.702 3.702 0 0 1-3.704-3.704v-4.265a.188.188 0 0 0-.187-.188H3.187a.188.188 0 0 0-.187.188v4.265A5.391 5.391 0 0 0 8.39 21h4.266a.188.188 0 0 0 .188-.188V19.5a.188.188 0 0 0-.188-.188Z" fill="#42494D"/>
</svg>
