<svg width="24" height="24" fill="none" xmlns="http://www.w3.org/2000/svg">
    <path d="M11.986 2.906a9.366 9.366 0 0 0-9.361 9.373c0 3 1.41 5.672 3.605 7.387l-.88 1.125a.187.187 0 0 0 .148.303l3.914-.019c.122 0 .211-.115.181-.232l-.926-3.804a.188.188 0 0 0-.33-.07l-.954 1.221a7.64 7.64 0 0 1-.687-.61A7.468 7.468 0 0 1 4.5 12.28a7.468 7.468 0 0 1 2.196-5.302A7.468 7.468 0 0 1 12 4.781a7.47 7.47 0 0 1 5.302 2.196 7.47 7.47 0 0 1 2.196 5.302 7.47 7.47 0 0 1-2.745 5.799.186.186 0 0 0-.028.26l.923 1.183a.19.19 0 0 0 .268.03 9.356 9.356 0 0 0 3.459-7.272c0-5.182-4.205-9.38-9.39-9.373Z" fill="#42494D"/>
</svg>
