<svg width="24" height="24" fill="none" xmlns="http://www.w3.org/2000/svg">
    <path d="m21.311 11.866-2.99-2.36a.17.17 0 0 0-.274.134v1.516h-5.204V5.953h1.52a.17.17 0 0 0 .133-.274l-2.363-2.99a.168.168 0 0 0-.265 0l-2.362 2.99a.17.17 0 0 0 .134.274h1.516v5.203H5.953V9.637a.17.17 0 0 0-.274-.133l-2.991 2.362a.167.167 0 0 0 0 .265l2.988 2.362a.17.17 0 0 0 .274-.133v-1.516h5.204v5.203h-1.52a.17.17 0 0 0-.133.274l2.363 2.988c.068.087.199.087.265 0l2.362-2.988a.17.17 0 0 0-.133-.274h-1.515v-5.204h5.204v1.52c0 .14.164.22.274.133l2.988-2.363a.172.172 0 0 0 .002-.267Z" fill="#42494D"/>
</svg>
