<svg width="24" height="24" fill="none" xmlns="http://www.w3.org/2000/svg">
    <path d="M14.93 10.383H7.617a.188.188 0 0 0-.187.188v1.406c0 .103.084.187.187.187h7.313a.188.188 0 0 0 .187-.187V10.57a.188.188 0 0 0-.187-.187Zm6.656 9.938-3.422-3.422c2.862-3.49 2.663-8.66-.61-11.93-3.468-3.471-9.102-3.471-12.585 0-3.471 3.483-3.471 9.117 0 12.586 3.27 3.272 8.44 3.471 11.93.61l3.421 3.421c.075.066.195.066.258 0l1.008-1.008c.066-.063.066-.183 0-.258Zm-5.273-4.008a7.128 7.128 0 0 1-10.078 0 7.128 7.128 0 0 1 0-10.078 7.128 7.128 0 0 1 10.078 0 7.128 7.128 0 0 1 0 10.078Z" fill="#42494D"/>
</svg>
