<svg width="24" height="24" fill="none" xmlns="http://www.w3.org/2000/svg">
    <path d="M2.813 5.39h11.624a.188.188 0 0 0 .188-.187V3.891a.188.188 0 0 0-.188-.188H2.813a.188.188 0 0 0-.188.188v1.312c0 .103.084.188.188.188Zm0 9.938h11.624a.188.188 0 0 0 .188-.187v-1.313a.188.188 0 0 0-.188-.187H2.813a.188.188 0 0 0-.188.187v1.313c0 .103.084.187.188.187Zm18.375 3.281H2.813a.188.188 0 0 0-.188.188v1.312c0 .103.084.188.188.188h18.375a.188.188 0 0 0 .187-.188v-1.312a.188.188 0 0 0-.188-.188Zm0-9.937H2.813a.188.188 0 0 0-.188.187v1.313c0 .103.084.187.188.187h18.375a.188.188 0 0 0 .187-.187V8.859a.188.188 0 0 0-.188-.187Z" fill="#42494D"/>
</svg>
