<svg width="24" height="24" fill="none" xmlns="http://www.w3.org/2000/svg">
    <path d="m22.444 11.892-8.306-8.184a.186.186 0 0 0-.263 0L8.28 9.22a.188.188 0 0 0-.002.265l.002.003.938.923-2.747 2.703a.188.188 0 0 0-.002.264l.002.003.926.911-4.432 4.383H1.69a.19.19 0 0 0-.19.188v1.293c0 .104.084.188.188.188H9.77c.05 0 .096-.019.131-.054l1.784-1.772.947.933a.184.184 0 0 0 .202.04.183.183 0 0 0 .06-.04l2.745-2.71.94.926a.183.183 0 0 0 .13.055.185.185 0 0 0 .132-.055l5.595-5.512a.18.18 0 0 0 .007-.263Zm-13.308 6.77H5.38l3.15-3.118 1.878 1.85-1.273 1.267Zm3.628-1.456-4.017-3.959 1.608-1.584 4.017 3.958-1.608 1.585Zm3.95-1.784-6.16-6.068 3.452-3.4 6.16 6.07-3.453 3.398Z" fill="#42494D"/>
</svg>
