<svg width="24" height="24" fill="none" xmlns="http://www.w3.org/2000/svg">
    <path d="M6.188 5.39h11.625A.188.188 0 0 0 18 5.204V3.891a.188.188 0 0 0-.188-.188H6.188A.188.188 0 0 0 6 3.891v1.312c0 .103.084.188.188.188Zm11.625 9.938a.188.188 0 0 0 .187-.187v-1.313a.188.188 0 0 0-.188-.187H6.188a.188.188 0 0 0-.187.187v1.313c0 .103.084.187.188.187h11.625Zm3.375 3.281H2.813a.188.188 0 0 0-.188.188v1.312c0 .103.084.188.188.188h18.375a.188.188 0 0 0 .187-.188v-1.312a.188.188 0 0 0-.188-.188Zm0-9.937H2.813a.188.188 0 0 0-.188.187v1.313c0 .103.084.187.188.187h18.375a.188.188 0 0 0 .187-.187V8.859a.188.188 0 0 0-.188-.187Z" fill="#42494D"/>
</svg>
