<svg width="24" height="24" fill="none" xmlns="http://www.w3.org/2000/svg">
    <path d="M15.188 3.75H2.438a.188.188 0 0 0-.188.188v3c0 .103.084.187.188.187H3.75a.188.188 0 0 0 .188-.188v-1.5h3.937v13.125H5.719a.188.188 0 0 0-.188.188v1.313c0 .103.085.187.188.187h6.187a.188.188 0 0 0 .188-.188V18.75a.188.188 0 0 0-.188-.188H9.75V5.438h3.938v1.5c0 .104.084.188.187.188h1.313a.188.188 0 0 0 .187-.188v-3a.188.188 0 0 0-.188-.187Zm6.393 12.797h-1.518V7.453h1.518a.17.17 0 0 0 .134-.274l-2.363-2.99a.167.167 0 0 0-.265 0l-2.362 2.99a.17.17 0 0 0 .134.274h1.516v9.094h-1.519a.17.17 0 0 0-.133.274l2.362 2.988c.068.087.2.087.265 0l2.362-2.988a.17.17 0 0 0-.13-.274Z" fill="#42494D"/>
</svg>
