<svg width="24" height="24" fill="none" xmlns="http://www.w3.org/2000/svg">
    <path d="M21.375 4.5H7.687a.188.188 0 0 0-.187.188V6c0 .103.084.188.188.188h13.687A.188.188 0 0 0 21.563 6V4.687a.188.188 0 0 0-.188-.187Zm0 6.656H7.687a.188.188 0 0 0-.187.188v1.312c0 .103.084.188.188.188h13.687a.188.188 0 0 0 .188-.188v-1.312a.188.188 0 0 0-.188-.188Zm0 6.656H7.687A.188.188 0 0 0 7.5 18v1.313c0 .103.084.187.188.187h13.687a.188.188 0 0 0 .188-.188V18a.188.188 0 0 0-.188-.188ZM2.437 5.345a1.312 1.312 0 1 0 2.625 0 1.312 1.312 0 0 0-2.625 0Zm0 6.656a1.313 1.313 0 1 0 2.626 0 1.313 1.313 0 0 0-2.625 0Zm0 6.656a1.312 1.312 0 1 0 2.625 0 1.312 1.312 0 0 0-2.625 0Z" fill="#42494D"/>
</svg>
