<svg width="24" height="24" fill="none" xmlns="http://www.w3.org/2000/svg">
    <path d="M21.563 9.75h-7.125a.188.188 0 0 0-.188.188v2.624c0 .104.084.188.188.188h1.124a.188.188 0 0 0 .188-.188V11.25h1.406v7.5h-1.078a.188.188 0 0 0-.187.188v1.125c0 .103.084.187.187.187h3.844a.188.188 0 0 0 .187-.188v-1.125a.188.188 0 0 0-.187-.187h-1.078v-7.5h1.406v1.313c0 .103.084.187.188.187h1.125a.188.188 0 0 0 .187-.188V9.938a.188.188 0 0 0-.188-.188Zm-6.188-2.813v-3a.188.188 0 0 0-.188-.187H2.438a.188.188 0 0 0-.187.188v3c0 .103.084.187.188.187H3.75a.188.188 0 0 0 .188-.188v-1.5h3.937v13.125H5.719a.188.188 0 0 0-.188.188v1.313c0 .103.085.187.188.187h6.187a.188.188 0 0 0 .188-.188V18.75a.188.188 0 0 0-.188-.188H9.75V5.438h3.938v1.5c0 .104.084.188.187.188h1.313a.188.188 0 0 0 .187-.188Z" fill="#42494D"/>
</svg>
