<svg width="24" height="24" fill="none" xmlns="http://www.w3.org/2000/svg">
    <path d="M21.563 17.813H7.874a.188.188 0 0 0-.188.187v1.313c0 .103.085.187.188.187h13.688a.188.188 0 0 0 .187-.188V18a.188.188 0 0 0-.188-.188Zm0-13.313H7.874a.188.188 0 0 0-.188.188V6c0 .103.085.188.188.188h13.688A.188.188 0 0 0 21.75 6V4.687a.188.188 0 0 0-.188-.187Zm0 6.656H7.874a.188.188 0 0 0-.188.188v1.312c0 .103.085.188.188.188h13.688a.188.188 0 0 0 .187-.188v-1.312a.188.188 0 0 0-.188-.188Zm-16.5 5.531h-2.72a.094.094 0 0 0-.093.094v.797c0 .052.042.094.094.094H4.04v.48h-.837a.094.094 0 0 0-.094.094v.797c0 .052.042.094.094.094h.837v.504H2.344a.094.094 0 0 0-.094.093v.797c0 .052.042.094.094.094h2.719a.094.094 0 0 0 .093-.094v-3.75a.094.094 0 0 0-.093-.093Zm-2.72-12.28h.891v2.812c0 .051.043.093.094.093h.938a.094.094 0 0 0 .093-.093V3.562a.188.188 0 0 0-.187-.187H2.344a.094.094 0 0 0-.094.094v.844c0 .051.042.093.094.093Zm2.72 5.624h-2.72a.094.094 0 0 0-.093.094v.844c0 .051.042.094.094.094h1.603l-1.648 1.82a.194.194 0 0 0-.049.127v.865c0 .052.042.094.094.094h2.719a.094.094 0 0 0 .093-.094v-.844a.094.094 0 0 0-.093-.094H3.458l1.648-1.82a.194.194 0 0 0 .05-.127v-.865a.094.094 0 0 0-.095-.094Z" fill="#42494D"/>
</svg>
