<svg width="24" height="24" fill="none" xmlns="http://www.w3.org/2000/svg">
    <path d="M17.962 17.445c1.025 0 1.861-.849 1.861-1.887 0-1.254-1.86-3.3-1.86-3.3s-1.861 2.046-1.861 3.3c0 1.038.836 1.887 1.86 1.887ZM9.124 16.41a.423.423 0 0 0 .6 0l6.003-6a.423.423 0 0 0 0-.6l-6-6a.383.383 0 0 0-.047-.04L7.847 1.938a.214.214 0 0 0-.3 0L6.422 3.063a.214.214 0 0 0 0 .3l1.575 1.575-4.87 4.873a.423.423 0 0 0 0 .6l5.997 6Zm.303-10.514 4.193 4.193H5.236l4.19-4.193Zm11.76 13.228H2.813a.188.188 0 0 0-.187.188v1.875c0 .103.084.187.188.187h18.375a.188.188 0 0 0 .187-.188v-1.875a.188.188 0 0 0-.188-.187Z" fill="#42494D"/>
</svg>
