<svg width="24" height="24" fill="none" xmlns="http://www.w3.org/2000/svg">
    <path d="M19.313 18.844H4.688a.183.183 0 0 0-.188.178v1.425c0 .098.084.178.188.178h14.625c.103 0 .187-.08.187-.178v-1.425a.183.183 0 0 0-.188-.178ZM12 17.062a6.059 6.059 0 0 0 4.308-1.785 6.045 6.045 0 0 0 1.786-4.308V3.656a.282.282 0 0 0-.282-.281h-1.406a.282.282 0 0 0-.281.281v7.313A4.131 4.131 0 0 1 12 15.094a4.131 4.131 0 0 1-4.125-4.125V3.656a.282.282 0 0 0-.281-.281H6.187a.282.282 0 0 0-.28.281v7.313c0 1.626.634 3.154 1.785 4.308A6.045 6.045 0 0 0 12 17.063Z" fill="#42494D"/>
</svg>
