<svg width="24" height="24" fill="none" xmlns="http://www.w3.org/2000/svg">
    <path d="M21.188 12h-1.313a.188.188 0 0 0-.188.188v7.5H4.313V4.313h7.5A.188.188 0 0 0 12 4.125V2.812a.188.188 0 0 0-.188-.187H3.376a.75.75 0 0 0-.75.75v17.25c0 .415.335.75.75.75h17.25a.75.75 0 0 0 .75-.75v-8.438a.188.188 0 0 0-.188-.187Z" fill="#42494D"/>
    <path d="m8.341 12.537-.044 2.786a.376.376 0 0 0 .375.38h.01l2.765-.068a.194.194 0 0 0 .126-.054l9.748-9.726a.188.188 0 0 0 0-.265l-2.913-2.911a.194.194 0 0 0-.267 0l-9.746 9.726a.194.194 0 0 0-.054.132Zm1.489.553 8.444-8.426 1.06 1.057-8.45 8.43-1.07.026.016-1.087Z" fill="#42494D"/>
</svg>
