<svg width="24" height="24" fill="none" xmlns="http://www.w3.org/2000/svg">
    <path d="M5.382 18.664h3.754l1.273-1.268-1.877-1.85-3.15 3.118Zm5.172-9.307 6.16 6.068 3.452-3.399-6.16-6.07-3.452 3.4ZM8.747 13.25l4.017 3.958 1.608-1.584-4.017-3.959-1.608 1.585Z" fill="#F85A00" fill-opacity=".05"/>
    <path d="M22.444 11.894 14.138 3.71a.185.185 0 0 0-.263 0L8.28 9.222a.188.188 0 0 0-.002.265l.002.003.938.923-2.747 2.702a.188.188 0 0 0-.002.265l.002.002.926.912-4.432 4.383H1.69a.19.19 0 0 0-.19.188v1.293c0 .103.084.188.188.188H9.77c.05 0 .096-.019.131-.054l1.784-1.772.947.933a.186.186 0 0 0 .262 0l2.745-2.71.94.926a.185.185 0 0 0 .262 0l5.595-5.512a.18.18 0 0 0 .007-.263ZM9.136 18.663H5.38l3.15-3.117 1.878 1.849-1.273 1.268Zm3.628-1.456L8.747 13.25l1.608-1.585 4.017 3.96-1.608 1.583Zm3.95-1.783-6.16-6.068 3.452-3.4 6.16 6.07-3.453 3.398Z" fill="#F85A00"/>
</svg>
