<svg width="24" height="24" fill="none" xmlns="http://www.w3.org/2000/svg">
    <path d="M21.188 3.703H9.563a.188.188 0 0 0-.188.188v1.312c0 .103.084.188.188.188h11.624a.188.188 0 0 0 .188-.188V3.891a.188.188 0 0 0-.188-.188Zm0 9.938H9.563a.188.188 0 0 0-.188.187v1.313c0 .103.084.187.188.187h11.624a.188.188 0 0 0 .188-.187v-1.313a.188.188 0 0 0-.188-.187Zm0 4.968H2.813a.188.188 0 0 0-.188.188v1.312c0 .103.084.188.188.188h18.375a.188.188 0 0 0 .187-.188v-1.312a.188.188 0 0 0-.188-.188Zm0-9.937H2.813a.188.188 0 0 0-.188.187v1.313c0 .103.084.187.188.187h18.375a.188.188 0 0 0 .187-.187V8.859a.188.188 0 0 0-.188-.187Z" fill="#42494D"/>
</svg>
