<svg width="24" height="24" fill="none" xmlns="http://www.w3.org/2000/svg">
    <path d="m19.678 10.167-2.123-6.64a.217.217 0 0 0-.209-.152h-1.814a.219.219 0 0 0-.209.152l-2.14 6.64a.215.215 0 0 0-.011.068c0 .12.098.218.218.218h1.322a.22.22 0 0 0 .21-.16l.41-1.443h2.087l.405 1.441c.026.094.113.16.211.16h1.435a.203.203 0 0 0 .065-.01.226.226 0 0 0 .13-.108.227.227 0 0 0 .013-.166Zm-4.132-2.538.769-2.74h.148l.752 2.74h-1.669ZM18.91 19.18h-3.037v-.01l3.108-4.427a.22.22 0 0 0 .04-.126v-.853a.22.22 0 0 0-.218-.218H14.02a.22.22 0 0 0-.218.218v1.007c0 .12.099.218.218.218h2.874V15l-3.12 4.427a.22.22 0 0 0-.04.127v.853c0 .12.099.218.218.218h4.955a.22.22 0 0 0 .218-.218v-1.008a.216.216 0 0 0-.216-.218ZM7.273 3.916a.187.187 0 0 0-.296 0L4.352 7.242a.188.188 0 0 0 .148.305h1.781v12.421c0 .104.085.188.188.188H7.78a.188.188 0 0 0 .188-.188V7.547H9.75a.188.188 0 0 0 .148-.305L7.273 3.916Z" fill="#42494D"/>
</svg>
