<svg width="24" height="24" fill="none" xmlns="http://www.w3.org/2000/svg">
    <path d="M9.281 3.281H7.97a.188.188 0 0 0-.188.188V4.78c0 .103.085.188.188.188H9.28a.188.188 0 0 0 .188-.188V3.47a.188.188 0 0 0-.188-.188ZM8.25 19.313H6.937a.188.188 0 0 0-.187.187v1.313c0 .103.084.187.188.187H8.25a.188.188 0 0 0 .188-.188V19.5a.188.188 0 0 0-.188-.188Zm12.281-4.782H19.22a.188.188 0 0 0-.188.188v1.312c0 .103.085.188.188.188h1.312a.188.188 0 0 0 .188-.188V14.72a.188.188 0 0 0-.188-.188ZM4.5 8.062H3.187A.188.188 0 0 0 3 8.25v1.313c0 .103.084.187.188.187H4.5a.188.188 0 0 0 .188-.188V8.25a.188.188 0 0 0-.188-.188Zm0 3.75H3.187A.188.188 0 0 0 3 12v1.313c0 .103.084.187.188.187H4.5a.188.188 0 0 0 .188-.188V12a.188.188 0 0 0-.188-.188Zm0 3.75H3.187A.188.188 0 0 0 3 15.75v1.313c0 .103.084.187.188.187H4.5a.188.188 0 0 0 .188-.188V15.75a.188.188 0 0 0-.188-.188Zm0 3.75H3.187A.188.188 0 0 0 3 19.5v1.313c0 .103.084.187.188.187H4.5a.188.188 0 0 0 .188-.188V19.5a.188.188 0 0 0-.188-.188Zm7.5 0h-1.313a.188.188 0 0 0-.187.188v1.313c0 .103.084.187.188.187H12a.188.188 0 0 0 .188-.188V19.5a.188.188 0 0 0-.188-.188Zm3.75 0h-1.313a.188.188 0 0 0-.187.188v1.313c0 .103.084.187.188.187h1.312a.188.188 0 0 0 .188-.188V19.5a.188.188 0 0 0-.188-.188Zm3.281-6.656c0 .103.085.188.188.188h1.312a.188.188 0 0 0 .188-.188V8.672a5.391 5.391 0 0 0-5.39-5.39h-3.985a.188.188 0 0 0-.188.187V4.78c0 .103.085.188.188.188h3.984a3.702 3.702 0 0 1 3.703 3.703v3.984ZM5.531 2.25H2.156a.188.188 0 0 0-.187.188v3.374c0 .104.084.188.187.188h3.375a.188.188 0 0 0 .188-.188V2.438a.188.188 0 0 0-.188-.187ZM4.406 4.631c0 .03-.026.056-.056.056H3.338a.057.057 0 0 1-.057-.056V3.62c0-.03.026-.057.056-.057H4.35c.03 0 .056.026.056.057V4.63Zm17.157 13.65h-3.375a.188.188 0 0 0-.188.188v3.375c0 .103.084.187.188.187h3.375a.188.188 0 0 0 .187-.187v-3.375a.188.188 0 0 0-.188-.188Zm-1.125 2.382c0 .03-.026.056-.057.056H19.37a.057.057 0 0 1-.056-.056V19.65c0-.03.025-.056.056-.056h1.012c.03 0 .056.025.056.056v1.013Z" fill="#42494D"/>
</svg>
