<svg width="24" height="24" fill="none" xmlns="http://www.w3.org/2000/svg">
    <path d="M5.438 6.188v14.625h10.125V9.697l-3.511-3.51H5.438Zm7.875 11.46c0 .09-.08.165-.176.165H7.863c-.096 0-.176-.075-.176-.165v-.984c0-.089.08-.164.176-.164h5.274c.096 0 .175.075.175.164v.984Zm0-6.14v.984c0 .09-.08.164-.176.164h-1.98v1.99a.165.165 0 0 1-.165.166h-.984a.167.167 0 0 1-.164-.166v-1.99h-1.98c-.097 0-.176-.075-.176-.164v-.984c0-.092.08-.164.175-.164h1.98v-1.99c0-.091.076-.166.165-.166h.984c.092 0 .164.074.164.166v1.99h1.98c.097 0 .177.072.177.164Z" fill="#F85A00" fill-opacity=".05"/>
    <path d="m20.02 7.186-5.693-5.477a.754.754 0 0 0-.52-.209h-6.87a.188.188 0 0 0-.187.188V3c0 .103.084.188.188.188h6.492l5.133 4.935v11.19c0 .103.084.187.187.187h1.313a.188.188 0 0 0 .187-.188V7.726a.742.742 0 0 0-.23-.54Z" fill="#F85A00"/>
    <path d="M12.97 4.72a.749.749 0 0 0-.53-.22H4.5a.75.75 0 0 0-.75.75v16.5c0 .415.335.75.75.75h12a.75.75 0 0 0 .75-.75V9.312c0-.2-.08-.39-.22-.53L12.97 4.72Zm2.592 16.093H5.438V6.188h6.614l3.51 3.51v11.114Z" fill="#F85A00"/>
    <path d="M11.156 9.354a.165.165 0 0 0-.164-.166h-.984a.167.167 0 0 0-.164.166v1.99h-1.98c-.097 0-.176.072-.176.164v.984c0 .09.08.164.175.164h1.98v1.99c0 .091.076.166.165.166h.984a.165.165 0 0 0 .164-.166v-1.99h1.98c.097 0 .177-.075.177-.164v-.984c0-.092-.08-.164-.176-.164h-1.98v-1.99Zm1.98 7.146H7.864c-.096 0-.176.075-.176.164v.984c0 .09.08.165.176.165h5.274c.096 0 .175-.075.175-.165v-.984c0-.089-.08-.164-.175-.164Z" fill="#F85A00"/>
</svg>
