<svg width="24" height="24" fill="none" xmlns="http://www.w3.org/2000/svg">
    <path d="M12.02 20C7.585 20 4 16.415 4 12.02 4 7.623 7.586 4 12.02 4a8.013 8.013 0 0 1 8.019 8.02c0 4.433-3.625 7.98-8.02 7.98Zm0-15.807a7.832 7.832 0 0 0-7.827 7.826c0 4.318 3.508 7.788 7.826 7.788s7.788-3.508 7.788-7.788S16.3 4.193 12.02 4.193Z" fill="#E6E6E6"/>
    <path d="M19.807 12.02c0 4.279-3.508 7.787-7.788 7.787a7.792 7.792 0 0 1-6.477-3.47 7.916 7.916 0 0 1-1.31-4.318h15.575Z" fill="#D7141A"/>
    <path d="M19.807 12.02H4.193c0-1.62.501-3.085 1.31-4.319a7.792 7.792 0 0 1 6.478-3.47c4.318-.038 7.826 3.47 7.826 7.788Z" fill="#fff"/>
    <path d="m12.02 12.02-6.516 4.317a7.915 7.915 0 0 1-1.311-4.318c0-1.619.501-3.084 1.31-4.318l6.516 4.318Z" fill="#11457E"/>
</svg>
