<svg width="24" height="24" fill="none" xmlns="http://www.w3.org/2000/svg">
    <path d="M12.02 20C7.585 20 4 16.415 4 12.02 4 7.623 7.586 4 12.02 4a8.013 8.013 0 0 1 8.019 8.02c0 4.433-3.625 7.98-8.02 7.98Zm0-15.807a7.832 7.832 0 0 0-7.827 7.826c0 4.318 3.508 7.788 7.826 7.788s7.788-3.508 7.788-7.788S16.3 4.193 12.02 4.193Z" fill="#E6E6E6"/>
    <path d="M9.398 4.656v14.727a7.807 7.807 0 0 1-5.205-7.17v-.386a7.807 7.807 0 0 1 5.205-7.171Z" fill="#002B7F"/>
    <path d="M14.602 4.656v14.727a7.353 7.353 0 0 1-2.621.463 7.507 7.507 0 0 1-2.622-.463V4.656a7.354 7.354 0 0 1 2.622-.463c.925 0 1.812.154 2.621.463Z" fill="#FCD116"/>
    <path d="M19.807 11.788v.386c-.077 3.315-2.236 6.091-5.205 7.17V4.657c2.97 1.04 5.128 3.855 5.205 7.132Z" fill="#CE1126"/>
</svg>
