<svg width="24" height="24" fill="none" xmlns="http://www.w3.org/2000/svg">
    <path d="M19.364 9.41H4.636a7.8 7.8 0 0 1 6.766-5.19h1.196a7.8 7.8 0 0 1 6.766 5.19Z" fill="#0072CE"/>
    <path d="M19.807 12c0 .883-.15 1.759-.443 2.59H4.636a7.792 7.792 0 0 1 0-5.18h14.728c.293.832.443 1.707.443 2.59Z" fill="#000"/>
    <path d="M19.364 14.59a7.8 7.8 0 0 1-6.766 5.19h-1.196a7.8 7.8 0 0 1-6.766-5.19h14.728Z" fill="#F9F9F9"/>
    <path d="M12 19.904a7.904 7.904 0 1 0 0-15.808 7.904 7.904 0 0 0 0 15.808Z" stroke="#E6E6E6" stroke-width=".5" stroke-miterlimit="10"/>
</svg>
