<svg width="24" height="24" fill="none" xmlns="http://www.w3.org/2000/svg">
    <path d="M12.02 20a8 8 0 1 1 .038-16 8 8 0 0 1-.039 16Zm0-15.807a7.807 7.807 0 1 0 7.787 7.826 7.83 7.83 0 0 0-7.788-7.826Z" fill="#E6E6E6"/>
    <path d="M9.403 4.64v4.315L5.862 7.183a7.832 7.832 0 0 1 3.541-2.544ZM18.14 7.183l-3.542 1.772V4.64a7.821 7.821 0 0 1 3.542 2.544ZM9.403 15.047v4.313a7.821 7.821 0 0 1-3.541-2.543l3.541-1.77ZM18.14 16.817a7.818 7.818 0 0 1-3.542 2.543v-4.313l3.542 1.77Z" fill="#04247B"/>
    <path d="M19.807 12c0 .535-.054 1.057-.155 1.562-.074.355-.17.7-.29 1.036h-2.184l1.8.902c-.236.468-.516.91-.838 1.317l-3.542-1.77v4.313a7.768 7.768 0 0 1-4.158.29 7.345 7.345 0 0 1-1.037-.29v-4.313l-3.541 1.77a7.586 7.586 0 0 1-.314-.429l3.58-1.79H6.796l-1.778.89a7.799 7.799 0 0 1-.378-6.086H6.81l-1.79-.895c.237-.471.52-.914.841-1.324l3.542 1.772V4.64a7.79 7.79 0 0 1 5.194 0v4.316l3.542-1.772c.108.137.212.279.31.422l-3.59 1.797h2.332l1.788-.895a7.687 7.687 0 0 1 .827 3.494Z" fill="#fff"/>
    <path d="M6.811 9.402H4.64c.109-.309.237-.606.382-.895l1.79.895ZM19.362 14.598a7.79 7.79 0 0 1-.383.903l-1.8-.903h2.183ZM18.98 8.507l-1.788.895H14.86l3.59-1.798c.196.288.375.59.53.903ZM9.128 14.598l-3.58 1.79a7.668 7.668 0 0 1-.53-.9l1.777-.89h2.333Z" fill="#CE152A"/>
    <path d="M19.807 12c0 .535-.054 1.057-.155 1.562h-6.089v6.088a7.775 7.775 0 0 1-3.123 0v-6.088H4.353a7.77 7.77 0 0 1 0-3.123h6.088V4.35a7.768 7.768 0 0 1 3.123 0v6.088h6.088c.102.504.156 1.026.156 1.562Z" fill="#CE152A"/>
</svg>
