<svg width="24" height="24" fill="none" xmlns="http://www.w3.org/2000/svg">
    <path d="M19.807 12a7.635 7.635 0 0 1-.293 2.109 7.804 7.804 0 0 1-6.84 5.667v.031H12a7.8 7.8 0 0 1-7.514-5.698 7.734 7.734 0 0 1 0-4.218A7.8 7.8 0 0 1 12 4.193h.675v.03a7.803 7.803 0 0 1 6.84 5.668c.195.686.294 1.396.292 2.11Z" fill="#F9F9F9"/>
    <path d="M19.514 9.891a7.735 7.735 0 0 1 0 4.218h-6.84v5.698H12a7.78 7.78 0 0 1-3.54-.848v-4.85H4.487a7.734 7.734 0 0 1 0-4.218H8.46v-4.83A7.78 7.78 0 0 1 12 4.192h.674V9.89h6.84Z" fill="#003580"/>
    <path d="M12 19.904a7.904 7.904 0 1 0 0-15.808 7.904 7.904 0 0 0 0 15.808Z" stroke="#E6E6E6" stroke-width=".5" stroke-miterlimit="10"/>
</svg>
