<svg width="24" height="24" fill="none" xmlns="http://www.w3.org/2000/svg">
    <path d="M16.896 5.924H7.104A7.453 7.453 0 0 1 9.398 4.64a7.71 7.71 0 0 1 2.621-.447h.864v.05a7.71 7.71 0 0 1 4.013 1.68Z" fill="#0D5EAF"/>
    <path d="M18.489 7.663H5.51a7.6 7.6 0 0 1 1.593-1.74h9.792a7.6 7.6 0 0 1 1.593 1.74Z" fill="#F9F9F9"/>
    <path d="M19.345 9.398H4.64a7.325 7.325 0 0 1 .871-1.735H18.49a7.33 7.33 0 0 1 .856 1.735Z" fill="#0D5EAF"/>
    <path d="M19.753 11.129H4.243c.06-.59.19-1.171.385-1.731h14.717c.205.558.342 1.14.408 1.73Z" fill="#F9F9F9"/>
    <path d="M19.807 12.012c.002.29-.016.58-.054.867H4.193v-1.75h15.56c.038.292.056.587.054.883Z" fill="#0D5EAF"/>
    <path d="M19.753 12.867a7.379 7.379 0 0 1-.385 1.735H4.64a7.576 7.576 0 0 1-.385-1.735h15.498Z" fill="#F9F9F9"/>
    <path d="M19.345 14.602a7.37 7.37 0 0 1-.872 1.731H5.511a7.369 7.369 0 0 1-.871-1.73h14.705Z" fill="#0D5EAF"/>
    <path d="M18.489 16.334a7.52 7.52 0 0 1-1.593 1.738H7.104a7.52 7.52 0 0 1-1.593-1.738H18.49Z" fill="#F9F9F9"/>
    <path d="M16.896 18.072a7.776 7.776 0 0 1-9.792 0h9.792ZM12.864 4.193v8.675H4.193v-1.74h.05A7.592 7.592 0 0 1 5.5 7.664a7.599 7.599 0 0 1 1.592-1.74A7.452 7.452 0 0 1 9.386 4.64a7.711 7.711 0 0 1 2.633-.446h.845Z" fill="#0D5EAF"/>
    <path d="M12.864 7.663v1.735H4.64a7.325 7.325 0 0 1 .871-1.735h7.353Z" fill="#F9F9F9"/>
    <path d="M9.398 4.64v8.227H7.663v-7.36a7.453 7.453 0 0 1 1.735-.867Z" fill="#F9F9F9"/>
    <path d="M12 19.904a7.904 7.904 0 1 0 0-15.808 7.904 7.904 0 0 0 0 15.808Z" stroke="#E6E6E6" stroke-width=".5" stroke-miterlimit="10"/>
</svg>
