<svg width="24" height="24" fill="none" xmlns="http://www.w3.org/2000/svg">
    <path d="M12.02 20C7.585 20 4 16.415 4 12.02 4 7.623 7.586 4 12.02 4a8.013 8.013 0 0 1 8.019 8.02c0 4.433-3.625 7.98-8.02 7.98Zm0-15.807a7.832 7.832 0 0 0-7.827 7.826c0 4.318 3.508 7.788 7.826 7.788s7.788-3.508 7.788-7.788S16.3 4.193 12.02 4.193Z" fill="#E6E6E6"/>
    <path d="M19.345 9.398H4.655c1.041-3.046 3.933-5.205 7.364-5.205a7.72 7.72 0 0 1 7.326 5.205Z" fill="#FDB913"/>
    <path d="M19.807 12.02a7.51 7.51 0 0 1-.462 2.621H4.655a7.354 7.354 0 0 1-.462-2.622c0-.925.154-1.773.462-2.621h14.728c.27.81.424 1.696.424 2.621Z" fill="#006A44"/>
    <path d="M19.345 14.602a7.72 7.72 0 0 1-7.326 5.205 7.807 7.807 0 0 1-7.364-5.204h14.69Z" fill="#C1272D"/>
</svg>
