<svg width="24" height="24" fill="none" xmlns="http://www.w3.org/2000/svg">
    <path d="M19.807 12.02c0 1.387-.347 2.737-1.04 3.893H5.233a7.876 7.876 0 0 1 0-7.826h13.532a7.794 7.794 0 0 1 1.041 3.932Z" fill="#FFC400"/>
    <path d="M18.766 8.087H5.234c2.159-3.74 6.94-5.012 10.68-2.853a7.789 7.789 0 0 1 2.852 2.853ZM18.766 15.913c-2.159 3.74-6.94 5.012-10.68 2.853a7.788 7.788 0 0 1-2.852-2.853h13.532Z" fill="#C60B1E"/>
    <path d="M12.02 19.923a7.904 7.904 0 1 0 0-15.807 7.904 7.904 0 0 0 0 15.807Z" stroke="#E6E6E6" stroke-width=".5" stroke-miterlimit="10"/>
    <path d="M9.783 12.289c0-.077.386-.077.386-.077.154 0 .385-.039.385-.039s.116.077.039.155c-.039.038-.078.038-.27.077 0 0-.386.038-.463.038 0 0-.116-.038-.077-.154Z" fill="#AD1519"/>
    <path d="M9.745 14.14s.077 0 .115-.039c.039-.038.116-.038.193 0 .038 0 .038.039.116.039.077 0 .115-.039.115-.039.077-.038.154 0 .193 0 .039.039.116.039.116.039v-.309s-.077 0-.116-.038c-.039-.039-.116-.039-.193 0-.038 0-.038.038-.115.038-.078 0-.078-.038-.116-.038-.077-.039-.154 0-.193 0-.038.038-.115.038-.115.038v.309Z" fill="#005BBF"/>
    <path d="M10.593 13.87s-.077 0-.116-.039c-.039-.038-.116-.038-.193 0-.038 0-.038.039-.115.039-.078 0-.078-.039-.116-.039H9.86c-.038.039-.115.039-.115.039v.077s.077 0 .115-.038c.039-.039.116-.039.193 0 .038 0 .038.038.116.038.077 0 .077-.038.115-.038.077-.039.154 0 .193 0 .039.038.116.038.116.038v-.077ZM10.593 14.101s-.077 0-.116-.038c-.039-.039-.116-.039-.193 0-.038 0-.038.038-.115.038-.078 0-.078-.038-.116-.038-.077-.039-.154 0-.193 0-.038.038-.115.038-.115.038v-.077s.077 0 .115-.038c.039-.039.116-.039.193 0 .038 0 .038.038.116.038.077 0 .077-.038.115-.038.077-.039.154 0 .193 0 .039.038.116.038.116.038v.077Z" fill="#fff"/>
    <path d="M10.477 10.978H9.86v.155H9.9v.038s.038.039 0 .077c0 0-.039 0 0 .039h.5c.04-.039 0-.039 0-.039-.038-.038 0-.077 0-.077.04-.038.04-.038 0-.038h.04v-.155h.038Z" fill="#C8B100"/>
    <path d="M10.361 11.325h-.424v2.16h.424v-2.16Z" fill="#CCC"/>
    <path d="M10.67 12.79s0-.038-.386-.192c0 0-.424-.155-.5-.309 0 0-.04.039-.04.193 0 0 .04.077.193.154l.232.116c.192.077.27.115.347.154-.039.038-.078.077-.078.116 0 0 0 .038.039.115 0 0 0-.038.039-.077 0 0 .077-.038.038-.077.077-.039.116-.193.116-.193ZM9.475 11.865c.154-.116.54-.077.54-.077.423 0 .616.154.616.154.077.077.077.116.077.116a1.826 1.826 0 0 0-.077.193s-.038-.155-.462-.232c0 0-.386-.077-.694.077v-.231ZM10.168 10.709c-.038-.04-.077-.04-.077-.04-.077 0-.077.04-.077.04h-.077c-.077.038-.077.077-.077.077s.116.077.116.115v.039c0 .038.038.038.192.038.155 0 .193 0 .193-.038V10.9c0-.038.116-.115.116-.115s0-.077-.077-.077h-.077s-.039-.04-.077-.04c0 .04-.039 0-.078.04Z" fill="#AD1519"/>
    <path d="M10.438 10.786H10.4c0 .038 0 .038.038 0 0 .038 0 .038 0 0-.038.038-.038.038-.077.038v-.038h-.038s-.039 0-.039-.039v.039h.039v-.039h-.039.039v-.039h-.039v.039-.039h-.038v.039h.038s0 .039-.038.039c0 0-.039 0-.039-.039 0 0 0 .039-.038.039 0 0-.039 0-.039-.039 0 0 0 .039.039.039 0 0 .038 0 .038-.039 0 0 0-.039-.038-.039 0 0 .038 0 .038-.038l.039-.039V10.516h.038v.038h-.154v.039h.039V10.708c0 .039 0 .039.038.039 0 0 0 .039.039.039 0 0-.039 0-.039.038 0 0 0 .039.039.039 0 0 .038 0 .038-.039 0 .039-.038.039-.038.039-.039 0-.039-.039-.039-.039 0 .039-.038.039-.038.039-.039 0-.039-.039-.039-.039s0 .039.039 0c0 0 .038 0 0-.038 0 0 0-.039-.039 0v.038-.038s0-.039-.039 0c0 0-.038 0 0 .038h.039-.039s-.038 0 0 .039c0 0 0 .038.039 0v-.039c0 .039-.039.039-.039.039h-.038v.038c-.039 0-.039-.038-.039-.038s.039 0 0-.039c0 0 0-.038-.038 0v.039l.077.077v.038c0 .039.038.039.193.039.154 0 .192 0 .192-.039v-.038c-.077-.039 0-.116 0-.154 0 .038 0 0 0 0Zm-.27.192h-.154c0-.038.078-.038.155 0 .077-.038.154-.038.154 0 0-.038-.077 0-.154 0ZM9.822 11.826l-.039.193h-.039l-.115-.193h.038l.039.039.038.038.039.04v-.155l.039.038ZM10.014 12.02H9.9v-.194h.038v.155l.077.038ZM10.207 11.865h-.077v.154h-.039v-.154h-.077v-.039l.193.039ZM10.361 12.096h-.038v-.038h-.039v.077h-.038l.038-.193.077.039h.039v.077h-.039v.038Zm-.115-.154h.038v-.038h-.077l.039.038ZM10.554 12.174l-.038-.078-.078-.038v.038H10.4l.154-.154h.039l-.039.232Zm-.038-.116v-.077l-.078.077h.078ZM10.438 13.639c-.038-.039-.038-.077-.038-.077.038-.04 0-.04 0-.04h-.463s-.038 0 0 .04c0 0 0 .038-.038.077H9.86v.154h.617v-.154h-.039Z" fill="#C8B100"/>
    <path d="M6.467 12.289c0-.077-.385-.077-.385-.077-.154 0-.386-.039-.386-.039s-.115.077-.038.155c.038.038.077.038.27.077 0 0 .385.038.462.038 0 0 .077-.038.077-.154Z" fill="#AD1519"/>
    <path d="M5.658 14.14s.077 0 .115-.039c.04-.038.116-.038.193 0 .039 0 .039.039.116.039.077 0 .116-.039.116-.039.077-.038.154 0 .192 0 .039.039.116.039.116.039v-.309s-.077 0-.116-.038c-.038-.039-.115-.039-.192 0-.039 0-.039.038-.116.038a.169.169 0 0 1-.116-.038c-.077-.039-.154 0-.192 0-.039.038-.116.038-.116.038v.309Z" fill="#005BBF"/>
    <path d="M6.467 13.87s-.077 0-.115-.039c-.039-.038-.116-.038-.193 0-.039 0-.039.039-.116.039-.077 0-.077-.039-.115-.039h-.193c-.039.039-.116.039-.116.039v.077s.077 0 .116-.038c.038-.039.116-.039.193 0 .038 0 .038.038.115.038.077 0 .077-.038.116-.038.077-.039.154 0 .193 0 .038.038.115.038.115.038v-.077ZM6.467 14.101s-.077 0-.115-.038c-.039-.039-.116-.039-.193 0-.039 0-.039.038-.116.038-.077 0-.077-.038-.115-.038-.077-.039-.155 0-.193 0-.039.038-.116.038-.116.038v-.077s.077 0 .116-.038c.038-.039.116-.039.193 0 .038 0 .038.038.115.038.077 0 .077-.038.116-.038.077-.039.154 0 .193 0a.298.298 0 0 0 .115.038v.077Z" fill="#fff"/>
    <path d="M6.39 10.978h-.617v.155h.078s-.039 0 0 .038c0 0 .038.039 0 .077 0 0-.039 0 0 .039h.462c.039-.039 0-.039 0-.039-.038-.038 0-.077 0-.077.039-.038.039-.038 0-.038h.039v-.155h.038Z" fill="#C8B100"/>
    <path d="M6.275 11.325H5.85v2.16h.424v-2.16Z" fill="#CCC"/>
    <path d="M6.313 13.6v-.038c.039-.04 0-.04 0-.04h-.462s-.039 0 0 .04c0 0 0 .038-.039.077h-.039v.154h.617v-.154h-.077V13.6Z" fill="#C8B100"/>
    <path d="M6.467 12.328c-.077.115-.5.308-.5.308-.386.154-.386.193-.386.193s.038.154.038.193c0 .038.039.077.039.077a.12.12 0 0 1 .038.077c.039-.039.039-.116.039-.116 0-.038-.039-.116-.077-.116.077-.038.154-.077.347-.154a.628.628 0 0 0 .231-.115c.154-.078.193-.155.193-.155l.038-.192ZM6.776 11.865c-.154-.116-.54-.077-.54-.077-.424 0-.617.154-.617.154-.077.077-.077.116-.077.116.039.077.077.193.077.193s.039-.155.463-.232c0 0 .385-.077.694.077v-.231ZM6.352 10.67c-.039 0-.039-.039-.077-.039 0 0-.039-.038-.116-.038h-.154c-.077 0-.116.038-.116.038-.038 0-.077 0-.077.039-.039.038-.039.116-.039.116s.116.077.116.115v.039c0 .038.039.038.193.038s.193 0 .193-.038V10.9c0-.038.115-.115.115-.115s0-.078-.038-.116Z" fill="#AD1519"/>
    <path d="M6.043 10.786s-.077-.116-.115-.116h-.039l.116.116s0 .038-.039.038v.039h.116c0-.039-.039-.077-.039-.077ZM6.313 10.67h-.038c-.077.039-.116.116-.116.116l-.039.038h.116v-.038c-.038 0-.038-.039-.038-.039s.077-.038.115-.077Z" fill="#C8B100"/>
    <path d="M6.352 10.786c-.039.038-.039.038-.077.038v-.038h-.039s-.038 0-.038-.039c0 0 0 .039-.039.039 0 0-.039 0-.039-.039 0 0 0 .039-.038.039 0 0-.039 0-.039-.039 0 .039-.038.039-.038.039-.039 0-.039-.039-.039-.039 0 .039-.038.039-.038.039s0 .038 0 0c0 .038-.039.038-.039.038h-.038v.039c-.039 0-.039-.039-.039-.039l-.039-.038.078.077v.038c0 .039.038.039.192.039.155 0 .193 0 .193-.039v-.038c.039.038.077-.039.116-.077Zm-.27.154h-.154.308-.154ZM6.082 10.709c0 .038 0 .038 0 0-.039.038-.039 0-.039 0h.039Z" fill="#C8B100"/>
    <path d="M6.12 10.747c0 .039 0 .039 0 0-.038.039-.038 0-.038 0h.038ZM6.043 10.747c0 .039 0 .039 0 0-.038.039-.038 0-.038 0h.038ZM6.082 10.747c0 .039 0 .039 0 0-.039.039-.039.039 0 0-.039 0-.039 0 0 0ZM6.236 10.747h-.038c0-.039 0-.039.038 0 0 0 0-.039 0 0ZM6.275 10.785c-.039.039 0 0 0 0h-.039s0-.038.039 0ZM6.197 10.786H6.16c0-.039 0-.039.038 0 0-.039 0-.039 0 0Z" fill="#C8B100"/>
    <path d="M6.236 10.786c-.038 0-.038 0 0 0-.038-.039-.038-.039 0 0 0 0 0-.039 0 0ZM5.89 10.747s.038 0 0 0h.038c0-.039 0-.039-.039 0 0 0 0-.039 0 0ZM5.89 10.785s0 .039 0 0h.038s-.039-.038-.039 0ZM5.928 10.786s.038 0 0 0h.038c0-.039 0-.039-.038 0 .038-.039 0-.039 0 0Z" fill="#C8B100"/>
    <path d="M5.928 10.786s.038 0 0 0c0-.039 0-.039 0 0 0 0 0-.039 0 0ZM5.812 10.824h.039c0-.038-.039-.038-.039 0 0-.038 0-.038 0 0ZM5.812 10.824c-.039-.038 0-.038 0 0-.039-.038-.039-.038 0 0-.039 0-.039-.038 0 0ZM6.352 10.824c-.039 0 0 0 0 0h-.039c0-.038 0-.038.039 0 0-.038 0-.038 0 0ZM6.12 10.67c0 .038-.038.077-.038.077-.039 0-.039-.039-.039-.077 0-.039.039-.077.039-.077s.038.038.038.077Z" fill="#C8B100"/>
    <path d="M6.082 10.593v-.039h.038-.038v-.038h-.039V10.63h.077v-.038h-.038ZM5.85 10.67c0-.039 0 0 0 0 .04-.039.04-.039.04 0h-.04ZM6.313 10.67c0-.039 0 0 0 0-.038-.039-.038-.039-.038 0h.038ZM5.735 11.903l.077-.038h.077V11.981h-.077l.039.115h-.039l-.077-.193Zm.077.078s.039 0 0 0c.039 0 .039 0 0 0 .039 0 .039-.039.039-.039h-.039v.039ZM6.12 12.02l-.115.038-.077-.193h.038l.039.154h.115ZM6.313 11.826l-.038.193h-.039l-.077-.193h.038s0 .039.039.039c0 0 0 .038.039.038l.038.04V11.825ZM6.429 12.02c-.039 0-.039 0-.077-.04 0 0-.039-.038 0-.038h.038c0 .039 0 .039.039.077 0-.038-.039-.038 0 0 0-.038 0-.038 0 0 0-.038 0-.038 0 0l.038-.038H6.352v-.077h.154v.077h-.039c0-.039 0-.039-.038-.039h.038v.077H6.43Z" fill="#C8B100"/>
    <path d="M6.737 10.091s.077-.154.424-.192c0 0 .232 0 .347-.039.155-.039.232-.116.579-.116s.385.039.462.077c.116.039.27.078.386.039.077 0 .424.039.54.231 0 0-.232.386-.386.425 0 0-.038.038-.077.038 0 0-.964-.193-1.89 0 0 0-.076-.116-.153-.154-.039 0-.232-.232-.232-.309Z" fill="#AD1519"/>
    <path d="M7.277 10.786v-.078H7.2l.039-.038c0-.039-.039-.039-.039-.039s-.039-.038.193-.038c.193-.039.424-.077.732-.077.347 0 .771.077.926.115 0 0 .038 0 0 .039 0 0-.039 0-.039.038h-.116l.078.039v.039s-.039.038-.078 0c-.077-.039-.54-.078-.77-.078-.04 0-.656 0-.849.078Z" fill="#C8B100"/>
    <path d="M9.243 10.438s-.077.116-.192.116c0 0-.039 0-.039-.077h-.038s-.078.077-.155.038c0 0-.077-.038-.077-.154h-.038s0 .077-.077.116c0 0-.155.038-.193-.077h-.039s-.038.115-.154.077c0 0-.116-.039-.116-.154h-.038c0 .115-.116.154-.116.154-.116.038-.154-.077-.154-.077h-.039c-.038.154-.192.077-.192.077-.078-.039-.078-.116-.078-.116H7.47c.038.116-.077.154-.077.154-.116.04-.154-.038-.154-.038H7.2c0 .077-.038.077-.038.077-.078 0-.193-.116-.193-.116l-.039.039a.476.476 0 0 1 .116.077c.154.116.193-.039.193-.039.154.078.27-.077.27-.077.154.155.308 0 .308 0h.038c.155.077.232-.038.27-.038 0 .038.116.115.27.038h.039s.154.155.308 0c0 0 .116.155.27.077 0 0 .077.155.193.04-.039 0 .038-.04.038-.117ZM6.737 10.284s0-.116.155-.038v-.039s.038 0 .038.077v.077h-.038s-.078-.077-.155-.077Z" fill="#C8B100"/>
    <path d="M6.93 10.361s.039-.077.116-.115v.038h.115s-.038.039-.077.039l.039.038h-.154c0 .039 0 0-.039 0ZM7.431 10.207l-.077-.116h.039s0-.077.038-.115c0 0 .039.038.039.077l.038-.039s0 .078-.038.116c.077.077 0 .039-.039.077ZM7.547 10.207l.116-.077v.039s.077 0 .115.038c0 0-.038.039-.077.039l.039.038s-.077 0-.116-.038c-.077.038-.038 0-.077-.039ZM7.431 10.246s-.038-.039-.115 0v.038s-.077 0-.077.039c0 0 .038.038.077.038v.039s.077 0 .115-.039v-.115ZM8.087 10.169s-.039-.078-.039-.116v-.039s.039 0 .077.039c0 0 0-.077.039-.116 0 0 .038.039.038.116l.039-.039-.077.155s-.077-.078-.077 0ZM8.164 10.169s.038-.039.154-.039v.039s.077 0 .116.038c0 0-.039.039-.116.039 0 0 0 .038.039.038 0 0-.078 0-.155-.038-.038 0 0-.077-.038-.077ZM8.048 10.169s-.038-.039-.154-.039v.039s-.077 0-.116.038c0 0 0 .039.077.039v.038s.116 0 .155-.038c.038 0 .038-.077.038-.077ZM9.513 10.284s0-.116-.154-.038v-.039s-.039 0-.039.077v.077h.039s.039-.077.154-.077ZM9.282 10.361s-.039-.077-.116-.115v.038h-.115s.038.039.077.039l-.039.038h.154c0 .039.039 0 .039 0ZM8.78 10.207l.078-.116h-.039s0-.077-.038-.115c0 0-.039.038-.039.077l-.038-.039s0 .078.038.116c-.038.077 0 .039.039.077ZM8.704 10.207l-.116-.077v.039s-.077 0-.116.038c0 0 .039.039.077.039l-.038.038h.116c.038 0 0-.038.077-.077ZM8.82 10.246s.038-.039.115 0v.038s.077 0 .077.039c0 0-.039.038-.077.038v.039s-.077 0-.116-.039c-.038-.077 0-.115 0-.115ZM8.087 10.67c-.617 0-.848.115-.848.115s-.039.039 0 .077c0 0 .385.116.848.078.424.038.848-.078.848-.078.039-.038 0-.077 0-.077s-.193-.077-.848-.115Zm.848.154c-.231.077-.694.077-.81.077-.115 0-.578 0-.81-.077 0 0 .193-.077.81-.077s.81.077.81.077Z" fill="#C8B100"/>
    <path d="M8.935 10.824c-.231.077-.694.077-.81.077-.115 0-.578 0-.81-.077 0 0 .193-.077.81-.077s.81.077.81.077Z" fill="#AD1519"/>
    <path d="M8.241 9.32c0-.077-.039-.115-.116-.115-.077 0-.115.038-.115.115 0 .078.038.116.115.116.077 0 .116-.038.116-.116Z" fill="#C8B100"/>
    <path d="M8.241 9.32c0-.077-.039-.115-.116-.115-.077 0-.115.038-.115.115 0 .078.038.116.115.116.077 0 .116-.038.116-.116Z" fill="#0039F0"/>
    <path d="M8.087 9.012h.077v.077h.038v.039h-.038v.192h.077v.078H8.01V9.32h.077v-.192H8.01v-.039h.077v-.077ZM7.354 9.667c-.154-.038-.308 0-.308 0-.463.154-.193.424-.193.424l-.077.116-.039-.039s-.192-.27.116-.462c0 0 .193-.116.463-.077l.038.038ZM8.896 9.667a.716.716 0 0 1 .309 0c.462.154.193.424.193.424l.077.116.038-.039s.193-.27-.115-.462c0 0-.193-.116-.463-.077l-.039.038Z" fill="#C8B100"/>
    <path d="M8.01 9.552c-.309-.154-.579.038-.579.038-.27.27.039.463.039.463l.038-.116s-.192-.115-.077-.27c0 0 .116-.192.424-.115 0 0 .077 0 .116.038l.039-.038Z" fill="#C8B100"/>
    <path d="M8.78 9.59s-.27-.231-.578-.038c0-.039-.038-.077-.115-.116-.116.039-.116.154-.116.154s0 .232-.038.309l.077.077.038-.077a.12.12 0 0 1 .039.077l.077-.077c-.039-.077-.039-.309-.039-.309.039-.038.116-.038.116-.038.347-.077.424.115.424.115.116.155-.077.27-.077.27l.038.116c.116 0 .463-.193.155-.463Z" fill="#C8B100"/>
    <path d="M8.087 9.552s.038-.039 0 0c.038-.039.038 0 .038 0h-.038c.038 0 0 0 0 0ZM8.087 9.629s.038-.039 0 0c.038-.039.038 0 .038 0 .039 0 0 .039-.038 0 .038.039 0 0 0 0ZM8.087 9.744c0-.038 0-.038 0 0 .038-.038.077-.038.077 0h-.077ZM8.087 9.822c0-.039.038-.039.038-.039.039 0 .039.039.039.039 0 .038-.039.038-.039.038-.038 0-.038 0-.038-.038ZM6.737 10.207c0-.039 0 0 0 0-.038-.039-.077 0-.077 0s.039.039.077 0c0 .039 0 0 0 0ZM6.699 10.13c0-.039 0 0 0 0-.039-.039-.077 0-.077 0 0 .038.038.038.077 0 0 .038 0 .038 0 0ZM6.66 10.053c0-.039 0-.039 0 0-.038-.039-.077 0-.077 0 .039 0 .039.038.077 0 0 .038 0 0 0 0ZM6.66 9.976c0-.039 0-.039 0 0-.038-.039-.077 0-.077 0h.077ZM6.699 9.86c-.039 0 0 0 0 0-.039-.039-.077 0-.077 0 0 .038 0 .038.077 0 0 .038-.039.038 0 0ZM6.737 9.783c-.038-.039 0 0 0 0-.038-.039-.077 0-.077 0s.039.039.077 0c0 0-.038.039 0 0ZM6.814 9.706c-.038 0 0 0 0 0-.038-.039-.077 0-.077 0 0 .038 0 .038.077 0 0 .038-.038.038 0 0ZM6.853 9.667c0-.038 0 0 0 0-.039-.038-.077 0-.077 0 .038 0 .038.039.077 0 0 .039 0 0 0 0ZM6.969 9.629c-.039-.039 0-.039 0 0-.039-.039-.077 0-.077 0s0 .038.077 0c0 0-.039.038 0 0ZM7.046 9.59c0-.038 0-.038 0 0-.039-.038-.077 0-.077 0s.038.039.077 0c0 .039 0 0 0 0ZM7.161 9.59c-.038-.038 0-.038 0 0-.038-.038-.077 0-.077 0h.077s-.038 0 0 0ZM7.239 9.552c-.039-.039-.077 0-.077 0 0 .038.038.038.077 0 0 .038 0 .038 0 0ZM7.316 9.59c0-.038 0-.038 0 0-.039-.038-.077 0-.077 0h.077ZM9.475 10.207s.038-.039 0 0c.038-.039.077 0 .077 0s0 .039-.077 0c.038.039 0 0 0 0ZM9.513 10.13s.039-.039 0 0c.039-.039.077 0 .077 0 0 .038 0 .038-.077 0 .039.038 0 .038 0 0ZM9.552 10.053s.038-.039 0 0c.038-.039.077 0 .077 0s-.039.038-.077 0c.038.038 0 0 0 0ZM9.552 9.976c0-.039.038-.039 0 0 .038-.039.077 0 .077 0h-.077c.038 0 0 0 0 0ZM9.552 9.86c.038-.039.077 0 .077 0-.039.038-.039.038-.077 0 0 .038 0 .038 0 0ZM9.513 9.783c0-.039 0 0 0 0 .039-.039.077 0 .077 0-.038 0-.038.039-.077 0 0 .039 0 0 0 0ZM9.436 9.706c.039-.039.077 0 .077 0-.038.038-.038.038-.077 0 0 .038 0 .038 0 0ZM9.359 9.667c0-.038 0 0 0 0 .039-.038.077 0 .077 0s-.038.039-.077 0c0 .039 0 0 0 0ZM9.282 9.629c0-.039 0-.039 0 0 .038-.039.077 0 .077 0-.039 0-.039.038-.077 0 0 .038 0 0 0 0ZM9.166 9.59c0-.038.039-.038 0 0 .039-.038.077 0 .077 0s0 .039-.077 0c.039.039 0 0 0 0ZM9.09 9.59c0-.038 0-.038 0 0 .038-.038.076 0 .076 0H9.09ZM8.974 9.552s.038 0 0 0c.038-.039.077 0 .077 0 0 .038 0 .038-.077 0 .038.038 0 .038 0 0ZM8.896 9.59c0-.038 0-.038 0 0 .039-.038.077 0 .077 0h-.077ZM7.431 9.976c0-.039 0 0 0 0-.038-.039-.077 0-.077 0s.039.038.077 0c0 .038 0 0 0 0ZM7.393 9.898c-.039-.038 0 0 0 0-.039-.038-.077 0-.077 0 0 .039 0 .039.077 0 0 .039-.039.039 0 0ZM7.354 9.821c0-.038 0 0 0 0-.038-.038-.077 0-.077 0s.039.039.077 0c0 .039 0 0 0 0ZM7.354 9.744c0-.038 0-.038 0 0-.038-.038-.077 0-.077 0s.039.039.077 0c0 .039 0 0 0 0ZM7.393 9.629c-.039 0 0 0 0 0-.039-.039-.077 0-.077 0 0 .038 0 .038.077 0 0 .038-.039.038 0 0ZM7.431 9.552c-.038 0 0 0 0 0-.038-.039-.077 0-.077 0 0 .038 0 .038.077 0 0 .038-.038.038 0 0ZM7.508 9.513c-.038-.039 0 0 0 0-.038-.039-.077 0-.077 0s0 .039.077 0c0 0-.038.039 0 0ZM7.586 9.474c-.039-.038 0-.038 0 0-.039-.038-.078 0-.078 0s0 .039.078 0c0 0-.039.039 0 0ZM7.663 9.436c0-.039 0 0 0 0-.039-.039-.077 0-.077 0 0 .038.038.038.077 0 0 .038 0 .038 0 0ZM7.778 9.436c-.038-.039 0-.039 0 0-.038-.039-.077 0-.077 0h.077s-.038 0 0 0ZM7.855 9.436c0-.039 0-.039 0 0-.038-.039-.038 0-.038 0h.038ZM7.932 9.436c0-.039 0 0 0 0-.038-.039-.038 0-.038 0s0 .038.038 0c0 .038 0 0 0 0ZM8.048 9.474c-.038-.038 0 0 0 0-.038-.038-.038 0-.038 0h.038s-.038 0 0 0ZM8.78 9.976s.04-.039 0 0c.04-.039.078 0 .078 0s0 .038-.077 0c.038.038 0 0 0 0ZM8.858 9.899c0-.039 0 0 0 0 .038-.039.077 0 .077 0-.039.038-.039.038-.077 0 0 .038 0 .038 0 0ZM8.858 9.822s.038-.039 0 0c.038-.039.077 0 .077 0s0 .038-.077 0c.038.038 0 0 0 0ZM8.858 9.744c0-.038.038-.038 0 0 .038-.038.077 0 .077 0s0 .039-.077 0c.038.039 0 0 0 0ZM8.858 9.629c.038-.039.077 0 .077 0-.039.038-.039.038-.077 0 0 .038 0 .038 0 0ZM8.82 9.552c.038-.039.076 0 .076 0-.038.038-.038.038-.077 0 0 .038 0 .038 0 0ZM8.742 9.513c0-.038 0 0 0 0 .039-.038.077 0 .077 0-.038 0-.038.039-.077 0 0 .039 0 0 0 0ZM8.665 9.474c0-.038 0-.038 0 0 .039-.038.077 0 .077 0-.038 0-.038.039-.077 0 0 .039 0 0 0 0ZM8.55 9.436s.038-.038 0 0c.038-.038.077 0 .077 0 0 .039 0 .039-.078 0 .039.039 0 .039 0 0ZM8.472 9.436c0-.039 0-.039 0 0 .039-.039.077 0 .077 0h-.077ZM8.395 9.475a.039.039 0 1 0 0-.078.039.039 0 0 0 0 .078ZM8.28 9.436c0-.038 0 0 0 0 .038-.038.038 0 .038 0s0 .039-.038 0c0 .039 0 0 0 0ZM8.202 9.475c0-.039 0 0 0 0 .039-.039.039 0 .039 0h-.039Z" fill="#fff"/>
    <path d="M9.513 13.446V10.94H6.737v2.506s-.038.694 1.388.77c1.427-.076 1.388-.77 1.388-.77Z" fill="#AD1519"/>
    <path d="M8.125 13.446c-.154.578-1.118.347-1.272.308.154.193.501.386 1.272.424 1.08-.038 1.311-.462 1.35-.655-.463.771-1.35-.077-1.35-.077Z" fill="#CCC"/>
    <path d="M8.164 14.101s.077-.116.27-.038c0-.039-.039.038-.27.038ZM7.817 13.985s.154 0 .27.078c0 .038-.155.038-.27-.078ZM8.164 14.14c-.039 0 0 0 0 0 0-.039-.039-.116-.039-.116s.039.077.039.116Z" fill="#4F8C6F"/>
    <path d="M8.048 13.754h.039l.038-.038.039.038h.038v.039s.155.077.077.154c0 0-.077.077-.192.039-.039-.04-.077-.116-.039-.155v-.077c.039.039.039 0 0 0Z" fill="#FFD691"/>
    <path d="M8.125 13.793s.077.077 0 .193c0 0-.077-.116 0-.193Z" fill="#AD1519"/>
    <path d="M9.513 10.94H8.125v1.542h1.388V10.94Z" fill="#CCC"/>
    <path d="M8.82 11.287h-.116s-.039 0-.078-.039c0 0-.038-.038-.077 0l.077.077h.078c.038 0 .115 0 .115-.038ZM9.05 12.25s0 .039.04.039c0 0-.04-.038 0-.077.038.039-.04.039-.04.039ZM8.973 12.25v.078s0-.039.039-.039l-.039-.038ZM8.973 12.173s-.038 0-.038.039c0-.039.038-.039.038-.039ZM8.626 12.135v.038s0-.038.039-.038h-.039ZM8.588 12.058s-.039 0-.039.038c0 0 .039-.038.077 0-.038 0-.038-.038-.038-.038ZM8.626 11.98s-.038-.038-.077 0h.077ZM8.434 11.75s0 .038.038.076v-.038l-.038-.039ZM8.395 11.71s-.038 0-.038.04h.077l-.039-.04ZM8.434 11.634s-.039-.039-.077 0h.077Z" fill="#BD4647"/>
    <path d="M8.896 11.171s.077.039.155.116c0 0 .038-.039.077-.039h.038s0-.038-.038-.038c0 0-.039 0 0-.039h-.039v-.078h-.077v-.038h-.039v-.038s0-.039-.038-.039c-.077.077-.039.116-.039.193Z" fill="#C8B100"/>
    <path d="M9.05 11.132c-.038 0-.038 0 0 0-.038-.038-.038 0 0 0 0 0 0-.038 0 0ZM9.05 11.171c-.038 0-.038 0 0 0-.038-.038-.038-.038 0 0 0-.038 0-.038 0 0ZM9.09 11.17c-.04 0-.04.04 0 0-.04 0-.04 0 0 0-.04 0-.04 0 0 0 0 0-.04 0 0 0ZM9.09 11.21c-.04 0 0 0 0 0-.04 0 0-.039 0 0 0 0 0-.039 0 0Z" fill="#C8B100"/>
    <path d="M8.434 11.17s.038.04 0 .04v.038h.038s.039-.077-.038-.077ZM8.28 11.287h.038l.039.038.038-.038c0-.039-.038-.077-.116 0ZM8.318 11.402s.039-.038.039 0h.038v-.038c0-.039-.116-.039-.077.038Z" fill="#BD4647"/>
    <path d="M9.243 11.287c.077-.078.077-.116.077-.116-.077 0-.077.077-.077.116l-.038-.078c0 .04-.039.078-.039.078-.038.038 0 .115 0 .115v.116c0 .038.039.154.039.193.038.115-.077.115-.077.115-.116 0-.193-.154-.193-.154v-.077c.038 0 .038.039.038.039v-.116c.039 0 .039.038.039.038v-.077c.039 0 .039.039.039.039 0-.039-.039-.077-.039-.077v-.077l.039.038c-.039-.038 0-.115 0-.115l-.116-.116c-.039-.039-.077 0-.077 0-.039.039-.077.039-.077.039h-.039c0 .038.039.038.039.038.077 0 .077.039.077.039 0 .038-.077.038-.077.038-.077 0 0 .039 0 .039.038.038-.039.038-.039.038h-.116c-.038-.038-.115-.077-.115-.077-.039 0-.039-.038-.039-.077 0-.038.039-.038.039-.038h-.039v.038c-.038 0-.038-.038-.038-.038l-.039.038c.039 0 .039.039.039.039h-.039v.038h.039c0 .039.038.039.038.039-.038 0 0 0 0 0 .039 0 .077.038.077.038-.038 0-.038.039-.038.039h.038c.077 0 .116.077.116.077-.039.038-.077.038-.077.038-.039.039-.039.039-.077 0l-.039-.038-.038.038c.038 0 .038.039.038.039h-.038v.039h.038v.038h.077v-.038c.039 0 .077-.039.077-.039v.039c.039 0 .039-.078.039-.078v.039c0-.039.077-.039.077-.039 0 .039.077.116.077.116.039.039.077.039.116.077H8.78s-.077 0-.039.116c0 0 0-.039.039-.039v.077s0-.038.038-.038v.077s-.038.039-.077 0c0 0-.038 0-.038-.077l-.078.154s.039 0 .039.039c0 0 0 .038-.039 0v.038h.039s.039 0 0 .039v.038h.039s0-.038.038-.038h.077s.039 0 .039-.039c0 0-.039-.115 0-.115 0 0 0-.039.077 0-.039.077.038.154.038.154v-.039h.039v-.038c0 .038.039.038.039.038.038.077-.039.039-.039.039h-.039v.038h.039c-.039 0-.039.039-.039.039.039 0 .039.039.039.039v-.04.04c0-.04.077 0 .077 0-.038-.04-.038-.078-.038-.078 0-.038.038-.077.038-.115.039-.039-.038-.039-.038-.039-.039 0-.039-.038-.039-.038-.039-.039 0-.116.039-.155.077 0 .077-.038.115-.038.039-.077.039-.154 0-.193-.038-.077-.038-.116-.038-.116 0-.077.038-.115.038-.115.039 0 .039-.077.039-.077 0-.039.038-.078.038-.078.039.078 0 .078 0 .078Z" fill="#ED72AA"/>
    <path d="M8.896 11.21c-.038-.039 0 0 0 0-.038 0-.038 0 0 0Z" fill="#201D15"/>
    <path d="M7.508 11.21h-.115v.038h.115v-.038Z" fill="#C8B100"/>
    <path d="M7.74 12.058v-.425h.038v-.192h-.115v-.077h.077V11.248H7.7v.039h-.038v-.039h-.077v.039-.039h-.078V11.364h.078v.077H7.47v-.193h.077V11.132H7.47v.039-.039h-.077v.039-.039h-.077V11.248h.077v.193h-.116v-.077h.077V11.248h-.077v.039-.039H7.2v.039-.039h-.077V11.364H7.2v.077h-.116v.192h.077v.425h-.115v.192h.77v-.192H7.74Z" fill="#C8B100"/>
    <path d="M7.316 11.903v-.115a.083.083 0 0 0-.077-.077.083.083 0 0 0-.077.077v.115h.154ZM7.663 11.903v-.115a.083.083 0 0 0-.077-.077.083.083 0 0 0-.077.077v.115h.154ZM7.508 12.135c0-.077-.038-.077-.077-.077a.083.083 0 0 0-.077.077v.115h.193v-.115h-.039Z" fill="#0039F0"/>
    <path d="M7.47 14.024c.617-.038.694-.578.694-.578v-1.003H6.737v1.041s.077.502.733.54Z" fill="#C8B100"/>
    <path d="M6.891 13.793c.039.038.078.077.155.115v-1.465H6.89v1.35ZM7.2 13.986c.039 0 .077.038.154.038v-1.58H7.2v1.541ZM7.508 14.024c.039 0 .116 0 .155-.038v-1.543h-.155v1.581ZM7.817 13.908c.077-.038.115-.077.154-.115v-1.311h-.154v1.426ZM8.82 14.024c.616-.038.655-.578.655-.578v-.964h-1.35v1.002c0-.038.077.502.694.54Z" fill="#AD1519"/>
    <path d="M9.282 13.253s.077-.039.038-.116c0 0 0-.038-.038-.038v-.116h.038v-.116h-.038v-.115c.038 0 .038-.039.038-.077a.083.083 0 0 0-.077-.077c-.038 0-.077.038-.077.038H9.09v-.038h-.116v.038h-.077c0-.038-.038-.038-.077-.038-.038 0-.077.038-.077.038h-.077v-.038h-.077l-.077.154h.154v-.039h.077c0 .039.039.039.039.039v.038h-.039v.116h.039v.154l-.116-.115.039-.039-.078-.116h-.038l-.077-.077-.039.039.077.077-.038.038.077.078h.038l.116.115h-.077v-.038h-.154v.038h-.077s0-.038-.039-.038v-.116h.039v-.193h-.155v.155h.039v.115c-.039 0-.039.039-.039.039-.038.192.039.231.039.231v.077h-.039v.154h.039s0 .078.039.078c0 0-.078.115.077.115l.077.077v.039l.115.077.039-.039h.077s0 .078.077.039c0 0 .039 0 .077-.077 0 0 .039 0 .077-.039l.039.039.116-.077v-.039l.077-.077s.077 0 .115-.077c0 0 0-.039-.038-.039l.038-.077h.039v-.115l-.039-.039h-.038Zm-.656-.578H8.55v-.039l.077.039Zm-.038.308-.039-.038.039-.039v.077Zm-.27-.116h.039v.078h-.039v-.078Zm.039.54h-.039v-.077h.039v.077Zm0-.231c-.039 0-.039 0 0 0-.039-.039 0-.039 0-.039v.039Zm.925-.309v.078h-.039v-.078h.039Zm-.27-.23h.077v.038l-.077-.039Zm-.463.5h.077v.039l-.077-.039Zm-.154.386s-.038-.039 0-.077h.039v-.116h-.039v-.077s.039 0 .039-.039h.077v.04h.115v-.04h.078l-.078.116-.038-.038-.077.115.038.039-.077.077h-.077Zm.231-.154-.038.038-.039-.038h.077Zm-.038.424-.077-.039v-.038l.077.077Zm.193-.347h-.039v.116h.039v.154s-.039 0-.039.038h-.077v-.038s-.116-.039-.116-.077l-.038.038-.039-.038s.039-.039 0-.077l.077-.078h.039l.077-.077-.039-.038.116-.116v.193h.039Zm.038.116h-.038v-.078h.038v.078Zm0-.656h-.038v-.077h.038v.077Zm.077-.231h.077v.038h.116v-.038h.077l-.154.154h-.039l-.077.116.039.038-.116.116v-.154h.039v-.116h-.039v-.039c.039-.077.039-.077.077-.115Zm.155.231-.039.077-.039-.038.078-.039Zm-.039.887.039-.077v.038l-.039.039Zm.077-.116-.038-.038s-.039.038-.116.077v.038h-.077s0-.038-.039-.038v-.154h.039v-.116h-.039v-.193l.116.116-.039.038.077.116.039-.039.077.116s-.038.039 0 .077Zm-.116-.308.078.038-.039.039-.039-.077Zm.27-.077h-.038v.115h.038s0 .039-.038.077h-.039l-.077-.077.039-.038-.116-.077h-.039l-.115-.116h.077v.038h.116v-.038h.077s0 .038.038.038v.078h.077Zm-.231-.116.077-.039v.039h-.077Zm.231-.077s-.038 0-.038.038h-.077V13.1h-.116v.038h-.077l.116-.115h.038c.039-.039.077-.116.077-.116 0-.039-.038-.039-.038-.039l.154-.154v.116h-.039v.116l.039.038v.116h-.039Zm.039.308h-.039v-.077h.039v.077Zm0-.231c-.039 0-.039 0 0 0-.039-.039 0-.039 0-.039v.039Z" fill="#C8B100"/>
    <path d="M8.896 13.176a.083.083 0 0 0-.077-.077.083.083 0 0 0-.077.077c0 .038.039.077.077.077a.083.083 0 0 0 .077-.077Z" fill="#058E6E"/>
    <path d="M8.55 12.443c0-.27-.193-.5-.425-.5-.231 0-.424.23-.424.5s.193.502.424.502c.232 0 .424-.232.424-.502Z" fill="#AD1519"/>
    <path d="M8.434 12.443c0-.192-.154-.347-.309-.347-.154 0-.308.155-.308.347 0 .193.154.347.308.347.155 0 .309-.115.309-.347Z" fill="#005BBF"/>
    <path d="M8.24 12.443c0-.077-.076-.038-.076-.038v-.039c0-.077.077-.038.077-.038s-.039-.077.038-.116c0 0 .039.039.039.154 0 0 .077-.077.077 0v.039s-.038-.039-.038.038H8.24ZM8.318 12.443h-.116v.039h.039v.039s.039-.04.039 0c0 0 0-.04.038 0v-.078ZM7.971 12.443c0-.077-.077-.038-.077-.038v-.039c0-.077.077-.038.077-.038s-.039-.077.039-.116c0 0 .038.039.038.154 0 0 .077-.077.077 0v.039s-.038-.039-.038.038H7.97ZM8.01 12.443l.038.039H8.01c0-.039-.039 0-.039 0 0-.039.039-.039.039-.039Z" fill="#C8B100"/>
    <path d="M8.048 12.443h-.115v.039h.115v-.039ZM8.087 12.675c0-.077-.077-.039-.077-.039v-.038c0-.078.077-.039.077-.039s-.039-.077.038-.116c0 0 .039.039.039.155 0 0 .077-.078.077 0v.038s-.039-.038-.039.039h-.115ZM8.164 12.675h-.116v.038h.039v.039s.038-.039.038 0c0 0 0-.039.039 0v-.077Z" fill="#C8B100"/>
</svg>
