<svg width="24" height="24" fill="none" xmlns="http://www.w3.org/2000/svg">
    <path d="M9.667 4.54v14.92c-4.125-1.31-6.4-5.706-5.127-9.831.77-2.429 2.699-4.318 5.127-5.09Z" fill="#060"/>
    <path d="M9.667 4.54v14.92c-4.125-1.31-6.4-5.706-5.127-9.831.77-2.429 2.699-4.318 5.127-5.09Z" fill="#060"/>
    <path d="M19.807 12.02c0 4.317-3.508 7.787-7.826 7.787a7.82 7.82 0 0 1-2.314-.347V4.54c4.126-1.273 8.521 1.002 9.793 5.127.232.772.347 1.543.347 2.352Z" fill="red"/>
    <path d="m6.39 14.14.155.115-.116-.192-.039.077ZM6.198 13.831l.154.155.038-.155-.115-.115-.077.115ZM6.352 9.899l.038.154.116-.039v-.192l-.154.077Z" fill="#919100"/>
    <path d="M6.352 10.863c.193.193.424.347.655.5.193.117.501-.115.501-.115l.039-.617-.501-.23-.579-.117-.115.579Z" fill="#F4EE16"/>
    <path d="m6.043 10.477.077.193.078-.27h-.116l-.039.077Z" fill="#919100"/>
    <path d="m11.325 13.947.579.308.77-.192-.539-.656-.347-.154-.463.694Z" fill="#F4EE16"/>
    <path d="m13.099 13.908-.154.039.038-.154h.077l.039.038v.077ZM12.752 14.448l-.155.039v-.155l.116-.038.039.077v.077Z" fill="#919100"/>
    <path d="M11.056 14.217a7.869 7.869 0 0 0 1.657-.309c.386-.192-.54.502-.54.502-.81.192-1.58.27-2.428.308l1.31-.501ZM8.28 14.217a7.869 7.869 0 0 1-1.658-.309c-.386-.192.54.502.54.502.81.192 1.58.27 2.428.308l-1.31-.501ZM11.904 12.29a4.723 4.723 0 0 0 1.272-.31c.231-.153-.077.463-.077.463-.386.116-.81.193-1.195.27-.27 0 0-.424 0-.424ZM7.431 12.29a4.723 4.723 0 0 1-1.272-.31c-.231-.153.077.463.077.463.386.116.81.193 1.195.27.27 0 0-.424 0-.424Z" fill="#F4EE16"/>
    <path d="m13.562 12.25-.078.078v-.193l.039.039.039.077Z" fill="#919100"/>
    <path d="M11.904 10.246c.23-.039.462-.116.694-.193l.154.385c-.27.078-.579.155-.848.193v-.385Z" fill="#F4EE16"/>
    <path d="M13.176 10.323h-.039l-.038-.116.077.116ZM5.735 12.25l.116.078v-.193l-.077.039-.039.077Z" fill="#919100"/>
    <path d="M13.562 11.826a4.573 4.573 0 0 0-.425-1.619l-.231-.347a3.852 3.852 0 0 0-5.359-1.04c-.386.27-.733.616-1.041 1.002 0 0 0 .038-.039.038l-.038.077-.116.232-.038.038c0 .039-.039.039-.039.077-.038.039-.038.077-.077.154a3.881 3.881 0 0 0 .077 3.393c.039.077.116.193.154.27 1.157 1.812 3.509 2.313 5.32 1.195a4.91 4.91 0 0 0 1.042-.963c.115-.155.231-.348.347-.54a3.38 3.38 0 0 0 .424-1.62v-.154c.039-.077.039-.154.039-.193Zm-.733 1.62a2.302 2.302 0 0 1-.347.578 3.468 3.468 0 0 1-4.82.848c-.346-.27-.693-.578-.925-.964-.038-.077-.115-.192-.154-.308-.501-.964-.501-2.12-.038-3.123.077-.154.154-.27.23-.424 0-.039.04-.039.04-.077l.038-.039.039-.077.192-.154.039-.039.038-.038a3.433 3.433 0 0 1 4.897-.039l.116.116c.115.116.192.231.308.386.347.462.54 1.04.617 1.619V12.096c.038.386-.077.887-.27 1.35Z" fill="#F4EE16"/>
    <path d="m13.022 10.014-.077.039-.039-.154.116.115ZM13.562 11.903l-.04.078-.038-.155h.039l.039.077Z" fill="#919100"/>
    <path d="m7.74 13.6-.771.193-.193.077-.193.077-.154.116c-.039-.078-.116-.193-.154-.27l.038-.039.193-.115.116-.039.732-.231.27-.039.116.27Z" fill="#F4EE16"/>
    <path d="M7.547 13.253s-1.08.231-1.31.501v.077c.385-.27.847-.424 1.348-.501l-.038-.077ZM7.663 13.562s-1.08.192-1.311.5v.078c.424-.27.887-.424 1.35-.463l-.04-.115Z" fill="#E2DD13"/>
    <path d="M13.099 13.793a1.618 1.618 0 0 1-.347.54l-.154-.193-.116-.116-.386-.308-.385-.309.231-.694c.309.232.617.463.887.733.077.077.193.192.27.347Z" fill="#F4EE16"/>
    <path d="M11.904 12.675c.5.27 1.31 1.002 1.233 1.195l-.038.039-1.195-1.234Zm1.195 1.233c0-.077-.077-.192-.116-.27a4.027 4.027 0 0 0-1.08-.886l1.196 1.156ZM11.634 13.33c.501.27 1.233.848 1.118 1.041l-.039.077c-.038-.116-.077-.231-.154-.308-.27-.27-.617-.502-.925-.733v-.077Z" fill="#E2DD13"/>
    <path d="M13.561 12.02v.115c-.115-.077-.27-.116-.385-.193a.65.65 0 0 0-.193-.077 4.703 4.703 0 0 0-1.002-.231c-.193.038 0-.347 0-.347a4.22 4.22 0 0 1 1.002.231l.193.077c.154.039.27.116.424.193-.039.077-.039.154-.039.231Z" fill="#F4EE16"/>
    <path d="M11.942 11.287c.579.077 1.388.308 1.658.54v.077s-.424-.386-1.658-.579v-.038ZM11.942 11.634c.579.077 1.388.308 1.658.54v.077s-.386-.386-1.658-.579v-.038Z" fill="#E2DD13"/>
    <path d="m5.735 11.903.077.078.039-.155h-.077l-.039.077Z" fill="#919100"/>
    <path d="M5.773 12.02v.115c.116-.077.27-.116.386-.193a.547.547 0 0 1 .231-.077 4.542 4.542 0 0 1 1.041-.231c.193.038 0-.347 0-.347a4.22 4.22 0 0 0-1.002.231l-.193.077c-.154.039-.27.116-.424.193-.039.077-.039.154-.039.231Z" fill="#F4EE16"/>
    <path d="M7.393 11.287c-.579.077-1.388.308-1.658.54v.077s.424-.386 1.658-.579v-.038ZM7.393 11.634c-.579.077-1.388.308-1.658.54v.077s.386-.386 1.658-.579v-.038Z" fill="#E2DD13"/>
    <path d="m13.06 10.207-.578-.193a1.548 1.548 0 0 0-.578-.115V9.59s.115 0 .27.039c.23.038.462.116.693.193.077.154.155.27.193.385ZM9.783 14.718h-.231v1.157h.231v-1.157Z" fill="#F4EE16"/>
    <path d="M9.86 14.68h-.077v1.272h.077v-1.273ZM9.552 14.68h-.077v1.272h.077v-1.273ZM11.942 9.86c.424.077.81.193 1.195.347l.077.116c-.385-.193-.81-.308-1.272-.386V9.86ZM11.942 9.552a3.03 3.03 0 0 1 1.002.308l.078.116a3.616 3.616 0 0 0-1.08-.386v-.038Z" fill="#E2DD13"/>
    <path d="M7.431 9.899h-.038c-.193 0-.386.038-.54.115-.154.039-.347.116-.463.155l-.115.038v-.038l.115-.232.039-.077.154-.077c.154-.077.347-.116.54-.154.116-.039.193-.039.231-.039h.039l.038.309Z" fill="#F4EE16"/>
    <path d="M7.393 9.86v.077a3.212 3.212 0 0 0-.579.155c-.192.038-.347.077-.5.115l-.078.039c0-.039.039-.039.039-.077l.038-.039.116-.038c.154-.039.308-.116.463-.155.23-.038.5-.077.5-.077ZM7.393 9.552v.077l-.309.077a2.23 2.23 0 0 0-.54.193l-.115.038.039-.077.038-.038c.039-.039.077-.039.154-.039a2.84 2.84 0 0 1 .54-.154c.116-.077.193-.077.193-.077Z" fill="#E2DD13"/>
    <path d="M7.431 10.13v.733l-.308-.154-.347-.155-.193-.077-.077-.038-.308-.039h-.039c0-.039.039-.077.077-.154 0-.039.039-.039.039-.077l.038-.039.116-.231.038-.077h.116l.309.077.115.038.424.193Z" fill="#F4EE16"/>
    <path d="M7.393 10.13s-.733-.386-1.041-.27c0 0 0-.116.154-.077.308 0 .617.116.887.27v.077ZM7.393 10.863s-1.041-.54-1.35-.425c0 0 0-.115.155-.077.424.077.81.193 1.195.425v.077Z" fill="#E2DD13"/>
    <path d="M11.98 9.36v3.2c0 .192-.038.423-.115.616-.231.732-.848 1.272-1.58 1.504-.193.077-.425.077-.617.077-.232 0-.425-.039-.617-.077-.733-.193-1.311-.771-1.581-1.504-.077-.193-.077-.424-.077-.617v-3.2h4.588Z" fill="#fff"/>
    <path d="M11.904 9.475v3.161c-.078 1.118-.964 2.005-2.082 2.043h-.309c-1.118-.077-2.005-.963-2.043-2.082V9.437h4.434v.039Z" fill="red"/>
    <path d="M10.978 10.323v2.236a1.312 1.312 0 0 1-1.156 1.157h-.27a1.312 1.312 0 0 1-1.157-1.157v-2.236h2.583Z" fill="#fff"/>
    <path d="M9.359 10.67v.463c0 .154.116.27.308.308a.304.304 0 0 0 .309-.308v-.463h-.617Zm.154.54c-.038 0-.038-.039-.038-.039 0-.038.038-.038.038-.038.039 0 .039.038.039.038l-.039.039Zm0-.347c-.038 0-.038-.039-.038-.039 0-.038.038-.038.038-.038.039 0 .039.038.039.038l-.039.039Zm.154.154c-.038 0-.038-.039-.038-.039 0-.038.038-.038.038-.038.039 0 .039.038.039.038 0 .039 0 .039-.039.039Zm.155.193c-.039 0-.039-.039-.039-.039 0-.038.039-.038.039-.038.038 0 .038.038.038.038.039 0 0 .039-.038.039Zm0-.347c-.039 0-.039-.039-.039-.039 0-.038.039-.038.039-.038.038 0 .038.038.038.038.039 0 0 .039-.038.039ZM9.359 11.672v.463c0 .154.116.27.308.308a.304.304 0 0 0 .309-.308v-.463h-.617Zm.154.54c-.038 0-.038-.038-.038-.038 0-.039.038-.039.038-.039.039 0 .039.039.039.039l-.039.038Zm0-.347c-.038 0-.038-.038-.038-.038 0-.039.038-.039.038-.039.039 0 .039.039.039.039 0 .038-.039.038-.039.038Zm.154.193c-.038 0-.038-.039-.038-.039 0-.038.038-.038.038-.038.039 0 .039.038.039.038s0 .039-.039.039Zm.155.154c-.039 0-.039-.038-.039-.038 0-.039.039-.039.039-.039.038 0 .038.039.038.039.039 0 0 .038-.038.038Zm0-.347c-.039 0-.039-.038-.039-.038 0-.039.039-.039.039-.039.038 0 .038.039.038.039.039.038 0 .038-.038.038ZM8.55 11.672v.463c0 .154.115.27.308.308a.304.304 0 0 0 .308-.308v-.463H8.55Zm.115.54c-.038 0-.038-.038-.038-.038 0-.039.038-.039.038-.039.039 0 .039.039.039.039.038 0 0 .038-.039.038Zm0-.347c-.038 0-.038-.038-.038-.038 0-.039.038-.039.038-.039.039 0 .039.039.039.039.038.038 0 .038-.039.038Zm.193.193c-.039 0-.039-.039-.039-.039 0-.038.039-.038.039-.038.038 0 .077 0 .077.038v.039c-.039-.039-.039 0-.077 0Zm.154.154c-.038 0-.038-.038-.038-.038 0-.039.038-.039.038-.039.039 0 .039.039.039.039s0 .038-.039.038Zm0-.347c-.038 0-.038-.038-.038-.038 0-.039.038-.039.038-.039.039 0 .039.039.039.039 0 .038 0 .038-.039.038ZM10.169 11.672v.463c0 .154.115.308.308.308.154 0 .27-.115.309-.308v-.463h-.617Zm.154.54c-.039 0-.039-.038-.039-.038 0-.039.039-.039.039-.039.038 0 .038.039.038.039l-.038.038Zm0-.347c-.039 0-.039-.038-.039-.038 0-.039.039-.039.039-.039.038 0 .038.039.038.039 0 .038-.038.077-.038.038 0 .039 0 .039 0 0Zm.154.193c-.038 0-.038-.039-.038-.039 0-.038.038-.038.038-.038.039 0 .039.038.039.038s0 .039-.039.039Zm.154.154c-.038 0-.038-.038-.038-.038 0-.039.038-.039.038-.039.039 0 .039.039.039.039.039 0 0 .038-.039.038Zm0-.347c-.038 0-.038-.038-.038-.038 0-.039.038-.039.038-.039.039 0 .039.039.039.039.039.038 0 .077-.039.038 0 .039 0 .039 0 0ZM9.359 12.675v.462c0 .155.116.309.308.309.155 0 .309-.116.309-.27v-.463h-.617v-.038Zm.154.54c-.038 0-.038-.039-.038-.039l.038-.039c.039 0 .039.039.039.039l-.039.039Zm0-.309c-.038 0-.038-.038-.038-.038l.038-.039c.039 0 .039.039.039.039l-.039.038Zm.154.154c-.038 0-.038-.038-.038-.038 0-.039.038-.039.038-.039.039 0 .039.039.039.039s0 .038-.039.038Zm.155.155c-.039 0-.039-.039-.039-.039 0-.039.039-.039.039-.039.038 0 .038.039.038.039.039 0 0 .039-.038.039Zm0-.309c-.039 0-.039-.038-.039-.077s.039-.039.039-.039c.038 0 .038.039.038.039.039.039 0 .077-.038.077Z" fill="#039"/>
    <path d="M10.014 9.86H9.32V9.9h.694V9.86ZM9.745 9.59H9.59v.27h.155v-.27ZM9.976 10.207H9.32l.039-.231h.578l.039.231Z" fill="#FF0"/>
    <path d="M9.822 10.246a.35.35 0 0 0-.155-.309c-.115.077-.192.193-.154.309h.309Z" fill="#FF0"/>
    <path d="M10.014 10.207H9.32v.039h.694v-.039ZM9.976 9.899h-.617v.038h.617V9.9ZM9.745 9.513h-.193v.077h.193v-.077ZM9.937 9.706h-.154v.154h.154v-.154ZM9.937 9.629h-.192v.077h.23v-.077h-.038ZM9.513 9.706H9.36v.154h.154v-.154ZM9.398 9.629h.154v.077h-.193v-.077h.039ZM9.745 10.207c0-.154-.039-.193-.078-.193-.038 0-.077.039-.077.193h.155ZM11.788 9.86h-.694V9.9h.694V9.86ZM11.48 9.59h-.155v.27h.155v-.27ZM11.75 10.207h-.656l.039-.231h.578l.038.231Z" fill="#FF0"/>
    <path d="M11.595 10.246a.35.35 0 0 0-.154-.309c-.116.077-.193.193-.154.309h.308Z" fill="#FF0"/>
    <path d="M11.75 10.207h-.695v.039h.694v-.039ZM11.71 9.899h-.616v.038h.617V9.9ZM11.48 9.513h-.155v.077h.193v-.077h-.039ZM11.71 9.706h-.153v.154h.154v-.154ZM11.71 9.629h-.192v.077h.231v-.077h-.038ZM11.287 9.706h-.154v.154h.154v-.154ZM11.133 9.629h.192v.077h-.192v-.077ZM11.518 10.207c0-.154-.039-.193-.077-.193-.039 0-.116.078-.116.193h.193Z" fill="#FF0"/>
    <path d="M11.788 11.672h-.694v.039h.694v-.039ZM11.48 11.402h-.155v.27h.155v-.27ZM11.75 12.02h-.656l.039-.232h.578l.038.231Z" fill="#F4EE16"/>
    <path d="M11.595 12.058a.35.35 0 0 0-.154-.309c-.116.078-.193.193-.154.309h.308Z" fill="#F4EE16"/>
    <path d="M11.75 12.02h-.695v.038h.694v-.039ZM11.71 11.71h-.616v.04h.617v-.04ZM11.48 11.325h-.155v.077h.193v-.077h-.039ZM11.71 11.518h-.153v.154h.154v-.154ZM11.71 11.44h-.192v.078h.231v-.077h-.038ZM11.287 11.518h-.154v.154h.154v-.154ZM11.133 11.44h.192v.078h-.192v-.077Z" fill="#F4EE16"/>
    <path d="M11.518 12.02c0-.155-.039-.155-.077-.155-.039 0-.116.038-.116.154h.193ZM10.764 13.317l-.027.027.49.491.027-.027-.49-.491ZM11.145 13.31l-.19.191.108.109.191-.19-.109-.11ZM11.017 14.024l-.463-.463.193-.154.424.424-.154.193Z" fill="#F4EE16"/>
    <path d="M10.901 13.947c.116-.077.155-.193.116-.347a.311.311 0 0 0-.347.116l.231.23Z" fill="#F4EE16"/>
    <path d="m10.516 13.541-.028.027.491.491.027-.027-.49-.49ZM10.756 13.384l-.027.027.436.436.027-.027-.436-.436ZM11.325 13.33v.039l-.038-.039h.038l-.038-.039h-.039l-.038-.038h.038l-.038-.039-.077.077.154.155.077-.077-.039-.039ZM11.235 13.52l-.109.11.11.109.108-.11-.109-.108Z" fill="#F4EE16"/>
    <path d="M11.402 13.562v.038l-.038-.038-.039-.078v.039l-.038-.039h.038l-.038-.038-.077.077.154.154.077-.077-.039-.038ZM10.922 13.226l-.109.11.11.108.108-.109-.109-.109Z" fill="#F4EE16"/>
    <path d="M11.017 13.176v.039h.039l.038.038h-.038l.038.039v-.039l.039.039-.077.077-.155-.154.077-.078.039.039ZM10.863 13.87c.115-.116.077-.154.038-.193-.038-.038-.077-.038-.193.039l.155.154Z" fill="#F4EE16"/>
    <path d="M8.241 9.86h-.694V9.9h.694V9.86ZM7.971 9.59h-.154v.27h.154v-.27ZM7.586 10.207h.616v-.231h-.616v.231Z" fill="#FF0"/>
    <path d="M7.74 10.246a.35.35 0 0 1 .154-.309c.116.077.193.193.154.309H7.74Z" fill="#FF0"/>
    <path d="M8.241 10.207h-.694v.039h.694v-.039ZM8.202 9.899h-.616v.038h.616V9.9ZM7.817 9.513h.193v.077h-.232v-.077h.039ZM7.74 9.706h-.154v.154h.154v-.154ZM7.624 9.629h.154v.077h-.192v-.077h.038ZM8.164 9.706H8.01v.154h.154v-.154ZM8.164 9.629H8.01v.077h.192v-.077h-.038ZM7.817 10.207c0-.154.038-.193.077-.193s.077.039.077.193h-.154Z" fill="#FF0"/>
    <path d="M8.241 11.672h-.694v.039h.694v-.039ZM7.971 11.402h-.154v.27h.154v-.27ZM7.586 12.02h.616v-.232h-.616v.231Z" fill="#F4EE16"/>
    <path d="M7.74 12.058a.35.35 0 0 1 .154-.309.262.262 0 0 1 .154.309H7.74Z" fill="#F4EE16"/>
    <path d="M8.241 12.02h-.694v.038h.694v-.039ZM8.202 11.71h-.616v.04h.616v-.04ZM7.817 11.325h.193v.077h-.232v-.077h.039ZM7.74 11.518h-.154v.154h.154v-.154ZM7.624 11.44h.154v.078h-.192v-.077h.038ZM8.164 11.518H8.01v.154h.154v-.154ZM8.164 11.44H8.01v.078h.192v-.077h-.038Z" fill="#F4EE16"/>
    <path d="M7.817 12.02c0-.155.038-.155.077-.155s.077.038.077.154h-.154ZM8.55 13.309l-.49.49.027.028.491-.491-.027-.027ZM8.13 13.332l-.108.109.19.19.11-.109-.191-.19ZM8.318 14.024l.424-.463-.154-.154-.424.424.154.193Z" fill="#F4EE16"/>
    <path d="M8.434 13.947c-.116-.077-.155-.193-.116-.347.116-.039.27 0 .347.116l-.231.23Z" fill="#F4EE16"/>
    <path d="m8.776 13.553-.49.491.027.027.49-.49-.027-.028ZM8.535 13.401l-.436.436.027.028.436-.437-.027-.027ZM7.971 13.33l.039.039v-.039l.038-.039.039-.038v-.039l.077.077-.154.155-.039-.077v-.039ZM8.076 13.527l-.109.109.11.109.108-.109-.109-.11Z" fill="#F4EE16"/>
    <path d="m7.894 13.562.038.038.039-.038h-.039l.039-.078.039.039v-.039l.038-.038.039.077-.116.154-.077-.077v-.038ZM8.373 13.27l-.109.109.11.109.108-.11-.109-.108ZM8.28 13.176l.038.039h-.039l-.038.038-.039.039v-.039l-.038.039.077.077.154-.154-.077-.078-.039.039ZM8.472 13.87c-.115-.116-.077-.154-.038-.193.038-.038.077-.038.192.039l-.154.154ZM9.783 8.125h-.231V9.36h.231V8.125Z" fill="#F4EE16"/>
    <path d="M9.86 8.087h-.077v1.272h.077V8.087ZM9.552 8.087h-.077v1.272h.077V8.087Z" fill="#E2DD13"/>
    <path d="M12.02 19.923a7.904 7.904 0 1 0 0-15.807 7.904 7.904 0 0 0 0 15.807Z" stroke="#E6E6E6" stroke-width=".5" stroke-miterlimit="10"/>
</svg>
