<svg width="24" height="24" fill="none" xmlns="http://www.w3.org/2000/svg">
    <path d="M12.02 20C7.585 20 4 16.415 4 12.02 4 7.623 7.586 4 12.02 4a8.013 8.013 0 0 1 8.019 8.02c0 4.433-3.625 7.98-8.02 7.98Zm0-15.807a7.832 7.832 0 0 0-7.827 7.826c0 4.318 3.508 7.788 7.826 7.788s7.788-3.508 7.788-7.788S16.3 4.193 12.02 4.193Z" fill="#E6E6E6"/>
    <path d="M19.345 9.398H4.655c1.041-3.046 3.933-5.205 7.364-5.205a7.72 7.72 0 0 1 7.326 5.205Z" fill="#fff"/>
    <path d="M19.807 12.02a7.51 7.51 0 0 1-.462 2.621H4.655a7.354 7.354 0 0 1-.462-2.622c0-.925.154-1.773.462-2.621h14.728c.27.81.424 1.696.424 2.621Z" fill="#0000BF"/>
    <path d="M19.345 14.602a7.72 7.72 0 0 1-7.326 5.205 7.807 7.807 0 0 1-7.364-5.204h14.69Z" fill="#D50000"/>
    <path d="m10.824 7.239-.116 2.39s0 .077-.038.154c-.077.463-.424 1.658-1.812 2.16H8.78c-1.311-.502-1.658-1.736-1.735-2.16 0-.115-.039-.154-.039-.154L6.93 7.24c.039 0 .039-.039.077-.039.231-.115.54-.231.81-.308.193-.039.385-.077.578-.077.154 0 .309-.039.463-.039.154 0 .308 0 .462.039.193 0 .386.038.579.077.308.077.578.154.81.27.077.038.115.038.115.077Z" fill="#0000BF"/>
    <path d="M10.863 7.239c-.039 0-.039-.039-.077-.039l-.116 2.198v.193s0 .077-.039.192a2.613 2.613 0 0 1-1.735 2.044 2.613 2.613 0 0 1-1.735-2.044c-.038-.115-.038-.192-.038-.192l-.039-.193L6.97 7.2c-.039 0-.039.039-.077.039-.039 0-.039.038-.078.038l.155 2.12v.309c.038.193.115.501.27.848.23.463.694 1.08 1.58 1.427h.077c.926-.309 1.388-.925 1.581-1.427.154-.347.231-.655.27-.81v-.308l.116-2.12c.038-.077 0-.077 0-.077Z" fill="#DA1C5C"/>
    <path d="m8.896 7.701.039.116h.154l-.077.116.077.115-.154-.038-.039.154-.077-.154-.115.038.077-.115-.077-.116h.115l.077-.116ZM9.436 7.007l.039.116h.154l-.116.077.116.116h-.154l-.039.115-.077-.115h-.116l.078-.116-.078-.077h.116l.077-.116Z" fill="#FFDF00"/>
    <path d="M9.59 10.824c-.115-.077-.308-.038-.385 0-.154.116-.309.116-.309.116s-.154 0-.308-.116c-.077-.038-.27-.077-.386 0 0 0-.192.155-.385.077 0 0 .424.617 1.08.771.693-.192 1.079-.77 1.079-.77-.193.038-.386-.078-.386-.078ZM10.4 9.937l-.732-.963-.309.424-.463-.926-.462.926-.309-.424-.732.963c0 .039-.039.039-.039.078 0 .115.116.5.501.462.078 0 .155 0 .232-.077.077-.038.154-.077.308-.077s.232.039.27.077c.039.039.077.039.193.039s.154 0 .193-.039c.077-.038.115-.077.27-.077.154 0 .23.039.308.077.077.039.154.039.231.077a.467.467 0 0 0 .502-.462c.038-.039.038-.078.038-.078Z" fill="#fff"/>
    <path d="M9.899 10.631c-.116 0-.154-.038-.309-.115a.36.36 0 0 0-.347 0c-.192.115-.308.115-.308.115s-.154 0-.309-.115a.36.36 0 0 0-.347 0c-.154.077-.192.115-.308.115-.116 0-.27-.077-.347-.115l.116.193c0 .038.038.038.077.038h.193c.038 0 .115 0 .192-.038a.632.632 0 0 1 .54 0c.039.038.116.038.231.038.155 0 .193-.038.232-.038a.632.632 0 0 1 .54 0 .42.42 0 0 0 .192.038h.193c.039 0 .039-.038.077-.038l.116-.193c-.154.038-.309.115-.424.115Z" fill="#fff"/>
    <path d="m8.357 7.007-.078.116h-.115l.077.077-.077.116h.115l.078.115.038-.115h.154L8.472 7.2l.077-.077h-.154l-.038-.116Z" fill="#FFDF00"/>
</svg>
