<svg width="24" height="24" fill="none" xmlns="http://www.w3.org/2000/svg">
    <path d="M12 19.904a7.904 7.904 0 1 0 0-15.808 7.904 7.904 0 0 0 0 15.808Z" stroke="#E6E6E6" stroke-width=".5" stroke-miterlimit="10"/>
    <path d="M19.65 10.458H4.346a7.811 7.811 0 0 1 15.302 0Z" fill="#9E3039"/>
    <path d="M19.807 12c0 .524-.052 1.048-.158 1.561H4.347a7.98 7.98 0 0 1 0-3.123h15.302A7.71 7.71 0 0 1 19.807 12Z" fill="#F9F9F9"/>
    <path d="M19.65 13.562a7.811 7.811 0 0 1-15.303 0H19.65Z" fill="#9E3039"/>
</svg>
