<svg width="24" height="24" fill="none" xmlns="http://www.w3.org/2000/svg">
    <path d="M12 19.904a7.904 7.904 0 1 0 0-15.808 7.904 7.904 0 0 0 0 15.808Z" stroke="#E6E6E6" stroke-width=".5" stroke-miterlimit="10"/>
    <path d="M19.807 12a7.71 7.71 0 0 1-.447 2.602H4.64a7.796 7.796 0 0 1 0-5.204h14.72A7.71 7.71 0 0 1 19.807 12Z" fill="#0B4EA2"/>
    <path d="M19.36 9.398H4.64a7.807 7.807 0 0 1 14.72 0Z" fill="#F9F9F9"/>
    <path d="M19.36 14.602a7.806 7.806 0 0 1-14.72 0h14.72Z" fill="#EE1C25"/>
    <path d="M12.652 7.933h-6.17c-.292.597-.246 3.35-.119 4.453.309 2.675 3.204 3.67 3.204 3.67s2.9-.972 3.204-3.67c.131-1.103.177-3.856-.12-4.453Z" fill="#EE1C25"/>
    <path d="M11.456 10.816s-.123.17-1.623.17v-.829c.434-.033.87.026 1.28.174a2.313 2.313 0 0 1-.027-.467 2.29 2.29 0 0 1 .027-.463 3.724 3.724 0 0 1-1.28.185c.019-.404.078-.806.178-1.199-.148.015-.296.021-.444.02a4.072 4.072 0 0 1-.443-.02c.1.393.159.795.177 1.2A3.713 3.713 0 0 1 8.025 9.4c.021.154.029.308.023.463.006.156-.002.312-.023.467a3.046 3.046 0 0 1 1.276-.174v.829c-1.5 0-1.62-.17-1.62-.17.01.157.01.314 0 .47.01.154.01.307 0 .46a4.335 4.335 0 0 1 1.62-.182v1.253h.532v-1.253a4.357 4.357 0 0 1 1.623.181 3.776 3.776 0 0 1 0-.458 4.01 4.01 0 0 1 0-.47Z" fill="#fff"/>
    <path d="M12.1 13.928s-.644-1.35-1.542-.278c0 0-.34-.871-.987-.871-.648 0-.987.871-.987.871-.898-1.072-1.542.278-1.542.278l-.054.034.204.386 1.724 1.473.663.1.667-.1 1.7-1.508.204-.385h-.05Z" fill="#0B4EA2"/>
    <path d="M12.987 9.398a4.836 4.836 0 0 0-.216-1.542l-.039-.07H6.407l-.039.07a4.723 4.723 0 0 0-.216 1.542 22.061 22.061 0 0 0 .066 3.007c.097.818.444 1.585.995 2.197a5.4 5.4 0 0 0 .77.73c.469.36.989.647 1.543.851h.081a5.84 5.84 0 0 0 1.542-.852c.28-.217.539-.46.771-.729a4.045 4.045 0 0 0 .99-2.197c.09-1 .115-2.004.078-3.007Zm-.343 2.988a3.62 3.62 0 0 1-.54 1.542 4.17 4.17 0 0 1-.543.686 5.93 5.93 0 0 1-1.986 1.319 5.89 5.89 0 0 1-1.99-1.319 4.39 4.39 0 0 1-.547-.686 3.585 3.585 0 0 1-.544-1.542 21.613 21.613 0 0 1-.084-2.977c.001-.45.055-.9.162-1.338h5.995c.11.438.164.887.162 1.338.038.993.01 1.987-.085 2.977Z" fill="#fff"/>
</svg>
