<svg width="24" height="24" fill="none" xmlns="http://www.w3.org/2000/svg">
    <path d="M12 19.904a7.904 7.904 0 1 0 0-15.808 7.904 7.904 0 0 0 0 15.808Z" stroke="#E6E6E6" stroke-width=".5" stroke-miterlimit="10"/>
    <path d="M19.36 9.398H4.64a7.807 7.807 0 0 1 14.72 0Z" fill="#ED2939"/>
    <path d="M19.807 12c0 .887-.15 1.767-.447 2.602H4.64a7.796 7.796 0 0 1 0-5.204h14.72c.296.835.447 1.716.447 2.602Z" fill="#F9F9F9"/>
    <path d="M19.36 14.602a7.806 7.806 0 0 1-14.72 0h14.72Z" fill="#00A1DE"/>
</svg>
