<svg width="24" height="24" fill="none" xmlns="http://www.w3.org/2000/svg">
    <path d="M9.398 4.644V19.36a7.803 7.803 0 0 1 0-14.716Z" fill="#002395"/>
    <path d="M14.205 4.451v14.716a7.795 7.795 0 0 1-5.205 0V4.451a7.734 7.734 0 0 1 5.205 0Z" fill="#F9F9F9"/>
    <path d="M19.807 12.008a7.799 7.799 0 0 1-5.205 7.36V4.644a7.8 7.8 0 0 1 5.205 7.364Z" fill="#ED2939"/>
    <path d="M12 19.904a7.904 7.904 0 1 0 0-15.808 7.904 7.904 0 0 0 0 15.808Z" stroke="#E6E6E6" stroke-width=".5" stroke-miterlimit="10"/>
</svg>
