<svg width="24" height="24" fill="none" xmlns="http://www.w3.org/2000/svg">
    <path d="M19.807 12a7.44 7.44 0 0 1-.061.98A7.78 7.78 0 0 1 12 19.806h-1.43v-.131a7.58 7.58 0 0 1-1.959-.644 7.425 7.425 0 0 1-.964-.551 7.753 7.753 0 0 1-3.393-5.502 7.804 7.804 0 0 1 0-1.958 7.753 7.753 0 0 1 3.393-5.502c.307-.208.63-.392.964-.551.62-.303 1.28-.52 1.959-.644v-.131H12a7.78 7.78 0 0 1 7.745 6.828c.043.324.063.651.062.979Z" fill="#EF2B2D"/>
    <path d="M11.53 4.193v15.614h-.96v-.13a7.58 7.58 0 0 1-1.959-.645 7.413 7.413 0 0 1-.964-.55V5.518c.307-.207.63-.392.964-.551.62-.303 1.28-.52 1.959-.644v-.131h.96Z" fill="#F9F9F9"/>
    <path d="M19.807 12a7.866 7.866 0 0 1-.243 1.943H4.436a7.877 7.877 0 0 1 0-3.87h15.128A7.866 7.866 0 0 1 19.807 12Z" fill="#F9F9F9"/>
    <path d="M10.57 4.324v15.352a7.584 7.584 0 0 1-1.959-.644V4.968c.62-.303 1.28-.52 1.959-.644Z" fill="#002868"/>
    <path d="M19.807 12c.001.328-.02.655-.061.98H4.253a7.803 7.803 0 0 1 0-1.96h15.492c.042.325.062.653.061.98Z" fill="#002868"/>
    <path d="M12 19.904a7.904 7.904 0 1 0 0-15.808 7.904 7.904 0 0 0 0 15.808Z" stroke="#E6E6E6" stroke-width=".5" stroke-miterlimit="10"/>
</svg>
