<svg width="24" height="24" fill="none" xmlns="http://www.w3.org/2000/svg">
    <path d="M19.807 12c0 .373-.026.745-.077 1.114A7.819 7.819 0 0 1 12 19.807h-.887v-.054a7.684 7.684 0 0 1-2.22-.59 7.827 7.827 0 0 1-4.604-6.049 8.096 8.096 0 0 1 0-2.228 7.827 7.827 0 0 1 4.627-6.05 7.68 7.68 0 0 1 2.197-.59v-.053H12a7.819 7.819 0 0 1 7.71 6.693c.058.369.09.74.097 1.114Z" fill="#C60C30"/>
    <path d="M19.807 12c0 .373-.026.745-.077 1.114h-8.617v6.64a7.68 7.68 0 0 1-2.22-.59v-6.05H4.289a8.096 8.096 0 0 1 0-2.228h4.627v-6.05a7.68 7.68 0 0 1 2.197-.59v6.64h8.617c.051.37.077.741.077 1.114Z" fill="#F9F9F9"/>
    <path d="M12 19.904a7.904 7.904 0 1 0 0-15.808 7.904 7.904 0 0 0 0 15.808Z" stroke="#E6E6E6" stroke-width=".5" stroke-miterlimit="10"/>
</svg>
