<svg width="24" height="24" fill="none" xmlns="http://www.w3.org/2000/svg">
    <path d="M19.807 12c0 .518-.05 1.034-.15 1.542A7.815 7.815 0 0 1 12 19.807h-.563a7.75 7.75 0 0 1-3.065-.875 7.834 7.834 0 0 1-4.029-8.474 7.834 7.834 0 0 1 4.029-5.37 7.75 7.75 0 0 1 3.084-.876H12a7.815 7.815 0 0 1 7.657 6.246c.1.508.15 1.024.15 1.542Z" fill="#006AA7"/>
    <path d="M19.807 12c0 .518-.05 1.034-.15 1.542h-8.22v6.246a7.75 7.75 0 0 1-3.065-.875v-5.37H4.343a7.904 7.904 0 0 1 0-3.085h4.029v-5.37a7.75 7.75 0 0 1 3.084-.876v6.246h8.2c.1.508.15 1.024.151 1.542Z" fill="#FECC00"/>
    <path d="M12 19.904a7.904 7.904 0 1 0 0-15.808 7.904 7.904 0 0 0 0 15.808Z" stroke="#E6E6E6" stroke-width=".5" stroke-miterlimit="10"/>
</svg>
