<svg width="24" height="24" fill="none" xmlns="http://www.w3.org/2000/svg">
    <path d="M8.297 15.727h1.38c.11 0 .216-.05.288-.134L12 13.167l2.034 2.426c.07.084.176.134.288.134h1.38c.16 0 .247-.186.144-.308L12.979 12l2.87-3.42a.186.186 0 0 0-.144-.307h-1.38c-.11 0-.216.05-.288.134L12 10.833 9.965 8.407a.375.375 0 0 0-.288-.134h-1.38a.186.186 0 0 0-.143.307L11.02 12l-2.866 3.42a.186.186 0 0 0 .143.307Z" fill="#42494D"/>
    <path d="M20.625 2.625H3.375a.75.75 0 0 0-.75.75v17.25c0 .415.335.75.75.75h17.25a.75.75 0 0 0 .75-.75V3.375a.75.75 0 0 0-.75-.75Zm-.938 17.063H4.313V4.313h15.375v15.375Z" fill="#42494D"/>
</svg>
