<svg width="24" height="24" fill="none" xmlns="http://www.w3.org/2000/svg">
    <path d="M10.874 16.127a1.125 1.125 0 1 0 2.25 0 1.125 1.125 0 0 0-2.25 0Zm1.688-2.625a.188.188 0 0 0 .187-.188V6.939a.188.188 0 0 0-.188-.188h-1.124a.188.188 0 0 0-.188.188v6.375c0 .103.084.188.188.188h1.125Zm9.374-4.407h-1.39a.185.185 0 0 0-.152.078l-2.496 3.44-1.17-1.612a.185.185 0 0 0-.152-.078h-1.39a.188.188 0 0 0-.152.298l2.56 3.532a.378.378 0 0 0 .609 0l3.886-5.36a.188.188 0 0 0-.152-.298Zm-1.03 7.172H19.4a.383.383 0 0 0-.32.176 8.259 8.259 0 0 1-1.166 1.458 8.32 8.32 0 0 1-5.906 2.442A8.329 8.329 0 0 1 6.101 17.9a8.275 8.275 0 0 1-1.79-2.653 8.266 8.266 0 0 1-.657-3.246c0-1.126.22-2.22.657-3.247a8.275 8.275 0 0 1 1.79-2.653 8.32 8.32 0 0 1 5.906-2.442 8.329 8.329 0 0 1 5.907 2.442c.445.446.834.933 1.167 1.458.068.11.19.176.319.176h1.504c.14 0 .23-.148.169-.272a10.14 10.14 0 0 0-8.941-5.588C6.536 1.811 1.886 6.388 1.874 11.983c-.012 5.599 4.53 10.143 10.134 10.143 3.966 0 7.397-2.273 9.064-5.587a.187.187 0 0 0-.167-.272Z" fill="#42494D"/>
</svg>
