<svg width="24" height="24" fill="none" xmlns="http://www.w3.org/2000/svg">
    <path d="M12 1.5C6.202 1.5 1.5 6.202 1.5 12S6.202 22.5 12 22.5 22.5 17.798 22.5 12 17.798 1.5 12 1.5Zm0 19.219A8.72 8.72 0 0 1 3.281 12 8.72 8.72 0 0 1 12 3.281 8.72 8.72 0 0 1 20.719 12 8.72 8.72 0 0 1 12 20.719Z" fill="#F85A00"/>
    <path d="M12 3.281A8.72 8.72 0 0 0 3.281 12 8.72 8.72 0 0 0 12 20.719 8.72 8.72 0 0 0 20.719 12 8.72 8.72 0 0 0 12 3.281Zm4.5 9.281a.188.188 0 0 1-.188.188H12.75v3.563a.188.188 0 0 1-.188.187h-1.124a.188.188 0 0 1-.188-.188V12.75H7.687a.188.188 0 0 1-.187-.188v-1.124c0-.104.084-.188.188-.188h3.562V7.687c0-.103.084-.187.188-.187h1.124c.104 0 .188.084.188.188v3.562h3.563c.103 0 .187.084.187.188v1.124Z" fill="#F85A00" fill-opacity=".05"/>
    <path d="M16.313 11.25H12.75V7.687a.188.188 0 0 0-.188-.187h-1.124a.188.188 0 0 0-.188.188v3.562H7.687a.188.188 0 0 0-.187.188v1.124c0 .104.084.188.188.188h3.562v3.563c0 .103.084.187.188.187h1.124a.188.188 0 0 0 .188-.188V12.75h3.563a.188.188 0 0 0 .187-.188v-1.124a.188.188 0 0 0-.188-.188Z" fill="#F85A00"/>
</svg>
