<svg width="24" height="24" fill="none" xmlns="http://www.w3.org/2000/svg">
    <path d="M12 1.5C6.202 1.5 1.5 6.202 1.5 12S6.202 22.5 12 22.5 22.5 17.798 22.5 12 17.798 1.5 12 1.5Zm0 19.219A8.72 8.72 0 0 1 3.281 12 8.72 8.72 0 0 1 12 3.281 8.72 8.72 0 0 1 20.719 12 8.72 8.72 0 0 1 12 20.719Z" fill="#42494D"/>
    <path d="m16.095 14.967-3.343-2.416V6.75a.188.188 0 0 0-.187-.188h-1.127a.188.188 0 0 0-.188.188v6.455c0 .06.028.117.077.152l3.877 2.827a.19.19 0 0 0 .262-.04l.67-.914a.187.187 0 0 0-.041-.263Z" fill="#42494D"/>
</svg>
