<svg width="24" height="24" fill="none" xmlns="http://www.w3.org/2000/svg">
    <path d="M20.625 2.625H3.375a.75.75 0 0 0-.75.75v17.25c0 .415.335.75.75.75h17.25a.75.75 0 0 0 .75-.75V3.375a.75.75 0 0 0-.75-.75Zm-.938 17.063H4.313V4.313h15.375v15.375Z" fill="#F85A00"/>
    <path d="M4.313 19.688h15.375V4.313H4.313v15.375ZM8.152 8.58a.186.186 0 0 1 .144-.307h1.38c.11 0 .216.05.289.134L12 10.833l2.034-2.426a.375.375 0 0 1 .289-.134h1.38c.16 0 .246.186.143.307L12.98 12l2.866 3.42a.186.186 0 0 1-.143.307h-1.38a.382.382 0 0 1-.289-.134L12 13.167l-2.034 2.426a.375.375 0 0 1-.289.134h-1.38a.186.186 0 0 1-.143-.308L11.02 12 8.154 8.58Z" fill="#F85A00" fill-opacity=".05"/>
    <path d="M8.297 15.727h1.38c.113 0 .218-.05.288-.134L12 13.167l2.034 2.426a.382.382 0 0 0 .288.134h1.381c.16 0 .246-.186.143-.308L12.979 12l2.867-3.42a.186.186 0 0 0-.143-.307h-1.38a.375.375 0 0 0-.289.134L12 10.833 9.965 8.407a.382.382 0 0 0-.288-.134h-1.38a.186.186 0 0 0-.143.307L11.02 12l-2.866 3.42a.186.186 0 0 0 .143.307Z" fill="#F85A00"/>
</svg>
