<svg width="24" height="24" fill="none" xmlns="http://www.w3.org/2000/svg">
    <path d="M17.906 6.584a5.992 5.992 0 0 0-1.39-1.913C15.307 3.548 13.702 2.93 12 2.93s-3.307.618-4.516 1.739a6.002 6.002 0 0 0-1.39 1.915 5.656 5.656 0 0 0-.516 2.364v.633c0 .146.117.263.263.263h1.265a.262.262 0 0 0 .263-.263v-.633C7.369 6.616 9.445 4.72 12 4.72s4.631 1.896 4.631 4.228c0 .957-.34 1.857-.984 2.607a4.716 4.716 0 0 1-2.534 1.5 2.57 2.57 0 0 0-1.446.91 2.598 2.598 0 0 0-.56 1.607v.736c0 .145.117.262.263.262h1.265a.262.262 0 0 0 .263-.262v-.736a.79.79 0 0 1 .609-.771 6.538 6.538 0 0 0 3.5-2.08 5.905 5.905 0 0 0 1.037-1.733 5.675 5.675 0 0 0-.138-4.404ZM12 18.445a1.313 1.313 0 1 0 .002 2.627A1.313 1.313 0 0 0 12 18.445Z" fill="#42494D"/>
</svg>
