<svg width="24" height="24" fill="none" xmlns="http://www.w3.org/2000/svg">
    <path d="M12 1.5C6.202 1.5 1.5 6.202 1.5 12S6.202 22.5 12 22.5 22.5 17.798 22.5 12 17.798 1.5 12 1.5Zm0 19.219A8.72 8.72 0 0 1 3.281 12 8.72 8.72 0 0 1 12 3.281 8.72 8.72 0 0 1 20.719 12 8.72 8.72 0 0 1 12 20.719Z" fill="#F85A00"/>
    <path d="M12 3.281A8.72 8.72 0 0 0 3.281 12 8.72 8.72 0 0 0 12 20.719 8.72 8.72 0 0 0 20.719 12 8.72 8.72 0 0 0 12 3.281Zm4.533 5.29-4.936 6.844a.746.746 0 0 1-1.212 0l-2.92-4.05a.188.188 0 0 1 .152-.298h1.1a.75.75 0 0 1 .606.312l1.67 2.316 3.684-5.11a.746.746 0 0 1 .607-.312h1.099c.152 0 .241.174.15.298Z" fill="#F85A00" fill-opacity=".05"/>
    <path d="M16.382 8.273h-1.1a.746.746 0 0 0-.606.312l-3.685 5.11-1.668-2.316a.75.75 0 0 0-.608-.312H7.616c-.152 0-.241.174-.152.298l2.92 4.05a.746.746 0 0 0 1.212 0l4.936-6.844a.187.187 0 0 0-.15-.298Z" fill="#F85A00"/>
</svg>
