<svg width="24" height="24" fill="none" xmlns="http://www.w3.org/2000/svg">
    <path d="M12 1.5C6.202 1.5 1.5 6.202 1.5 12S6.202 22.5 12 22.5 22.5 17.798 22.5 12 17.798 1.5 12 1.5Zm6.762 16.003L6.509 5.25A8.635 8.635 0 0 0 5.25 6.509l12.253 12.253A8.72 8.72 0 0 1 3.281 12 8.72 8.72 0 0 1 12 3.281a8.72 8.72 0 0 1 6.762 14.222Z" fill="#F85A00"/>
    <path d="M12 3.281A8.72 8.72 0 0 0 3.281 12a8.72 8.72 0 0 0 14.222 6.762L5.25 6.509A8.635 8.635 0 0 1 6.509 5.25l12.253 12.253A8.72 8.72 0 0 0 12 3.281Z" fill="#F85A00" fill-opacity=".05"/>
</svg>
