<svg width="24" height="24" fill="none" xmlns="http://www.w3.org/2000/svg">
    <path d="M12 1.5C6.202 1.5 1.5 6.202 1.5 12S6.202 22.5 12 22.5 22.5 17.798 22.5 12 17.798 1.5 12 1.5Zm0 19.219A8.72 8.72 0 0 1 3.281 12 8.72 8.72 0 0 1 12 3.281 8.72 8.72 0 0 1 20.719 12 8.72 8.72 0 0 1 12 20.719Z" fill="#F85A00"/>
    <path d="M12 3.281A8.72 8.72 0 0 0 3.281 12 8.72 8.72 0 0 0 12 20.719 8.72 8.72 0 0 0 20.719 12 8.72 8.72 0 0 0 12 3.281Zm0 14.813a.937.937 0 1 1 0-1.875.937.937 0 0 1 0 1.875Zm1.474-5.145A1.133 1.133 0 0 0 12.75 14v.532a.188.188 0 0 1-.188.188h-1.124a.188.188 0 0 1-.188-.188v-.504a2.62 2.62 0 0 1 1.688-2.48c.796-.306 1.312-.974 1.312-1.703 0-1.034-1.01-1.875-2.25-1.875s-2.25.841-2.25 1.875v.178a.188.188 0 0 1-.188.187H8.438a.188.188 0 0 1-.188-.187v-.178c0-.921.403-1.781 1.134-2.421.704-.617 1.632-.954 2.616-.954.984 0 1.912.34 2.616.954.73.64 1.134 1.5 1.134 2.42 0 1.355-.893 2.574-2.276 3.106Z" fill="#F85A00" fill-opacity=".05"/>
    <path d="M11.063 17.156a.938.938 0 1 0 1.875 0 .938.938 0 0 0-1.876 0Zm3.553-9.733c-.704-.614-1.632-.954-2.616-.954-.984 0-1.912.337-2.616.954-.73.64-1.134 1.5-1.134 2.42v.179c0 .103.084.187.188.187h1.124a.188.188 0 0 0 .188-.187v-.178c0-1.034 1.01-1.875 2.25-1.875s2.25.841 2.25 1.875c0 .729-.516 1.397-1.313 1.704a2.62 2.62 0 0 0-1.22.958c-.31.446-.467.98-.467 1.521v.504c0 .103.084.188.188.188h1.124a.188.188 0 0 0 .188-.188V14a1.133 1.133 0 0 1 .724-1.05c1.383-.532 2.276-1.75 2.276-3.105 0-.921-.403-1.781-1.134-2.421Z" fill="#F85A00"/>
</svg>
