<svg width="24" height="24" fill="none" xmlns="http://www.w3.org/2000/svg">
    <path d="M20.625 2.625H3.375a.75.75 0 0 0-.75.75v17.25c0 .415.335.75.75.75h17.25a.75.75 0 0 0 .75-.75V3.375a.75.75 0 0 0-.75-.75Zm-.938 17.063H4.313V4.313h15.375v15.375Z" fill="#F85A00"/>
    <path d="M4.313 19.688h15.375V4.313H4.313v15.375Zm3.046-8.62h1.1c.239 0 .466.114.607.31l1.668 2.316 3.685-5.109a.75.75 0 0 1 .607-.312h1.099c.152 0 .241.174.152.298l-4.936 6.844a.745.745 0 0 1-1.211 0l-2.923-4.05a.188.188 0 0 1 .152-.298Z" fill="#F85A00" fill-opacity=".05"/>
    <path d="M10.129 15.415a.745.745 0 0 0 1.212 0l4.935-6.844a.188.188 0 0 0-.152-.298h-1.1a.75.75 0 0 0-.606.312l-3.684 5.11-1.67-2.316a.746.746 0 0 0-.606-.312h-1.1c-.152 0-.241.174-.152.298l2.923 4.05Z" fill="#F85A00"/>
</svg>
