<svg width="24" height="24" fill="none" xmlns="http://www.w3.org/2000/svg">
    <path d="M20.625 2.625H3.375a.75.75 0 0 0-.75.75v17.25c0 .415.335.75.75.75h17.25a.75.75 0 0 0 .75-.75V3.375a.75.75 0 0 0-.75-.75Zm-4.779 12.794a.186.186 0 0 1-.143.308h-1.38a.382.382 0 0 1-.289-.134L12 13.167l-2.034 2.426a.375.375 0 0 1-.289.134h-1.38a.186.186 0 0 1-.143-.308L11.02 12 8.154 8.58a.186.186 0 0 1 .143-.307h1.38c.11 0 .216.05.289.134L12 10.833l2.034-2.426a.375.375 0 0 1 .289-.134h1.38c.16 0 .246.186.143.307L12.98 12l2.866 3.42Z" fill="#42494D"/>
</svg>
