<svg width="24" height="24" fill="none" xmlns="http://www.w3.org/2000/svg">
    <path d="M12 1.5C6.202 1.5 1.5 6.202 1.5 12S6.202 22.5 12 22.5 22.5 17.798 22.5 12 17.798 1.5 12 1.5Zm0 19.219A8.72 8.72 0 0 1 3.281 12 8.72 8.72 0 0 1 12 3.281 8.72 8.72 0 0 1 20.719 12 8.72 8.72 0 0 1 12 20.719Z" fill="#F85A00"/>
    <path d="M12 3.281A8.72 8.72 0 0 0 3.281 12 8.72 8.72 0 0 0 12 20.719 8.72 8.72 0 0 0 20.719 12 8.72 8.72 0 0 0 12 3.281Zm-.75 3.656c0-.103.084-.187.188-.187h1.124c.104 0 .188.084.188.188v6.375a.188.188 0 0 1-.188.187h-1.124a.188.188 0 0 1-.188-.188V6.939ZM12 17.25A1.125 1.125 0 0 1 12 15a1.125 1.125 0 0 1 0 2.25Z" fill="#F85A00" fill-opacity=".05"/>
    <path d="M11.438 13.5h1.124a.188.188 0 0 0 .188-.188V6.939a.188.188 0 0 0-.188-.188h-1.124a.188.188 0 0 0-.188.188v6.375c0 .103.084.187.188.187Zm-.563 2.625a1.125 1.125 0 1 0 2.25 0 1.125 1.125 0 0 0-2.25 0Z" fill="#F85A00"/>
</svg>
