<svg width="24" height="24" fill="none" xmlns="http://www.w3.org/2000/svg">
    <path d="M22.4 20.063 12.65 3.188a.741.741 0 0 0-.65-.376.739.739 0 0 0-.65.376L1.6 20.063a.75.75 0 0 0 .65 1.125h19.5a.75.75 0 0 0 .65-1.125Zm-18.364-.654L12 5.623l7.964 13.786H4.036Z" fill="#F85A00"/>
    <path d="M4.037 19.409h15.928L12 5.623 4.037 19.409Zm9.089-2.534a1.125 1.125 0 0 1-2.25 0 1.125 1.125 0 0 1 2.25 0ZM12.75 9.75v4.313a.188.188 0 0 1-.188.187h-1.125a.188.188 0 0 1-.187-.187V9.75c0-.103.084-.187.187-.187h1.125c.103 0 .188.084.188.187Z" fill="#F85A00" fill-opacity=".05"/>
    <path d="M10.875 16.875a1.125 1.125 0 1 0 2.25 0 1.125 1.125 0 0 0-2.25 0Zm.375-7.125v4.313c0 .103.084.187.188.187h1.124a.188.188 0 0 0 .188-.188V9.75a.188.188 0 0 0-.188-.188h-1.124a.188.188 0 0 0-.188.188Z" fill="#F85A00"/>
</svg>
