<svg width="24" height="24" fill="none" xmlns="http://www.w3.org/2000/svg">
    <path d="M12 1.5C6.202 1.5 1.5 6.202 1.5 12S6.202 22.5 12 22.5 22.5 17.798 22.5 12 17.798 1.5 12 1.5Zm0 19.219A8.72 8.72 0 0 1 3.281 12 8.72 8.72 0 0 1 12 3.281 8.72 8.72 0 0 1 20.719 12 8.72 8.72 0 0 1 12 20.719Z" fill="#F85A00"/>
    <path d="M12 3.281A8.72 8.72 0 0 0 3.281 12 8.72 8.72 0 0 0 12 20.719 8.72 8.72 0 0 0 20.719 12 8.72 8.72 0 0 0 12 3.281Zm4.027 12.354a.195.195 0 0 1 .044.122.187.187 0 0 1-.187.188l-1.547-.008-2.328-2.774-2.327 2.777-1.55.007a.188.188 0 0 1-.142-.31l3.05-3.63-3.05-3.633a.195.195 0 0 1-.045-.122c0-.105.085-.187.188-.187l1.549.007 2.327 2.775 2.33-2.777 1.547-.008c.103 0 .187.085.187.188 0 .045-.014.09-.042.122l-3.049 3.633 3.045 3.63Z" fill="#F85A00" fill-opacity=".05"/>
    <path d="M16.073 8.25a.188.188 0 0 0-.187-.188l-1.547.008-2.33 2.777-2.327-2.775-1.55-.007a.187.187 0 0 0-.187.187c0 .045.017.087.045.122l3.05 3.633-3.05 3.63a.188.188 0 0 0 .143.31l1.549-.007 2.327-2.777 2.328 2.774 1.547.008a.187.187 0 0 0 .187-.188.195.195 0 0 0-.044-.122l-3.045-3.63 3.05-3.633a.188.188 0 0 0 .041-.122Z" fill="#F85A00"/>
</svg>
