<svg width="24" height="24" fill="none" xmlns="http://www.w3.org/2000/svg">
    <path d="M20.625 2.625H3.375a.75.75 0 0 0-.75.75v17.25c0 .415.335.75.75.75h17.25a.75.75 0 0 0 .75-.75V3.375a.75.75 0 0 0-.75-.75Zm-.938 17.063H4.313V4.313h15.375v15.375Z" fill="#F85A00"/>
    <path d="M4.313 19.688h15.375V4.313H4.313v15.375Zm3.187-8.25c0-.104.084-.188.188-.188h3.562V7.687c0-.103.084-.187.188-.187h1.124c.104 0 .188.084.188.188v3.562h3.563c.103 0 .187.084.187.188v1.124a.188.188 0 0 1-.188.188H12.75v3.563a.188.188 0 0 1-.188.187h-1.124a.188.188 0 0 1-.188-.188V12.75H7.687a.188.188 0 0 1-.187-.188v-1.124Z" fill="#F85A00" fill-opacity=".05"/>
    <path d="M7.688 12.75h3.562v3.563c0 .103.084.187.188.187h1.124a.188.188 0 0 0 .188-.188V12.75h3.563a.188.188 0 0 0 .187-.188v-1.124a.188.188 0 0 0-.188-.188H12.75V7.687a.188.188 0 0 0-.188-.187h-1.124a.188.188 0 0 0-.188.188v3.562H7.687a.188.188 0 0 0-.187.188v1.124c0 .104.084.188.188.188Z" fill="#F85A00"/>
</svg>
